<svg id="Capa_1" enable-background="new 0 0 512 512" height="512" viewBox="0 0 512 512" width="512" xmlns="http://www.w3.org/2000/svg"><circle cx="256" cy="256" fill="#f7f7f7" r="256"/><path d="m486.501 213.069v85.861c0 2.413-.684 4.655-1.864 6.564-2.206 3.53-6.114 5.88-10.58 5.88h-30.947c-3.908 13.226-9.175 25.877-15.649 37.771l21.889 21.889c4.854 4.854 4.854 12.732 0 17.594l-60.722 60.714c-4.854 4.862-12.731 4.862-17.594 0l-21.879-21.879c-11.894 6.474-24.545 11.742-37.78 15.649v30.947c0 6.87-5.574 12.444-12.444 12.444h-85.861c-6.87 0-12.444-5.574-12.444-12.444v-30.947c-13.226-3.908-25.877-9.175-37.771-15.649l-21.889 21.879c-4.862 4.862-12.74 4.862-17.594 0l-60.714-60.714c-4.862-4.862-4.862-12.74 0-17.594l21.879-21.889c-6.474-11.894-11.742-24.545-15.648-37.771h-30.947c-6.87 0-12.444-5.574-12.444-12.444v-85.861c0-6.88 5.573-12.444 12.444-12.444h30.947c3.908-13.236 9.175-25.886 15.648-37.78l-21.879-21.879c-4.862-4.862-4.862-12.74 0-17.602l60.714-60.714c4.854-4.854 12.732-4.854 17.594 0l21.889 21.889c11.894-6.483 24.545-11.742 37.771-15.649v-30.948c0-6.88 5.573-12.444 12.444-12.444h85.861c6.87 0 12.444 5.564 12.444 12.444v30.947c13.236 3.908 25.886 9.166 37.78 15.649l21.879-21.889c4.862-4.854 12.74-4.854 17.594 0l60.722 60.714c4.854 4.862 4.854 12.74 0 17.602l-21.889 21.879c6.474 11.894 11.742 24.545 15.649 37.78h30.947c6.871.002 12.444 5.566 12.444 12.445z" fill="#537bc1"/><path d="m484.637 305.495c-2.206 3.53-6.114 5.88-10.58 5.88h-30.947c-3.908 13.226-9.175 25.877-15.649 37.771l21.889 21.889c4.854 4.854 4.854 12.732 0 17.594l-60.722 60.714c-4.854 4.862-12.731 4.862-17.594 0l-21.879-21.879c-11.894 6.474-24.545 11.742-37.78 15.649v30.947c0 6.87-5.574 12.444-12.444 12.444h-17.854l-121.13-215.176 40.68-129.603 146.656 146.654 4.349-115.89z" fill="#416198"/><path d="m311.374 346.949v127.109c0 2.026-.486 3.943-1.351 5.628-2.044 4.043-6.249 6.816-11.093 6.816h-85.861c-6.87 0-12.444-5.573-12.444-12.444v-127.109z" fill="#fccd30"/><path d="m311.374 346.949v127.109c0 2.026-.486 3.943-1.351 5.628l-109.397-109.408v-23.329z" fill="#c29f26"/><path d="m311.375 141.717v119.703l-55.374 21.61-55.374-21.61v-119.703c-42.375 20.571-71.59 64.013-71.59 114.279 0 70.12 56.843 126.965 126.963 126.965s126.963-56.843 126.963-126.965c.001-50.266-29.213-93.708-71.588-114.279z" fill="#fccd30"/></svg>