<?xml version="1.0" encoding="iso-8859-1"?>
<!-- Generator: Adobe Illustrator 19.0.0, SVG Export Plug-In . SVG Version: 6.00 Build 0)  -->
<svg version="1.1" id="Capa_1" xmlns="http://www.w3.org/2000/svg" xmlns:xlink="http://www.w3.org/1999/xlink" x="0px" y="0px"
	 viewBox="0 0 488.002 488.002" style="enable-background:new 0 0 488.002 488.002;" xml:space="preserve">
<polygon style="fill:#EBE5DD;" points="52.001,112.002 244.001,8.002 436.001,112.002 476.001,112.002 476.001,144.002 
	460.001,144.002 460.001,176.002 28.001,176.002 28.001,144.002 12.001,144.002 12.001,112.002 "/>
<rect x="12.001" y="112.002" style="fill:#D4C8B8;" width="464" height="16"/>
<polygon style="fill:#E7B900;" points="358.667,112.002 380.001,112.002 244.001,40.002 108.001,112.002 177.334,112.002 
	268.001,64.002 "/>
<polygon style="fill:#FFD422;" points="268.001,64.002 177.334,112.002 358.667,112.002 "/>
<rect x="28.001" y="416.002" style="fill:#EBE5DD;" width="432" height="32"/>
<g>
	<rect x="28.001" y="144.002" style="fill:#D4C8B8;" width="432" height="16"/>
	<rect x="28.001" y="432.002" style="fill:#D4C8B8;" width="432" height="16"/>
</g>
<rect x="12.001" y="448.002" style="fill:#EBE5DD;" width="464" height="32"/>
<rect x="12.001" y="464.002" style="fill:#D4C8B8;" width="464" height="16"/>
<rect x="404.001" y="208.002" style="fill:#5EAC24;" width="24" height="176"/>
<rect x="428.001" y="208.002" style="fill:#69C229;" width="16" height="176"/>
<polygon style="fill:#47821B;" points="316.001,208.002 316.001,232.002 316.001,360.002 316.001,384.002 340.001,384.002 
	340.001,208.002 "/>
<g>
	<rect x="340.001" y="208.002" style="fill:#5EAC24;" width="16" height="176"/>
	<rect x="60.001" y="208.002" style="fill:#5EAC24;" width="24" height="176"/>
</g>
<rect x="44.001" y="208.002" style="fill:#69C229;" width="16" height="176"/>
<polygon style="fill:#47821B;" points="172.001,208.002 172.001,232.002 172.001,360.002 172.001,384.002 148.001,384.002 
	148.001,208.002 "/>
<rect x="132.001" y="208.002" style="fill:#5EAC24;" width="16" height="176"/>
<circle style="fill:#FFD422;" cx="244.001" cy="296.002" r="64"/>
<g>
	<path style="fill:#FFFFFF;" d="M209.716,266.908l-11.438-11.188c12.152-12.418,28.391-19.258,45.723-19.258v16
		C231.009,252.463,218.833,257.592,209.716,266.908z"/>
	<path style="fill:#FFFFFF;" d="M269.005,359.365l-6.25-14.727c11.957-5.078,21.164-14.559,25.914-26.695l14.898,5.836
		C297.235,339.955,284.958,352.592,269.005,359.365z"/>
</g>
<g>
	<path style="fill:#E7B900;" d="M244.001,216.002c-44.113,0-80,35.887-80,80s35.887,80,80,80s80-35.887,80-80
		S288.114,216.002,244.001,216.002z M244.001,360.002c-35.289,0-64-28.711-64-64s28.711-64,64-64s64,28.711,64,64
		S279.29,360.002,244.001,360.002z"/>
	<path style="fill:#E7B900;" d="M268.001,312.002c0-13.234-10.766-24-24-24c-4.41,0-8-3.59-8-8s3.59-8,8-8h16v-16h-8v-8h-16v9.474
		c-9.292,3.313-16,12.11-16,22.526c0,13.234,10.766,24,24,24c4.41,0,8,3.59,8,8s-3.59,8-8,8h-16v16h8v8h16v-9.474
		C261.293,331.215,268.001,322.417,268.001,312.002z"/>
</g>
<path d="M476.001,104.002h-37.973L247.81,0.967c-2.375-1.289-5.242-1.289-7.617,0L49.974,104.002H12.001c-4.418,0-8,3.582-8,8v32
	c0,4.418,3.582,8,8,8h8v24c0,4.418,3.582,8,8,8h432c4.418,0,8-3.582,8-8v-24h8c4.418,0,8-3.582,8-8v-32
	C484.001,107.584,480.419,104.002,476.001,104.002z M244.001,17.1l160.435,86.902h-22.448l-134.244-71.07
	c-2.336-1.242-5.148-1.242-7.484,0l-134.244,71.07H83.566L244.001,17.1z M347.793,104.002H140.209l103.792-54.949L347.793,104.002z
	 M36.001,168.002v-16h416v16H36.001z M468.001,136.002h-8h-432h-8v-16h32h384h32V136.002z"/>
<path d="M244.001,216.002c-44.113,0-80,35.887-80,80s35.887,80,80,80s80-35.887,80-80S288.114,216.002,244.001,216.002z
	 M244.001,360.002c-35.289,0-64-28.711-64-64s28.711-64,64-64s64,28.711,64,64S279.29,360.002,244.001,360.002z"/>
<path d="M244.001,288.002c-4.41,0-8-3.59-8-8s3.59-8,8-8h16v-16h-8v-8h-16v9.474c-9.292,3.313-16,12.11-16,22.526
	c0,13.234,10.766,24,24,24c4.41,0,8,3.59,8,8s-3.59,8-8,8h-16v16h8v8h16v-9.474c9.292-3.313,16-12.11,16-22.526
	C268.001,298.768,257.235,288.002,244.001,288.002z"/>
<path d="M476.001,440.002h-8v-24c0-4.418-3.582-8-8-8h-432c-4.418,0-8,3.582-8,8v24h-8c-4.418,0-8,3.582-8,8v32c0,4.418,3.582,8,8,8
	h464c4.418,0,8-3.582,8-8v-32C484.001,443.584,480.419,440.002,476.001,440.002z M36.001,424.002h416v16h-416V424.002z
	 M468.001,472.002h-448v-16h448V472.002z"/>
<path d="M84.001,392.002c4.418,0,8-3.582,8-8v-176c0-4.418-3.582-8-8-8h-40c-4.418,0-8,3.582-8,8v176c0,4.418,3.582,8,8,8H84.001z
	 M52.001,216.002h24v160h-24V216.002z"/>
<path d="M172.001,200.002h-40c-4.418,0-8,3.582-8,8v176c0,4.418,3.582,8,8,8h40c4.418,0,8-3.582,8-8v-24h-16v16h-24v-160h24v16h16
	v-24C180.001,203.584,176.419,200.002,172.001,200.002z"/>
<path d="M308.001,360.002v24c0,4.418,3.582,8,8,8h40c4.418,0,8-3.582,8-8v-176c0-4.418-3.582-8-8-8h-40c-4.418,0-8,3.582-8,8v24h16
	v-16h24v160h-24v-16H308.001z"/>
<path d="M444.001,392.002c4.418,0,8-3.582,8-8v-176c0-4.418-3.582-8-8-8h-40c-4.418,0-8,3.582-8,8v176c0,4.418,3.582,8,8,8H444.001z
	 M412.001,216.002h24v160h-24V216.002z"/>
<g>
</g>
<g>
</g>
<g>
</g>
<g>
</g>
<g>
</g>
<g>
</g>
<g>
</g>
<g>
</g>
<g>
</g>
<g>
</g>
<g>
</g>
<g>
</g>
<g>
</g>
<g>
</g>
<g>
</g>
</svg>
