<svg id="Layer_1" enable-background="new 0 0 479.999 479.999" height="512" viewBox="0 0 479.999 479.999" width="512" xmlns="http://www.w3.org/2000/svg"><path d="m380 91.896c26.51 0 48 21.49 48 48l-.02 151.45c0 24.799-21.31 46.76-47.98 46.76h-324c-26.51 0-48-21.49-48-48v-150.21c0-26.51 21.49-48 48-48z" fill="#befa91"/><path d="m465.831 435.684-28.113 28.113c-3.317 3.317-8.763 3.081-11.781-.51l-39.465-46.954c-3.018-3.591-8.464-3.826-11.781-.51l-12.764 12.764c-4.282 4.282-11.586 2.432-13.323-3.369-24.364-81.397-25.33-84.629-29.346-98.036-1.827-6.1 3.862-11.786 9.962-9.96 73.873 22.112 58.005 17.361 98.035 29.348 5.8 1.737 7.652 9.04 3.372 13.322l-12.77 12.775c-3.316 3.317-3.08 8.763.511 11.781l46.953 39.456c3.591 3.017 3.827 8.463.51 11.78z" fill="#d6f4fc"/><path d="m380.689 131.858c-31.235-.015-84.51.013-176.006.028-83.441.014-156.689 66.171-156.715 159.012-.008 25.98-39.968 27.635-39.968-.792v-150.21c0-26.51 21.49-48 48-48 2.223 0 324.399-.018 325.791.033 25.906.95 24.822 39.942-1.102 39.929z" fill="#d0ffad"/><path d="m372.381 404.427c1.943 6.483.177 13.516-4.604 18.306-1.576 1.579-3.498 3.504-5.847 5.852-4.28 4.28-11.59 2.43-13.33-3.37-24.36-81.39-25.33-84.63-29.34-98.03-1.83-6.1 3.86-11.79 9.96-9.96 3.237.968 6.304 1.886 9.212 2.755 5.999 1.794 10.675 6.507 12.412 12.523 2.646 9.171 8.595 28.741 21.537 71.924z" fill="#e8f8fc"/><path d="m154.065 382.608c3.124 3.124 3.124 8.189 0 11.313l-9.899 9.899c-1.563 1.562-3.609 2.343-5.657 2.343-7.063 0-10.712-8.602-5.657-13.657l9.899-9.899c3.125-3.123 8.189-3.123 11.314.001zm121.435-52.505h-219.5c-22.056 0-40-17.944-40-40v-150.206c0-22.056 17.944-40 40-40h324c22.056 0 40 17.944 40 40v103.319c0 4.418 3.582 8 8 8s8-3.582 8-8v-103.319c0-30.878-25.121-56-56-56h-324c-30.879 0-56 25.122-56 56v150.207c0 30.878 25.121 56 56 56h219.5c4.418 0 8-3.582 8-8s-3.582-8.001-8-8.001zm-132.749-282.711c1.563 1.562 3.609 2.343 5.657 2.343 7.063 0 10.712-8.602 5.657-13.657l-9.899-9.899c-3.125-3.124-8.189-3.124-11.314 0-3.124 3.124-3.124 8.189 0 11.313zm75.249-15.358c4.418 0 8-3.582 8-8v-14c0-4.418-3.582-8-8-8s-8 3.582-8 8v14c0 4.419 3.582 8 8 8zm75.249 15.358 9.899-9.899c3.124-3.124 3.124-8.189 0-11.313-3.125-3.124-8.189-3.124-11.314 0l-9.899 9.899c-3.124 3.124-3.124 8.189 0 11.313 3.125 3.125 8.189 3.124 11.314 0zm-75.249 350.574c-4.418 0-8 3.582-8 8v14c0 4.418 3.582 8 8 8s8-3.582 8-8v-14c0-4.419-3.582-8-8-8zm259.146 25.421-53.633-45.068 22.245-22.245c4.28-4.281 2.426-11.587-3.363-13.321l-125.102-37.451c-6.093-1.824-11.781 3.872-9.958 9.958l37.451 125.101c1.731 5.783 9.036 7.645 13.321 3.362l28.414-28.414c3.124-3.124 3.124-8.189 0-11.313-3.125-3.124-8.189-3.124-11.314 0l-18.937 18.937-29.353-98.048 98.049 29.353-18.938 18.937c-3.314 3.314-3.08 8.765.511 11.781l53.633 45.068-28.115 28.116-15.532-18.484c-2.843-3.383-7.889-3.82-11.271-.979-3.383 2.843-3.82 7.889-.979 11.271l21.145 25.164c3.018 3.591 8.466 3.825 11.782.51l40.454-40.454c3.316-3.315 3.081-8.765-.51-11.781zm-333.064-208.387c7.077 6.079 11.573 15.083 11.573 25.123 0 4.418-3.582 8-8 8s-8-3.582-8-8c0-9.442-7.682-17.123-17.123-17.123h-27.173v34.246h27.173c4.418 0 8 3.582 8 8s-3.582 8-8 8h-35.173c-4.418 0-8-3.582-8-8 0-10.623 0-89.839 0-100.493 0-4.418 3.582-8 8-8h35.173c30.522.001 44.884 38.203 21.55 58.247zm-4.427-25.123c0-9.442-7.682-17.123-17.123-17.123h-27.173v34.246h27.173c9.442 0 17.123-7.681 17.123-17.123zm48.198-33.123c-4.418 0-8 3.582-8 8v70.345c0 21.035 17.113 38.148 38.147 38.148s38.147-17.113 38.147-38.148v-70.345c0-4.418-3.582-8-8-8s-8 3.582-8 8v70.345c0 12.212-9.936 22.148-22.147 22.148s-22.147-9.936-22.147-22.148v-70.345c0-4.419-3.582-8-8-8zm240.147 115.212c-4.418 0-8 3.582-8 8v10.138c0 4.418 3.582 8 8 8s8-3.582 8-8v-10.138c0-4.419-3.582-8-8-8zm-109.508 1.266c4.418 0 8-3.582 8-8v-48.015l29.009-48.347c2.272-3.789 1.044-8.703-2.744-10.976-3.792-2.275-8.703-1.044-10.977 2.744l-23.288 38.813-23.287-38.813c-2.272-3.789-7.186-5.017-10.977-2.744-3.788 2.273-5.017 7.187-2.744 10.976l29.008 48.347v48.016c0 4.418 3.582 7.999 8 7.999z"/></svg>