<svg id="Capa_1" enable-background="new 0 0 512 512" height="512" viewBox="0 0 512 512" width="512" xmlns="http://www.w3.org/2000/svg" xmlns:xlink="http://www.w3.org/1999/xlink"><linearGradient id="SVGID_1_" gradientUnits="userSpaceOnUse" x1="256" x2="256" y1="512" y2="0"><stop offset="0" stop-color="#009efd"/><stop offset="1" stop-color="#2af598"/></linearGradient><g><g><path d="m196 316c-33.084 0-60 26.916-60 60s26.916 60 60 60 60-26.916 60-60-26.916-60-60-60zm0 80c-11.028 0-20-8.972-20-20s8.972-20 20-20 20 8.972 20 20-8.972 20-20 20zm100-120h80v-40h-80zm100-236h-60v-40h-160v40h-60c-33.084 0-60 26.916-60 60v352c0 33.084 26.916 60 60 60h280c33.084 0 60-26.916 60-60v-352c0-33.084-26.916-60-60-60zm-180 0h80v40h-80zm200 412c0 11.028-8.972 20-20 20h-280c-11.028 0-20-8.972-20-20v-352c0-11.028 8.972-20 20-20h60v40h160v-40h60c11.028 0 20 8.972 20 20zm-220-230.534-25.858-25.858-28.284 28.284 54.142 54.142 94.142-94.142-28.284-28.284zm100 174.534h80v-40h-80z" fill="url(#SVGID_1_)"/></g></g></svg>