<svg id="Capa_1" enable-background="new 0 0 512 512" height="512" viewBox="0 0 512 512" width="512" xmlns="http://www.w3.org/2000/svg"><g><g><path d="m367.876 46.853c0-21.686 17.58-39.266 39.266-39.266h-305.632c-17.246 0-31.226 13.98-31.226 31.226v355.585h297.592v-288.279z" fill="#ffe07d"/></g><path d="m383.436 7.586c-21.686 0-39.266 17.58-39.266 39.266v39.266 20 96.449c0 9.162-6.018 17.312-14.835 19.799-65.025 18.335-112.685 78.087-112.685 148.978 0 18.637 3.296 36.504 9.333 53.053h118.187 23.706v-318.278-59.266c0-21.686 17.58-39.266 39.266-39.266h-23.706z" fill="#ffd064"/><path d="m332.001 424.397h-268.985c-30.66 0-55.516-24.855-55.516-55.516v-14.537h324.5v70.053z" fill="#eab14d"/><path d="m216.649 371.345c0 18.637 3.296 36.504 9.333 53.053h106.018v-70.053h-114.418c-.61 5.584-.933 11.254-.933 17z" fill="#e49542"/><circle cx="371.431" cy="371.345" fill="#dd636e" r="133.069"/><path d="m371.431 238.276c-3.528 0-7.023.14-10.482.41 68.592 5.345 122.587 62.695 122.587 132.659s-53.994 127.314-122.586 132.659c3.459.27 6.954.41 10.482.41 73.492 0 133.069-59.577 133.069-133.069s-59.578-133.069-133.07-133.069z" fill="#da4a54"/><circle cx="371.431" cy="371.345" fill="#f4fbff" r="99.255"/><path d="m371.431 272.09c-4.599 0-9.123.32-13.556.925 48.403 6.611 85.7 48.112 85.7 98.33s-37.297 91.719-85.7 98.33c4.433.605 8.957.925 13.556.925 54.817 0 99.255-44.438 99.255-99.255s-44.438-99.255-99.255-99.255z" fill="#daf1f4"/><path d="m439.419 106.119h-71.543v-59.266c0-21.686 17.58-39.266 39.266-39.266 21.686 0 39.266 17.58 39.266 39.266v52.277c.001 3.86-3.129 6.989-6.989 6.989z" fill="#eab14d"/><path d="m419.934 9.729c-4.011-1.382-8.311-2.143-12.791-2.143-21.686 0-39.266 17.58-39.266 39.266v59.266h25.583v-59.265c-.001-17.206 11.07-31.817 26.474-37.124z" fill="#e49542"/><g><path d="m320.418 60.309h-196.727c-4.143 0-7.5 3.357-7.5 7.5s3.357 7.5 7.5 7.5h196.727c4.143 0 7.5-3.357 7.5-7.5s-3.357-7.5-7.5-7.5z"/><path d="m320.418 135.097h-196.727c-4.143 0-7.5 3.357-7.5 7.5s3.357 7.5 7.5 7.5h196.727c4.143 0 7.5-3.357 7.5-7.5s-3.357-7.5-7.5-7.5z"/><path d="m320.418 209.886h-196.727c-4.143 0-7.5 3.357-7.5 7.5s3.357 7.5 7.5 7.5h196.727c4.143 0 7.5-3.357 7.5-7.5s-3.357-7.5-7.5-7.5z"/><path d="m371.432 264.589c-58.865 0-106.755 47.89-106.755 106.755s47.889 106.756 106.755 106.756 106.755-47.891 106.755-106.756-47.89-106.755-106.755-106.755zm0 198.511c-50.594 0-91.755-41.161-91.755-91.756 0-50.594 41.161-91.755 91.755-91.755s91.755 41.161 91.755 91.755c0 50.595-41.162 91.756-91.755 91.756z"/><path d="m371.432 310.136c4.143 0 7.5-3.357 7.5-7.5v-3.436c0-4.143-3.357-7.5-7.5-7.5s-7.5 3.357-7.5 7.5v3.436c0 4.143 3.357 7.5 7.5 7.5z"/><path d="m417.144 315.027-2.43 2.429c-2.93 2.929-2.931 7.678-.003 10.606 2.926 2.928 7.675 2.933 10.606.003l2.43-2.429c2.93-2.929 2.931-7.678.003-10.606-2.929-2.931-7.678-2.93-10.606-.003z"/><path d="m432.64 371.344c0 4.143 3.357 7.5 7.5 7.5h3.436c4.143 0 7.5-3.357 7.5-7.5s-3.357-7.5-7.5-7.5h-3.436c-4.143 0-7.5 3.358-7.5 7.5z"/><path d="m302.723 363.844h-3.436c-4.143 0-7.5 3.357-7.5 7.5s3.357 7.5 7.5 7.5h3.436c4.143 0 7.5-3.357 7.5-7.5s-3.358-7.5-7.5-7.5z"/><path d="m425.317 414.625c-2.93-2.93-7.679-2.929-10.606.003-2.928 2.929-2.927 7.678.003 10.606l2.43 2.429c2.926 2.926 7.677 2.929 10.606-.003 2.928-2.929 2.927-7.678-.003-10.606z"/><path d="m371.432 432.553c-4.143 0-7.5 3.357-7.5 7.5v3.436c0 4.143 3.357 7.5 7.5 7.5s7.5-3.357 7.5-7.5v-3.436c0-4.142-3.358-7.5-7.5-7.5z"/><path d="m317.543 414.625-2.429 2.429c-2.929 2.93-2.929 7.678 0 10.607 2.931 2.929 7.678 2.928 10.607 0l2.429-2.429c2.929-2.93 2.929-7.678 0-10.607-2.929-2.927-7.677-2.927-10.607 0z"/><path d="m325.722 315.028c-2.93-2.928-7.678-2.928-10.607 0-2.929 2.93-2.929 7.678 0 10.607l2.429 2.429c2.931 2.929 7.678 2.928 10.607 0 2.929-2.93 2.929-7.678 0-10.607z"/><path d="m391.874 363.844h-12.942v-32.084c0-4.143-3.357-7.5-7.5-7.5s-7.5 3.357-7.5 7.5v39.584c0 4.143 3.357 7.5 7.5 7.5h20.442c4.143 0 7.5-3.357 7.5-7.5s-3.357-7.5-7.5-7.5z"/><path d="m485.521 289.224c-2.424-3.36-7.11-4.117-10.471-1.697-3.359 2.423-4.119 7.11-1.697 10.471 15.47 21.455 23.647 46.818 23.647 73.346 0 69.239-56.33 125.569-125.568 125.569-69.239 0-125.569-56.33-125.569-125.569 0-69.238 56.33-125.568 125.569-125.568 30.53 0 59.962 11.095 82.873 31.24 3.109 2.732 7.85 2.431 10.585-.681 2.734-3.11 2.431-7.85-.681-10.585-24.662-21.685-56.072-33.996-88.833-34.913v-117.218h64.043c7.989 0 14.489-6.5 14.489-14.489v-52.277c0-26.351-21.828-46.767-45.995-46.767h-176.27c-4.143 0-7.5 3.357-7.5 7.5s3.357 7.5 7.5 7.5h141.219c-7.741 8.348-12.486 19.511-12.486 31.767v184.356c-40.323 3.152-75.922 23.391-99.542 53.465h-137.143c-4.143 0-7.5 3.357-7.5 7.5s3.357 7.5 7.5 7.5h126.861c-8.507 14.293-14.556 30.209-17.549 47.17h-155.219v-308.032c0-13.082 10.644-23.726 23.726-23.726h100.146c4.143 0 7.5-3.357 7.5-7.5s-3.357-7.5-7.5-7.5h-100.146c-21.354 0-38.726 17.372-38.726 38.726v308.032h-55.284c-4.143 0-7.5 3.357-7.5 7.5v14.537c0 34.747 28.27 63.016 63.017 63.016h24.154c4.143 0 7.5-3.357 7.5-7.5s-3.357-7.5-7.5-7.5h-24.154c-26.477 0-48.017-21.54-48.017-48.016v-7.037h216.19c-.211 3.141-.328 6.307-.328 9.5 0 15.937 2.671 31.26 7.58 45.553h-121.284c-4.143 0-7.5 3.357-7.5 7.5s3.357 7.5 7.5 7.5h127.43c22.664 47.284 71.002 80.017 126.843 80.017 77.51 0 140.568-63.06 140.568-140.569.001-29.698-9.155-58.095-26.478-82.121zm-46.613-242.371v51.766h-63.532v-51.766c0-17.517 14.25-31.767 31.767-31.767 17.515 0 31.765 14.25 31.765 31.767z"/></g></g></svg>