<svg height="512" viewBox="0 0 512 512" width="512" xmlns="http://www.w3.org/2000/svg"><g id="Filled-Outline"><g id="website-web-management_copy" data-name="website-web-management copy"><path d="m360 344h32v48h-32z" fill="#ffd648"/><path d="m328 264h32v48h-32z" fill="#ffd648"/><path d="m376 184h32v48h-32z" fill="#ffd648"/><path d="m360 344h16v48h-16z" fill="#ffb300"/><path d="m328 264h16v48h-16z" fill="#ffb300"/><path d="m376 184h16v48h-16z" fill="#ffb300"/><path d="m280 261.22-16.06 12.31a88.57 88.57 0 0 1 0 28.94l16.06 12.31c-6.11 14.75-5.42 13.09-11.54 27.84l-20.07-2.66a89.417 89.417 0 0 1 -20.43 20.43l2.66 20.07c-14.75 6.12-13.09 5.43-27.84 11.54l-12.31-16.06a88.57 88.57 0 0 1 -28.94 0l-12.31 16.06c-14.75-6.11-13.09-5.42-27.84-11.54l2.66-20.07a89.616 89.616 0 0 1 -20.43-20.43l-20.07 2.66c-6.12-14.75-5.43-13.09-11.54-27.84l16.06-12.31a88.57 88.57 0 0 1 0-28.94l-16.06-12.31c6.11-14.75 5.43-13.09 11.54-27.84l20.07 2.66a89.417 89.417 0 0 1 20.43-20.43l-2.66-20.07c14.75-6.12 13.09-5.43 27.84-11.54l12.31 16.06a88.57 88.57 0 0 1 28.94 0l12.31-16.06c14.75 6.11 13.09 5.42 27.84 11.54l-2.66 20.07a89.616 89.616 0 0 1 20.43 20.43l20.07-2.66c6.12 14.75 5.43 13.09 11.54 27.84zm-64 26.78a40 40 0 1 0 -40 40 40 40 0 0 0 40-40z" fill="#ffd648"/><g fill="#ffb300"><path d="m192 198.87a89.6 89.6 0 0 1 14.47 1.19l8.454-11.03-12.144-5.03-11.408 14.883c.21-.001.418-.013.628-.013z"/><path d="m177.53 375.94-.9 1.177q3.726-.027 7.372-.364c-2.181-.199-4.34-.465-6.472-.813z"/><path d="m232 288a40.027 40.027 0 0 0 -48-39.2 40.008 40.008 0 0 1 0 78.4 40.027 40.027 0 0 0 48-39.2z"/><path d="m176.628 198.883.9 1.177c2.132-.349 4.291-.614 6.47-.813q-3.643-.333-7.37-.364z"/><path d="m264.39 236.04 4.9-.65-.834-2.01-5.517.731c.49.64.981 1.276 1.451 1.929z"/><path d="m264.39 339.96c-.469.653-.959 1.289-1.446 1.929l5.516.731.834-2.01z"/><path d="m105.056 234.111 14.554 1.929a89.417 89.417 0 0 1 20.43-20.43l-2.66-20.07c8.691-3.606 11.686-4.848 15.7-6.51l-3.86-5.03c-14.75 6.11-13.09 5.42-27.84 11.54l2.66 20.07a89.464 89.464 0 0 0 -18.984 18.501z"/><path d="m206.47 375.94a89.6 89.6 0 0 1 -14.47 1.19c-.21 0-.418-.012-.628-.013l11.408 14.883 12.144-5.03z"/><path d="m137.38 380.46 2.66-20.07a89.616 89.616 0 0 1 -20.43-20.43l-14.553 1.929a89.624 89.624 0 0 0 18.983 18.5l-2.66 20.07c14.75 6.12 13.09 5.43 27.84 11.54l3.856-5.03c-4.011-1.661-7.005-2.903-15.696-6.509z"/><path d="m88 314.78 16.06-12.31a88.57 88.57 0 0 1 0-28.94l-16.06-12.31c5.816-14.04 5.484-13.223 10.707-25.83l-15.167-2.01c-6.11 14.75-5.43 13.09-11.54 27.84l16.06 12.31a88.57 88.57 0 0 0 0 28.94l-16.06 12.31c6.11 14.75 5.42 13.09 11.54 27.84l15.166-2.01c-5.231-12.61-4.89-11.79-10.706-25.83z"/></g><circle cx="176" cy="288" fill="#00d0ce" r="40"/><path d="m488 120v32h-464v-32a32 32 0 0 1 32-32h400a32 32 0 0 1 32 32z" fill="#00a5ab"/><path d="m360 264h-32v48h32zm32 80h-32v48h32zm16-160h-32v48h32zm80-32v240a32 32 0 0 1 -32 32h-400a32 32 0 0 1 -32-32v-240zm-224.06 121.53 16.06-12.31c-6.11-14.75-5.42-13.09-11.54-27.84l-20.07 2.66a89.616 89.616 0 0 0 -20.43-20.43l2.66-20.07c-14.75-6.12-13.09-5.43-27.84-11.54l-12.31 16.06a88.57 88.57 0 0 0 -28.94 0l-12.31-16.06c-14.75 6.11-13.09 5.42-27.84 11.54l2.66 20.07a89.417 89.417 0 0 0 -20.43 20.43l-20.07-2.66c-6.11 14.75-5.43 13.09-11.54 27.84l16.06 12.31a88.57 88.57 0 0 0 0 28.94l-16.06 12.31c6.11 14.75 5.42 13.09 11.54 27.84l20.07-2.66a89.616 89.616 0 0 0 20.43 20.43l-2.66 20.07c14.75 6.12 13.09 5.43 27.84 11.54l12.31-16.06a88.57 88.57 0 0 0 28.94 0l12.31 16.06c14.75-6.11 13.09-5.42 27.84-11.54l-2.66-20.07a89.417 89.417 0 0 0 20.43-20.43l20.07 2.66c6.12-14.75 5.43-13.09 11.54-27.84l-16.06-12.31a88.57 88.57 0 0 0 0-28.94z" fill="#00d0ce"/><path d="m80 392v-57.913c-2.662-6.418-3.426-8.265-8-19.307l8-6.132v-41.3l-8-6.132c4.572-11.036 5.343-12.887 8-19.3v-89.916h-56v240a32 32 0 0 0 32 32h56a32 32 0 0 1 -32-32z" fill="#00a5ab"/><path d="m112 88a32 32 0 0 0 -32 32v32h-56v-32a32 32 0 0 1 32-32z" fill="#007d93"/><path d="m284.2 250.462c-2.948-7.118-3.578-8.638-8.353-20.148l-2.354-5.671-21.541 2.857a97.235 97.235 0 0 0 -15.45-15.451l2.855-21.543-5.67-2.353c-12.141-5.037-13.166-5.462-21.37-8.86l-12.149-5.032-13.216 17.239a96.079 96.079 0 0 0 -21.9 0l-13.216-17.24-12.149 5.032c-8.2 3.4-9.229 3.823-21.37 8.86l-5.67 2.353 2.855 21.542a97.142 97.142 0 0 0 -15.458 15.453l-21.544-2.858-16.241 39.191 17.241 13.214a95.83 95.83 0 0 0 0 21.906l-17.241 13.214 5.541 13.371c2.948 7.118 3.578 8.638 8.353 20.148l2.354 5.671 21.544-2.855a97.235 97.235 0 0 0 15.45 15.451l-2.858 21.547 5.67 2.353c12.141 5.037 13.166 5.462 21.37 8.86l12.149 5.032 13.216-17.24a96.079 96.079 0 0 0 21.9 0l13.216 17.24 12.149-5.032c8.2-3.4 9.229-3.823 21.37-8.86l5.67-2.353-2.853-21.546a97.142 97.142 0 0 0 15.456-15.454l21.54 2.855 2.354-5.671c4.775-11.51 5.4-13.03 8.353-20.148l5.538-13.371-17.241-13.212a95.83 95.83 0 0 0 0-21.906l17.239-13.214zm-28.155 24.358a80.594 80.594 0 0 1 0 26.36l-.772 4.726 14.986 11.487-.838 2.022c-2.377 5.738-3.246 7.836-6 14.468l-18.733-2.483-2.8 3.9a81.245 81.245 0 0 1 -18.6 18.6l-3.89 2.8 2.484 18.732c-7.081 2.938-8.994 3.73-15.689 6.5l-.8.332-11.489-14.987-4.726.773a81.006 81.006 0 0 1 -26.358 0l-4.726-.773-11.489 14.987-.8-.332c-6.7-2.773-8.608-3.565-15.689-6.5l2.484-18.732-3.89-2.8a81.483 81.483 0 0 1 -18.606-18.606l-2.8-3.89-18.733 2.483c-2.751-6.632-3.62-8.73-6-14.468l-.838-2.022 14.986-11.487-.772-4.726a80.594 80.594 0 0 1 0-26.36l.772-4.726-14.976-11.49 6.835-16.49 18.734 2.483 2.8-3.9a81.245 81.245 0 0 1 18.6-18.6l3.89-2.8-2.484-18.732c7.081-2.938 8.994-3.73 15.689-6.5l.8-.332 11.493 14.991 4.726-.773a81.006 81.006 0 0 1 26.358 0l4.726.773 11.489-14.987.8.332c6.7 2.773 8.608 3.565 15.689 6.5l-2.488 18.735 3.89 2.8a81.483 81.483 0 0 1 18.61 18.602l2.8 3.89 18.733-2.483c2.751 6.632 3.62 8.73 6 14.468l.838 2.022-14.986 11.487z" fill="#00074e"/><path d="m176 240a48 48 0 1 0 48 48 48.054 48.054 0 0 0 -48-48zm0 80a32 32 0 1 1 32-32 32.036 32.036 0 0 1 -32 32z" fill="#00074e"/><path d="m456 80h-400a40.045 40.045 0 0 0 -40 40v272a40.045 40.045 0 0 0 40 40h400a40.045 40.045 0 0 0 40-40v-272a40.045 40.045 0 0 0 -40-40zm-400 16h400a24.028 24.028 0 0 1 24 24v24h-448v-24a24.028 24.028 0 0 1 24-24zm400 320h-400a24.028 24.028 0 0 1 -24-24v-232h448v232a24.028 24.028 0 0 1 -24 24z" fill="#00074e"/><path d="m64 112h16v16h-16z" fill="#00074e"/><path d="m96 112h16v16h-16z" fill="#00074e"/><path d="m128 112h16v16h-16z" fill="#00074e"/><path d="m256 112h192v16h-192z" fill="#00074e"/><path d="m416 184a8 8 0 0 0 -8-8h-32a8 8 0 0 0 -8 8v16h-64v16h64v16a8 8 0 0 0 8 8h32a8 8 0 0 0 8-8v-16h32v-16h-32zm-16 40h-16v-32h16z" fill="#00074e"/><path d="m368 264a8 8 0 0 0 -8-8h-32a8 8 0 0 0 -8 8v16h-16v16h16v16a8 8 0 0 0 8 8h32a8 8 0 0 0 8-8v-16h80v-16h-80zm-16 40h-16v-32h16z" fill="#00074e"/><path d="m400 344a8 8 0 0 0 -8-8h-32a8 8 0 0 0 -8 8v16h-48v16h48v16a8 8 0 0 0 8 8h32a8 8 0 0 0 8-8v-16h48v-16h-48zm-16 40h-16v-32h16z" fill="#00074e"/></g></g></svg>