<?xml version="1.0" encoding="iso-8859-1"?>
<!-- Generator: Adobe Illustrator 19.0.0, SVG Export Plug-In . SVG Version: 6.00 Build 0)  -->
<svg version="1.1" id="Layer_1" xmlns="http://www.w3.org/2000/svg" xmlns:xlink="http://www.w3.org/1999/xlink" x="0px" y="0px"
	 viewBox="0 0 512 512" style="enable-background:new 0 0 512 512;" xml:space="preserve">
<circle style="fill:#273B7A;" cx="256" cy="256" r="256"/>
<path style="fill:#121149;" d="M299.346,508.328c112.056-19.113,199.278-111.037,211.244-225.373l-55.479-55.477l-171.144,42.027
	L161.73,147.266l-31.146,36.759l79.017,79.017l-159.594-4.053L299.346,508.328z"/>
<path style="fill:#EAA22F;" d="M173.094,320.796c5.903,6.128,15.938,5.942,21.954-0.074l53.393-53.393l3.579,3.579l-64.128,64.128
	c-6.016,6.016-6.203,16.051-0.074,21.954c5.944,5.725,15.401,5.656,21.263-0.203l64.409-64.409l3.579,3.579l-74.862,74.862
	c-6.016,6.016-6.203,16.051-0.074,21.954c5.944,5.725,15.401,5.656,21.263-0.203l75.143-75.143l3.579,3.579l-64.128,64.128
	c-6.016,6.016-6.203,16.051-0.074,21.954c5.944,5.725,15.401,5.656,21.263-0.203l128.871-128.871
	c11.828-11.828,11.828-31.003,0-42.83L334.265,181.4c-11.828-11.828-31.003-11.828-42.83,0L173.299,299.536
	C167.438,305.393,167.371,314.852,173.094,320.796z"/>
<path style="fill:#E09112;" d="M360.16,207.293l-85.878,85.878l2.784,2.784l-74.862,74.862c-6.016,6.016-6.203,16.051-0.074,21.954
	c5.944,5.725,15.403,5.656,21.263-0.203l75.143-75.143l3.579,3.579l-64.128,64.128c-6.016,6.016-6.203,16.051-0.074,21.954
	c5.944,5.725,15.401,5.656,21.263-0.203l128.871-128.871c11.828-11.828,11.828-31.003,0-42.83L360.16,207.293z"/>
<path style="fill:#FEE187;" d="M248.963,422.424c6.128-5.903,5.942-15.938-0.074-21.954l-53.393-53.393l3.579-3.579l64.128,64.128
	c6.016,6.016,16.051,6.203,21.954,0.074c5.725-5.944,5.656-15.401-0.203-21.263l-64.409-64.409l3.579-3.579l74.862,74.862
	c6.016,6.016,16.051,6.203,21.954,0.074c5.725-5.944,5.656-15.401-0.203-21.263l-75.143-75.143l3.579-3.579l64.128,64.128
	c6.016,6.016,16.051,6.203,21.954,0.074c5.725-5.944,5.656-15.401-0.203-21.263L206.179,207.47
	c-11.828-11.828-31.003-11.828-42.83,0l-53.782,53.782c-11.828,11.828-11.828,31.003,0,42.83l118.136,118.136
	C233.56,428.08,243.019,428.147,248.963,422.424z"/>
<path style="fill:#FFC61B;" d="M109.565,261.254c-11.828,11.828-11.828,31.003,0,42.83L227.7,422.221
	c5.86,5.86,15.319,5.929,21.263,0.203c6.128-5.903,5.942-15.938-0.074-21.954l-53.393-53.393l3.579-3.579l64.126,64.128
	c6.016,6.016,16.051,6.203,21.954,0.074c5.725-5.944,5.656-15.401-0.203-21.263l-64.409-64.409l1.786-1.786l-85.004-86.75
	L109.565,261.254z"/>
<path style="fill:#FF5419;" d="M336.193,225.933c0,0-6.594,27.601-60.725,30.363l-18.932,18.932
	c-7.32,7.32-17.246,11.431-27.596,11.431h-19.904c-9.099,0-13.655-11-7.221-17.434l88.835-88.835l60.725-15.181l30.363,30.363
	L336.193,225.933z"/>
<rect x="328.366" y="136.232" transform="matrix(-0.7071 0.7071 -0.7071 -0.7071 762.3958 108.4747)" style="fill:#FFFFFF;" width="60.733" height="151.806"/>
<rect x="345.552" y="207.736" transform="matrix(-0.7071 -0.7071 0.7071 -0.7071 488.3768 678.4976)" style="fill:#D0D1D3;" width="78.316" height="60.733"/>
<rect x="345.299" y="114.969" transform="matrix(-0.7071 0.7071 -0.7071 -0.7071 780.5622 64.6136)" style="fill:#02B2B2;" width="63.199" height="157.994"/>
<rect x="363.272" y="189.44" transform="matrix(-0.7071 -0.7071 0.7071 -0.7071 533.3406 662.9955)" style="fill:#4A79A0;" width="81.419" height="63.199"/>
<rect x="116.012" y="167.74" transform="matrix(0.7071 0.7071 -0.7071 0.7071 215.1552 -32.1438)" style="fill:#FFFFFF;" width="60.733" height="151.806"/>
<polygon style="fill:#D0D1D3;" points="125.581,221.508 71.242,275.849 114.181,318.788 168.084,264.885 "/>
<rect x="96.616" y="146.49" transform="matrix(0.7071 0.7071 -0.7071 0.7071 196.9971 -24.6182)" style="fill:#02B2B2;" width="63.2" height="157.994"/>
<polygon style="fill:#4A79A0;" points="106.729,202.268 50.007,258.989 94.698,303.68 150.964,247.411 "/>
<g>
	<path style="fill:#FFFFFF;" d="M244.124,417.708L244.124,417.708c-4.056,4.056-10.633,4.056-14.691,0l-14.914-14.914l14.691-14.691
		l14.914,14.914C248.18,407.073,248.18,413.651,244.124,417.708z"/>
	<path style="fill:#FFFFFF;" d="M281.846,404.826L281.846,404.826c-4.056,4.056-10.633,4.056-14.691,0l-14.913-14.914l14.691-14.691
		l14.914,14.914C285.905,394.192,285.905,400.77,281.846,404.826z"/>
	<path style="fill:#FFFFFF;" d="M317.967,391.025L317.967,391.025c-4.056,4.056-10.633,4.056-14.691,0l-14.914-14.914l14.691-14.691
		l14.914,14.914C322.026,380.392,322.026,386.969,317.967,391.025z"/>
	<path style="fill:#FFFFFF;" d="M332.452,356.062L332.452,356.062c-4.056,4.056-10.633,4.056-14.691,0l-14.914-14.914l14.691-14.691
		l14.914,14.914C336.508,345.429,336.508,352.006,332.452,356.062z"/>
</g>
<g>
</g>
<g>
</g>
<g>
</g>
<g>
</g>
<g>
</g>
<g>
</g>
<g>
</g>
<g>
</g>
<g>
</g>
<g>
</g>
<g>
</g>
<g>
</g>
<g>
</g>
<g>
</g>
<g>
</g>
</svg>
