<?xml version="1.0" encoding="iso-8859-1"?>
<!-- Generator: Adobe Illustrator 21.0.0, SVG Export Plug-In . SVG Version: 6.00 Build 0)  -->
<svg version="1.1" id="Capa_1" xmlns="http://www.w3.org/2000/svg" xmlns:xlink="http://www.w3.org/1999/xlink" x="0px" y="0px"
	 viewBox="0 0 512 512" style="enable-background:new 0 0 512 512;" xml:space="preserve">
<g>
	<g transform="translate(1 1)">
		
			<linearGradient id="SVGID_1_" gradientUnits="userSpaceOnUse" x1="-49.8646" y1="651.7271" x2="-48.9365" y2="650.692" gradientTransform="matrix(494.9333 0 0 -443.7334 24704.9688 289234)">
			<stop  offset="0" style="stop-color:#D3DFF2"/>
			<stop  offset="0.172" style="stop-color:#D3DFF2"/>
			<stop  offset="0.2" style="stop-color:#D3DFF2"/>
			<stop  offset="0.2" style="stop-color:#DAE2F2"/>
			<stop  offset="0.201" style="stop-color:#EBEAF2"/>
			<stop  offset="0.201" style="stop-color:#F6EFF2"/>
			<stop  offset="0.202" style="stop-color:#FDF2F2"/>
			<stop  offset="0.205" style="stop-color:#FFF3F2"/>
			<stop  offset="0.252" style="stop-color:#FFF3F2"/>
			<stop  offset="0.26" style="stop-color:#FFF3F2"/>
			<stop  offset="0.26" style="stop-color:#D3DFF2"/>
			<stop  offset="0.397" style="stop-color:#D3DFF2"/>
			<stop  offset="0.42" style="stop-color:#D3DFF2"/>
			<stop  offset="0.42" style="stop-color:#DAE2F2"/>
			<stop  offset="0.421" style="stop-color:#EBEAF2"/>
			<stop  offset="0.421" style="stop-color:#F6EFF2"/>
			<stop  offset="0.422" style="stop-color:#FDF2F2"/>
			<stop  offset="0.425" style="stop-color:#FFF3F2"/>
			<stop  offset="0.489" style="stop-color:#FFF3F2"/>
			<stop  offset="0.5" style="stop-color:#FFF3F2"/>
			<stop  offset="0.5" style="stop-color:#F8F0F2"/>
			<stop  offset="0.5" style="stop-color:#E7E8F2"/>
			<stop  offset="0.5" style="stop-color:#DCE3F2"/>
			<stop  offset="0.5" style="stop-color:#D5E0F2"/>
			<stop  offset="0.501" style="stop-color:#D3DFF2"/>
			<stop  offset="0.706" style="stop-color:#D3DFF2"/>
			<stop  offset="0.74" style="stop-color:#D3DFF2"/>
			<stop  offset="0.741" style="stop-color:#FFF3F2"/>
			<stop  offset="0.835" style="stop-color:#FFF3F2"/>
			<stop  offset="0.85" style="stop-color:#FFF3F2"/>
			<stop  offset="0.851" style="stop-color:#D3DFF2"/>
		</linearGradient>
		<path style="fill:url(#SVGID_1_);" d="M502.467,58.734v409.6c0,18.851-15.282,34.133-34.133,34.133H41.667
			c-18.851,0-34.133-15.282-34.133-34.133v-409.6H502.467z"/>
		<path style="fill:#A4C2F7;" d="M502.467,41.667V75.8H7.534V41.667c0-18.851,15.282-34.133,34.133-34.133h426.667
			C487.185,7.534,502.467,22.816,502.467,41.667z"/>
		<g>
			<path style="fill:#E3E7F2;" d="M476.867,41.667V75.8H7.534V41.667c0-18.851,15.282-34.133,34.133-34.133h401.067
				C461.585,7.534,476.867,22.816,476.867,41.667z"/>
			<polygon style="fill:#E3E7F2;" points="135.534,186.734 50.2,306.2 135.534,306.2 135.534,272.067 			"/>
			<polygon style="fill:#E3E7F2;" points="417.134,186.734 331.8,306.2 417.134,306.2 417.134,272.067 			"/>
		</g>
		<path style="fill:#A4C2F7;" d="M229.4,178.2h42.667c14.138,0,25.6,11.462,25.6,25.6v136.533c0,14.138-11.462,25.6-25.6,25.6H229.4
			c-14.138,0-25.6-11.462-25.6-25.6V203.8C203.8,189.662,215.262,178.2,229.4,178.2z"/>
		<path style="fill:#E3E7F2;" d="M229.4,178.2h17.067c14.139,0,25.6,11.462,25.6,25.6v136.533c0,14.138-11.461,25.6-25.6,25.6H229.4
			c-14.138,0-25.6-11.462-25.6-25.6V203.8C203.8,189.662,215.262,178.2,229.4,178.2z"/>
		<path style="fill:#FFFFFF;" d="M33.134,468.334V41.667c0-18.851,15.282-34.133,34.133-34.133h-25.6
			c-18.851,0-34.133,15.282-34.133,34.133v426.667c0,18.851,15.282,34.133,34.133,34.133h25.6
			C48.416,502.467,33.134,487.185,33.134,468.334z"/>
	</g>
	<g>
		<polygon style="fill:#FFFFFF;" points="0,469.334 0,358.4 0,42.667 17.067,42.667 17.067,358.4 17.067,469.334 		"/>
		<g>
			<path style="fill:#428DFF;" d="M5.291,408.918c0.484,0.247,1.001,0.419,1.536,0.512c0.564,0.095,1.135,0.152,1.707,0.171
				c2.259-0.033,4.422-0.917,6.059-2.475c0.771-0.816,1.38-1.772,1.792-2.816c1.287-3.183,0.586-6.825-1.792-9.301
				c-0.816-0.771-1.772-1.38-2.816-1.792c-1.026-0.437-2.128-0.669-3.243-0.683c-2.259,0.033-4.422,0.917-6.059,2.475
				c-3.3,3.365-3.3,8.752,0,12.117l1.28,1.024C4.231,408.473,4.747,408.731,5.291,408.918z"/>
			<path style="fill:#428DFF;" d="M469.334,0H42.667C19.115,0.028,0.029,19.114,0,42.667v324.267c0,4.713,3.821,8.533,8.533,8.533
				s8.533-3.82,8.533-8.533v-281.6h477.867v384c0,14.138-11.462,25.6-25.6,25.6H42.667c-14.138,0-25.6-11.462-25.6-25.6V435.2
				c0-4.713-3.821-8.533-8.533-8.533S0,430.487,0,435.2v34.133C0.029,492.886,19.115,511.972,42.667,512h426.667
				c23.552-0.028,42.638-19.114,42.667-42.667V42.667C511.972,19.114,492.886,0.028,469.334,0z M17.067,68.267v-25.6
				c0-14.138,11.462-25.6,25.6-25.6h426.667c14.138,0,25.6,11.462,25.6,25.6v25.6H17.067z"/>
			<path style="fill:#428DFF;" d="M59.734,34.134H51.2c-4.713,0-8.533,3.821-8.533,8.533S46.488,51.2,51.2,51.2h8.533
				c4.713,0,8.533-3.821,8.533-8.533S64.447,34.134,59.734,34.134z"/>
			<path style="fill:#428DFF;" d="M99.926,36.608c-3.422-3.157-8.695-3.157-12.117,0c-0.753,0.83-1.359,1.782-1.792,2.816
				c-0.911,2.066-0.911,4.419,0,6.485c0.435,1.033,1.041,1.985,1.792,2.816c2.442,2.443,6.126,3.153,9.301,1.792
				c1.033-0.435,1.985-1.041,2.816-1.792c0.751-0.831,1.357-1.783,1.792-2.816c0.91-2.066,0.91-4.419,0-6.485
				C101.285,38.391,100.679,37.438,99.926,36.608z"/>
			<path style="fill:#428DFF;" d="M134.059,36.608c-3.422-3.157-8.695-3.157-12.117,0c-0.753,0.83-1.359,1.782-1.792,2.816
				c-1.361,3.175-0.651,6.859,1.792,9.301c0.83,0.753,1.782,1.359,2.816,1.792c2.066,0.911,4.419,0.911,6.485,0
				c1.043-0.414,1.999-1.022,2.816-1.792c1.602-1.607,2.493-3.789,2.475-6.059c0.025-1.119-0.209-2.229-0.683-3.243
				C135.418,38.391,134.812,37.438,134.059,36.608z"/>
			<path style="fill:#428DFF;" d="M460.801,34.134H170.667c-4.713,0-8.533,3.821-8.533,8.533s3.82,8.533,8.533,8.533h290.133
				c4.713,0,8.533-3.821,8.533-8.533S465.513,34.134,460.801,34.134z"/>
			<path style="fill:#428DFF;" d="M136.534,281.6c4.713,0,8.533-3.82,8.533-8.533V179.2c0-0.282-0.137-0.512-0.162-0.794
				c-0.051-0.58-0.165-1.152-0.341-1.707c-0.154-0.508-0.357-0.999-0.606-1.468c-0.242-0.464-0.528-0.904-0.853-1.314
				c-0.366-0.456-0.781-0.871-1.237-1.237c-0.213-0.179-0.333-0.418-0.563-0.572c-0.23-0.154-0.478-0.162-0.708-0.29
				c-0.512-0.276-1.053-0.497-1.613-0.657c-0.537-0.165-1.088-0.276-1.647-0.333c-0.264-0.068-0.532-0.122-0.802-0.162
				c-0.282,0-0.529,0.137-0.802,0.162c-0.579,0.058-1.15,0.172-1.707,0.341c-0.503,0.155-0.992,0.355-1.459,0.597
				c-0.475,0.257-0.924,0.56-1.34,0.905c-0.444,0.367-0.853,0.776-1.22,1.22c-0.171,0.213-0.418,0.341-0.572,0.572l-85.333,128
				c-1.747,2.618-1.911,5.986-0.426,8.762c1.485,2.776,4.377,4.508,7.525,4.508h119.467c4.713,0,8.533-3.82,8.533-8.533
				s-3.821-8.533-8.533-8.533H67.141L128,207.36v65.707C128,277.78,131.821,281.6,136.534,281.6z"/>
			<path style="fill:#428DFF;" d="M128,341.334v25.6c0,4.713,3.821,8.533,8.533,8.533s8.533-3.82,8.533-8.533v-25.6
				c0-4.713-3.82-8.533-8.533-8.533S128,336.621,128,341.334z"/>
			<path style="fill:#428DFF;" d="M418.134,281.6c4.713,0,8.533-3.82,8.533-8.533V179.2c0-0.282-0.137-0.512-0.162-0.794
				c-0.051-0.58-0.165-1.152-0.341-1.707c-0.154-0.508-0.357-0.999-0.606-1.468c-0.242-0.464-0.528-0.904-0.853-1.314
				c-0.366-0.456-0.781-0.871-1.237-1.237c-0.213-0.179-0.333-0.418-0.563-0.572c-0.23-0.154-0.478-0.162-0.708-0.29
				c-0.512-0.276-1.053-0.497-1.613-0.657c-0.537-0.165-1.088-0.276-1.647-0.333c-0.264-0.068-0.532-0.122-0.802-0.162
				c-0.282,0-0.529,0.137-0.802,0.162c-0.579,0.056-1.151,0.171-1.707,0.341c-0.508,0.152-1,0.355-1.468,0.606
				c-0.474,0.251-0.92,0.551-1.331,0.896c-0.451,0.363-0.863,0.772-1.229,1.22c-0.171,0.213-0.418,0.341-0.572,0.572l-85.333,128
				c-1.748,2.62-1.911,5.989-0.424,8.765c1.487,2.776,4.382,4.507,7.532,4.504h119.467c4.713,0,8.533-3.82,8.533-8.533
				s-3.821-8.533-8.533-8.533H348.741l60.86-91.307v65.707C409.6,277.78,413.421,281.6,418.134,281.6z"/>
			<path style="fill:#428DFF;" d="M409.6,341.334v25.6c0,4.713,3.82,8.533,8.533,8.533s8.533-3.82,8.533-8.533v-25.6
				c0-4.713-3.821-8.533-8.533-8.533S409.6,336.621,409.6,341.334z"/>
			<path style="fill:#428DFF;" d="M273.067,375.467c18.851,0,34.133-15.282,34.133-34.133V204.8
				c0-18.851-15.282-34.133-34.133-34.133H230.4c-18.851,0-34.133,15.282-34.133,34.133v136.533
				c0,18.851,15.282,34.133,34.133,34.133H273.067z M213.334,341.334V204.8c0-9.426,7.641-17.067,17.067-17.067h42.667
				c9.426,0,17.067,7.641,17.067,17.067v136.533c0,9.426-7.641,17.067-17.067,17.067H230.4
				C220.975,358.4,213.334,350.759,213.334,341.334z"/>
			<path style="fill:#428DFF;" d="M162.134,426.667c0,4.713,3.82,8.533,8.533,8.533h170.667c4.713,0,8.533-3.82,8.533-8.533
				s-3.82-8.533-8.533-8.533H170.667C165.954,418.134,162.134,421.954,162.134,426.667z"/>
			<path style="fill:#428DFF;" d="M204.8,452.267c-4.713,0-8.533,3.82-8.533,8.533s3.821,8.533,8.533,8.533h102.4
				c4.713,0,8.533-3.82,8.533-8.533s-3.821-8.533-8.533-8.533H204.8z"/>
		</g>
	</g>
</g>
<g>
</g>
<g>
</g>
<g>
</g>
<g>
</g>
<g>
</g>
<g>
</g>
<g>
</g>
<g>
</g>
<g>
</g>
<g>
</g>
<g>
</g>
<g>
</g>
<g>
</g>
<g>
</g>
<g>
</g>
</svg>
