<svg height="512pt" viewBox="-1 0 512 512" width="512pt" xmlns="http://www.w3.org/2000/svg"><path d="m510.199219 256.902344c0 85.410156-41.972657 161.011718-106.414063 207.304687-13.628906 9.796875-28.269531 18.285157-43.71875 25.269531-7.375 3.332032-14.921875 6.320313-22.648437 8.945313-25.820313 8.808594-53.507813 13.578125-82.320313 13.578125-28.808594 0-56.496094-4.777344-82.328125-13.578125-7.171875-2.445313-14.203125-5.195313-21.074219-8.257813-16.035156-7.109374-31.207031-15.835937-45.292968-25.964843-64.441406-46.292969-106.402344-121.898438-106.402344-207.296875 0-140.890625 114.210938-255.101563 255.097656-255.101563 140.890625 0 255.101563 114.210938 255.101563 255.101563zm0 0" fill="#394852"/><path d="m403.785156 391.96875v72.238281c-41.867187 30.082031-93.199218 47.792969-148.6875 47.792969-36.816406 0-71.800781-7.796875-103.402344-21.835938-16.035156-7.121093-31.207031-15.847656-45.292968-25.976562v-72.21875c0-31.683594 25.6875-57.371094 57.359375-57.371094h182.664062c31.671875 0 57.359375 25.6875 57.359375 57.371094zm0 0" fill="#ea505f"/><path d="m403.785156 391.96875v72.238281c-41.867187 30.082031-93.199218 47.792969-148.6875 47.792969-36.816406 0-71.800781-7.796875-103.402344-21.835938v-98.195312c0-31.683594 25.675782-57.371094 57.359376-57.371094h137.371093c31.671875 0 57.359375 25.6875 57.359375 57.371094zm0 0" fill="#ff806d"/><path d="m317.679688 334.597656-2.964844 5.136719c-26.5 45.890625-92.742188 45.890625-119.238282-.003906l-2.964843-5.132813zm0 0" fill="#ddbca2"/><path d="m403.785156 431.222656v32.984375c-13.628906 9.796875-28.269531 18.285157-43.71875 25.269531-7.375 3.332032-14.921875 6.320313-22.648437 8.945313v-67.199219zm0 0" fill="#f2d6bc"/><path d="m172.769531 431.222656v67.199219c-7.171875-2.445313-14.203125-5.195313-21.074219-8.257813-16.035156-7.109374-31.207031-15.835937-45.292968-25.964843v-32.976563zm0 0" fill="#f2d6bc"/><path d="m151.695312 431.222656v58.941406c-16.035156-7.109374-31.207031-15.835937-45.292968-25.964843v-32.976563zm0 0" fill="#ddbca2"/><path d="m360.066406 431.222656v58.253906c-7.375 3.332032-14.921875 6.320313-22.648437 8.945313v-67.199219zm0 0" fill="#ddbca2"/><path d="m510.195312 100.558594c0 54.542968-44.214843 98.757812-98.757812 98.757812-54.539062 0-98.753906-44.214844-98.753906-98.757812 0-54.542969 44.214844-98.757813 98.753906-98.757813 54.542969 0 98.757812 44.214844 98.757812 98.757813zm0 0" fill="#60bf81"/><path d="m411.4375 167.714844c-12.503906 0-22.644531-10.136719-22.644531-22.644532v-89.019531c0-12.507812 10.140625-22.648437 22.644531-22.648437 12.507812 0 22.648438 10.140625 22.648438 22.648437v89.019531c0 12.507813-10.140626 22.644532-22.648438 22.644532zm0 0" fill="#e8f1f5"/><path d="m344.28125 100.558594c0-12.507813 10.140625-22.644532 22.648438-22.644532h89.019531c12.507812 0 22.644531 10.136719 22.644531 22.644532 0 12.507812-10.136719 22.644531-22.644531 22.644531h-89.019531c-12.507813 0-22.648438-10.136719-22.648438-22.644531zm0 0" fill="#e8f1f5"/><path d="m106.402344 431.222656h66.367187v20.300782h-66.367187zm0 0" fill="#2c6289"/><path d="m337.417969 431.222656h66.367187v20.300782h-66.367187zm0 0" fill="#2c6289"/><path d="m378.90625 110.910156v92.5h-.25c-4.355469-3.4375-9.875 6.375-16.273438 6.375-1.4375 0-2.824218.097656-4.144531.304688h-205.5625c-1.320312-.203125-2.707031-.304688-4.144531-.304688-5.738281 0-10.777344-10.203125-14.902344-7.382812v-120.152344c0-19.554688 18.921875-33.507812 37.601563-27.75 10.515625-33.429688 41.339843-54.5 74.25-54.5 9.023437 0 18.195312 1.582031 27.152343 4.929688.390626.140624.785157.292968 1.175782.445312l45.082031 17.625c36.195313 14.152344 60.015625 49.046875 60.015625 87.910156zm0 0" fill="#f4de6e"/><path d="m207.835938 67.546875c0 31.25 25.367187 66 25.367187 66l-23.410156 64.714844-57.117188 11.828125c-1.320312-.203125-2.707031-.304688-4.144531-.304688-5.738281 0-10.777344-10.203125-14.902344-7.382812v-120.152344c0-19.554688 18.921875-33.507812 37.601563-27.75 10.515625-33.429688 41.339843-54.5 74.25-54.5 9.023437 0 18.195312 1.582031 27.152343 4.929688-34.253906-12.269532-64.796874 31.722656-64.796874 62.617187zm0 0" fill="#ddb442"/><path d="m284.929688 292.140625v33.421875c0 12.75-8.089844 23.597656-19.421876 27.703125-3.132812 1.144531-6.515624 1.761719-10.042968 1.761719h-.007813c-16.269531 0-29.457031-13.1875-29.457031-29.464844v-33.414062zm0 0" fill="#e5c7af"/><path d="m284.929688 313.238281v12.324219c0 12.75-8.089844 23.597656-19.421876 27.703125-11.328124-4.097656-19.417968-14.953125-19.417968-27.703125v-8.464844c3.078125.285156 6.207031.429688 9.367187.429688 10.238281-.003906 20.132813-1.5 29.472657-4.289063zm0 0" fill="#f2d6bc"/><path d="m358.238281 198.261719c1.320313-.203125 2.707031-.300781 4.144531-.300781 16.425782 0 27.070313 13.3125 27.070313 29.738281 0 16.429687-15.3125 38.875-31.742187 38.875-3.695313 0-6.765626-1.132813-9.3125-3.078125h-185.878907c-2.546875 1.945312-5.617187 3.078125-9.3125 3.078125-16.429687 0-31.742187-22.445313-31.742187-38.875 0-16.425781 10.640625-29.738281 27.070312-29.738281 1.4375 0 2.820313.097656 4.144532.300781" fill="#e5c7af"/><path d="m155.660156 250.953125c-3.039062 0-5.792968-2.085937-6.515625-5.171875-1.234375-5.210938-5.453125-14.9375-10.054687-14.9375-3.699219 0-6.695313-3-6.695313-6.695312 0-3.699219 2.996094-6.699219 6.695313-6.699219 16.742187 0 22.496094 22.703125 23.097656 25.289062.835938 3.605469-1.402344 7.203125-5.003906 8.039063-.511719.117187-1.023438.175781-1.523438.175781zm0 0" fill="#ddbca2"/><path d="m355.257812 250.953125c-.503906 0-1.011718-.058594-1.523437-.175781-3.601563-.835938-5.84375-4.433594-5.007813-8.039063.601563-2.585937 6.359376-25.289062 23.101563-25.289062 3.699219 0 6.695313 3 6.695313 6.699219 0 3.695312-2.996094 6.695312-6.695313 6.695312-4.597656 0-8.882813 9.882812-10.054687 14.925781-.71875 3.09375-3.472657 5.183594-6.515626 5.183594zm0 0" fill="#ddbca2"/><path d="m177.574219 94.898438c58.835937 64.070312 180.667969 66.75 180.667969 66.75v57.9375c0 28.382812-11.507813 54.070312-30.105469 72.667968-18.601563 18.609375-44.296875 30.105469-72.679688 30.105469-56.761719 0-102.777343-46.015625-102.777343-102.773437v-57.628907c0-25.632812 9.375-49.058593 24.890624-67.0625 0 0 0 0 .003907.003907zm0 0" fill="#f2d6bc"/><path d="m187.34375 219.585938v-57.628907c0-17.320312 4.289062-33.636719 11.855469-47.949219-7.8125-5.671874-15.105469-12.011718-21.625-19.109374-.003907-.003907-.003907-.003907-.003907-.003907-15.515624 18-24.890624 41.429688-24.890624 67.0625v57.628907c0 56.757812 46.019531 102.773437 102.777343 102.773437 5.910157 0 11.699219-.503906 17.335938-1.460937-48.507813-8.238282-85.449219-50.460938-85.449219-101.3125zm0 0" fill="#e5c7af"/><path d="m196.621094 185.605469c-2.988282 0-5.710938-2.011719-6.484375-5.042969-.914063-3.582031 1.253906-7.226562 4.835937-8.140625l30.355469-7.738281c3.585937-.914063 7.230469 1.25 8.144531 4.832031.914063 3.585937-1.253906 7.230469-4.835937 8.144531l-30.355469 7.738282c-.554688.140624-1.113281.207031-1.660156.207031zm0 0" fill="#ddbca2"/><path d="m314.296875 185.605469c-.546875 0-1.105469-.066407-1.660156-.207031l-30.355469-7.738282c-3.585938-.914062-5.75-4.558594-4.835938-8.144531.914063-3.582031 4.558594-5.75 8.144532-4.832031l30.355468 7.738281c3.585938.910156 5.75 4.558594 4.835938 8.140625-.773438 3.03125-3.496094 5.042969-6.484375 5.042969zm0 0" fill="#ddbca2"/><path d="m215.578125 214.472656c-3.699219 0-6.695313-2.996094-6.695313-6.695312v-7.441406c0-3.695313 2.996094-6.695313 6.695313-6.695313s6.695313 3 6.695313 6.695313v7.441406c0 3.699218-2.996094 6.695312-6.695313 6.695312zm0 0" fill="#3d474f"/><path d="m295.339844 214.472656c-3.699219 0-6.695313-2.996094-6.695313-6.695312v-7.441406c0-3.695313 2.996094-6.695313 6.695313-6.695313 3.699218 0 6.695312 3 6.695312 6.695313v7.441406c0 3.699218-2.996094 6.695312-6.695312 6.695312zm0 0" fill="#3d474f"/><path d="m255.457031 241.507812c-5.589843 0-11.179687-2.128906-15.4375-6.386718-2.613281-2.613282-2.613281-6.855469 0-9.46875 2.617188-2.617188 6.855469-2.617188 9.472657 0 3.289062 3.289062 8.644531 3.292968 11.933593 0 2.617188-2.617188 6.855469-2.617188 9.472657 0 2.613281 2.617187 2.613281 6.855468 0 9.46875-4.257813 4.257812-9.847657 6.386718-15.441407 6.386718zm0 0" fill="#e5c7af"/><path d="m255.460938 277.367188c-10.070313 0-20.140626-2.523438-29.316407-7.570313-2.613281-1.433594-3.566406-4.71875-2.132812-7.332031 1.4375-2.609375 4.71875-3.566406 7.332031-2.128906 15.101562 8.300781 33.128906 8.300781 48.230469 0 2.613281-1.4375 5.894531-.480469 7.332031 2.128906 1.433594 2.613281.484375 5.898437-2.132812 7.332031-9.175782 5.046875-19.246094 7.570313-29.3125 7.570313zm0 0" fill="#ddbca2"/></svg>