<svg id="Capa_1" enable-background="new 0 0 512 512" height="512" viewBox="0 0 512 512" width="512" xmlns="http://www.w3.org/2000/svg"><g><g><g><path d="m471.227 194.403h-430.454c-18.376 0-33.273-14.897-33.273-33.273v-120.357c0-18.376 14.897-33.273 33.273-33.273h430.454c18.376 0 33.273 14.897 33.273 33.273v120.357c0 18.376-14.897 33.273-33.273 33.273z" fill="#b3dafe"/><path d="m471.227 7.5h-30c18.376 0 33.273 14.897 33.273 33.273v120.357c0 18.376-14.897 33.273-33.273 33.273h30c18.376 0 33.273-14.897 33.273-33.273v-120.357c0-18.376-14.897-33.273-33.273-33.273z" fill="#8ac9fe"/></g><g><path d="m344.868 316.046.003-40.41c.001-9.798 7.944-17.74 17.741-17.74 9.799 0 17.742 7.936 17.743 17.734.002 30.99.002 93.111.002 107.81 0 2.108-.222 4.209-.663 6.27l-17.167 80.311-114.352-9.395-83.842-146.505c-4.519-8.704-3.272-19.284 3.146-26.699 5.467-6.317 15.186-6.553 20.954-.51l41.827 43.824c2.941 3.081 8.136 1 8.136-3.259v-132.576c0-9.8 7.945-17.745 17.745-17.745 9.8 0 17.745 7.945 17.745 17.745v121.145z" fill="#ffcebf"/><g fill="#ffb09e"><path d="m167.702 287.193 39.04 40.904c6.166 6.46 16.075 7.572 23.519 2.639l-41.827-43.824c-5.693-5.965-15.228-5.799-20.732.281z"/><path d="m252.888 194.901v110.645c0 5.799 4.701 10.5 10.5 10.5 5.799 0 10.5-4.701 10.5-10.5v-110.214c0-9.262-6.924-17.29-16.15-18.105-4.548-.402-8.759.936-12.095 3.393 4.386 3.23 7.245 8.416 7.245 14.281z"/><path d="m380.356 275.63c-.001-9.799-7.944-17.734-17.743-17.734-3.934 0-7.556 1.296-10.498 3.463 4.384 3.228 7.24 8.408 7.241 14.271.002 35.298.002 110.98.002 110.98l-17.467 81.716 20.638 1.695 17.167-80.311c.441-2.061.663-4.163.663-6.271-.001-14.698-.001-76.818-.003-107.809z"/></g><path d="m273.888 316.046v-40.404c0-9.8 7.945-17.745 17.745-17.745 9.8 0 17.745 7.945 17.745 17.745v40.404z" fill="#ffcebf"/><path d="m222.444 512c-2.209 0-4-1.791-4-4l-.001-32.073c-.001-13.037 10.57-23.608 23.607-23.609h114.581c13.037-.001 23.599 10.565 23.601 23.602v32.08c0 2.209-1.791 4-4 4z" fill="#aee49e"/><path d="m380.232 475.921c-.001-13.037-10.563-23.604-23.601-23.602h-114.581c-.001 0-.003 0-.004 0h84.585c13.037-.001 23.599 10.565 23.601 23.602v32.079c0 2.209-1.791 4-4 4h30c2.209 0 4-1.791 4-4z" fill="#8bd8a5"/><path d="m309.378 275.642c0-9.8 7.945-17.745 17.745-17.745 9.8 0 17.745 7.945 17.745 17.745v40.404h-35.49z" fill="#ffcebf"/><g fill="#ffb09e"><path d="m327.123 257.897c-3.962 0-7.608 1.314-10.562 3.509 4.352 3.234 7.184 8.398 7.184 14.236v29.843c0 5.833 4.729 10.562 10.562 10.562s10.562-4.729 10.562-10.562v-29.843c-.001-9.8-7.946-17.745-17.746-17.745z"/><path d="m291.633 257.897c-3.962 0-7.608 1.314-10.562 3.509 4.352 3.234 7.184 8.398 7.184 14.236v29.843c0 5.833 4.729 10.562 10.562 10.562s10.562-4.729 10.562-10.562v-29.843c-.001-9.8-7.946-17.745-17.746-17.745z"/></g></g></g><path d="m471.23 0h-61.992c-4.142 0-7.5 3.357-7.5 7.5s3.358 7.5 7.5 7.5h61.992c14.209 0 25.77 11.561 25.77 25.77v120.36c0 14.21-11.561 25.771-25.77 25.771h-191.134c-3.361-10.162-13.211-17.24-23.956-17.24-11.122 0-20.579 7.233-23.933 17.24h-191.437c-14.209-.001-25.77-11.561-25.77-25.771v-120.36c0-14.209 11.561-25.77 25.77-25.77h333.468c4.142 0 7.5-3.357 7.5-7.5s-3.358-7.5-7.5-7.5h-333.468c-22.48 0-40.77 18.289-40.77 40.77v120.36c0 22.48 18.29 40.77 40.77 40.77h190.13v118.647l-37.039-38.81c-8.639-9.162-23.844-8.713-32.053.774-8.476 9.796-10.099 23.558-4.137 35.06.048.092.098.183.149.273l30.664 53.582c2.078 3.633 6.694 4.811 10.234 2.784 3.595-2.058 4.842-6.64 2.784-10.235l-30.58-53.435c-3.043-5.992-2.175-13.126 2.221-18.207 2.53-2.924 7.201-3.068 9.859-.247l41.831 43.831c3.47 3.635 8.726 4.774 13.389 2.905 4.663-1.868 7.676-6.321 7.676-11.344v-132.578c0-5.646 4.594-10.24 10.24-10.24 5.551 0 10.281 4.657 10.25 10.24v80.645c0 .032-.002.064-.002.096v32.844c0 4.143 3.358 7.5 7.5 7.5s7.5-3.357 7.5-7.5v-22.317c0-.016.002-.032.002-.048v-10.527c.026-5.627 4.61-10.197 10.243-10.197 5.649 0 10.245 4.596 10.245 10.245v32.844c0 4.143 3.358 7.5 7.5 7.5s7.5-3.357 7.5-7.5v-32.844c0-5.649 4.596-10.245 10.245-10.245s10.245 4.596 10.245 10.245c0 .059.007.116.009.174-.001.092-.007.182-.007.274v32.4c0 4.143 3.358 7.5 7.5 7.5s7.5-3.357 7.5-7.5v-32.4c0-5.843 4.549-10.638 10.141-10.689.033-.001.066-.001.099-.001 5.563 0 10.28 4.657 10.25 10.23v107.81c0 1.578-.167 3.16-.497 4.704l-12.16 56.886c-3.213-.435-108.913-.111-112.435-.211l-28.923-50.54c-2.057-3.595-6.64-4.841-10.234-2.784-3.595 2.058-4.842 6.64-2.784 10.235l25.7 44.907c-12.196 4.34-20.63 16.309-20.583 29.292l.002 28.572c0 4.142 3.358 7.499 7.5 7.499s7.5-3.358 7.5-7.501l-.002-28.572c-.047-8.774 7.345-16.108 16.107-16.108h114.582c8.876-.001 16.099 7.224 16.1 16.103v28.579c0 4.143 3.358 7.5 7.5 7.5s7.5-3.358 7.5-7.5v-28.58c-.001-10.55-5.285-19.883-13.34-25.509l12.64-59.132c.549-2.572.828-5.21.828-7.839v-107.81c.065-13.767-11.528-25.23-25.246-25.23-.081 0-.161.001-.242.001-6.769.063-12.915 2.878-17.421 7.384-4.57-4.563-10.875-7.388-17.828-7.388-6.912 0-13.182 2.794-17.745 7.31-4.563-4.516-10.833-7.31-17.745-7.31-3.646 0-7.11.783-10.243 2.18v-50.677h189.84c22.48 0 40.77-18.29 40.77-40.771v-120.359c.001-22.481-18.289-40.77-40.769-40.77zm-211.368 117.162c0 22.336 18.047 40.507 40.23 40.507s40.23-18.171 40.23-40.507c0-22.335-18.047-40.506-40.23-40.506s-40.23 18.171-40.23 40.506zm65.46 0c0 14.064-11.318 25.507-25.23 25.507s-25.23-11.442-25.23-25.507 11.318-25.506 25.23-25.506 25.23 11.442 25.23 25.506zm33.474-35.773c-1.336-3.92-5.597-6.015-9.518-4.681-3.921 1.337-6.016 5.598-4.68 9.519l22.613 66.361c1.03 3.023 3.863 5.063 7.057 5.081h.043c3.177 0 6.011-2.003 7.071-5.001l16.431-46.494 15.695 46.398c1.027 3.035 3.869 5.083 7.073 5.097h.032c3.191 0 6.035-2.021 7.084-5.038l23.093-66.439c1.36-3.912-.709-8.187-4.622-9.546-3.909-1.356-8.187.709-9.547 4.622l-15.912 45.78-15.637-46.225c-1.791-5.944-11.47-7.432-14.176-.096l-16.457 46.567zm-271.157-21.403c1.115-.903 4.162-.884 5.847-.527 4.017.902 8.017-1.606 8.948-5.624.936-4.035-1.577-8.064-5.612-9-1.127-.264-11.224-2.387-18.506 3.4-2.951 2.345-6.467 6.829-6.467 14.882v15.051h-3.554c-4.142 0-7.5 3.357-7.5 7.5s3.358 7.5 7.5 7.5h3.554v57.001c0 4.143 3.358 7.5 7.5 7.5s7.5-3.357 7.5-7.5v-57.001h7.098c4.142 0 7.5-3.357 7.5-7.5s-3.358-7.5-7.5-7.5h-7.098v-15.051c0-.749.077-2.554.79-3.131zm145.326-8.252v98.435c0 4.143 3.358 7.5 7.5 7.5s7.5-3.357 7.5-7.5v-98.435c0-4.143-3.358-7.5-7.5-7.5s-7.5 3.358-7.5 7.5zm-129.091 65.428c0 22.336 18.047 40.507 40.23 40.507s40.23-18.171 40.23-40.507c0-22.335-18.047-40.506-40.23-40.506s-40.23 18.171-40.23 40.506zm65.46 0c0 14.064-11.318 25.507-25.23 25.507s-25.23-11.442-25.23-25.507 11.318-25.506 25.23-25.506 25.23 11.442 25.23 25.506zm29.177-65.428v98.435c0 4.143 3.358 7.5 7.5 7.5s7.5-3.357 7.5-7.5v-98.435c0-4.143-3.358-7.5-7.5-7.5s-7.5 3.358-7.5 7.5z"/></g></svg>