<svg id="Capa_1" enable-background="new 0 0 511.99 511.99" height="512" viewBox="0 0 511.99 511.99" width="512" xmlns="http://www.w3.org/2000/svg"><g><g><path clip-rule="evenodd" d="m163.379 82.596c-10.403 0-18.934 8.532-18.934 18.963v17.064c0 10.431 8.532 18.935 18.934 18.935h18.963c23.356-26.503 12.245-47.479-1.332-54.962z" fill="#9fd4fe" fill-rule="evenodd"/></g><g><path clip-rule="evenodd" d="m342.914 137.558h19.161 1.105c10.431 0 18.934-8.532 18.934-18.935v-17.064c0-10.431-8.503-18.963-18.934-18.963h-18.963c-14.653 6.69-17.006 43.454-1.303 54.962z" fill="#9fd4fe" fill-rule="evenodd"/></g><g><path clip-rule="evenodd" d="m144.444 118.623c0 10.431 8.532 18.935 18.934 18.935h18.963c4.11-4.649 7.143-9.156 9.297-13.436h-10.601-17.659c-10.403 0-18.934-8.532-18.934-18.935z" fill="#85beef" fill-rule="evenodd"/></g><g><path clip-rule="evenodd" d="m344.218 124.122h-10.091c1.729 5.584 4.649 10.403 8.787 13.436h19.161 1.105c10.431 0 18.934-8.532 18.934-18.935v-13.436c0 10.403-8.503 18.935-18.934 18.935h-1.105z" fill="#85beef" fill-rule="evenodd"/></g><g><path clip-rule="evenodd" d="m283.39 196.403c-7.511 2.806-14.144 4.195-20.748 4.195-6.633 0-13.265-1.389-20.777-4.195-6.859-2.551-13.492-6.094-19.7-10.374v48.046l35.091 28.941h10.743l15.93-13.124 8.503-7.001 10.658-8.815v-48.046c-6.179 4.279-12.812 7.822-19.7 10.373z" fill="#f5a96c" fill-rule="evenodd"/></g><g><path clip-rule="evenodd" d="m262.642 200.598c-6.633 0-13.265-1.389-20.777-4.195-6.859-2.551-13.492-6.094-19.7-10.374v24.037c8.333 9.326 40.76 21.684 61.678 10.913v28.374l19.246-25.879v-26.844-10.601c-6.179 4.28-12.812 7.823-19.7 10.374-7.51 2.806-14.143 4.195-20.747 4.195z" fill="#ea9a58" fill-rule="evenodd"/></g><g><path clip-rule="evenodd" d="m244.87 377.134 17.772-73.812-66.157-71.572c-11.99 4.507-24.745 10.261-36.593 17.376-19.87 11.962-37.188 27.835-43.963 48.244-1.984 5.924-3.061 12.245-3.061 18.963v51.589c-.425 7.341 1.332 9.212 8.532 9.212h90.675z" fill="#375e7d" fill-rule="evenodd"/></g><g><path clip-rule="evenodd" d="m412.387 316.333c0-43.624-45.663-70.325-83.617-84.583l-66.128 71.572 19.615 73.812h121.599c7.228 0 8.957-1.871 8.532-9.212v-51.589z" fill="#375e7d" fill-rule="evenodd"/></g><g><path clip-rule="evenodd" d="m292.602 377.134-13.35-73.812-16.61-8.985-16.638 8.985-13.351 73.812h29.989z" fill="#eb5468" fill-rule="evenodd"/></g><g><path clip-rule="evenodd" d="m262.642 294.337-16.638 8.986-2.183 12.16h22.647l11.168 61.651h14.966l-13.35-73.812z" fill="#e5384f" fill-rule="evenodd"/></g><g><path clip-rule="evenodd" d="m293.113 273.843-30.471-17.007-30.471 17.007 13.833 29.479h16.638 16.61z" fill="#eb5468" fill-rule="evenodd"/></g><g><path clip-rule="evenodd" d="m262.642 256.836-30.471 17.007 6.69 14.258 11.111-6.208 12.67-7.058 14.229 7.965 9.524 5.301 6.718-14.258z" fill="#e5384f" fill-rule="evenodd"/></g><g><path clip-rule="evenodd" d="m262.642 256.836-40.476-33.363c-7.568 2.041-16.412 4.79-25.68 8.277l24.858 48.102 10.828-6.009z" fill="#eff6ff" fill-rule="evenodd"/></g><g><path clip-rule="evenodd" d="m328.77 231.75c-9.269-3.486-18.084-6.236-25.68-8.277l-40.448 33.363 30.471 17.007 10.828 6.009z" fill="#eff6ff" fill-rule="evenodd"/></g><g><path clip-rule="evenodd" d="m328.77 231.75c-9.269-3.486-18.084-6.236-25.68-8.277l-10.658 8.787-8.503 7.001c8.022 2.551 16.752 5.726 25.595 9.552 2.834 1.219 5.641 2.523 8.447 3.855z" fill="#d9eeff" fill-rule="evenodd"/></g><g><path clip-rule="evenodd" d="m412.387 316.333c0-43.624-45.663-70.325-83.617-84.583l-10.799 20.919c37.954 14.258 63.237 40.959 63.237 84.583v39.882h22.647c7.228 0 8.957-1.871 8.532-9.212z" fill="#2b4d66" fill-rule="evenodd"/></g><g><path clip-rule="evenodd" d="m344.218 126.05v-21.004c-11.31-25.794-130.216-87.814-163.181 5.981v15.023c0 29.281 27.523 66.017 61.168 78.489 7.37 2.749 13.889 4.11 20.437 4.11 6.519 0 13.039-1.361 20.437-4.11 33.616-12.473 61.139-49.208 61.139-78.489z" fill="#ffbc85" fill-rule="evenodd"/></g><g><path clip-rule="evenodd" d="m344.218 75.765c0-59.894-96.429-89.77-126.616-50.568-39.427 3.486-36.536 55.954-36.536 62.87l-.028 16.979v5.981c27.863-20.692 18.622-15.505 38.52-27.807 30.386-18.765 56.208 21.826 104.394 21.826h20.267v-29.281z" fill="#375e7d" fill-rule="evenodd"/></g><g><path clip-rule="evenodd" d="m302.466 194.334c15.646-10.828 28.515-26.418 35.658-42.405 3.912-8.73 6.094-17.603 6.094-25.879v-21.004c-8.22-7.03-17.177-10.204-26.049-.198v21.202c0 23.413-17.574 51.589-41.837 68.341-6.066 4.195-12.557 7.653-19.303 10.148-2.579.964-5.017 1.729-7.426 2.353 4.507 1.191 8.759 1.757 13.039 1.757 6.519 0 13.039-1.361 20.437-4.11 6.745-2.495 13.293-6.01 19.387-10.205z" fill="#f5a96c" fill-rule="evenodd"/></g><g><path clip-rule="evenodd" d="m318.169 104.847c1.899.142 3.827.198 5.782.198h20.267v-29.28c0-45.92-56.661-74.18-96.712-67.207 34.807 5.329 70.663 30.698 70.663 67.207z" fill="#2b4d66" fill-rule="evenodd"/></g><g><path clip-rule="evenodd" d="m32.511 356.527h446.968c13.747 0 25 11.253 25 25.001v97.962c0 13.748-11.253 25.001-25 25.001h-446.968c-13.747 0-25-11.253-25-25.001v-97.962c0-13.748 11.253-25.001 25-25.001z" fill="#9fd4fe" fill-rule="evenodd"/></g><g><path clip-rule="evenodd" d="m504.479 479.489v-97.962c0-13.748-11.253-25.001-25-25.001h-37.387c13.747 0 25 11.253 25 25.001v18.566 79.396c0 13.748-11.253 25.001-25 25.001h37.387c13.747 0 25-11.253 25-25.001z" fill="#85beef" fill-rule="evenodd"/></g><g><path d="m456.123 464.71c4.143 0 7.5-3.357 7.5-7.5v-45.732h7.268c4.143 0 7.5-3.357 7.5-7.5s-3.357-7.5-7.5-7.5h-29.394c-4.143 0-7.5 3.357-7.5 7.5s3.357 7.5 7.5 7.5h7.126v45.732c0 4.143 3.357 7.5 7.5 7.5z"/><path d="m418.64 417.611c0-11.763-9.926-21.333-22.126-21.333h-14.144c-.251 0-.501.013-.749.038-.214.021-.423.056-.631.094-.032.006-.065.008-.098.015-.732.146-1.425.399-2.063.741-.001 0-.001 0-.002.001-.209.112-.412.235-.609.366-.008.005-.015.009-.023.014-.41.275-.791.589-1.138.937-.002.001-.003.003-.005.004-.031.031-.056.065-.086.096-.139.144-.275.291-.402.446-.041.05-.075.103-.115.153-.111.143-.222.287-.323.438-.033.05-.061.103-.093.154-.099.157-.197.315-.285.479-.024.045-.043.093-.066.138-.088.173-.172.347-.247.527-.019.046-.033.094-.052.141-.07.18-.138.362-.194.549-.018.06-.03.121-.047.181-.048.174-.095.349-.13.528-.019.094-.028.189-.043.284-.023.147-.049.293-.064.443-.014.147-.017.295-.022.443-.004.096-.015.191-.015.288v53.233c0 4.143 3.357 7.5 7.5 7.5s7.5-3.357 7.5-7.5v-12.807l15.641 17.763c1.482 1.685 3.552 2.544 5.632 2.544 1.761 0 3.528-.616 4.953-1.871 3.109-2.737 3.41-7.477.673-10.585l-12.68-14.4c8.483-2.986 14.553-10.843 14.553-20.042zm-22.126-6.333c3.862 0 7.126 2.9 7.126 6.333s-3.264 6.333-7.126 6.333c-1.553 0-4.08.009-6.567.02-.011-2.415-.02-4.853-.02-6.353 0-1.276-.01-3.791-.021-6.333z"/><path d="m251.984 396.278h-14.824c-4.087 0-7.5 3.416-7.5 7.5v53.233c0 4.143 3.357 7.5 7.5 7.5s7.5-3.357 7.5-7.5v-15.665c2.742-.011 5.603-.021 7.324-.021 12.575 0 22.806-10.104 22.806-22.523s-10.23-22.524-22.806-22.524zm0 30.047c-1.709 0-4.538.01-7.264.021-.018-2.824-.032-5.779-.032-7.545 0-1.499-.006-4.556-.012-7.523h7.308c4.231 0 7.806 3.445 7.806 7.523s-3.574 7.524-7.806 7.524z"/><path d="m59.637 449.512c-5.062 0-9.911-2.022-12.974-5.409-2.777-3.072-7.521-3.312-10.593-.534-3.073 2.777-3.312 7.52-.534 10.593 5.858 6.481 14.868 10.351 24.101 10.351 11.634 0 21.407-7.452 23.239-17.72 1.384-7.758-2.099-17.877-16.02-23.007-6.394-2.362-12.36-4.938-14.329-5.802-.993-.854-1.009-1.985-.917-2.62.112-.774.689-2.671 3.649-3.555 7.04-2.134 13.658 3.064 13.856 3.222 3.172 2.623 7.87 2.199 10.521-.958 2.664-3.172 2.252-7.902-.92-10.566-.517-.434-12.832-10.576-27.774-6.063-7.67 2.291-13.104 8.336-14.179 15.775-1.014 7.009 2.022 13.75 7.923 17.594.327.213.671.4 1.028.561.309.139 7.666 3.427 15.948 6.485 1.666.614 7.055 2.883 6.444 6.3-.457 2.573-3.827 5.353-8.469 5.353z"/><path d="m105.017 396.278c-4.143 0-7.5 3.357-7.5 7.5v36.623c0 8.376 3.985 15.151 11.799 20.107 4.119 2.656 8.786 4.003 13.87 4.003 4.378 0 8.474-.949 12.166-2.817 11.699-5.903 14.155-14.854 14.155-21.321v-36.595c0-4.143-3.357-7.5-7.5-7.5s-7.5 3.357-7.5 7.5v36.595c0 2.446-.702 5.301-5.92 7.934-1.603.811-3.369 1.205-5.401 1.205-2.184 0-4.062-.526-5.789-1.64-4.063-2.578-4.88-4.77-4.88-7.471v-36.623c0-4.142-3.358-7.5-7.5-7.5z"/><path d="m176.588 396.278c-4.087 0-7.5 3.416-7.5 7.5v53.233c0 4.143 3.357 7.5 7.5 7.5s7.5-3.357 7.5-7.5v-15.665c2.744-.011 5.605-.021 7.324-.021 12.575 0 22.806-10.104 22.806-22.523s-10.23-22.523-22.806-22.523h-14.824zm22.63 22.524c0 4.078-3.574 7.523-7.806 7.523-1.709 0-4.543.01-7.274.021-.012-2.825-.021-5.779-.021-7.545 0-1.499-.006-4.556-.012-7.523h7.308c4.231 0 7.805 3.446 7.805 7.524z"/><path d="m356.366 430.395c0-18.812-15.304-34.117-34.115-34.117s-34.116 15.305-34.116 34.117 15.305 34.116 34.116 34.116 34.115-15.304 34.115-34.116zm-53.231 0c0-10.541 8.575-19.117 19.116-19.117 10.54 0 19.115 8.576 19.115 19.117s-8.575 19.116-19.115 19.116c-10.541.001-19.116-8.575-19.116-19.116z"/><path d="m479.478 349.026h-59.592v-32.693c0-21.759-10.023-41.498-29.793-58.668-3.127-2.716-7.865-2.383-10.58.744-2.717 3.127-2.383 7.864.744 10.58 16.343 14.194 24.629 30.123 24.629 47.344v32.693h-109.734l-8.093-44.682 9.431-20.058c1.458.813 2.897 1.755 4.426 2.43 3.579 1.579 7.898.047 9.688-3.423l21.738-42.112c7.099 2.877 14.489 6.253 21.782 10.183 1.132.609 2.35.899 3.551.898 2.67 0 5.254-1.429 6.609-3.943 1.965-3.646.602-8.195-3.045-10.16-18.145-9.776-36.756-16.31-50.649-20.365v-20.154c1.985-1.51 3.924-3.089 5.812-4.733h21.014c17.733 0 32.16-14.44 32.16-32.189v-16.445c11.496-2.867 20.04-13.277 20.04-25.648v-17.065c0-14.592-11.858-26.464-26.435-26.464h-11.479c-.336-30.189-23.33-57.413-58.79-69.483-14.989-5.104-30.861-6.805-44.697-4.781-14.443 2.108-26.292 8.062-34.483 17.286-15.403 2.406-37.267 13.573-39.932 56.979h-10.42c-14.576 0-26.435 11.872-26.435 26.464v17.063c0 14.576 11.858 26.435 26.435 26.435h13.177c5.942 19.451 20.158 38.924 38.11 52.574v20.166c-5.837 1.71-12.891 3.976-20.562 6.849-.184.062-.368.13-.549.207-14.08 5.306-30.182 12.651-44.677 22.391-28.871 19.399-43.51 42.644-43.51 69.088v32.693h-72.857c-17.921 0-32.5 14.58-32.5 32.501v97.962c0 17.921 14.579 32.501 32.5 32.501h210.487c4.143 0 7.5-3.357 7.5-7.5s-3.357-7.5-7.5-7.5h-210.487c-9.649 0-17.5-7.851-17.5-17.501v-97.962c0-9.65 7.851-17.501 17.5-17.501h446.967c9.649 0 17.5 7.851 17.5 17.501v97.962c0 9.65-7.851 17.501-17.5 17.501h-201.248c-4.143 0-7.5 3.357-7.5 7.5s3.357 7.5 7.5 7.5h201.247c17.921 0 32.5-14.58 32.5-32.501v-97.962c0-17.922-14.579-32.502-32.5-32.502zm-259.062-117.275 28.975 23.883-24.938 13.899-17.355-33.583c5.052-1.731 9.587-3.126 13.318-4.199zm31.855 79.071h20.717l6.92 38.204h-34.537zm22.219-15h-23.72l-8.847-18.853 20.718-11.547 20.715 11.544zm26.338-26.291-24.94-13.899 28.956-23.882c4.039 1.153 8.529 2.533 13.336 4.168zm36.587-91.626h-6.624c8.174-10.191 14.449-21.521 17.908-32.848h5.875v15.658c.001 9.479-7.697 17.19-17.159 17.19zm37.2-76.345v17.063c0 6.305-5.13 11.435-11.435 11.435h-11.625c.096-1.344.162-2.682.162-4.008v-21.004-14.95h11.463c6.305 0 11.435 5.142 11.435 11.464zm-156.352-68.893c2.088-.185 4.004-1.234 5.282-2.895 13.455-17.476 42.106-17.595 64.533-9.961 22.438 7.638 48.64 26.875 48.64 55.953v21.781h-12.767c-20.211 0-36.658-7.998-51.169-15.054-12.327-5.995-24.21-11.773-36.49-11.773-6.728 0-13.576 1.736-20.679 6.122-12.268 7.585-13.793 8.723-19.834 13.491-1.775 1.401-4.02 3.173-7.224 5.635l.01-7.9c0-.374-.008-.871-.017-1.478-.365-23.367 4.492-51.691 29.715-53.921zm-54.884 97.391c-6.305 0-11.435-5.13-11.435-11.435v-17.063c0-6.321 5.13-11.464 11.435-11.464h10.184l-.026 20.922v.004.005 15.023c0 1.326.066 2.664.161 4.008zm25.158-4.008v-11.259c8.735-6.529 13.371-10.188 16.536-12.686 5.511-4.35 6.504-5.134 18.425-12.505 12.437-7.681 23.767-2.837 42.725 6.381 15.967 7.765 34.063 16.564 57.729 16.564h12.767v13.504c0 17.145-10.647 36.89-26.105 51.855h-42.586c-4.143 0-7.5 3.357-7.5 7.5s3.357 7.5 7.5 7.5h22.435c-3.265 1.787-6.605 3.344-9.997 4.603-6.681 2.483-12.345 3.641-17.823 3.641-5.504 0-11.164-1.155-17.83-3.643-29.979-11.111-56.276-44.502-56.276-71.455zm51.046 85.514c8.381 3.128 15.708 4.584 23.059 4.584 7.319 0 14.644-1.455 23.045-4.579 3.357-1.245 6.665-2.718 9.903-4.393v12.76l-32.95 27.178-32.974-27.179v-12.769c3.243 1.678 6.556 3.152 9.917 4.398zm-119.215 104.769c0-38.102 40.546-62.093 72.577-75.097l21.736 42.06c1.793 3.467 6.108 4.998 9.687 3.42 1.527-.673 2.964-1.615 4.42-2.426l9.41 20.053-8.071 44.684h-109.759z"/></g></g></svg>