<?xml version="1.0" encoding="iso-8859-1"?>
<!-- Generator: Adobe Illustrator 19.0.0, SVG Export Plug-In . SVG Version: 6.00 Build 0)  -->
<svg version="1.1" id="Capa_1" xmlns="http://www.w3.org/2000/svg" xmlns:xlink="http://www.w3.org/1999/xlink" x="0px" y="0px"
	 viewBox="0 0 512 512" style="enable-background:new 0 0 512 512;" xml:space="preserve">
<g>
	<path style="fill:#FFD5B3;" d="M144.803,214.823c-2.75,0-3.564-1.731-1.809-3.849l10.177-12.275H50.254v170.875
		c5.46-4.301,12.344-6.874,19.834-6.874c11.479,0,21.527,6.043,27.196,15.107l-0.001,0.001c3.163-1.713,6.783-2.686,10.632-2.686
		c3.42,0,6.66,0.773,9.559,2.144c4.529-11.729,15.899-20.053,29.217-20.053c11.221,0,21.056,5.908,26.585,14.781V214.823H144.803z"
		/>
	<path style="fill:#FFD5B3;" d="M358.828,198.699l10.177,12.275c1.755,2.117,0.941,3.849-1.809,3.849h-28.471v220.243h123.021
		V198.699H358.828z"/>
</g>
<path style="fill:#C6A07D;" d="M501.829,194.473l-61.35-97.063c-1.469-2.324-4.921-4.227-7.671-4.227H271.347l87.481,105.516H499.5
	C502.25,198.699,503.298,196.798,501.829,194.473z"/>
<g style="opacity:0.1;">
	<path d="M70.087,362.7c1.85,0,3.657,0.173,5.42,0.475V198.699H50.254v170.875C55.714,365.273,62.598,362.7,70.087,362.7z"/>
</g>
<path style="fill:#368C0E;" d="M97.284,377.808c-5.669-9.064-15.717-15.107-27.196-15.107C52.367,362.7,38,377.065,38,394.787
	c0,4.846,1.081,9.438,3.004,13.557h47.335c-1.779-3.211-2.795-6.904-2.795-10.836C85.544,388.995,90.293,381.593,97.284,377.808z"/>
<path style="opacity:0.1;enable-background:new    ;" d="M66.271,408.344c-1.923-4.119-3.004-8.711-3.004-13.557
	c0-13.228,8.006-24.582,19.435-29.491c-3.874-1.661-8.132-2.596-12.614-2.596C52.367,362.7,38,377.065,38,394.787
	c0,4.846,1.081,9.438,3.004,13.557H66.271z"/>
<path style="fill:#5DC647;" d="M146.689,357.214c-13.318,0-24.688,8.323-29.217,20.053c-2.898-1.371-6.138-2.144-9.559-2.144
	c-12.355,0-22.371,10.022-22.371,22.385c0,3.932,1.016,7.625,2.795,10.836h84.936v-36.349
	C167.745,363.122,157.91,357.214,146.689,357.214z"/>
<path style="fill:#775436;" d="M27.79,408.344c-2.75,0-5,2.25-5,5v16.723c0,2.75,2.25,5,5,5h145.485v-26.723H27.79z"/>
<g style="opacity:0.1;">
	<path d="M48,430.066v-16.723c0-2.75,2.25-5,5-5H27.79c-2.75,0-5,2.25-5,5v16.723c0,2.75,2.25,5,5,5H53
		C50.25,435.066,48,432.816,48,430.066z"/>
</g>
<path style="fill:#C6A07D;" d="M240.651,93.184H79.191c-2.75,0-6.202,1.902-7.671,4.227l-61.349,97.063
	c-1.469,2.325-0.421,4.227,2.329,4.227h140.671L240.651,93.184z"/>
<g style="opacity:0.1;">
	<path d="M35.665,194.473L97.014,97.41c1.469-2.324,4.921-4.227,7.671-4.227H79.191c-2.75,0-6.202,1.902-7.671,4.227l-61.349,97.063
		C8.702,196.798,9.75,198.7,12.5,198.7h25.494C35.244,198.699,34.196,196.798,35.665,194.473z"/>
</g>
<path style="fill:#775436;" d="M369.005,210.975L259.19,78.521c-1.755-2.117-4.627-2.117-6.383,0L142.994,210.975
	c-1.755,2.117-0.941,3.849,1.809,3.849h28.472v-0.912L256,114.133l82.727,99.779v0.912h28.471
	C369.946,214.823,370.76,213.092,369.005,210.975z"/>
<polygon style="fill:#FFFFFF;" points="338.726,435.066 173.274,435.066 173.274,213.911 255.999,114.132 338.726,213.911 "/>
<g style="opacity:0.1;">
	<polygon points="268.636,129.374 255.999,114.132 173.274,213.911 173.274,435.066 198.549,435.066 198.549,213.911 	"/>
</g>
<path style="fill:#775436;" d="M295.259,430.066c0,2.75-2.25,5-5,5h-68.518c-2.75,0-5-2.25-5-5V308.664c0-2.75,2.25-5,5-5h68.518
	c2.75,0,5,2.25,5,5V430.066z"/>
<g style="opacity:0.1;">
	<path d="M242,430.066V308.664c0-2.75,2.25-5,5-5h-25.259c-2.75,0-5,2.25-5,5v121.402c0,2.75,2.25,5,5,5H247
		C244.25,435.066,242,432.816,242,430.066z"/>
</g>
<path style="fill:#64CBFF;" d="M132.092,328.786c0,2.75-2.25,5-5,5H97.907c-2.75,0-5-2.25-5-5v-75.292c0-2.75,2.25-5,5-5h29.185
	c2.75,0,5,2.25,5,5V328.786z"/>
<g style="opacity:0.1;">
	<path d="M118,328.786v-75.292c0-2.75,2.25-5,5-5H97.907c-2.75,0-5,2.25-5,5v75.292c0,2.75,2.25,5,5,5H123
		C120.25,333.786,118,331.536,118,328.786z"/>
</g>
<path style="fill:#64CBFF;" d="M419.092,328.786c0,2.75-2.25,5-5,5h-29.185c-2.75,0-5-2.25-5-5v-75.292c0-2.75,2.25-5,5-5h29.185
	c2.75,0,5,2.25,5,5V328.786z"/>
<g style="opacity:0.1;">
	<path d="M405,328.786v-75.292c0-2.75,2.25-5,5-5h-25.093c-2.75,0-5,2.25-5,5v75.292c0,2.75,2.25,5,5,5H410
		C407.25,333.786,405,331.536,405,328.786z"/>
</g>
<path style="fill:#FFC502;" d="M234.092,241.858c-1.816,0-3.289-1.473-3.289-3.29v-28.507c0-12.092,9.838-21.93,21.929-21.93h6.537
	c12.091,0,21.929,9.838,21.929,21.93v28.507c0,1.817-1.473,3.29-3.29,3.29H234.092z"/>
<g style="opacity:0.1;">
	<path d="M256,238.568v-28.507c0-8.756,5.161-16.327,12.599-19.84c-2.833-1.338-5.995-2.09-9.33-2.09h-6.537
		c-12.091,0-21.929,9.838-21.929,21.93v28.507c0,1.817,1.473,3.29,3.289,3.29h25.197C257.473,241.858,256,240.386,256,238.568z"/>
</g>
<path d="M236,382.825c4.142,0,7.5-3.357,7.5-7.5v-15.167c0-4.142-3.358-7.5-7.5-7.5s-7.5,3.358-7.5,7.5v15.167
	C228.5,379.468,231.858,382.825,236,382.825z"/>
<path d="M127.092,240.994H97.907c-6.893,0-12.5,5.607-12.5,12.5v75.292c0,6.893,5.607,12.5,12.5,12.5h29.185
	c6.893,0,12.5-5.607,12.5-12.5v-75.292C139.592,246.602,133.984,240.994,127.092,240.994z M124.592,326.286h-24.185v-70.292h24.185
	V326.286z"/>
<path d="M414.092,240.994h-29.185c-6.893,0-12.5,5.607-12.5,12.5v75.292c0,6.893,5.607,12.5,12.5,12.5h29.185
	c6.893,0,12.5-5.607,12.5-12.5v-75.292C426.592,246.602,420.984,240.994,414.092,240.994z M411.592,326.286h-24.185v-70.292h24.185
	V326.286z"/>
<path d="M259.269,180.632h-6.537c-16.227,0-29.429,13.202-29.429,29.43v28.507c0,5.95,4.84,10.79,10.789,10.79h43.815
	c5.95,0,10.79-4.84,10.79-10.79v-28.507C288.697,193.834,275.496,180.632,259.269,180.632z M273.697,234.358h-35.395v-24.297
	c0-7.956,6.473-14.43,14.429-14.43h6.537c7.956,0,14.429,6.474,14.429,14.43L273.697,234.358L273.697,234.358z"/>
<path d="M504.5,427.566h-35.254V206.199H499.5c4.066,0,7.548-1.915,9.315-5.122s1.525-7.174-0.647-10.611l-61.35-97.063
	c-2.827-4.473-8.72-7.72-14.011-7.72H274.871l-9.907-11.949c-2.266-2.733-5.534-4.301-8.965-4.301S249.3,71,247.034,73.734
	l-9.907,11.949H79.191c-5.291,0-11.184,3.247-14.011,7.72L3.832,190.466c-2.172,3.438-2.414,7.404-0.647,10.611
	c1.767,3.207,5.25,5.122,9.315,5.122h30.254v159.993c-7.542,7.212-12.254,17.36-12.254,28.595c0,2.061,0.167,4.081,0.473,6.057
	H27.79c-6.893,0-12.5,5.608-12.5,12.5v14.223H7.5c-4.142,0-7.5,3.358-7.5,7.5c0,4.143,3.358,7.5,7.5,7.5h497
	c4.142,0,7.5-3.357,7.5-7.5C512,430.925,508.642,427.566,504.5,427.566z M473.714,164.029H339.826l-9.949-12h136.252
	L473.714,164.029z M449.064,125.029l7.585,12H317.441l-9.949-12C307.492,125.029,449.064,125.029,449.064,125.029z M432.732,100.684
	c0.407,0.071,1.17,0.491,1.447,0.798l5.403,8.548H295.056l-7.748-9.346H432.732z M62.936,125.029H113c4.142,0,7.5-3.357,7.5-7.5
	c0-4.142-3.358-7.5-7.5-7.5H72.416l5.403-8.548c0.277-0.307,1.04-0.727,1.447-0.798H224.69l-7.749,9.346H148
	c-4.142,0-7.5,3.358-7.5,7.5c0,4.143,3.358,7.5,7.5,7.5h56.506l-9.949,12H55.351L62.936,125.029z M45.87,152.029h136.251l-9.949,12
	H38.286L45.87,152.029z M21.113,191.199l7.692-12.17h130.932l-10.09,12.17H21.113z M78.238,400.844H46.271
	c-0.495-1.939-0.771-3.965-0.771-6.057c0-13.557,11.03-24.587,24.587-24.587c6.192,0,12.05,2.393,16.497,6.414
	c-5.278,5.393-8.541,12.768-8.541,20.894C78.044,398.637,78.114,399.748,78.238,400.844z M165.774,427.566H30.29v-11.723h135.485
	L165.774,427.566L165.774,427.566z M165.774,400.844H93.433c-0.248-1.073-0.389-2.188-0.389-3.336
	c0-8.207,6.671-14.885,14.871-14.885c2.218,0,4.355,0.48,6.352,1.424c1.885,0.892,4.055,0.958,5.991,0.185s3.462-2.318,4.213-4.263
	c3.523-9.124,12.453-15.255,22.22-15.255c7.708,0,14.698,3.781,19.085,9.65v26.48H165.774z M165.774,354.799
	c-5.678-3.237-12.208-5.085-19.085-5.085c-13.514,0-26.041,7.194-33.031,18.461c-1.878-0.367-3.796-0.552-5.745-0.552
	c-2.801,0-5.51,0.397-8.083,1.121c-7.404-8.399-18.216-13.544-29.744-13.544c-4.306,0-8.449,0.7-12.334,1.978V206.199h79.458
	c-2.72,3.288-3.39,7.28-1.791,10.684c1.601,3.406,5.108,5.44,9.382,5.44h20.972v132.476H165.774z M155.764,207.323l100.235-120.9
	l100.236,120.9h-13.229l-81.233-97.978c-1.425-1.718-3.541-2.713-5.774-2.713c-2.232,0-4.349,0.995-5.774,2.714l-81.231,97.977
	H155.764z M287.759,427.566h-63.518V311.164h63.518V427.566z M454.246,427.566h-108.02V337c0-4.143-3.358-7.5-7.5-7.5
	s-7.5,3.357-7.5,7.5v90.566h-28.467V308.664c0-6.893-5.607-12.5-12.5-12.5h-68.518c-6.893,0-12.5,5.607-12.5,12.5v118.902h-28.467
	v-210.95l75.225-90.733l75.227,90.733V301.5c0,4.143,3.358,7.5,7.5,7.5s7.5-3.357,7.5-7.5v-79.177h20.971
	c4.273,0,7.781-2.034,9.382-5.44c1.599-3.403,0.929-7.395-1.791-10.684H404c4.142,0,7.5-3.357,7.5-7.5c0-4.142-3.358-7.5-7.5-7.5
	h-41.648l-10.09-12.17h130.933l7.692,12.17H440c-4.142,0-7.5,3.358-7.5,7.5c0,4.143,3.358,7.5,7.5,7.5h14.246V427.566z"/>
<g>
</g>
<g>
</g>
<g>
</g>
<g>
</g>
<g>
</g>
<g>
</g>
<g>
</g>
<g>
</g>
<g>
</g>
<g>
</g>
<g>
</g>
<g>
</g>
<g>
</g>
<g>
</g>
<g>
</g>
</svg>
