<?xml version="1.0" ?><svg viewBox="0 0 64 64" xmlns="http://www.w3.org/2000/svg"><defs><style>.cls-1{fill:#758190;}.cls-2{fill:#919aa6;}.cls-3{fill:#c1c8d1;}.cls-4{fill:#e6e9ed;}.cls-5{fill:#96cc7f;}.cls-6{fill:#c0e0b2;}.cls-7{fill:#a8b0bc;}.cls-8{fill:#dcdfe4;}.cls-9{fill:#ef7e68;}.cls-10{fill:#f29886;}.cls-11{fill:none;stroke:#000;stroke-linejoin:round;stroke-width:2px;}</style></defs><title/><g data-name="Layer 29" id="Layer_29"><rect class="cls-1" height="54" width="34" x="28" y="8"/><path class="cls-2" d="M28,61.4C41.632,58.126,52,41.738,52,22A53.6,53.6,0,0,0,50.17,8H28Z"/><rect class="cls-3" height="50" width="26" x="32" y="12"/><path class="cls-4" d="M32,60.026C43.609,54.8,52,39.756,52,22a54.5,54.5,0,0,0-.914-10H32Z"/><rect class="cls-5" height="30" width="36" x="2" y="2"/><path class="cls-6" d="M2,2V27.546A22.825,22.825,0,0,0,6.5,28C19.876,28,30.741,16.4,30.988,2Z"/><polygon class="cls-7" points="13 21 22 21 22 18 27 23 22 28 22 25 13 25 13 21"/><path class="cls-8" d="M22,18v3H13v4h4.821a24.825,24.825,0,0,0,6.194-4.985Z"/><path class="cls-9" d="M4.121,60.121h0A7.242,7.242,0,0,1,2,55H2a7.242,7.242,0,0,1,2.121-5.121L5,49l3,3,4-8,4,8,3-3,.879.879A7.242,7.242,0,0,1,22,55h0a7.242,7.242,0,0,1-2.121,5.121h0A6.416,6.416,0,0,1,15.343,62H8.657A6.416,6.416,0,0,1,4.121,60.121Z"/><path class="cls-10" d="M17.34,50.66,16,52l-4-8L8,52,5,49l-.879.879A7.227,7.227,0,0,0,3.8,59.771,18.98,18.98,0,0,0,17.34,50.66Z"/><path class="cls-9" d="M26.121,60.121h0A7.242,7.242,0,0,1,24,55h0a7.242,7.242,0,0,1,2.121-5.121L27,49l3,3,4-8,4,8,3-3,.879.879A7.242,7.242,0,0,1,44,55h0a7.242,7.242,0,0,1-2.121,5.121h0A6.416,6.416,0,0,1,37.343,62H30.657A6.416,6.416,0,0,1,26.121,60.121Z"/><path class="cls-10" d="M39.34,50.66,38,52l-4-8-4,8-3-3-.879.879a7.227,7.227,0,0,0-.317,9.892A18.98,18.98,0,0,0,39.34,50.66Z"/><polyline class="cls-11" points="38 8 62 8 62 62 2 62"/><line class="cls-11" x1="28" x2="28" y1="50" y2="32"/><polyline class="cls-11" points="38 12 58 12 58 62"/><line class="cls-11" x1="32" x2="32" y1="48" y2="32"/><path class="cls-11" d="M26.121,60.121h0A7.242,7.242,0,0,1,24,55h0a7.242,7.242,0,0,1,2.121-5.121L27,49l3,3,4-8,4,8,3-3,.879.879A7.242,7.242,0,0,1,44,55h0a7.242,7.242,0,0,1-2.121,5.121h0A6.416,6.416,0,0,1,37.343,62H30.657A6.416,6.416,0,0,1,26.121,60.121Z"/><path class="cls-11" d="M4.121,60.121h0A7.242,7.242,0,0,1,2,55H2a7.242,7.242,0,0,1,2.121-5.121L5,49l3,3,4-8,4,8,3-3,.879.879A7.242,7.242,0,0,1,22,55h0a7.242,7.242,0,0,1-2.121,5.121h0A6.416,6.416,0,0,1,15.343,62H8.657A6.416,6.416,0,0,1,4.121,60.121Z"/><rect class="cls-11" height="30" width="36" x="2" y="2"/><polyline class="cls-11" points="13 6 8 6 8 14 13 14"/><line class="cls-11" x1="8" x2="12" y1="10" y2="10"/><path class="cls-11" d="M16,15h0a6.608,6.608,0,0,1,1.109-3.664l1.782-2.672A6.608,6.608,0,0,0,20,5h0"/><path class="cls-11" d="M20,15h0a6.608,6.608,0,0,0-1.109-3.664L17.109,8.664A6.608,6.608,0,0,1,16,5h0"/><line class="cls-11" x1="24" x2="24" y1="5" y2="15"/><line class="cls-11" x1="27" x2="33" y1="6" y2="6"/><line class="cls-11" x1="30" x2="30" y1="6" y2="15"/><polygon class="cls-11" points="13 21 22 21 22 18 27 23 22 28 22 25 13 25 13 21"/></g></svg>