<svg id="Capa_1" enable-background="new 0 0 512 512" height="512" viewBox="0 0 512 512" width="512" xmlns="http://www.w3.org/2000/svg"><g><path d="m465.642 30.905c14.224 0 25.754 11.531 25.754 25.755v429.586c0 14.224-11.531 25.754-25.754 25.754h-439.888c-14.223 0-25.754-11.531-25.754-25.754v-375.827c0-14.224 11.531-79.513 25.754-79.513h439.888z" fill="#eef5f6"/><path d="m379.708 234.055c-8.465-2.992-17.84-6.616-23.192-10.814-2.091-1.64-2.994-5.068-2.303-8.736.677-3.595 3.115-7.952 7.927-9.4 10.825-3.264 17.877 2.561 18.367 2.98l1.812 1.664c3.145 2.883 8.031 2.674 10.917-.469 2.884-3.145 2.675-8.032-.469-10.917l-1.843-1.69c-.363-.335-6.245-5.63-15.899-7.426v-4.967c0-4.268-3.459-7.726-7.726-7.726s-7.726 3.459-7.726 7.726v5.51c-.623.156-1.252.327-1.889.519-9.57 2.883-16.719 11.058-18.656 21.335-1.774 9.415 1.273 18.519 7.953 23.758 5.732 4.496 13.722 8.327 27.579 13.224 10.705 3.784 10.052 12.914 9.598 15.621-1.157 6.877-6.941 14.31-16.909 14.376-9.133.068-12.241-.435-19.392-5.112-3.568-2.335-8.358-1.335-10.695 2.236-2.336 3.57-1.335 8.359 2.236 10.695 7.885 5.158 13.405 6.896 20.176 7.424v5.568c0 4.268 3.459 7.726 7.726 7.726s7.726-3.459 7.726-7.726v-6.287c13.674-3.296 22.446-14.898 24.369-26.34 2.485-14.79-5.241-27.645-19.687-32.752z" fill="#ade194"/><path d="m475.944 10.302h-41.207c14.224 0 25.755 1.229 25.755 15.453v460.491c0 14.224-11.531 25.754-25.755 25.754h51.509c14.223 0 25.754-11.531 25.754-25.754v-375.827l-10.302-84.664c0-14.224-11.53-15.453-25.754-15.453z" fill="#deecf1"/><path d="m465.642 0h-439.888c-14.223 0-25.754 11.531-25.754 25.754v84.664h460.491l30.905-84.664c0-14.223-11.53-25.754-25.754-25.754z" fill="#62dbfb"/><path d="m460.491 25.754v84.664h51.509v-84.664c0-14.223-11.531-25.754-25.754-25.754h-51.509c14.223 0 25.754 11.531 25.754 25.754z" fill="#01c0fa"/><path d="m221.917 55.209c0 10.122-8.206 18.328-18.328 18.328-10.123 0-18.328-8.206-18.328-18.328s8.206-18.328 18.328-18.328 18.328 8.206 18.328 18.328z" fill="#ade194"/><ellipse cx="130.019" cy="55.209" fill="#ffe177" rx="18.328" ry="18.328" transform="matrix(.707 -.707 .707 .707 -.957 108.107)"/><ellipse cx="56.448" cy="55.209" fill="#fd8087" rx="18.328" ry="18.328" transform="matrix(.288 -.958 .958 .288 -12.696 93.335)"/><g fill="#ade194"><path d="m127.547 270.242h33.173c2.845 0 5.151 2.306 5.151 5.151v184.623h-43.474v-184.623c-.001-2.845 2.305-5.151 5.15-5.151z"/><path d="m239.414 311.449h33.172c2.845 0 5.151 2.306 5.151 5.151v143.416h-43.474v-143.416c0-2.844 2.306-5.151 5.151-5.151z"/><path d="m351.28 352.657h33.173c2.845 0 5.151 2.306 5.151 5.151v102.209h-43.474v-102.21c-.001-2.844 2.306-5.15 5.15-5.15z"/></g><g><path d="m81.85 467.743h348.3c4.268 0 7.726-3.459 7.726-7.726 0-4.268-3.459-7.726-7.726-7.726h-348.3c-4.268 0-7.726 3.459-7.726 7.726s3.458 7.726 7.726 7.726z" fill="#7a6d79"/></g><path d="m285.114 241.628-12.215-39.195c-1.27-4.073-5.602-6.348-9.675-5.077-4.074 1.27-6.347 5.602-5.077 9.675l6.665 21.387-138.825-72.853c-3.781-1.983-8.45-.526-10.432 3.251-1.983 3.779-.527 8.45 3.251 10.432l138.826 72.852-21.388 6.666c-4.074 1.27-6.347 5.602-5.078 9.675 1.031 3.309 4.082 5.43 7.374 5.43.761 0 1.536-.114 2.301-.352l39.195-12.215c4.075-1.271 6.347-5.603 5.078-9.676z" fill="#fd8087"/></g></svg>