<?xml version="1.0" encoding="utf-8"?>
<!-- Generator: Adobe Illustrator 19.2.0, SVG Export Plug-In . SVG Version: 6.00 Build 0)  -->
<svg xmlns="http://www.w3.org/2000/svg" xmlns:xlink="http://www.w3.org/1999/xlink" version="1.1" id="webnotification" x="0px" y="0px" viewBox="0 0 214.6279 199.8223" enable-background="new 0 0 214.6279 199.8223" xml:space="preserve" width="512" height="512">
<g>
	<path fill="#5CB0FF" d="M110.4863,184h82.5234l-41.2617-75.6484L110.4863,184z M155.748,168h-8v-44h8V168z"/>
	<path fill="#1C71DA" d="M91.748,160V84h42.989c0.0146,0.7878,0.0696,1.5579,0.0696,2.3516c0,2.2109,1.7891,4,4,4s4-1.7891,4-4   c0-0.7937-0.0603-1.5632-0.0745-2.3516h25.0159h5.6484h2.3516c0-46.3164-37.6836-84-84-84h-8v0.4053   C41.1726,4.45,7.748,40.3838,7.748,84c0,46.3164,37.6836,84,84,84c2.2109,0,4-1.7891,4-4S93.959,160,91.748,160z M83.748,158.6755   c-19.9287-6.438-35.0586-36.3945-35.0586-72.324c0-0.7937,0.0549-1.5637,0.0696-2.3516h34.989V158.6755z M49.1655,76   C51.75,44.7942,65.7729,19.8376,83.748,14.0312V76H49.1655z M91.748,76V12.707c21.6829,0,39.6248,27.5808,42.5825,63.293H91.748z    M167.3181,76h-24.9685c-2.3884-29.9812-14.96-54.8911-31.9993-65.6013C140.7681,18.0952,163.9641,44.0977,167.3181,76z    M73.1458,10.3987C56.1064,21.1089,43.5349,46.0188,41.1465,76H16.178C19.532,44.0977,42.728,18.0952,73.1458,10.3987z M15.748,84   h25.0159c-0.0142,0.7883-0.0745,1.5579-0.0745,2.3516c0,28.5327,9.217,53.6572,23.1233,68.2603   C35.7031,143.4497,15.748,116.0374,15.748,84z"/>
	<path fill="#1C71DA" d="M203.2598,186.0859l-48-88c-1.3984-2.5703-5.625-2.5703-7.0234,0l-48,88   c-0.6758,1.2383-0.6484,2.7422,0.0703,3.957c0.7227,1.2109,2.0312,1.957,3.4414,1.957h96c1.4102,0,2.7188-0.7461,3.4414-1.957   C203.9082,188.8281,203.9355,187.3242,203.2598,186.0859z M110.4863,184l41.2617-75.6484L193.0098,184H110.4863z"/>
	<rect x="147.748" y="124" fill="#FFFFFF" width="8" height="44"/>
	<rect x="147.748" y="171.3333" fill="#FFFFFF" width="8" height="4.9167"/>
</g>
<path fill="#FF5D5D" d="M172,23.8223c-1.0234,0-2.0479-0.3906-2.8281-1.1719c-1.5625-1.5615-1.5625-4.0947,0-5.6562l14.1426-14.1416  c1.5625-1.5625,4.0957-1.5625,5.6562,0c1.5625,1.5615,1.5625,4.0947,0,5.6562l-14.1426,14.1416  C174.0469,23.4316,173.0234,23.8223,172,23.8223z"/>
<path fill="#FF5D5D" d="M186.1426,23.8223c-1.0234,0-2.0469-0.3906-2.8281-1.1719L169.1719,8.5088  c-1.5625-1.5615-1.5625-4.0947,0-5.6562c1.5605-1.5625,4.0938-1.5625,5.6562,0l14.1426,14.1416  c1.5625,1.5615,1.5625,4.0947,0,5.6562C188.1904,23.4316,187.166,23.8223,186.1426,23.8223z"/>
<path fill="#00D40B" d="M14,199.8223c-7.7197,0-14-6.2803-14-14s6.2803-14,14-14s14,6.2803,14,14S21.7197,199.8223,14,199.8223z   M14,179.8223c-3.3086,0-6,2.6914-6,6s2.6914,6,6,6s6-2.6914,6-6S17.3086,179.8223,14,179.8223z"/>
<path fill="#FFC504" d="M199.3145,118.4502c-1.0605,0-2.0781-0.4219-2.8281-1.1719l-11.3145-11.3145  c-0.75-0.75-1.1719-1.7676-1.1719-2.8281s0.4219-2.0781,1.1719-2.8281l11.3145-11.3135c1.5625-1.5625,4.0938-1.5625,5.6562,0  l11.3135,11.3135c1.5625,1.5615,1.5625,4.0947,0,5.6562l-11.3135,11.3145C201.3926,118.0283,200.375,118.4502,199.3145,118.4502z   M193.6572,103.1357l5.6572,5.6572l5.6572-5.6572l-5.6572-5.6572L193.6572,103.1357z"/>
</svg>
