<svg id="Capa_1" enable-background="new 0 0 512 512" height="512" viewBox="0 0 512 512" width="512" xmlns="http://www.w3.org/2000/svg"><g><g><path d="m475.44 407.84c-1.19 9.92-2.52 19.83-3.98 29.75-143.64 11.8-287.28 11.8-430.92 0-1.46-9.92-2.79-19.83-3.98-29.75-10.46-87.17-10.5-174.34-.1-261.51 2.13-17.83 16.63-31.62 34.54-32.89 123.33-8.7 246.67-8.7 370 0 17.91 1.27 32.41 15.06 34.54 32.89 10.4 87.17 10.36 174.34-.1 261.51z" fill="#e4f6ff"/><path d="m475.44 407.84c-1.19 9.92-2.52 19.83-3.98 29.75-143.64 11.8-287.28 11.8-430.92 0-1.46-9.92-2.79-19.83-3.98-29.75 1.99-.35 4.04-.53 6.13-.53h426.62c2.09 0 4.14.18 6.13.53z" fill="#b9e4ef"/><path d="m256 406.441c-59.711 0-120.134-2.11-180.064-6.279-9.602-82.137-9.612-165.052-.007-246.965 59.761-4.166 120.331-6.277 180.071-6.277s120.31 2.112 180.072 6.277c9.605 81.913 9.595 164.827-.007 246.965-59.931 4.169-120.354 6.279-180.065 6.279z" fill="#6bbef6"/><path d="m469.315 430.77h-426.63c-19.432 0-35.185 15.753-35.185 35.185s15.753 35.185 35.185 35.185h426.629c19.432 0 35.185-15.753 35.185-35.185.001-19.432-15.752-35.185-35.184-35.185z" fill="#e4f6ff"/><path d="m71.56 490.835c6.37 6.37 15.16 10.31 24.88 10.31h-53.75c-9.72 0-18.52-3.94-24.89-10.31-6.36-6.36-10.3-15.16-10.3-24.88 0-19.43 15.75-35.18 35.19-35.18h53.75c-19.43 0-35.18 15.75-35.18 35.18 0 9.72 3.94 18.52 10.3 24.88z" fill="#b9e4ef"/><g><circle cx="255.987" cy="63.989" fill="#eab14d" r="29.603"/><circle cx="256" cy="320.389" fill="#eab14d" r="46.556"/><path d="m400.989 255.529h-289.98c22.39 0 36.94-14.24 43.14-34.9 2.27-7.58 3.42-16.02 3.42-24.95 0-33.26 11.97-131.69 98.43-131.69s98.43 98.43 98.43 131.69c0 8.93 1.15 17.37 3.42 24.95 6.2 20.66 20.76 34.9 43.14 34.9z" fill="#f4dd45"/><path d="m256.002 63.989c-44.82 0-51.03 98.43-51.03 131.68 0 33.26-8.27 59.86-24.13 59.86h-69.83c30.59 0 46.55-26.6 46.55-59.85 0-33.26 11.98-131.69 98.44-131.69z" fill="#eab14d"/><path d="m400.989 255.529h-289.98c22.39 0 36.94-14.24 43.14-34.9h203.7c6.2 20.66 20.76 34.9 43.14 34.9z" fill="#eab14d"/><path d="m375.05 241.909h-238.1c-21.672 0-39.24 17.568-39.24 39.24s17.568 39.24 39.24 39.24h238.1c21.672 0 39.24-17.568 39.24-39.24 0-21.671-17.569-39.24-39.24-39.24z" fill="#f4dd45"/><path d="m186.35 308.899c7.1 7.1 16.92 11.49 27.75 11.49h-77.15c-10.84 0-20.64-4.39-27.75-11.49-7.1-7.1-11.49-16.91-11.49-27.75 0-21.67 17.57-39.24 39.24-39.24h77.15c-21.67 0-39.24 17.57-39.24 39.24 0 10.84 4.391 20.65 11.49 27.75z" fill="#eab14d"/></g></g><g><path d="m480.827 424.86c.736-5.444 1.428-10.846 2.06-16.126 10.485-87.382 10.52-175.966.101-263.293-2.551-21.355-19.986-37.959-41.459-39.482-34.762-2.455-69.918-4.224-104.576-5.278-11.457-18.003-26.138-30.56-43.886-37.568-.469-20.052-16.914-36.224-37.078-36.224-20.217 0-36.697 16.257-37.082 36.383-17.732 7.088-32.52 19.664-43.854 37.409-34.658 1.054-69.817 2.823-104.583 5.279-21.471 1.522-38.906 18.126-41.457 39.482-10.418 87.326-10.385 175.911.101 263.289.63 5.268 1.322 10.671 2.06 16.129-17.961 5.038-31.174 21.547-31.174 41.095 0 23.537 19.148 42.686 42.686 42.686h426.629c23.537 0 42.686-19.148 42.686-42.686-.001-19.548-13.214-36.057-31.174-41.095zm-224.838-382.971c10.304 0 18.982 7.089 21.417 16.645-6.774-1.354-13.908-2.044-21.406-2.044-7.48 0-14.635.707-21.443 2.104 2.415-9.586 11.106-16.705 21.432-16.705zm-212.082 105.331c1.699-14.224 13.316-25.284 27.621-26.298 31.639-2.235 63.609-3.903 95.221-4.972-3.906 8.445-6.905 17.049-9.203 25.366-27.03 1.014-54.627 2.489-82.137 4.403-3.598.25-6.508 3.026-6.928 6.608-9.665 82.37-9.661 166.047.009 248.706.419 3.583 3.331 6.361 6.931 6.61 13.965.968 28.146 1.838 42.148 2.587.136.007.272.011.407.011 3.958 0 7.269-3.1 7.483-7.1.221-4.136-2.953-7.668-7.089-7.89-11.848-.633-23.824-1.354-35.687-2.148-8.595-77.419-8.598-155.687-.012-232.846 23.893-1.604 47.819-2.878 71.334-3.8-3.506 18.116-3.936 33.113-3.936 39.223 0 15.823-3.872 29.413-10.943 38.729h-2.176c-25.772 0-46.74 20.967-46.74 46.74s20.967 46.74 46.74 46.74h65.526c3.664 26.268 26.263 46.556 53.524 46.556s49.86-20.288 53.524-46.556h65.526c25.772 0 46.739-20.967 46.739-46.74s-20.967-46.74-46.739-46.74h-2.181c-4.881-6.442-8.279-14.997-9.885-24.971-.658-4.089-4.504-6.872-8.596-6.213-4.09.658-6.871 4.507-6.213 8.596 1.338 8.32 3.758 15.933 7.124 22.588h-198.596c5.448-10.791 8.367-24.075 8.367-38.729 0-20.115 4.218-50.4 16.055-75.073 15.635-32.591 40.827-49.117 74.875-49.117 30.4 0 53.818 13.234 69.603 39.335 14.946 24.716 19.38 54.779 20.693 70.499.344 4.128 3.985 7.19 8.098 6.85 4.128-.345 7.194-3.971 6.85-8.098-.514-6.159-1.482-14.366-3.284-23.621 23.526.922 47.464 2.196 71.369 3.801 8.586 77.162 8.582 155.432-.013 232.847-57.686 3.874-115.96 5.836-173.315 5.836-35.683 0-71.96-.765-107.825-2.273-4.107-.18-7.634 3.04-7.808 7.178s3.04 7.634 7.178 7.808c36.074 1.518 72.563 2.287 108.455 2.287 59.765 0 120.521-2.119 180.58-6.298 3.599-.25 6.51-3.027 6.929-6.61 9.671-82.656 9.674-166.333.011-248.706-.421-3.582-3.331-6.357-6.929-6.608-27.522-1.915-55.133-3.39-82.177-4.404-2.282-8.276-5.262-16.911-9.163-25.365 31.613 1.07 63.583 2.738 95.219 4.972 14.307 1.014 25.924 12.074 27.623 26.297 10.278 86.143 10.244 173.528-.099 259.729-.64 5.342-1.341 10.811-2.088 16.321h-419.813c-.749-5.525-1.45-10.994-2.087-16.323-10.344-86.197-10.377-173.581-.1-259.724zm331.143 102.19c17.501 0 31.739 14.238 31.739 31.74s-14.238 31.74-31.739 31.74h-238.1c-17.501 0-31.74-14.238-31.74-31.74s14.238-31.74 31.74-31.74zm-80.725 78.479c-3.508 17.958-19.356 31.556-38.325 31.556s-34.817-13.597-38.325-31.556zm174.989 165.752h-426.628c-15.266 0-27.686-12.42-27.686-27.686s12.419-27.686 27.686-27.686h426.629c15.266 0 27.686 12.42 27.686 27.686s-12.421 27.686-27.687 27.686z"/><path d="m364.196 63.054c1.919 0 3.839-.732 5.303-2.197l28.865-28.864c2.93-2.929 2.93-7.677.001-10.606s-7.678-2.93-10.606 0l-28.865 28.863c-2.93 2.929-2.93 7.677-.001 10.606 1.464 1.466 3.383 2.198 5.303 2.198z"/><path d="m369.729 77.977c.633 3.647 3.801 6.219 7.381 6.219.426 0 .857-.037 1.291-.112l31.771-5.512c4.081-.708 6.815-4.59 6.107-8.672-.708-4.081-4.59-6.815-8.672-6.107l-31.771 5.512c-4.08.708-6.815 4.59-6.107 8.672z"/><path d="m341.773 50.021c.434.075.865.112 1.291.112 3.579 0 6.748-2.572 7.381-6.219l5.513-31.771c.708-4.081-2.026-7.964-6.107-8.672-4.079-.708-7.964 2.026-8.672 6.107l-5.513 31.771c-.708 4.081 2.026 7.964 6.107 8.672z"/><path d="m142.5 60.857c1.464 1.464 3.384 2.197 5.303 2.197s3.839-.732 5.303-2.197c2.929-2.929 2.929-7.678 0-10.606l-28.865-28.864c-2.929-2.929-7.678-2.929-10.606 0-2.929 2.929-2.929 7.678 0 10.606z"/><path d="m101.828 78.572 31.771 5.512c.434.075.865.112 1.291.112 3.58 0 6.748-2.572 7.381-6.219.708-4.082-2.026-7.964-6.107-8.672l-31.771-5.512c-4.085-.707-7.964 2.027-8.672 6.107-.709 4.082 2.026 7.964 6.107 8.672z"/><path d="m161.555 43.913c.633 3.647 3.801 6.219 7.381 6.219.426 0 .857-.037 1.291-.112 4.081-.708 6.815-4.591 6.107-8.672l-5.513-31.771c-.708-4.082-4.596-6.815-8.672-6.107-4.081.708-6.815 4.591-6.107 8.672z"/></g></g></svg>