<svg id="Capa_1" enable-background="new 0 0 512 512" height="512" viewBox="0 0 512 512" width="512" xmlns="http://www.w3.org/2000/svg"><g><g><g><path d="m491.396 48.728v307.406l-235.396 32.073s-255.99-32.073-255.99-31.681c-.01-.135-.01-.258-.01-.392v-307.406c0-26.909 21.871-48.728 48.851-48.728h393.694c26.981 0 48.851 21.819 48.851 48.728z" fill="#a8e1f6"/></g><g><path d="m463.149 0h-41.207c26.98 0 48.851 21.819 48.851 48.728v307.406l14.938 16.964 26.269-16.964v-307.406c0-26.909-21.871-48.728-48.851-48.728z" fill="#78c4ea"/></g><path d="m256 384.258-25.755 20.603v60.781l25.755 20.603 25.755-20.603v-60.781z" fill="#5d6a85"/><g><path d="m491.396 356.134c0 26.908-21.871 48.728-48.851 48.728h-393.694c-26.847 0-48.635-21.603-48.841-48.336z" fill="#8991a6"/></g><g><path d="m470.792 356.165c-.017 26.894-21.881 48.696-48.85 48.696h41.207c26.98 0 48.851-21.819 48.851-48.728z" fill="#5d6a85"/></g><g><path d="m133.924 502.9c0-20.577 16.681-37.258 37.258-37.258h149.033c20.577 0 37.258 16.681 37.258 37.258 0 5.026-4.074 9.1-9.1 9.1h-205.35c-5.025 0-9.099-4.074-9.099-9.1z" fill="#8991a6"/></g><g><path d="m340.818 465.642h-41.207c20.577 0 37.258 16.681 37.258 37.258 0 5.026-4.074 9.1-9.1 9.1h41.207c5.026 0 9.1-4.074 9.1-9.1 0-20.577-16.681-37.258-37.258-37.258z" fill="#5d6a85"/></g></g><g><g><g><path d="m256 64.216-157.793 27.985v103.276c0 14.464 11.723 26.187 26.187 26.187h263.211c14.464 0 26.187-11.723 26.187-26.187v-103.276z" fill="#ffa1ac"/><path d="m387.606 36.231h-263.212c-14.464 0-26.187 11.724-26.187 26.177v29.793h315.586v-29.793c0-14.453-11.724-26.177-26.187-26.177z" fill="#8991a6"/><path d="m358.767 180.625h-21.388c-7.18 0-13-5.82-13-13v-21.388c0-7.18 5.82-13 13-13h21.388c7.18 0 13 5.82 13 13v21.388c0 7.18-5.821 13-13 13z" fill="#ff6e80"/></g><g fill="#fff"><path d="m147.96 146.286h78.809c4.267 0 7.726-3.459 7.726-7.726s-3.459-7.726-7.726-7.726h-78.809c-4.267 0-7.726 3.459-7.726 7.726s3.459 7.726 7.726 7.726z"/><path d="m147.96 182.342h49.62c4.267 0 7.726-3.459 7.726-7.726s-3.459-7.726-7.726-7.726h-49.62c-4.267 0-7.726 3.459-7.726 7.726s3.459 7.726 7.726 7.726z"/></g></g><g><ellipse cx="176.443" cy="292.86" fill="#ffa1ac" rx="29.355" ry="23.377"/><ellipse cx="335.557" cy="292.86" fill="#ffa1ac" rx="29.355" ry="23.377"/><g fill="#495560"><path d="m187.051 258.356v12c0 4.143 3.358 7.5 7.5 7.5s7.5-3.357 7.5-7.5v-12c0-4.143-3.358-7.5-7.5-7.5s-7.5 3.358-7.5 7.5z"/><path d="m311.949 258.356v12c0 4.143 3.358 7.5 7.5 7.5s7.5-3.357 7.5-7.5v-12c0-4.143-3.358-7.5-7.5-7.5s-7.5 3.358-7.5 7.5z"/><path d="m267.81 265.071c-2.729 3.133-6.669 4.929-10.81 4.929s-8.081-1.796-10.81-4.929c-2.722-3.122-7.459-3.447-10.582-.727-3.123 2.722-3.448 7.459-.727 10.582 5.579 6.402 13.641 10.074 22.119 10.074s16.54-3.672 22.119-10.073c2.721-3.123 2.396-7.86-.727-10.582-3.123-2.721-7.86-2.397-10.582.726z"/></g></g></g></g></svg>