<svg id="Layer_1" enable-background="new 0 0 128 128" height="512" viewBox="0 0 128 128" width="512" xmlns="http://www.w3.org/2000/svg"><g><path d="m117.658 89.838v-66.285-6.718c0-3.443-2.801-6.245-6.244-6.245h-97.969c-3.443 0-6.245 2.802-6.245 6.245v6.718 85.909c0 3.322 2.703 6.024 6.025 6.024h80.985c3.209 3.624 7.88 5.924 13.089 5.924 9.649 0 17.5-7.851 17.5-17.5 0-5.771-2.82-10.883-7.141-14.072z" fill="#e6e7e8"/><g><g><path d="m112.658 19.553h-108.458v85.909c0 2.775 2.25 5.025 5.025 5.025h98.417c2.77 0 5.016-2.246 5.016-5.016z" fill="#d4fbff"/><path d="m107.642 107.487h-98.417c-2.775 0-5.025-2.25-5.025-5.025v3c0 2.775 2.25 5.025 5.025 5.025h98.417c2.77 0 5.016-2.246 5.016-5.016v-3c0 2.77-2.246 5.016-5.016 5.016z" fill="#fff"/><g><path d="m112.658 12.835c0-2.897-2.348-5.245-5.245-5.245h-97.968c-2.896 0-5.245 2.348-5.245 5.245v6.718h108.458z" fill="#fa759e"/><circle cx="93.709" cy="13.571" fill="#0089ef" r="1.574"/><circle cx="99.955" cy="13.571" fill="#6dc9f7" r="1.574"/><circle cx="106.201" cy="13.571" fill="#ffd7e5" r="1.574"/></g></g><g><path d="m94.938 61.113h-73.018c-1.115 0-2.019-.904-2.019-2.019v-24.324c0-1.115.904-2.019 2.019-2.019h73.018c1.115 0 2.019.904 2.019 2.019v24.324c0 1.115-.904 2.019-2.019 2.019z" fill="#0089ef"/><path d="m36.266 97.325h-14.346c-1.115 0-2.019-.904-2.019-2.019v-29.307c0-1.115.904-2.019 2.019-2.019h14.346c1.115 0 2.019.904 2.019 2.019v29.308c0 1.114-.904 2.018-2.019 2.018z" fill="#0089ef"/><g><path d="m94.938 97.325h-52.746c-1.115 0-2.019-.904-2.019-2.019v-29.307c0-1.115.904-2.019 2.019-2.019h52.746c1.115 0 2.019.904 2.019 2.019v29.308c0 1.114-.904 2.018-2.019 2.018z" fill="#6dc9f7"/><g fill="#fff"><path d="m87.756 72.653h-38.382c-.552 0-1-.447-1-1s.448-1 1-1h38.381c.553 0 1 .447 1 1s-.447 1-.999 1z"/><path d="m87.756 81.653h-38.382c-.552 0-1-.447-1-1s.448-1 1-1h38.381c.553 0 1 .447 1 1s-.447 1-.999 1z"/><path d="m87.756 90.653h-38.382c-.552 0-1-.447-1-1s.448-1 1-1h38.381c.553 0 1 .447 1 1s-.447 1-.999 1z"/></g></g></g><g><circle cx="103.3" cy="99.91" fill="#fa759e" r="16.5"/><g><path d="m104.492 91.076 2.061 4.175c.194.392.568.664 1.001.727l4.608.67c1.09.158 1.525 1.498.737 2.267l-3.334 3.25c-.313.305-.456.745-.382 1.176l.787 4.589c.186 1.086-.953 1.914-1.928 1.401l-4.121-2.167c-.387-.204-.85-.204-1.237 0l-4.121 2.167c-.975.513-2.115-.315-1.928-1.401l.787-4.589c.074-.431-.069-.871-.382-1.176l-3.334-3.25c-.789-.769-.354-2.109.737-2.267l4.608-.67c.433-.063.807-.335 1.001-.727l2.061-4.175c.483-.988 1.891-.988 2.379 0z" fill="#ffd7e5"/><g fill="#3a2c60"><path d="m4.201 55.076c.552 0 1-.448 1-1v-7.674c0-.552-.448-1-1-1s-1 .448-1 1v7.674c0 .552.447 1 1 1z"/><path d="m36.005 12.571h-26.381c-.552 0-1 .448-1 1s.448 1 1 1h26.381c.552 0 1-.448 1-1s-.448-1-1-1z"/><path d="m113.658 85.837v-73.003c0-3.443-2.802-6.245-6.245-6.245h-97.968c-3.443 0-6.245 2.801-6.245 6.245v28.866c0 .552.448 1 1 1s1-.448 1-1v-21.147h106.458v63.987c-2.485-1.357-5.333-2.13-8.358-2.13-9.649 0-17.5 7.851-17.5 17.5 0 3.535 1.062 6.823 2.871 9.577h-79.446c-2.219 0-4.024-1.806-4.024-4.025v-46.404c0-.552-.448-1-1-1s-1 .448-1 1v46.403c0 3.322 2.703 6.025 6.024 6.025h80.987c3.209 3.623 7.879 5.923 13.088 5.923 9.649 0 17.5-7.851 17.5-17.5 0-5.77-2.821-10.882-7.142-14.072zm-108.457-73.003c0-2.34 1.904-4.245 4.245-4.245h97.968c2.341 0 4.245 1.904 4.245 4.245v5.718h-106.458zm98.099 102.576c-8.547 0-15.5-6.953-15.5-15.5s6.953-15.5 15.5-15.5 15.5 6.953 15.5 15.5-6.953 15.5-15.5 15.5z"/><path d="m114.184 97.242c-.276-.849-.997-1.456-1.881-1.584l-4.608-.67c-.105-.016-.198-.083-.246-.18l-2.061-4.176v-.001c-.396-.8-1.196-1.297-2.089-1.297h-.001c-.893 0-1.692.497-2.087 1.298l-2.061 4.176c-.048.097-.141.164-.248.18l-4.607.67c-.884.128-1.604.735-1.88 1.585s-.051 1.765.589 2.387l3.333 3.249c.078.076.114.186.096.293l-.787 4.589c-.151.879.203 1.752.925 2.276.722.526 1.662.595 2.455.179l4.122-2.167c.093-.051.207-.051.304 0l4.122 2.168c.344.18.716.27 1.085.27.482 0 .961-.151 1.369-.449.722-.524 1.076-1.397.925-2.276l-.786-4.587c-.019-.108.017-.218.095-.294l3.334-3.25c.639-.624.865-1.539.588-2.389zm-1.985.956-3.334 3.25c-.548.534-.799 1.305-.67 2.062l.787 4.589c.03.176-.069.276-.131.321s-.191.108-.347.026l-4.12-2.167c-.34-.179-.713-.269-1.085-.269-.373 0-.745.09-1.084.269l-4.12 2.166c-.157.083-.285.02-.348-.025-.062-.045-.161-.146-.131-.321l.787-4.588c.13-.755-.12-1.525-.669-2.062l-3.334-3.252c-.127-.123-.106-.264-.083-.336.024-.073.09-.198.266-.225l4.606-.67c.76-.109 1.415-.585 1.755-1.273l2.061-4.176c.079-.159.219-.183.295-.183s.217.023.296.184l2.061 4.175c.34.688.995 1.164 1.753 1.273l4.607.67c.176.026.242.151.266.224.023.073.043.214-.084.338z"/></g></g></g></g></g></svg>