<svg height="512pt" viewBox="-54 0 512 512" width="512pt" xmlns="http://www.w3.org/2000/svg"><path d="m250.972656 316.964844-135.964844-135.964844-64.355468 64.355469 71.523437 71.527343zm0 0" fill="#b2f0bf"/><path d="m374 502h-344c-11.046875 0-20-8.953125-20-20v-452c0-11.046875 8.953125-20 20-20h344c11.046875 0 20 8.953125 20 20v452c0 11.046875-8.953125 20-20 20zm0 0" fill="#72d8ff"/><path d="m10 269.9375v212.0625c0 11.046875 8.953125 20 20 20h344c11.046875 0 20-8.953125 20-20v-212.0625zm0 0" fill="#c9f3ff"/><path d="m387 269.9375h-370v-192h370zm0 0" fill="#fff"/><path d="m265.234375 269.9375-102.042969-102.042969-102.042968 102.042969zm0 0" fill="#b2f0bf"/><path d="m393.972656 269.964844-135.964844-135.964844-64.355468 64.355469 71.523437 71.527343zm0 0" fill="#36d28f"/><path d="m278.597656 323.9375h54v54h-54zm0 0" fill="#4dbaf6"/><path d="m174.332031 323.9375h54v54h-54zm0 0" fill="#ffc66c"/><path d="m71.402344 323.9375h54v54h-54zm0 0" fill="#36d28f"/><path d="m98 145.9375c0 13.253906-10.746094 24-24 24s-24-10.746094-24-24 10.746094-24 24-24 24 10.746094 24 24zm0 0" fill="#ffc66c"/><path d="m374 0h-344c-16.542969 0-30 13.457031-30 30v452c0 16.542969 13.457031 30 30 30h344c16.542969 0 30-13.457031 30-30v-452c0-16.542969-13.457031-30-30-30zm-104.625 259.9375-61.582031-61.582031 50.214843-50.210938 111.796876 111.792969zm-28.285156 0h-155.800782l77.902344-77.898438zm-211.089844-239.9375h344c5.515625 0 10 4.484375 10 10v37.9375h-138.5c-5.523438 0-10 4.476562-10 10s4.476562 10 10 10h138.5v157.910156l-118.921875-118.917968c-3.902344-3.90625-10.234375-3.90625-14.140625 0l-57.285156 57.285156-23.390625-23.390625c-3.90625-3.90625-10.238281-3.90625-14.144531 0l-99.113282 99.113281h-37.003906v-172h138.191406c5.523438 0 10-4.476562 10-10s-4.476562-10-10-10h-138.191406v-37.9375c0-5.515625 4.484375-10 10-10zm344 472h-344c-5.515625 0-10-4.484375-10-10v-202.0625h364v202.0625c0 5.515625-4.484375 10-10 10zm0 0"/><path d="m278.597656 387.9375h54c5.523438 0 10-4.476562 10-10v-54c0-5.523438-4.476562-10-10-10h-54c-5.523437 0-10 4.476562-10 10v54c0 5.523438 4.476563 10 10 10zm10-54h34v34h-34zm0 0"/><path d="m174.332031 387.9375h54c5.523438 0 10-4.476562 10-10v-54c0-5.523438-4.476562-10-10-10h-54c-5.523437 0-10 4.476562-10 10v54c0 5.523438 4.480469 10 10 10zm10-54h34v34h-34zm0 0"/><path d="m125.402344 313.9375h-54c-5.523438 0-10 4.476562-10 10v54c0 5.523438 4.476562 10 10 10h54c5.523437 0 10-4.476562 10-10v-54c0-5.523438-4.476563-10-10-10zm-10 54h-34v-34h34zm0 0"/><path d="m125.402344 411.9375h-54c-5.523438 0-10 4.476562-10 10s4.476562 10 10 10h54c5.523437 0 10-4.476562 10-10s-4.476563-10-10-10zm0 0"/><path d="m125.402344 451.9375h-54c-5.523438 0-10 4.476562-10 10s4.476562 10 10 10h54c5.523437 0 10-4.476562 10-10s-4.476563-10-10-10zm0 0"/><path d="m229.128906 411.9375h-54c-5.523437 0-10 4.476562-10 10s4.476563 10 10 10h54c5.519532 0 10-4.476562 10-10s-4.480468-10-10-10zm0 0"/><path d="m229.128906 451.9375h-54c-5.523437 0-10 4.476562-10 10s4.476563 10 10 10h54c5.519532 0 10-4.476562 10-10s-4.480468-10-10-10zm0 0"/><path d="m332.851562 411.9375h-54c-5.523437 0-10 4.476562-10 10s4.476563 10 10 10h54c5.523438 0 10-4.476562 10-10s-4.476562-10-10-10zm0 0"/><path d="m332.851562 451.9375h-54c-5.523437 0-10 4.476562-10 10s4.476563 10 10 10h54c5.523438 0 10-4.476562 10-10s-4.476562-10-10-10zm0 0"/><path d="m74 111.9375c-18.746094 0-34 15.253906-34 34 0 18.75 15.253906 34 34 34s34-15.25 34-34c0-18.746094-15.253906-34-34-34zm0 48c-7.71875 0-14-6.28125-14-14s6.28125-14 14-14 14 6.28125 14 14-6.28125 14-14 14zm0 0"/><path d="m59.667969 53.96875h28.667969c5.519531 0 10-4.476562 10-10s-4.480469-10-10-10h-28.667969c-5.523438 0-10 4.476562-10 10s4.476562 10 10 10zm0 0"/><path d="m185.152344 53.96875h17c5.523437 0 10-4.476562 10-10s-4.476563-10-10-10h-17c-5.523438 0-10 4.476562-10 10s4.476562 10 10 10zm0 0"/><path d="m255.574219 53.96875h17c5.523437 0 10-4.476562 10-10s-4.476563-10-10-10h-17c-5.519531 0-10 4.476562-10 10s4.480469 10 10 10zm0 0"/><path d="m326 53.96875h17c5.523438 0 10-4.476562 10-10s-4.476562-10-10-10h-17c-5.523438 0-10 4.476562-10 10s4.476562 10 10 10zm0 0"/><path d="m202.148438 67.941406c-2.628907 0-5.207032 1.058594-7.070313 2.929688-1.859375 1.859375-2.929687 4.4375-2.929687 7.070312 0 2.628906 1.070312 5.207032 2.929687 7.070313 1.863281 1.859375 4.441406 2.929687 7.070313 2.929687 2.632812 0 5.210937-1.070312 7.070312-2.929687 1.859375-1.863281 2.929688-4.441407 2.929688-7.070313 0-2.632812-1.070313-5.210937-2.929688-7.070312-1.859375-1.871094-4.4375-2.929688-7.070312-2.929688zm0 0"/></svg>