<?xml version="1.0" encoding="iso-8859-1"?>
<!-- Generator: Adobe Illustrator 19.0.0, SVG Export Plug-In . SVG Version: 6.00 Build 0)  -->
<svg version="1.1" id="Capa_1" xmlns="http://www.w3.org/2000/svg" xmlns:xlink="http://www.w3.org/1999/xlink" x="0px" y="0px"
	 viewBox="0 0 512 512" style="enable-background:new 0 0 512 512;" xml:space="preserve">
<g>
	<g transform="translate(1 1)">
		<g>
			<path style="fill:#02A9F4;" d="M67.267,468.333h51.2c4.713,0,8.533,3.821,8.533,8.533v17.067c0,4.713-3.821,8.533-8.533,8.533
				h-51.2c-4.713,0-8.533-3.821-8.533-8.533v-17.067C58.733,472.154,62.554,468.333,67.267,468.333z"/>
			<path style="fill:#02A9F4;" d="M391.533,468.333h51.2c4.713,0,8.533,3.821,8.533,8.533v17.067c0,4.713-3.821,8.533-8.533,8.533
				h-51.2c-4.713,0-8.533-3.821-8.533-8.533v-17.067C383,472.154,386.821,468.333,391.533,468.333z"/>
			<path style="fill:#02A9F4;" d="M229.4,468.333h51.2c4.713,0,8.533,3.821,8.533,8.533v17.067c0,4.713-3.821,8.533-8.533,8.533
				h-51.2c-4.713,0-8.533-3.821-8.533-8.533v-17.067C220.867,472.154,224.687,468.333,229.4,468.333z"/>
		</g>
		<path style="fill:#4527A0;" d="M169.667,50.2v307.2H24.6c-9.414-0.028-17.039-7.653-17.067-17.067V67.267
			C7.561,57.852,15.186,50.228,24.6,50.2H169.667z"/>
		<path style="fill:#607D8B;" d="M169.667,50.2v85.333H7.533V67.267C7.561,57.852,15.186,50.228,24.6,50.2H169.667z"/>
		<path style="fill:#673AB7;" d="M127,50.2v307.2H24.6c-9.414-0.028-17.039-7.653-17.067-17.067V67.267
			C7.561,57.852,15.186,50.228,24.6,50.2H127z"/>
		<path style="fill:#CFD8DC;" d="M127,50.2v85.333H7.533V67.267C7.561,57.852,15.186,50.228,24.6,50.2H127z"/>
		<circle style="fill:#E91E63;" cx="92.867" cy="280.6" r="25.6"/>
		<path style="fill:#4527A0;" d="M502.467,67.267v273.067c-0.028,9.414-7.653,17.039-17.067,17.067H340.333V50.2H485.4
			C494.814,50.228,502.439,57.852,502.467,67.267z"/>
		<path style="fill:#607D8B;" d="M502.467,67.267v68.267H340.333V50.2H485.4C494.814,50.228,502.439,57.852,502.467,67.267z"/>
		<path style="fill:#673AB7;" d="M476.867,67.267v273.067c-0.028,9.414-7.653,17.039-17.067,17.067H340.333V50.2H459.8
			C469.214,50.228,476.839,57.852,476.867,67.267z"/>
		<path style="fill:#CFD8DC;" d="M476.867,67.267v68.267H340.333V50.2H459.8C469.214,50.228,476.839,57.852,476.867,67.267z"/>
		<circle style="fill:#E91E63;" cx="417.133" cy="280.6" r="25.6"/>
		<path style="fill:#4527A0;" d="M357.4,24.6V383c-0.028,9.414-7.653,17.039-17.067,17.067H169.667
			c-9.414-0.028-17.039-7.652-17.067-17.067V24.6c0.034-6.84,4.124-13.008,10.411-15.701l0.171-0.085
			c2.054-0.857,4.26-1.293,6.485-1.28h170.667C349.748,7.561,357.372,15.186,357.4,24.6z"/>
		<path style="fill:#673AB7;" d="M331.8,24.6V383c-0.028,9.414-7.652,17.039-17.067,17.067H169.667
			c-9.414-0.028-17.039-7.652-17.067-17.067V24.6c0.034-6.84,4.124-13.008,10.411-15.701l0.171-0.085l6.485-1.28h145.067
			C324.148,7.561,331.773,15.186,331.8,24.6z"/>
		<path style="fill:#607D8B;" d="M357.4,24.6v85.333H152.6V24.6c0.028-9.414,7.652-17.039,17.067-17.067h170.667
			C349.748,7.561,357.372,15.186,357.4,24.6z"/>
		<path style="fill:#CFD8DC;" d="M331.8,24.6v85.333H152.6V24.6c0.028-9.414,7.652-17.039,17.067-17.067h145.067
			C324.148,7.561,331.773,15.186,331.8,24.6z"/>
		<circle style="fill:#E91E63;" cx="255" cy="323.267" r="25.6"/>
	</g>
	<g>
		<path d="M68.267,179.2h51.2c4.713,0,8.533-3.821,8.533-8.533c0-4.713-3.821-8.533-8.533-8.533h-51.2
			c-4.713,0-8.533,3.821-8.533,8.533C59.733,175.38,63.554,179.2,68.267,179.2z"/>
		<path d="M68.267,213.333h51.2c4.713,0,8.533-3.821,8.533-8.533c0-4.713-3.821-8.533-8.533-8.533h-51.2
			c-4.713,0-8.533,3.821-8.533,8.533C59.733,209.513,63.554,213.333,68.267,213.333z"/>
		<path d="M128,281.6c0-18.851-15.282-34.133-34.133-34.133S59.733,262.749,59.733,281.6c0,18.851,15.282,34.133,34.133,34.133
			C112.709,315.712,127.978,300.442,128,281.6z M76.8,281.6c0-9.426,7.641-17.067,17.067-17.067s17.067,7.641,17.067,17.067
			s-7.641,17.067-17.067,17.067C84.445,298.657,76.809,291.022,76.8,281.6z"/>
		<path d="M42.667,102.4H102.4c4.713,0,8.533-3.821,8.533-8.533c0-4.713-3.821-8.533-8.533-8.533H42.667
			c-4.713,0-8.533,3.821-8.533,8.533C34.133,98.579,37.954,102.4,42.667,102.4z"/>
		<path d="M486.4,42.667H366.933V25.6c-0.015-14.132-11.468-25.585-25.6-25.6H170.667c-14.132,0.015-25.585,11.468-25.6,25.6v17.067
			H25.6C11.468,42.682,0.015,54.135,0,68.267v273.067c0.015,14.132,11.468,25.585,25.6,25.6h59.733V460.8H68.267
			c-9.422,0.009-17.057,7.645-17.067,17.067H8.533c-4.713,0-8.533,3.82-8.533,8.533s3.821,8.533,8.533,8.533H51.2
			c0.009,9.422,7.645,17.057,17.067,17.067h51.2c9.422-0.009,17.057-7.645,17.067-17.067h76.8
			c0.009,9.422,7.645,17.057,17.067,17.067h51.2c9.422-0.009,17.057-7.645,17.067-17.067h76.8
			c0.009,9.422,7.645,17.057,17.067,17.067h51.2c9.422-0.009,17.057-7.645,17.067-17.067h42.667c4.713,0,8.533-3.82,8.533-8.533
			s-3.82-8.533-8.533-8.533H460.8c-0.009-9.422-7.645-17.057-17.067-17.067h-17.067v-93.867H486.4
			c14.132-0.015,25.585-11.468,25.6-25.6V68.267C511.985,54.135,500.532,42.682,486.4,42.667z M486.4,59.733
			c4.71,0.006,8.527,3.823,8.533,8.533V128h-128v-25.6h59.733c4.713,0,8.533-3.821,8.533-8.533c0-4.713-3.82-8.533-8.533-8.533
			h-59.733v-25.6H486.4z M170.667,392.533c-4.71-0.006-8.527-3.823-8.533-8.533V119.467h187.733V384
			c-0.006,4.71-3.823,8.527-8.533,8.533H170.667z M162.133,25.6c0.006-4.71,3.823-8.527,8.533-8.533h170.667
			c4.71,0.006,8.527,3.823,8.533,8.533v76.8H162.133V25.6z M25.6,59.733h119.467v25.6h-8.533c-4.713,0-8.533,3.821-8.533,8.533
			c0,4.713,3.821,8.533,8.533,8.533h8.533V128h-128V68.267C17.073,63.556,20.89,59.739,25.6,59.733z M17.067,341.333V145.067h128
			v204.8H25.6C20.89,349.861,17.073,346.044,17.067,341.333z M68.267,494.933v-17.067h51.2l0.006,8.503l-0.006,0.031l0.006,0.031
			l0.006,8.502H68.267z M136.533,477.867c-0.009-9.422-7.645-17.057-17.067-17.067H102.4v-93.867h42.667V384
			c0.015,14.132,11.468,25.585,25.6,25.6h76.8v51.2H230.4c-9.422,0.009-17.057,7.645-17.067,17.067H136.533z M230.4,494.933v-17.067
			h51.2l0.006,8.503L281.6,486.4l0.006,0.031l0.006,8.502H230.4z M443.74,486.369l-0.006,0.031l0.006,0.031l0.006,8.502h-51.212
			v-17.067h51.2L443.74,486.369z M409.6,460.8h-17.067c-9.422,0.009-17.057,7.645-17.067,17.067h-76.8
			c-0.009-9.422-7.645-17.057-17.067-17.067h-17.067v-51.2h76.8c14.132-0.015,25.585-11.468,25.6-25.6v-17.067H409.6V460.8z
			 M486.4,349.867H366.933v-204.8h128v196.267C494.927,346.044,491.11,349.861,486.4,349.867z"/>
		<path d="M443.733,162.133h-51.2c-4.713,0-8.533,3.821-8.533,8.533c0,4.713,3.82,8.533,8.533,8.533h51.2
			c4.713,0,8.533-3.821,8.533-8.533C452.267,165.954,448.446,162.133,443.733,162.133z"/>
		<path d="M443.733,196.267h-51.2c-4.713,0-8.533,3.821-8.533,8.533c0,4.713,3.82,8.533,8.533,8.533h51.2
			c4.713,0,8.533-3.821,8.533-8.533C452.267,200.087,448.446,196.267,443.733,196.267z"/>
		<path d="M418.133,247.467c-18.851,0-34.133,15.282-34.133,34.133c0,18.851,15.282,34.133,34.133,34.133
			c18.851,0,34.133-15.282,34.133-34.133C452.245,262.758,436.976,247.488,418.133,247.467z M418.133,298.667
			c-9.426,0-17.067-7.641-17.067-17.067s7.641-17.067,17.067-17.067S435.2,272.174,435.2,281.6
			C435.191,291.022,427.555,298.657,418.133,298.667z"/>
		<path d="M256,290.133c-18.851,0-34.133,15.282-34.133,34.133c0,18.851,15.282,34.133,34.133,34.133
			c18.851,0,34.133-15.282,34.133-34.133C290.112,305.424,274.842,290.155,256,290.133z M256,341.333
			c-9.426,0-17.067-7.641-17.067-17.067c0-9.426,7.641-17.067,17.067-17.067c9.426,0,17.067,7.641,17.067,17.067
			C273.057,333.688,265.422,341.324,256,341.333z"/>
		<path d="M460.8,102.4h8.533c4.713,0,8.533-3.821,8.533-8.533c0-4.713-3.821-8.533-8.533-8.533H460.8
			c-4.713,0-8.533,3.821-8.533,8.533C452.267,98.579,456.087,102.4,460.8,102.4z"/>
		<path d="M187.733,68.267H281.6c4.713,0,8.533-3.821,8.533-8.533S286.313,51.2,281.6,51.2h-93.867
			c-4.713,0-8.533,3.821-8.533,8.533S183.021,68.267,187.733,68.267z"/>
		<path d="M315.733,68.267h8.533c4.713,0,8.533-3.821,8.533-8.533s-3.82-8.533-8.533-8.533h-8.533c-4.713,0-8.533,3.821-8.533,8.533
			S311.021,68.267,315.733,68.267z"/>
		<path d="M298.667,136.533h-85.333c-4.713,0-8.533,3.821-8.533,8.533c0,4.713,3.82,8.533,8.533,8.533h85.333
			c4.713,0,8.533-3.821,8.533-8.533C307.2,140.354,303.38,136.533,298.667,136.533z"/>
		<path d="M298.667,170.667h-85.333c-4.713,0-8.533,3.821-8.533,8.533s3.82,8.533,8.533,8.533h85.333
			c4.713,0,8.533-3.82,8.533-8.533S303.38,170.667,298.667,170.667z"/>
		<path d="M298.667,204.8h-85.333c-4.713,0-8.533,3.82-8.533,8.533s3.82,8.533,8.533,8.533h85.333c4.713,0,8.533-3.821,8.533-8.533
			S303.38,204.8,298.667,204.8z"/>
	</g>
</g>
<g>
</g>
<g>
</g>
<g>
</g>
<g>
</g>
<g>
</g>
<g>
</g>
<g>
</g>
<g>
</g>
<g>
</g>
<g>
</g>
<g>
</g>
<g>
</g>
<g>
</g>
<g>
</g>
<g>
</g>
</svg>
