<svg id="Capa_1" enable-background="new 0 0 512 512" height="512" viewBox="0 0 512 512" width="512" xmlns="http://www.w3.org/2000/svg"><g><g><path d="m485.991 177.32-150.325-134.996c-11.417-10.253-29.585-2.15-29.585 13.195v60.558c-114.165 14.866-217.104 79.685-268.33 190.768-7.597 16.473-13.173 33.852-18.21 51.353-6.817 25.082-11.338 55.343-12.033 86.161-.316 14.008 9.475 26.229 23.172 29.183l.237.051c12.472 2.69 25.205-3.034 31.584-14.083 52.481-90.903 114.183-145.835 222.036-147.505 7.007-.121 14.273.019 21.545.356v69.757c0 15.345 18.168 23.448 29.585 13.195l150.325-134.996c24.678-22.163 24.678-60.835-.001-82.997z" fill="#50e2ce"/><path d="m63.385 375.614c2.919-17.976 6.387-35.895 11.969-53.155 28.431-87.91 89.298-153.118 165.462-191.985-87.112 27.545-161.837 86.97-203.065 176.37-7.597 16.473-13.173 33.852-18.21 51.353-6.817 25.082-11.338 55.343-12.033 86.161-.316 14.008 9.475 26.229 23.172 29.183l.237.051c11.888 2.564 24-2.529 30.633-12.579-2.795-30.149-1.883-60.126 1.835-85.399z" fill="#00ae8e"/></g><g><path d="m421.256 308.374-90.601 81.362c-6.608 5.933-17.074 1.267-17.074-7.615v-69.756c0-4.007-3.15-7.307-7.153-7.492-7.759-.359-15.169-.482-22.008-.363-53.373.826-97.867 14.461-136.022 41.684-33.798 24.114-63.157 58.931-92.393 109.57-4.782 8.283-14.229 12.506-23.504 10.502l-.24-.052c-10.232-2.207-17.489-11.325-17.255-21.682.651-28.845 4.826-58.784 11.757-84.308 3.467-12.042 8.254-27.785 14.572-42.856 1.601-3.82-.197-8.215-4.018-9.816-3.818-1.6-8.215.197-9.816 4.018-6.627 15.81-11.587 32.118-15.168 44.559-.01.036-.02.072-.03.108-7.25 26.675-11.616 57.913-12.293 87.958-.463 20.518 16.207 37.568 37.118 37.568 12.955 0 25.155-6.869 31.869-18.499 28.125-48.715 56.124-82.035 88.114-104.859 35.595-25.396 77.314-38.119 127.556-38.896 4.409-.077 9.066-.048 13.916.085v62.529c0 21.851 25.86 33.356 42.096 18.775l90.601-81.362c3.082-2.768 3.336-7.509.569-10.591-2.768-3.083-7.51-3.339-10.593-.571z"/><path d="m491.003 171.745-150.326-134.996c-16.253-14.596-42.096-3.051-42.096 18.775v54.027c-112.074 16.48-205.431 79.172-256.843 172.756-1.995 3.63-.668 8.19 2.962 10.185 3.632 1.995 8.191.667 10.185-2.962 50.078-91.156 141.988-151.665 252.165-166.01 3.736-.486 6.532-3.669 6.532-7.437v-60.559c0-8.879 10.464-13.55 17.074-7.615l150.324 134.996c21.275 19.106 21.422 52.597 0 71.835l-37.371 33.561c-5.136 4.612-1.806 13.08 5.014 13.08 1.785 0 3.576-.633 5.009-1.92l37.371-33.561c13.344-11.983 20.997-29.142 20.997-47.077s-7.653-35.095-20.997-47.078z"/><path d="m164.063 243.209v-16.756c0-4.142-3.358-7.5-7.5-7.5s-7.5 3.358-7.5 7.5v16.756c0 4.142 3.358 7.5 7.5 7.5s7.5-3.358 7.5-7.5z"/><path d="m330.965 250.709c4.142 0 7.5-3.358 7.5-7.5v-16.756c0-4.142-3.358-7.5-7.5-7.5s-7.5 3.358-7.5 7.5v16.756c0 4.142 3.358 7.5 7.5 7.5z"/><path d="m272.408 247.637c2.721-3.123 2.396-7.86-.727-10.582-3.123-2.721-7.86-2.396-10.582.727-9.18 10.534-25.5 10.524-34.671 0-2.721-3.124-7.459-3.448-10.582-.727s-3.448 7.459-.727 10.582c15.16 17.396 42.147 17.377 57.289 0z"/></g></g></svg>