<svg height="512pt" viewBox="0 0 512 512" width="512pt" xmlns="http://www.w3.org/2000/svg"><path d="m501.332031 32v213.332031c-.035156 11.769531-9.566406 21.300781-21.332031 21.335938h-42.667969l-64 64v-64h-106.664062c-11.769531-.035157-21.300781-9.566407-21.335938-21.335938v-213.332031c.035157-11.765625 9.566407-21.296875 21.335938-21.332031h213.332031c11.765625.035156 21.296875 9.566406 21.332031 21.332031zm0 0" fill="#35dc86"/><path d="m128 352c17.671875 0 32-14.328125 32-32h96v53.332031h-53.332031v128h-192v-138.664062c0-23.566407 19.101562-42.667969 42.664062-42.667969h42.667969c0 17.671875 14.328125 32 32 32zm0 0" fill="#778ca3"/><path d="m181.332031 181.332031v21.335938h-106.664062v-64l21.332031 21.332031h64c11.765625.035156 21.296875 9.566406 21.332031 21.332031zm0 0" fill="#778ca3"/><path d="m282.667969 320c14.726562 0 26.664062 11.9375 26.664062 26.667969 0 14.726562-11.9375 26.664062-26.664062 26.664062h-26.667969v-53.332031zm0 0" fill="#ffd8c5"/><path d="m160 298.667969v21.332031c0 17.671875-14.328125 32-32 32s-32-14.328125-32-32v-21.332031c18.964844 14.222656 45.035156 14.222656 64 0zm0 0" fill="#ffd8c5"/><path d="m181.332031 202.667969v53.332031c0 14.148438-5.597656 27.722656-15.570312 37.761719l-5.761719 4.90625c-18.964844 14.222656-45.035156 14.222656-64 0-13.417969-10.085938-21.316406-25.886719-21.332031-42.667969v-53.332031zm0 0" fill="#ffd8c5"/><g fill="#474c54"><path d="m282.667969 309.332031h-112v-5.769531l2.675781-2.304688c9.765625-9.847656 16.070312-22.601562 17.964844-36.339843 13-4.199219 21.871094-16.230469 22.027344-29.894531.15625-13.664063-8.433594-25.898438-21.335938-30.394532v-23.296875c0-17.671875-14.328125-32-32-32h-59.585938l-18.207031-18.207031c-3.050781-3.050781-7.636719-3.960938-11.621093-2.3125-3.984376 1.652344-6.585938 5.539062-6.585938 9.855469v65.960937c-12.902344 4.496094-21.488281 16.734375-21.332031 30.398438.160156 13.660156 9.03125 25.695312 22.035156 29.890625 2.152344 14.902343 9.449219 28.582031 20.628906 38.667969v5.746093h-32c-29.4375.035157-53.2968748 23.894531-53.332031 53.335938v138.664062c0 5.890625 4.777344 10.667969 10.667969 10.667969h192c5.890625 0 10.664062-4.777344 10.664062-10.667969v-117.332031h69.335938c9.90625.039062 19.421875-3.886719 26.421875-10.902344 10.703125-10.675781 13.910156-26.753906 8.121094-40.722656-5.785157-13.964844-19.425782-23.0625-34.542969-23.042969zm-154.667969 32c-11.78125 0-21.332031-9.550781-21.332031-21.332031v-3.691406c13.792969 4.9375 28.871093 4.9375 42.664062 0v3.691406c0 11.78125-9.550781 21.332031-21.332031 21.332031zm42.667969-85.332031c.054687 11.035156-4.183594 21.664062-11.820313 29.632812l-5.332031 4.53125c-12.933594 9.652344-30.203125 11.179688-44.628906 3.949219-14.425781-7.226562-23.542969-21.976562-23.554688-38.113281v-42.667969h85.335938zm-82.210938-88.457031c2 2 4.714844 3.125 7.542969 3.125h64c5.890625 0 10.667969 4.773437 10.667969 10.664062v10.667969h-85.335938v-27.585938zm114.210938 195.125c-5.890625 0-10.667969 4.773437-10.667969 10.664062v117.335938h-117.332031v-85.335938h-21.335938v85.335938h-32v-128c0-17.675781 14.328125-32 32-32h33.515625c3.902344 14.925781 15.558594 26.582031 30.484375 30.484375v22.847656h21.335938v-22.847656c15.03125-3.710938 26.773437-15.453125 30.484375-30.484375h76.179687v32zm91.335937-4.664063c-3.019531 2.984375-7.089844 4.660156-11.335937 4.664063h-16v-32h16c6.484375-.023438 12.34375 3.875 14.828125 9.867187 2.484375 5.992188 1.105468 12.894532-3.492188 17.46875zm0 0"/><path d="m480 0h-213.332031c-17.675781 0-32 14.328125-32 32v213.332031c0 17.675781 14.324219 32 32 32h96v53.335938c-.003907 4.3125 2.59375 8.203125 6.578125 9.855469 1.296875.539062 2.683594.8125 4.085937.808593 2.828125 0 5.542969-1.125 7.542969-3.125l60.875-60.875h38.25c17.671875 0 32-14.324219 32-32v-213.332031c0-17.671875-14.328125-32-32-32zm10.667969 245.332031c0 5.890625-4.777344 10.667969-10.667969 10.667969h-42.667969c-2.828125 0-5.539062 1.125-7.539062 3.125l-45.792969 45.792969v-38.25c0-5.890625-4.777344-10.667969-10.667969-10.667969h-106.664062c-5.890625 0-10.667969-4.777344-10.667969-10.667969v-213.332031c0-5.890625 4.777344-10.667969 10.667969-10.667969h213.332031c5.890625 0 10.667969 4.777344 10.667969 10.667969zm0 0"/><path d="m416 74.667969h-80.917969l13.792969-13.792969-15.082031-15.082031-32 32c-2.039063 1.96875-3.183594 4.683593-3.167969 7.519531.015625 2.832031 1.183594 5.539062 3.242188 7.488281l-.066407.0625 32 32 15.085938-15.082031-13.804688-13.78125h80.917969c5.890625 0 10.667969 4.777344 10.667969 10.667969v21.332031h21.332031v-21.332031c0-17.675781-14.328125-32-32-32zm0 0"/><path d="m444.800781 184.535156.0625-.066406-32-32-15.082031 15.082031 13.804688 13.78125h-80.917969c-5.890625 0-10.667969-4.773437-10.667969-10.664062v-21.335938h-21.332031v21.335938c0 17.671875 14.324219 32 32 32h80.917969l-13.792969 13.789062 15.082031 15.085938 32-32c2.035156-1.972657 3.179688-4.6875 3.167969-7.523438-.015625-2.832031-1.1875-5.535156-3.242188-7.484375zm0 0"/></g></svg>