<svg id="Capa_1" enable-background="new 0 0 512 512" height="512" viewBox="0 0 512 512" width="512" xmlns="http://www.w3.org/2000/svg"><g><g><path d="m395.722 8h-279.444c-16.569 0-30 13.434-30 30.006v144.679c0 16.572 13.431 30.006 30 30.006h102.864l24.114 38.855c5.867 9.454 19.621 9.454 25.489 0l24.114-38.855h102.864c16.568 0 30-13.434 30-30.006v-144.679c-.001-16.572-13.432-30.006-30.001-30.006z" fill="#de5974"/><path d="m395.722 194.691h-108.914c-1.819 0-3.495.988-4.376 2.581l-22.056 39.894c-1.902 3.441-6.849 3.441-8.752 0l-22.056-39.894c-.88-1.592-2.556-2.581-4.376-2.581h-108.914c-16.569 0-30-13.434-30-30.006v18c0 16.572 13.434 30.006 30.006 30.006h102.858l24.114 38.855c5.867 9.453 19.622 9.453 25.489 0l24.114-38.855h102.864c16.568 0 30-13.432 30-30v-18.006c-.001 16.572-13.432 30.006-30.001 30.006z" fill="#c7495d"/><g><path d="m330.389 357.878c11.272 0 20.409 9.154 20.409 20.445l48.097-25.35c9.284-4.893 12.532-16.613 7.095-25.6-5.034-8.321-15.701-11.221-24.243-6.59l-68.422 37.095z" fill="#e2ae84"/><path d="m230.206 357.878 99.334-52.1c8.316-4.362 18.564-1.991 24.129 5.582 6.844 9.313 3.891 22.537-6.262 28.041l-34.081 18.477z" fill="#e2ae84"/><path d="m313.326 357.878 34.081-18.477c8.833-4.789 12.212-15.42 8.436-24.236l-77.904 42.713z" fill="#d7a379"/><path d="m350.798 378.323 48.097-25.349c8.034-4.234 11.535-13.577 8.814-21.841l-62.47 33.195c3.438 3.659 5.559 8.573 5.559 13.995z" fill="#d7a379"/><path d="m350.798 378.323c0 10.3-7.649 18.992-17.849 20.284l-126.977 16.082 53.927 6.5c50.335 6.067 101.298-3.933 145.628-28.577l49.401-27.463c9.626-5.352 12.45-17.911 6.043-26.88-5.357-7.499-15.417-9.887-23.563-5.594z" fill="#e2ae84"/><path d="m454.928 365.149c8.572-4.766 11.73-15.24 7.8-23.812l-117.982 63.232-43.694-1.923-95.08 12.042 53.927 6.5c50.335 6.067 101.298-3.933 145.628-28.577z" fill="#d7a379"/><path d="m62.333 389.109s37.159-31.432 83.205-40.007 84.668 8.776 84.668 8.776h100.183c11.272 0 20.409 9.154 20.409 20.445 0 10.3-7.649 18.992-17.849 20.283l-126.977 16.082 53.927 6.5c50.335 6.067 101.298-3.933 145.628-28.577l67.47-37.508c9.167-4.834 20.479-2.305 26.724 5.974 7.794 10.333 4.59 25.192-6.767 31.381l-98.659 53.764c-49.452 26.949-105.751 62.277-161.823 57.271l-170.139-15.186h-54.333v-99.198z" fill="#f0c69e"/><g><path d="m499.721 361.079c-.425-.563-.877-1.094-1.347-1.604-1.505 5.211-4.992 9.872-10.199 12.709l-98.659 53.764c-49.452 26.948-105.751 62.277-161.824 57.271l-170.138-15.188h-49.554v20.276h54.333l170.139 15.189c56.073 5.006 112.372-30.323 161.823-57.271l98.659-53.764c11.357-6.19 14.561-21.049 6.767-31.382z" fill="#e6ba94"/></g></g><path d="m276.054 108.684c8.885-6.574 14.434-17.402 13.629-29.478-1.112-16.685-14.612-30.223-31.291-31.373-19.73-1.361-36.158 14.244-36.158 33.688 0 11.139 5.394 21.015 13.709 27.166-16.777 6.68-31.575 22.158-34.912 47.883-.773 5.956 3.924 11.22 9.929 11.22h90.082c6.005 0 10.702-5.264 9.929-11.22-3.339-25.728-18.139-41.207-34.917-47.886z" fill="#e5ecf7"/><path d="m309.776 149.789h-107.552c-.488 2.176-.89 4.434-1.194 6.78-.773 5.956 3.924 11.22 9.929 11.22h90.082c6.005 0 10.702-5.264 9.929-11.22-.304-2.345-.706-4.603-1.194-6.78z" fill="#b9cbea"/></g><g><path d="m506.2 356.76c-7.99-10.595-21.909-14.253-33.926-9.222-.307-4.806-1.934-9.489-4.785-13.48-7.513-10.52-21.798-13.91-33.229-7.886l-17.871 9.421c-.229-4.198-1.467-8.328-3.673-11.976-7.131-11.79-22.199-15.885-34.303-9.322l-13.357 7.243c-.241-5.194-1.999-10.257-5.139-14.53-7.833-10.662-22.015-13.942-33.723-7.799l-96.436 50.59c-10.847-4.165-45.42-15.43-85.81-7.906-6.228 1.159-12.636 2.785-19.046 4.83-3.954 1.262-6.136 5.49-4.875 9.443 1.261 3.954 5.491 6.135 9.443 4.875 5.817-1.856 11.613-3.327 17.229-4.373 43.116-8.03 80.02 8.103 80.377 8.262.969.435 2.019.66 3.08.66h100.38c7.132 0 12.934 5.82 12.934 12.975 0 6.521-4.864 12.055-11.313 12.872l-127.227 16.117c-3.764.477-6.582 3.684-6.57 7.477.011 3.794 2.849 6.984 6.615 7.438l54.033 6.514c52.34 6.313 104.37-3.901 150.464-29.532l49.491-27.518c.003-.001.005-.002.008-.004.005-.003.009-.006.014-.008l18.008-10.013c5.941-3.094 13.166-1.46 17.207 3.899 2.408 3.193 3.304 7.268 2.458 11.18-.843 3.905-3.335 7.239-6.835 9.146l-72.467 39.499c-8.594 5.093-1.661 17.655 7.193 13.197l72.467-39.499c7.341-4.001 12.565-10.988 14.333-19.169 1.769-8.186-.107-16.716-5.149-23.401zm-173.024-44.241c5.076-2.662 11.23-1.238 14.629 3.389 2.014 2.74 2.713 6.079 1.97 9.401-.741 3.31-2.786 6.022-5.759 7.639l-32.483 17.614h-50.876zm6.831 39.699 45.569-24.711c5.039-2.731 11.309-1.024 14.279 3.887 1.554 2.571 1.968 5.581 1.163 8.477-.802 2.887-2.699 5.245-5.343 6.64l-39.526 20.836c-3.069-7.002-8.917-12.516-16.142-15.129zm62.162 34.1c-41.337 22.985-87.749 32.772-134.653 28.458l66.53-8.428c12.34-1.564 21.987-11.103 24.042-23.032l44.587-23.504c.002-.001.004-.002.006-.003.004-.002.008-.004.011-.006l38.576-20.336c4.811-2.534 10.825-1.105 13.99 3.325 1.846 2.585 2.478 5.716 1.779 8.818-.698 3.094-2.604 5.646-5.369 7.184z"/><path d="m390.971 440.015c-5.086 2.772-10.243 5.632-15.465 8.528-44.189 24.504-94.274 52.28-142.411 47.98l-170.472-15.221c-.222-.02-.445-.03-.668-.03h-46.926v-84.383h46.925c1.774 0 3.494-.631 4.849-1.774.143-.121 14.556-12.194 36.005-23.046 3.703-1.874 5.186-6.394 3.313-10.098s-6.395-5.185-10.098-3.313c-18.341 9.279-31.683 19.222-36.729 23.201h-51.779c-4.15 0-7.515 3.365-7.515 7.515v99.412c0 4.15 3.364 7.515 7.515 7.515h54.105l170.139 15.191c3.843.343 7.678.507 11.513.507 48.792 0 96.803-26.623 139.523-50.314 5.19-2.878 10.315-5.72 15.369-8.475 3.644-1.986 4.988-6.55 3.002-10.195-1.987-3.643-6.551-4.987-10.195-3z"/><path d="m116.005 220.122h98.884l21.958 35.379c4.141 6.672 11.301 10.656 19.154 10.656s15.013-3.984 19.154-10.656l21.958-35.379h38.335c4.15 0 7.515-3.365 7.515-7.515s-3.365-7.515-7.515-7.515h-42.516c-2.599 0-5.014 1.343-6.385 3.552l-24.162 38.931c-1.99 3.206-5.127 3.552-6.384 3.552s-4.394-.346-6.384-3.552l-24.162-38.931c-1.371-2.208-3.786-3.552-6.385-3.552h-103.065c-12.431 0-22.544-10.116-22.544-22.55v-144.963c0-12.434 10.113-22.55 22.544-22.55h279.992c12.431 0 22.544 10.116 22.544 22.55v144.962c0 12.434-10.113 22.55-22.544 22.55h-30.49c-4.15 0-7.515 3.365-7.515 7.515s3.365 7.515 7.515 7.515h30.49c20.718 0 37.574-16.858 37.574-37.58v-144.962c0-20.721-16.856-37.579-37.574-37.579h-279.992c-20.718 0-37.574 16.858-37.574 37.579v144.962c0 20.723 16.856 37.581 37.574 37.581z"/><path d="m193.471 155.409c-1.551 10.135 7.162 19.961 17.401 19.723h90.259c10.24.238 18.951-9.588 17.401-19.724-2.792-21.517-13.446-38.85-29.762-49.005 6.079-7.883 9.163-17.786 8.48-28.043-1.366-20.496-17.846-37.018-38.334-38.432-11.605-.792-22.653 3.112-31.12 11.015-8.351 7.795-13.141 18.816-13.141 30.236 0 9.179 3.103 18.052 8.598 25.214-16.329 10.153-26.989 27.491-29.782 49.016zm45.213-40.029c5.37-1.944 6.385-9.773 1.689-13.023-6.794-5.026-10.69-12.745-10.69-21.178 0-7.377 2.971-14.213 8.367-19.249 4.927-4.599 11.236-7.073 17.937-7.073.628 0 1.259.021 1.893.066 13.026.899 23.503 11.405 24.372 24.437.602 9.03-3.371 17.626-10.628 22.995-4.696 3.251-3.679 11.079 1.69 13.023 9.793 3.898 26.753 14.533 30.312 41.964-.004 1.735-.675 2.523-2.497 2.76h-90.259c-1.821-.237-2.493-1.025-2.497-2.76 3.561-27.428 20.519-38.064 30.311-41.962z"/></g></g></svg>