<?xml version="1.0" encoding="iso-8859-1"?>
<!-- Generator: Adobe Illustrator 19.0.0, SVG Export Plug-In . SVG Version: 6.00 Build 0)  -->
<svg version="1.1" id="Layer_1" xmlns="http://www.w3.org/2000/svg" xmlns:xlink="http://www.w3.org/1999/xlink" x="0px" y="0px"
	 viewBox="0 0 512 512" style="enable-background:new 0 0 512 512;" xml:space="preserve">
<circle style="fill:#47B0D3;" cx="256" cy="256" r="247.983"/>
<path style="fill:#3298BA;" d="M290.205,495.432c-136.957,0-247.983-111.026-247.983-247.983
	c0-109.992,71.618-203.243,170.76-235.705C96.531,32.113,8.017,133.715,8.017,256c0,136.957,111.026,247.983,247.983,247.983
	c26.965,0,52.918-4.32,77.223-12.278C319.25,494.148,304.877,495.432,290.205,495.432z"/>
<polygon style="fill:#B2B2B2;" points="188.632,401.37 168.939,283.211 375.716,115.819 "/>
<polygon style="fill:#CCCCCC;" points="213.247,297.981 188.632,401.37 375.716,115.819 "/>
<g>
	<path style="fill:#E5E5E5;" d="M213.247,297.981l162.469-182.162l-14.345,243.849c-0.204,3.472-3.846,5.643-6.997,4.172
		L213.247,297.981z"/>
	<path style="fill:#E5E5E5;" d="M375.716,115.819L100.053,244.145c-3.843,1.789-3.779,7.275,0.105,8.973l68.781,30.091
		L375.716,115.819z"/>
</g>
<path d="M490.626,153.442c-13.697-31.292-33.236-59.158-58.073-82.819c-3.207-3.055-8.28-2.933-11.335,0.275
	c-3.054,3.206-2.931,8.28,0.275,11.333c48.024,45.751,74.473,107.464,74.473,173.769c0,132.318-107.648,239.967-239.967,239.967
	S16.033,388.318,16.033,256S123.682,16.033,256,16.033c48.336,0,94.93,14.306,134.742,41.369c3.661,2.489,8.647,1.538,11.137-2.122
	c2.489-3.662,1.538-8.648-2.123-11.137C357.274,15.265,307.564,0,256,0C187.62,0,123.333,26.628,74.981,74.981
	C26.629,123.333,0,187.62,0,256s26.629,132.667,74.981,181.019C123.333,485.372,187.62,512,256,512s132.667-26.628,181.019-74.981
	C485.371,388.667,512,324.38,512,256C512,220.348,504.809,185.842,490.626,153.442z"/>
<path d="M383.726,115.603c-0.159-5.676-6.255-9.427-11.393-7.051l-154.176,71.771c-4.014,1.868-5.753,6.638-3.884,10.652
	c1.868,4.014,6.638,5.755,10.65,3.885l95.106-44.274l-46.237,37.431l-106.107,85.896l-58.036-25.392l81.326-37.858
	c4.014-1.869,5.753-6.638,3.884-10.652s-6.639-5.755-10.65-3.885l-87.54,40.752c-4.654,2.166-7.592,6.905-7.474,12.035
	c0.115,5.02,3.149,9.538,7.748,11.55l64.802,28.35l18.979,113.874c1.168,7.041,10.702,9.046,14.613,3.075l53.836-82.171
	l101.811,47.512c8.157,3.81,17.864-2.012,18.39-10.966l14.343-243.849C383.733,116.063,383.732,115.831,383.726,115.603z
	 M243.371,303.191l-16.967-7.917l83.469-93.586L297.8,220.116L243.371,303.191z M218.769,309.403l15.724,7.338l-27.445,41.89
	L218.769,309.403z M303.983,184.203l-96.718,108.441c-0.87,0.976-1.516,2.204-1.816,3.479l-15.431,64.807l-12.404-74.428
	L303.983,184.203z M353.637,354.649l-95.586-44.607l107.897-164.684L353.637,354.649z"/>
<g>
</g>
<g>
</g>
<g>
</g>
<g>
</g>
<g>
</g>
<g>
</g>
<g>
</g>
<g>
</g>
<g>
</g>
<g>
</g>
<g>
</g>
<g>
</g>
<g>
</g>
<g>
</g>
<g>
</g>
</svg>
