<svg height="512" viewBox="0 0 256 256" width="512" xmlns="http://www.w3.org/2000/svg"><g id="Layer_39"><g><g><g><path d="m14.2 173.5h-2.3v-2.3c0-1.8-1.4-3.2-3.2-3.2s-3.2 1.5-3.2 3.2v2.3h-2.3c-1.8 0-3.2 1.4-3.2 3.2s1.5 3.2 3.2 3.2h2.3v2.3c0 1.8 1.4 3.2 3.2 3.2s3.2-1.5 3.2-3.2v-2.3h2.3c1.8 0 3.2-1.4 3.2-3.2s-1.5-3.2-3.2-3.2z" fill="#70d6f9"/></g></g><g><g><path d="m72.423 56.5h138.335v-27.018c0-2.74-2.242-4.982-4.982-4.982h-173.007c-2.74 0-4.982 2.242-4.982 4.982v217.505c0 3.597 2.916 6.512 6.512 6.512h169.946c3.596 0 6.512-2.916 6.512-6.512v-7.487h-19.771c-1.22 0-2.209-.989-2.209-2.209v-51.581c0-1.22.989-2.209 2.209-2.209h19.771v-11h-138.334c-1.22 0-2.209-.989-2.209-2.209v-31.581c0-1.22.989-2.209 2.209-2.209h138.335v-11h-138.335c-1.22 0-2.209-.989-2.209-2.209v-64.584c-.001-1.22.988-2.209 2.209-2.209z" fill="#edf4fc"/></g></g><g><g><path d="m234.004 136.5h-161.581c-1.22 0-2.209.989-2.209 2.209v31.581c0 1.22.989 2.209 2.209 2.209h161.581c1.22 0 2.209-.989 2.209-2.209v-31.581c0-1.22-.989-2.209-2.209-2.209z" fill="#b598f9"/></g></g><g><g><path d="m234.004 56.5h-161.581c-1.22 0-2.209.989-2.209 2.209v64.581c0 1.22.989 2.209 2.209 2.209h161.581c1.22 0 2.209-.989 2.209-2.209v-64.581c0-1.22-.989-2.209-2.209-2.209z" fill="#70d6f9"/></g></g><g><g><path d="m115.94 183.5h-43.517c-1.22 0-2.209.989-2.209 2.209v51.581c0 1.22.989 2.209 2.209 2.209h43.517c1.22 0 2.209-.989 2.209-2.209v-51.581c0-1.22-.989-2.209-2.209-2.209z" fill="#fcdd86"/></g></g><g><g><path d="m175.222 183.5h-43.517c-1.22 0-2.209.989-2.209 2.209v51.581c0 1.22.989 2.209 2.209 2.209h43.517c1.22 0 2.209-.989 2.209-2.209v-51.581c0-1.22-.989-2.209-2.209-2.209z" fill="#fca265"/></g></g><g><g><path d="m234.004 183.5h-43.017c-1.22 0-2.209.989-2.209 2.209v51.581c0 1.22.989 2.209 2.209 2.209h43.017c1.22 0 2.209-.989 2.209-2.209v-51.581c0-1.22-.989-2.209-2.209-2.209z" fill="#f98fa6"/></g></g><g><g><path d="m204.952 93.42c-2.115-1.496-4.944-1.496-7.06 0l-45.362 32.08h81.473c1.22 0 2.209-.989 2.209-2.209v-7.763z" fill="#b2e26d"/></g></g><g><g><path d="m132.422 77.097c-2.115-1.496-4.944-1.496-7.06 0l-55.149 39.001v7.192c0 1.22.989 2.209 2.209 2.209h80.108l24.168-17.091z" fill="#87d147"/></g></g><g><g><circle cx="176.213" cy="78.5" fill="#f5c84c" r="10"/></g></g><g><g><path d="m91.435 6.21c-3.157-.561-5.613-3.017-6.245-6.104 0-.14-.281-.14-.281 0-.632 3.087-3.087 5.543-6.245 6.104-.14 0-.14.21 0 .281 3.157.561 5.613 3.017 6.245 6.104 0 .14.281.14.281 0 .632-3.087 3.087-5.543 6.245-6.104.14-.071.14-.281 0-.281z" fill="#fc657e"/></g></g><g><g><path d="m255.85 42.75c-4.5-.8-8-4.3-8.9-8.7 0-.2-.4-.2-.4 0-.9 4.4-4.4 7.9-8.9 8.7-.2 0-.2.3 0 .4 4.5.8 8 4.3 8.9 8.7 0 .2.4.2.4 0 .9-4.4 4.4-7.9 8.9-8.7.2-.1.2-.4 0-.4z" fill="#f5c84c"/></g></g><g><g><path d="m226.624 18c-1.878 0-3.4 1.522-3.4 3.4s1.522 3.4 3.4 3.4 3.4-1.522 3.4-3.4-1.522-3.4-3.4-3.4z" fill="#87d147"/></g></g><g><g><path d="m15.624 202.958c-1.878 0-3.4 1.522-3.4 3.4s1.522 3.4 3.4 3.4 3.4-1.522 3.4-3.4-1.522-3.4-3.4-3.4z" fill="#f5c84c"/></g></g><g><g><path d="m205.775 24.5h-173.006c-2.74 0-4.982 2.242-4.982 4.982v13.871h182.97v-13.871c0-2.74-2.242-4.982-4.982-4.982z" fill="#5290db"/></g></g><g><g><path d="m32.769 24.5c-2.74 0-4.982 2.242-4.982 4.982v13.871h21.249v-18.853z" fill="#3a70bf"/></g></g><g><g><path d="m210.757 123.656c-1.381 0-2.5 1.119-2.5 2.5v9.594c0 1.381 1.119 2.5 2.5 2.5s2.5-1.119 2.5-2.5v-9.594c0-1.381-1.119-2.5-2.5-2.5z"/></g></g><g><g><path d="m210.757 171c-1.381 0-2.5 1.119-2.5 2.5v9.125c0 1.381 1.119 2.5 2.5 2.5s2.5-1.119 2.5-2.5v-9.125c0-1.381-1.119-2.5-2.5-2.5z"/></g></g><g><g><path d="m210.757 58.125c1.381 0 2.5-1.119 2.5-2.5v-26.143c0-4.126-3.356-7.482-7.482-7.482h-173.005c-4.126 0-7.482 3.356-7.482 7.482v217.505c0 4.969 4.043 9.012 9.012 9.012h169.946c4.969 0 9.012-4.043 9.012-9.012v-6.57c0-1.381-1.119-2.5-2.5-2.5s-2.5 1.119-2.5 2.5v6.57c0 2.212-1.8 4.012-4.012 4.012h-169.947c-2.212 0-4.012-1.8-4.012-4.012v-217.505c0-1.368 1.113-2.482 2.483-2.482h173.005c1.369 0 2.482 1.114 2.482 2.482v26.143c0 1.381 1.119 2.5 2.5 2.5z"/></g></g><g><g><path d="m198.729 31.142h-11.763c-1.381 0-2.5 1.119-2.5 2.5s1.119 2.5 2.5 2.5h11.763c1.381 0 2.5-1.119 2.5-2.5s-1.119-2.5-2.5-2.5z"/></g></g><g><g><path d="m175.901 31.142h-115.671c-1.381 0-2.5 1.119-2.5 2.5s1.119 2.5 2.5 2.5h115.671c1.381 0 2.5-1.119 2.5-2.5s-1.119-2.5-2.5-2.5z"/></g></g><g><g><path d="m209.771 40.854h-181.154c-1.381 0-2.5 1.119-2.5 2.5s1.119 2.5 2.5 2.5h181.154c1.381 0 2.5-1.119 2.5-2.5s-1.119-2.5-2.5-2.5z"/></g></g><g><g><path d="m49.036 22.941c-1.381 0-2.5 1.119-2.5 2.5v17.105c0 1.381 1.119 2.5 2.5 2.5s2.5-1.119 2.5-2.5v-17.105c0-1.381-1.119-2.5-2.5-2.5z"/></g></g><g><g><g><path d="m234.004 134h-161.581c-2.597 0-4.71 2.113-4.71 4.709v31.581c0 2.597 2.113 4.709 4.71 4.709h161.581c2.597 0 4.709-2.113 4.709-4.709v-31.581c0-2.596-2.112-4.709-4.709-4.709zm-.291 36h-161v-31h161z"/></g></g></g><g><g><g><path d="m234.004 54h-161.581c-2.597 0-4.71 2.113-4.71 4.709v64.581c0 2.597 2.113 4.709 4.71 4.709h161.581c2.597 0 4.709-2.113 4.709-4.709v-64.581c0-2.596-2.112-4.709-4.709-4.709zm-.291 69h-161v-64h161z"/></g></g></g><g><g><g><path d="m115.939 181h-43.516c-2.597 0-4.71 2.113-4.71 4.709v51.581c0 2.597 2.113 4.709 4.71 4.709h43.517c2.597 0 4.71-2.113 4.71-4.709v-51.581c-.001-2.596-2.114-4.709-4.711-4.709zm-.29 56h-42.936v-51h42.937v51z"/></g></g></g><g><g><g><path d="m175.222 181h-43.518c-2.597 0-4.709 2.113-4.709 4.709v51.581c0 2.597 2.112 4.709 4.709 4.709h43.518c2.597 0 4.71-2.113 4.71-4.709v-51.581c0-2.596-2.114-4.709-4.71-4.709zm-.29 56h-42.937v-51h42.937z"/></g></g></g><g><g><g><path d="m234.004 181h-43.018c-2.597 0-4.709 2.113-4.709 4.709v51.581c0 2.597 2.112 4.709 4.709 4.709h43.018c2.597 0 4.709-2.113 4.709-4.709v-51.581c0-2.596-2.112-4.709-4.709-4.709zm-.291 56h-42.436v-51h42.436z"/></g></g></g><g><g><path d="m188.605 146.474h-52.75c-1.381 0-2.5 1.119-2.5 2.5s1.119 2.5 2.5 2.5h52.75c1.381 0 2.5-1.119 2.5-2.5s-1.119-2.5-2.5-2.5z"/></g></g><g><g><path d="m126.897 146.474h-12.459c-1.381 0-2.5 1.119-2.5 2.5s1.119 2.5 2.5 2.5h12.459c1.381 0 2.5-1.119 2.5-2.5s-1.119-2.5-2.5-2.5z"/></g></g><g><g><path d="m216.605 146.474h-18.46c-1.381 0-2.5 1.119-2.5 2.5s1.119 2.5 2.5 2.5h18.46c1.381 0 2.5-1.119 2.5-2.5s-1.119-2.5-2.5-2.5z"/></g></g><g><g><path d="m105.605 146.474h-4c-1.381 0-2.5 1.119-2.5 2.5s1.119 2.5 2.5 2.5h4c1.381 0 2.5-1.119 2.5-2.5s-1.119-2.5-2.5-2.5z"/></g></g><g><g><path d="m203.605 157.358h-40c-1.381 0-2.5 1.119-2.5 2.5s1.119 2.5 2.5 2.5h40c1.381 0 2.5-1.119 2.5-2.5s-1.119-2.5-2.5-2.5z"/></g></g><g><g><path d="m154.605 157.358h-40.167c-1.381 0-2.5 1.119-2.5 2.5s1.119 2.5 2.5 2.5h40.167c1.381 0 2.5-1.119 2.5-2.5s-1.119-2.5-2.5-2.5z"/></g></g><g><g><path d="m105.605 157.358h-4c-1.381 0-2.5 1.119-2.5 2.5s1.119 2.5 2.5 2.5h4c1.381 0 2.5-1.119 2.5-2.5s-1.119-2.5-2.5-2.5z"/></g></g><g><g><path d="m107.605 215.474h-4.75c-1.381 0-2.5 1.119-2.5 2.5s1.119 2.5 2.5 2.5h4.75c1.381 0 2.5-1.119 2.5-2.5s-1.119-2.5-2.5-2.5z"/></g></g><g><g><path d="m94.897 215.474h-3.459c-1.381 0-2.5 1.119-2.5 2.5s1.119 2.5 2.5 2.5h3.459c1.381 0 2.5-1.119 2.5-2.5s-1.119-2.5-2.5-2.5z"/></g></g><g><g><path d="m83.605 215.474h-3c-1.381 0-2.5 1.119-2.5 2.5s1.119 2.5 2.5 2.5h3c1.381 0 2.5-1.119 2.5-2.5s-1.119-2.5-2.5-2.5z"/></g></g><g><g><path d="m107.605 226.358h-16.167c-1.381 0-2.5 1.119-2.5 2.5s1.119 2.5 2.5 2.5h16.167c1.381 0 2.5-1.119 2.5-2.5s-1.119-2.5-2.5-2.5z"/></g></g><g><g><path d="m83.605 226.358h-3c-1.381 0-2.5 1.119-2.5 2.5s1.119 2.5 2.5 2.5h3c1.381 0 2.5-1.119 2.5-2.5s-1.119-2.5-2.5-2.5z"/></g></g><g><g><path d="m166.605 215.474h-4.75c-1.381 0-2.5 1.119-2.5 2.5s1.119 2.5 2.5 2.5h4.75c1.381 0 2.5-1.119 2.5-2.5s-1.119-2.5-2.5-2.5z"/></g></g><g><g><path d="m153.897 215.474h-3.459c-1.381 0-2.5 1.119-2.5 2.5s1.119 2.5 2.5 2.5h3.459c1.381 0 2.5-1.119 2.5-2.5s-1.119-2.5-2.5-2.5z"/></g></g><g><g><path d="m142.605 215.474h-3c-1.381 0-2.5 1.119-2.5 2.5s1.119 2.5 2.5 2.5h3c1.381 0 2.5-1.119 2.5-2.5s-1.119-2.5-2.5-2.5z"/></g></g><g><g><path d="m166.605 226.358h-16.167c-1.381 0-2.5 1.119-2.5 2.5s1.119 2.5 2.5 2.5h16.167c1.381 0 2.5-1.119 2.5-2.5s-1.119-2.5-2.5-2.5z"/></g></g><g><g><path d="m142.605 226.358h-3c-1.381 0-2.5 1.119-2.5 2.5s1.119 2.5 2.5 2.5h3c1.381 0 2.5-1.119 2.5-2.5s-1.119-2.5-2.5-2.5z"/></g></g><g><g><path d="m225.605 215.474h-4.75c-1.381 0-2.5 1.119-2.5 2.5s1.119 2.5 2.5 2.5h4.75c1.381 0 2.5-1.119 2.5-2.5s-1.119-2.5-2.5-2.5z"/></g></g><g><g><path d="m212.897 215.474h-3.459c-1.381 0-2.5 1.119-2.5 2.5s1.119 2.5 2.5 2.5h3.459c1.381 0 2.5-1.119 2.5-2.5s-1.119-2.5-2.5-2.5z"/></g></g><g><g><path d="m201.605 215.474h-3c-1.381 0-2.5 1.119-2.5 2.5s1.119 2.5 2.5 2.5h3c1.381 0 2.5-1.119 2.5-2.5s-1.119-2.5-2.5-2.5z"/></g></g><g><g><path d="m225.605 226.358h-16.167c-1.381 0-2.5 1.119-2.5 2.5s1.119 2.5 2.5 2.5h16.167c1.381 0 2.5-1.119 2.5-2.5s-1.119-2.5-2.5-2.5z"/></g></g><g><g><path d="m201.605 226.358h-3c-1.381 0-2.5 1.119-2.5 2.5s1.119 2.5 2.5 2.5h3c1.381 0 2.5-1.119 2.5-2.5s-1.119-2.5-2.5-2.5z"/></g></g><g><g><path d="m216.605 157.358h-4c-1.381 0-2.5 1.119-2.5 2.5s1.119 2.5 2.5 2.5h4c1.381 0 2.5-1.119 2.5-2.5s-1.119-2.5-2.5-2.5z"/></g></g><g><g><path d="m91.605 146.474h-4c-1.381 0-2.5 1.119-2.5 2.5s1.119 2.5 2.5 2.5h4c1.381 0 2.5-1.119 2.5-2.5s-1.119-2.5-2.5-2.5z"/></g></g><g><g><path d="m91.605 157.358h-4c-1.381 0-2.5 1.119-2.5 2.5s1.119 2.5 2.5 2.5h4c1.381 0 2.5-1.119 2.5-2.5s-1.119-2.5-2.5-2.5z"/></g></g><g><g><path d="m109.631 200.232-5.579-5.58c-.977-.977-2.559-.976-3.535 0-.977.977-.977 2.56 0 3.536l3.812 3.812-3.812 3.812c-.977.976-.977 2.559 0 3.536.488.488 1.128.732 1.768.732s1.279-.244 1.768-.732l5.579-5.58c.975-.976.975-2.56-.001-3.536z"/></g></g><g><g><path d="m83.437 202 3.812-3.812c.977-.977.977-2.56 0-3.536-.977-.977-2.559-.976-3.535 0l-5.58 5.58c-.469.469-.732 1.105-.732 1.768s.264 1.299.732 1.768l5.58 5.58c.488.488 1.128.732 1.768.732s1.279-.244 1.768-.732c.977-.976.977-2.559 0-3.536z"/></g></g><g><g><path d="m96.556 192.836c-1.332-.388-2.714.375-3.101 1.7l-3.945 13.527c-.386 1.326.375 2.714 1.7 3.1.234.068.47.101.701.101 1.083 0 2.081-.709 2.399-1.8l3.945-13.527c.387-1.326-.374-2.714-1.699-3.101z"/></g></g><g><g><path d="m168.631 200.232-5.579-5.58c-.977-.977-2.559-.976-3.535 0-.977.977-.977 2.56 0 3.536l3.812 3.812-3.812 3.812c-.977.976-.977 2.559 0 3.536.488.488 1.128.732 1.768.732s1.279-.244 1.768-.732l5.579-5.58c.975-.976.975-2.56-.001-3.536z"/></g></g><g><g><path d="m142.438 202 3.812-3.812c.977-.977.977-2.56 0-3.536-.977-.977-2.559-.976-3.535 0l-5.58 5.58c-.469.469-.732 1.105-.732 1.768s.264 1.299.732 1.768l5.58 5.58c.488.488 1.128.732 1.768.732s1.279-.244 1.768-.732c.977-.976.977-2.559 0-3.536z"/></g></g><g><g><path d="m155.556 192.836c-1.331-.388-2.714.375-3.101 1.7l-3.945 13.527c-.386 1.326.375 2.714 1.7 3.1.234.068.47.101.701.101 1.083 0 2.081-.709 2.399-1.8l3.945-13.527c.387-1.326-.374-2.714-1.699-3.101z"/></g></g><g><g><path d="m228.631 200.232-5.579-5.58c-.977-.977-2.559-.976-3.535 0-.977.977-.977 2.56 0 3.536l3.812 3.812-3.812 3.812c-.977.976-.977 2.559 0 3.536.488.488 1.128.732 1.768.732s1.279-.244 1.768-.732l5.579-5.58c.975-.976.975-2.56-.001-3.536z"/></g></g><g><g><path d="m202.438 202 3.812-3.812c.977-.977.977-2.56 0-3.536-.977-.977-2.559-.976-3.535 0l-5.58 5.58c-.469.469-.732 1.105-.732 1.768s.264 1.299.732 1.768l5.58 5.58c.488.488 1.128.732 1.768.732s1.279-.244 1.768-.732c.977-.976.977-2.559 0-3.536z"/></g></g><g><g><path d="m215.556 192.836c-1.332-.388-2.714.375-3.101 1.7l-3.945 13.527c-.386 1.326.375 2.714 1.7 3.1.234.068.47.101.701.101 1.083 0 2.081-.709 2.399-1.8l3.945-13.527c.387-1.326-.374-2.714-1.699-3.101z"/></g></g><g><g><path d="m237.326 113.253-30.931-21.874c-2.973-2.104-6.97-2.105-9.946 0l-45.142 31.924c-1.127.797-1.395 2.357-.598 3.484.487.689 1.259 1.057 2.043 1.057.499 0 1.003-.149 1.441-.459l45.142-31.924c1.248-.884 2.925-.883 4.173 0l30.931 21.874c1.128.797 2.688.529 3.484-.598s.53-2.687-.597-3.484z"/></g></g><g><g><path d="m177.682 106.042-43.816-30.986c-2.974-2.104-6.971-2.105-9.946 0l-54.627 38.632c-1.128.797-1.396 2.357-.598 3.484.487.689 1.259 1.057 2.043 1.057.499 0 1.003-.149 1.441-.459l54.627-38.632c1.249-.884 2.926-.882 4.173 0l43.816 30.986c1.127.797 2.688.53 3.484-.598.798-1.126.53-2.687-.597-3.484z"/></g></g><g><g><g><path d="m176.213 66c-6.893 0-12.5 5.607-12.5 12.5s5.607 12.5 12.5 12.5 12.5-5.607 12.5-12.5-5.608-12.5-12.5-12.5zm0 20c-4.136 0-7.5-3.364-7.5-7.5s3.364-7.5 7.5-7.5 7.5 3.364 7.5 7.5-3.364 7.5-7.5 7.5z"/></g></g></g></g></g></svg>