<svg id="Capa_1" enable-background="new 0 0 512 512" height="512" viewBox="0 0 512 512" width="512" xmlns="http://www.w3.org/2000/svg"><g><path d="m504.5 37.5v437c0 16.6-13.4 30-30 30h-437c-16.6 0-30-13.4-30-30v-437c0-16.6 13.4-30 30-30h437c16.6 0 30 13.4 30 30z" fill="#deefff"/><path d="m504.5 37.5v437c0 16.6-13.4 30-30 30h-437c-16.6 0-30-13.4-30-30v-45.6c385.6-113.6 379.4-360.5 379.9-421.4h87.1c16.6 0 30 13.4 30 30z" fill="#08fff9"/><path d="m474.5 504.5c16.6 0 30-13.4 30-30v-437c0-16.6-13.4-30-30-30h-54.4c-.8 88.3-46.6 372.3-319.5 497z" fill="#f00044"/><path d="m504.5 37.5v437c0 16.6-13.4 30-30 30h-193.2c148.1-170.6 165-408.7 165.8-497h27.4c16.6 0 30 13.4 30 30z" fill="#b8daef"/><path d="m69.8 504.5h-32.3c-16.6 0-30-13.4-30-30v-437c0-16.6 13.4-30 30-30h32.3c-16.6 0-30 13.4-30 30v437c0 16.6 13.5 30 30 30z" fill="#f0f8ff"/><path d="m69.8 504.5h-32.3c-16.6 0-30-13.4-30-30v-45.6c11.1-3.3 21.9-6.6 32.3-10.1v55.7c0 16.6 13.5 30 30 30z" fill="#9cfffd"/><path d="m319.1 322.1c-.1 28.3-11.2 54.8-31.2 74.8-16.3 16.3-36.9 26.6-59.2 30-5.2.8-10.6 1.2-16 1.2-28.4 0-55.1-11.1-75.2-31.2s-31.2-46.8-31.2-75.2 11.1-55.1 31.2-75.2 46.8-31.2 75.2-31.2c5.4 0 10.8.4 16 1.2v56.9c-5-1.7-10.4-2.6-16-2.6-28.1 0-50.9 22.8-50.9 50.9s22.8 50.9 50.9 50.9c5.6 0 11-.9 16-2.6 20.2-6.7 34.8-25.7 34.9-48.1v-238h55.6c0 47.8 38.8 86.5 86.6 86.5v55.6c-19.2 0-37.8-3.8-55.4-11.2-11.2-4.8-21.7-10.9-31.3-18.2z" fill="#deefff"/><g><path d="m212.7 435.6c-30.4 0-59-11.8-80.6-33.4-21.5-21.5-33.4-50.1-33.4-80.6 0-30.4 11.9-59 33.4-80.6 21.5-21.5 50.1-33.4 80.6-33.4 5.7 0 11.5.4 17.1 1.3 3.7.6 6.4 3.7 6.4 7.4v56.9c0 2.4-1.2 4.7-3.1 6.1-2 1.4-4.5 1.8-6.8 1-4.4-1.5-9-2.2-13.6-2.2-23.9 0-43.4 19.5-43.4 43.4s19.5 43.4 43.4 43.4c4.6 0 9.2-.7 13.6-2.2 17.7-5.9 29.6-22.3 29.7-41v-238c0-4.1 3.4-7.5 7.5-7.5h55.6c4.1 0 7.5 3.4 7.5 7.5 0 43.6 35.5 79 79.1 79 4.1 0 7.5 3.4 7.5 7.5v55.8c0 4.1-3.4 7.5-7.5 7.5-20.2 0-39.8-4-58.3-11.8-7.2-3.1-14.2-6.7-20.8-10.8v111.3c-.1 30.3-12 58.7-33.4 80.1-17.4 17.4-39.3 28.5-63.4 32.1-5.6.8-11.4 1.2-17.1 1.2zm0-212.8c-26.4 0-51.3 10.3-69.9 29-18.7 18.7-29 43.5-29 69.9s10.3 51.3 29 69.9c18.7 18.7 43.5 29 69.9 29 5 0 10-.4 14.9-1.1 20.9-3.1 40-12.8 55.1-27.9 18.6-18.6 28.9-43.3 29-69.5v-125.6c0-2.9 1.6-5.5 4.2-6.7 2.6-1.3 5.6-1 7.9.8 9.1 7 19 12.8 29.6 17.3 14.3 6.1 29.4 9.5 44.9 10.4v-40.6c-45.9-3.6-82.6-40.4-86.3-86.2h-41v230.5c-.1 25.1-16.2 47.3-40 55.2-6 2-12.1 3-18.4 3-32.2 0-58.4-26.2-58.4-58.4s26.2-58.4 58.4-58.4c2.9 0 5.7.2 8.5.6v-40.8c-2.7-.3-5.6-.4-8.4-.4z"/></g><path d="m15 96v378.5c0 12.4 10.1 22.5 22.5 22.5h437c12.4 0 22.5-10.1 22.5-22.5v-107.7c0-4.1 3.4-7.5 7.5-7.5 4.1 0 7.5 3.4 7.5 7.5v107.7c0 20.7-16.8 37.5-37.5 37.5h-437c-20.7 0-37.5-16.8-37.5-37.5v-378.5c0-4.1 3.3-7.4 7.3-7.5 4.3-.1 7.7 3.3 7.7 7.5z"/><path d="m0 46.3v-8.8c0-20.7 16.8-37.5 37.5-37.5h437c20.7 0 37.5 16.8 37.5 37.5v279.8c0 4.1-3.4 7.5-7.5 7.5-4.1 0-7.5-3.4-7.5-7.5v-279.8c0-12.4-10.1-22.5-22.5-22.5h-437c-12.4 0-22.5 10.1-22.5 22.5v8.8c0 4.1-3.4 7.5-7.5 7.5-4.1 0-7.5-3.4-7.5-7.5z"/></g></svg>