<svg id="Capa_1" enable-background="new 0 0 512 512" height="512" viewBox="0 0 512 512" width="512" xmlns="http://www.w3.org/2000/svg"><g><g><g><path d="m321.901 182.289c-13.628 0-24.676-11.048-24.676-24.676 0-1.876.209-3.702.606-5.458 3.201-14.177 24.07-11.852 24.07 2.682h157.923c0-14.534 20.869-16.859 24.07-2.682.396 1.756.606 3.582.606 5.458 0 13.628-11.048 24.676-24.676 24.676" fill="#b17a4a"/><path d="m422.273 227.647h-42.82c-31.785 0-57.552-25.767-57.552-57.552v-81.168l78.964-48.543 78.959 48.543v81.168c0 31.785-25.766 57.552-57.551 57.552z" fill="#c38959"/><path d="m479.829 61.151v33.86s-11.512-18.951-29.732-18.951c-18.212 0-25.627 22.505-49.233 22.505-23.598 0-31.021-22.505-49.233-22.505s-29.732 18.951-29.732 18.951v-33.86c0-21.703 17.598-39.293 39.301-39.293h79.326c21.704-.001 39.303 17.59 39.303 39.293z" fill="#365e7d"/><path d="m361.201 21.857h38.004c-21.703 0-39.301 17.59-39.301 39.293v16.552c-2.54-1.03-5.261-1.643-8.272-1.643-18.212 0-29.732 18.951-29.732 18.951v-33.86c0-21.702 17.598-39.293 39.301-39.293z" fill="#2b4d66"/><path d="m417.254 227.643h-37.799c-31.784 0-57.552-25.768-57.552-57.544v-75.088s11.52-18.951 29.731-18.951c2.933 0 5.591.582 8.076 1.565v92.474c-.001 31.775 25.76 57.544 57.544 57.544z" fill="#b17a4a"/></g><g><path d="m30.888 251.77c-12.917 0-23.388-10.471-23.388-23.388 0-1.778.198-3.509.574-5.173 3.034-13.438 22.814-11.234 22.814 2.542h149.686c0-13.776 19.78-15.98 22.814-2.542.376 1.664.574 3.396.574 5.173 0 12.917-10.471 23.388-23.388 23.388" fill="#ffcbbe"/><path d="m126.025 294.763h-40.587c-30.127 0-54.55-24.423-54.55-54.55v-76.934h149.686v76.934c.001 30.127-24.422 54.55-54.549 54.55z" fill="#ffddce"/><path d="m121.271 294.762h-35.833c-30.124 0-54.55-24.426-54.55-54.55v-76.938h35.833v76.938c0 30.125 24.421 54.55 54.55 54.55z" fill="#ffcbbe"/><g fill="#eaa598"><ellipse cx="155.104" cy="238.805" rx="12.251" ry="7.45"/><ellipse cx="56.359" cy="238.805" rx="12.251" ry="7.45"/></g><path d="m68.216 109.875h-23.162c-14.39 0-26.056 11.666-26.056 26.056v35.286c0 7.174 5.816 12.99 12.99 12.99h16.284c21.45 0 38.838-17.388 38.838-38.838v-16.599c.001-10.436-8.459-18.895-18.894-18.895z" fill="#aa7a63"/><path d="m68.076 109.872c-14.388 0-26.054 11.666-26.054 26.059v48.275h-10.034c-7.174 0-12.99-5.816-12.99-12.99v-35.284c0-14.393 11.666-26.059 26.054-26.059h23.024z" fill="#986b54"/><path d="m145.98 177.862h-36.069c-19.529 0-35.36-15.831-35.36-35.359v-22.292c0-19.529 15.831-35.359 35.36-35.359h105.554v23.525c0 38.375-31.109 69.485-69.485 69.485z" fill="#aa7a63"/><path d="m141.09 177.86h-31.18c-19.531 0-35.358-15.827-35.358-35.358v-22.291c0-19.531 15.827-35.358 35.358-35.358h31.18c-19.531 0-35.358 15.827-35.358 35.358v22.291c0 19.53 15.827 35.358 35.358 35.358z" fill="#986b54"/></g><g><path d="m291.438 290.128h21.176c45.013 0 81.503 36.49 81.503 81.503v118.511h-184.183v-118.511c0-45.013 36.491-81.503 81.504-81.503z" fill="#dd636e"/><path d="m297.913 290.126c-17.495 0-31.672 36.492-31.672 81.507v118.509h-56.306v-118.509c0-45.015 36.492-81.507 81.501-81.507z" fill="#cb5769"/><path d="m223.299 444.915c-13.588 0-24.603-11.015-24.603-24.603 0-1.87.209-3.691.604-5.442 3.192-14.136 23.999-11.817 23.999 2.674h157.462c0-14.491 20.808-16.81 23.999-2.674.395 1.751.604 3.572.604 5.442 0 13.588-11.015 24.603-24.603 24.603" fill="#ffcbbe"/><path d="m380.757 389.513v43.246c0 31.689-25.689 57.383-57.383 57.383h-42.696c-31.689 0-57.383-25.689-57.383-57.383v-42.752c9.771-.284 23.216-1.951 37.7-4.894 29.681-6.034 63.751-17.438 79.601-33.288 0 0 15.68 32.04 40.161 37.688z" fill="#ffddce"/><path d="m318.378 490.142h-37.7c-31.689 0-57.383-25.689-57.383-57.383v-42.752c9.771-.284 23.216-1.951 37.7-4.894v47.646c0 31.689 25.689 57.383 57.383 57.383z" fill="#ffcbbe"/><g fill="#eaa598"><ellipse cx="348.407" cy="436.837" rx="12.888" ry="7.836"/><ellipse cx="255.654" cy="436.837" rx="12.888" ry="7.836"/></g></g></g><g><path d="m183.374 430.407c-54.593-21.158-97.169-64.909-116.811-120.034-1.39-3.902-5.681-5.937-9.582-4.548-3.902 1.39-5.938 5.68-4.548 9.582 21.107 59.237 66.857 106.251 125.52 128.986.891.345 1.808.509 2.708.509 3.006 0 5.844-1.82 6.995-4.792 1.497-3.862-.42-8.206-4.282-9.703z"/><path d="m147.826 72.052c1.327 0 2.672-.353 3.889-1.092 31.343-19.055 67.404-29.127 104.285-29.127 14.977 0 29.908 1.653 44.379 4.913 4.042.912 8.055-1.627 8.965-5.669.91-4.041-1.628-8.054-5.669-8.965-15.551-3.503-31.591-5.279-47.675-5.279-39.63 0-78.386 10.827-112.077 31.309-3.54 2.152-4.665 6.766-2.513 10.305 1.412 2.322 3.883 3.605 6.416 3.605z"/><path d="m464.545 235.378c-4.142 0-7.5 3.358-7.5 7.5 0 47.625-16.951 93.815-47.731 130.061-2.681 3.157-2.295 7.89.862 10.571 1.411 1.198 3.135 1.783 4.851 1.783 2.125 0 4.237-.898 5.721-2.646 33.08-38.954 51.298-88.591 51.298-139.77-.001-4.141-3.359-7.499-7.501-7.499z"/><path d="m512 157.613c0-2.395-.266-4.786-.79-7.11-2.284-10.114-11.075-16.376-21.383-15.227-.86.096-1.688.257-2.502.446v-74.568c0-25.804-20.993-46.797-46.797-46.797h-79.329c-25.804 0-46.797 20.993-46.797 46.797v74.567c-.814-.189-1.643-.35-2.502-.446-10.307-1.152-19.1 5.113-21.383 15.227-.524 2.32-.79 4.713-.79 7.11 0 16.196 12.029 29.628 27.621 31.847 8.262 26.44 32.979 45.684 62.106 45.684h42.821c29.127 0 53.844-19.244 62.106-45.684 15.59-2.219 27.619-15.651 27.619-31.846zm-150.802-128.256h79.329c17.533 0 31.797 14.264 31.797 31.797v15.147c-5.816-4.242-13.31-7.741-22.226-7.741-11.146 0-18.991 6.271-25.913 11.804-7.184 5.742-13.387 10.701-23.32 10.701-9.938 0-16.142-4.96-23.327-10.704-4.573-3.656-9.301-7.436-15.072-9.711-3.506-1.387-7.152-2.09-10.834-2.09-8.919 0-16.416 3.501-22.232 7.746v-15.152c.001-17.532 14.265-31.797 31.798-31.797zm-56.472 128.256c0-1.288.142-2.568.421-3.806.833-3.69 3.837-3.762 5.089-3.624 1.252.14 4.165.873 4.165 4.654h.002v15.257c0 1 .031 1.994.076 2.984-5.76-2.776-9.753-8.655-9.753-15.465zm117.548 62.532h-42.821c-27.598 0-50.05-22.453-50.05-50.05v-72.762c2.891-3.931 11.226-13.773 22.23-13.773 1.811 0 3.55.34 5.325 1.042 3.678 1.45 7.339 4.377 11.215 7.476 7.795 6.231 17.497 13.987 32.693 13.987 15.191 0 24.892-7.754 32.686-13.984 6.609-5.283 10.943-8.521 16.547-8.521 11.007 0 19.344 9.847 22.225 13.764v72.77c0 27.598-22.452 50.051-50.05 50.051zm64.975-47.068c.045-.99.076-1.983.076-2.983v-15.257c0-3.781 2.913-4.514 4.165-4.654 1.255-.135 4.257-.065 5.089 3.622.28 1.241.422 2.522.422 3.809-.001 6.809-3.994 12.687-9.752 15.463z"/><path d="m363.837 131.359c-4.137 0-7.502 5.572-7.502 12.421s3.366 12.421 7.502 12.421c4.137 0 7.503-5.572 7.503-12.421s-3.366-12.421-7.503-12.421z"/><path d="m437.889 131.359c-4.137 0-7.503 5.572-7.503 12.421s3.366 12.421 7.503 12.421 7.502-5.572 7.502-12.421-3.366-12.421-7.502-12.421z"/><path d="m406.148 180.77c-1.412 1.412-3.289 2.189-5.286 2.189s-3.874-.778-5.286-2.189c-2.929-2.929-7.678-2.929-10.606 0-2.929 2.929-2.929 7.678 0 10.606 4.245 4.245 9.889 6.583 15.892 6.583s11.647-2.338 15.892-6.583c2.929-2.929 2.929-7.678 0-10.606-2.928-2.929-7.677-2.929-10.606 0z"/><path d="m70.637 227.051c3.925 0 7.118-5.285 7.118-11.78s-3.193-11.78-7.118-11.78-7.118 5.284-7.118 11.78 3.193 11.78 7.118 11.78z"/><path d="m140.826 227.051c3.925 0 7.118-5.285 7.118-11.78s-3.193-11.78-7.118-11.78-7.118 5.284-7.118 11.78 3.193 11.78 7.118 11.78z"/><path d="m85.438 302.261h40.587c27.694 0 51.203-18.24 59.159-43.336 14.853-2.232 26.279-15.078 26.279-30.543 0-2.302-.255-4.598-.758-6.825-2.21-9.788-10.718-15.85-20.693-14.736-.66.074-1.305.181-1.938.311v-34.346c20.993-13.764 34.896-37.486 34.896-64.406v-23.53c0-4.142-3.358-7.5-7.5-7.5h-59.38c-4.142 0-7.5 3.358-7.5 7.5s3.358 7.5 7.5 7.5h51.88v16.03c0 34.176-27.809 61.98-61.99 61.98h-36.07c-15.362 0-27.86-12.498-27.86-27.86v-22.29c0-15.362 12.498-27.86 27.86-27.86h16.18c4.142 0 7.5-3.358 7.5-7.5s-3.358-7.5-7.5-7.5h-16.18c-17.322 0-32.267 10.336-39.018 25.158-.885-.089-1.777-.134-2.676-.134h-23.164c-18.502 0-33.556 15.053-33.556 33.556v35.285c0 8.225 4.883 15.313 11.894 18.572v17.344c-.633-.131-1.278-.238-1.939-.312-9.974-1.111-18.482 4.948-20.692 14.735-.504 2.23-.759 4.526-.759 6.828 0 15.466 11.426 28.312 26.28 30.543 7.956 25.096 31.465 43.336 59.158 43.336zm106.236-80.532c1.346-.152 3.705.059 4.399 3.133.258 1.145.39 2.33.39 3.521 0 6.072-3.426 11.354-8.444 14.028.026-.731.056-1.46.056-2.197v-14.464c0-3.15 2.255-3.872 3.599-4.021zm-165.178-85.798c0-10.232 8.324-18.556 18.556-18.556h22.102c-.062.938-.104 1.881-.104 2.835v22.29c0 8.019 2.219 15.527 6.067 21.952-5.885 7.646-15.049 12.252-24.846 12.252h-16.281c-3.029 0-5.494-2.462-5.494-5.488zm-11.496 92.451c0-1.191.131-2.375.39-3.521.695-3.075 3.056-3.279 4.399-3.132 1.344.15 3.6.872 3.6 4.022h.001v14.462c0 .737.03 1.467.056 2.198-5.019-2.674-8.446-7.957-8.446-14.029zm23.39-36.677h9.881c13.468 0 26.128-5.887 34.833-15.797 7.347 5.906 16.668 9.452 26.806 9.452h36.07c9.533 0 18.661-1.754 27.095-4.936v59.788c0 25.942-21.106 47.048-47.049 47.048h-40.588c-25.942 0-47.048-21.106-47.048-47.048z"/><path d="m105.731 267.004c5.556 0 11.111-2.115 15.34-6.344 2.929-2.929 2.929-7.678 0-10.606-2.929-2.929-7.678-2.929-10.606 0-2.61 2.609-6.856 2.61-9.467 0-2.93-2.929-7.678-2.928-10.607 0-2.929 2.929-2.928 7.678 0 10.607 4.23 4.229 9.785 6.343 15.34 6.343z"/><path d="m401.62 399.772v-28.142c0-13.562-2.978-26.589-8.85-38.718-1.805-3.729-6.29-5.287-10.019-3.482s-5.288 6.291-3.482 10.019c4.877 10.075 7.351 20.902 7.351 32.182v13.207c-1.028-1.289-2.478-2.24-4.177-2.632-20.652-4.765-34.973-33.397-35.111-33.677-1.064-2.175-3.114-3.703-5.503-4.101-2.388-.396-4.823.382-6.536 2.095-22.147 22.147-84.825 35.201-112.213 35.988-2.286.066-4.309 1.15-5.64 2.811v-13.69c0-40.804 33.196-74 74-74h21.18c18.892 0 36.868 7.109 50.616 20.018 3.021 2.835 7.767 2.685 10.602-.334 2.835-3.02 2.686-7.766-.334-10.602-16.541-15.53-38.163-24.083-60.884-24.083h-21.18c-49.075 0-89 39.925-89 89v28.142c-5.174 2.469-9.051 7.222-10.456 13.445-.523 2.315-.789 4.703-.789 7.095 0 9.742 4.367 18.478 11.241 24.37v45.46c0 4.142 3.358 7.5 7.5 7.5h184.184c4.142 0 7.5-3.358 7.5-7.5v-45.457c6.876-5.893 11.245-14.63 11.245-24.374 0-2.39-.265-4.776-.788-7.094-1.406-6.223-5.283-10.977-10.457-13.446zm-13.363 32.987v-15.215h.004c0-3.752 2.89-4.48 4.133-4.619.249-.028.57-.045.927-.029.08.009.163.01.244.016 1.406.126 3.256.844 3.88 3.609.279 1.235.42 2.511.42 3.792 0 6.769-3.963 12.615-9.682 15.385.043-.976.074-1.954.074-2.939zm-101.917-46.11c16.289-4.667 37.41-12.273 52.252-23.278 6.191 9.726 18.198 25.322 34.665 31.662v37.726c0 27.506-22.377 49.883-49.883 49.883h-42.696c-27.506 0-49.883-22.377-49.883-49.883v-35.651c16.273-1.256 36.815-5.093 55.545-10.459zm-80.144 33.663c0-1.282.141-2.557.42-3.79.632-2.8 2.519-3.499 3.931-3.612.062-.005.125-.005.186-.012.36-.017.683 0 .934.028 1.232.137 4.081.858 4.128 4.529v15.304c0 .984.031 1.961.074 2.934-5.714-2.772-9.673-8.615-9.673-15.381zm11.241 31.557c.43.08.862.154 1.298.216 3.776 12.078 10.998 22.646 20.505 30.558h-21.803zm169.183 30.774h-21.807c9.507-7.911 16.728-18.479 20.505-30.557.438-.062.871-.136 1.303-.216v30.773z"/><path d="m257.062 409.457h1.974c-.193 1.115-.291 2.27-.291 3.436 0 6.898 3.412 12.51 7.606 12.51s7.606-5.612 7.606-12.51-3.412-12.511-7.606-12.511c-.261 0-9.292.068-9.29.068-2.483 0-4.503 2.02-4.503 4.503 0 2.484 2.02 4.504 4.504 4.504z"/><path d="m337.134 425.403c4.194 0 7.606-5.612 7.606-12.51 0-1.167-.098-2.321-.291-3.436h2.541c2.483 0 4.503-2.02 4.503-4.503 0-2.482-2.019-4.502-4.501-4.503 0 0-9.598-.068-9.859-.068-4.194 0-7.606 5.612-7.606 12.511 0 6.897 3.412 12.509 7.607 12.509z"/><path d="m302.026 460.662c5.554 0 11.111-2.115 15.34-6.343 2.929-2.929 2.929-7.678 0-10.607-2.929-2.928-7.678-2.929-10.607 0-2.61 2.61-6.857 2.61-9.467 0-2.929-2.929-7.678-2.929-10.606 0-2.929 2.929-2.929 7.678 0 10.606 4.23 4.229 9.784 6.344 15.34 6.344z"/></g></g></svg>