<svg id="Capa_1" enable-background="new 0 0 512 512" height="512" viewBox="0 0 512 512" width="512" xmlns="http://www.w3.org/2000/svg"><path d="m10 106v340c0 11.05 8.95 20 20 20h452c11.05 0 20-8.95 20-20v-340c-7.543 0-476.292 0-492 0z" fill="#ecf2f3"/><path d="m502 66v40h-126v-60h106c11.05 0 20 8.95 20 20z" fill="#8690af"/><path d="m376 46v60h-366v-40c0-11.05 8.95-20 20-20z" fill="#ff764e"/><circle cx="256.6" cy="286" fill="#bfdbff" r="30"/><path d="m256.6 326c22.056 0 40-17.944 40-40s-17.944-40-40-40-40 17.944-40 40 17.944 40 40 40zm0-60c11.028 0 20 8.972 20 20s-8.972 20-20 20-20-8.972-20-20 8.972-20 20-20z"/><path d="m256.6 386c71.129 0 126.273-91 128.586-94.874 1.885-3.157 1.885-7.095 0-10.252-2.312-3.874-57.457-94.874-128.586-94.874s-126.273 91-128.586 94.874c-1.885 3.157-1.885 7.095 0 10.252 2.313 3.874 57.457 94.874 128.586 94.874zm0-180c51.094 0 95.887 61.601 108.127 80.006-12.216 18.409-56.92 79.994-108.127 79.994-51.098 0-95.893-61.608-108.127-80.006 12.216-18.409 56.921-79.994 108.127-79.994z"/><path d="m76 236c5.523 0 10-4.478 10-10v-50h50c5.523 0 10-4.478 10-10s-4.477-10-10-10h-60c-5.523 0-10 4.478-10 10v60c0 5.522 4.477 10 10 10z"/><path d="m446 166c0-5.522-4.477-10-10-10h-60c-5.523 0-10 4.478-10 10s4.477 10 10 10h50v50c0 5.522 4.477 10 10 10s10-4.478 10-10z"/><path d="m436 336c-5.523 0-10 4.478-10 10v50h-50c-5.523 0-10 4.478-10 10s4.477 10 10 10h60c5.523 0 10-4.478 10-10v-60c0-5.522-4.477-10-10-10z"/><path d="m66 406c0 5.522 4.477 10 10 10h60c5.523 0 10-4.478 10-10s-4.477-10-10-10h-50v-50c0-5.522-4.477-10-10-10s-10 4.478-10 10z"/><path d="m256 456c-5.523 0-10 4.477-10 10s4.477 10 10 10 10-4.477 10-10-4.477-10-10-10z"/><path d="m482 36h-452c-16.542 0-30 13.458-30 30v380c0 16.542 13.458 30 30 30h181c5.523 0 10-4.478 10-10s-4.477-10-10-10h-181c-5.514 0-10-4.486-10-10v-330h472v330c0 5.514-4.486 10-10 10h-181c-5.523 0-10 4.478-10 10s4.477 10 10 10h181c16.542 0 30-13.458 30-30v-380c0-16.542-13.458-30-30-30zm-462 30c0-5.514 4.486-10 10-10h336v40h-346zm366 30v-40h96c5.514 0 10 4.486 10 10v30z"/></svg>