<svg id="Capa_1" enable-background="new 0 0 512 512" height="512" viewBox="0 0 512 512" width="512" xmlns="http://www.w3.org/2000/svg"><g><g><path d="m0 494.5c0 5.523 4.477 10 10 10h104.566c19.033 0 34.461-16.187 34.461-36.155v-135.246c0-19.968-15.429-36.155-34.461-36.155h-104.566c-5.523 0-10 4.477-10 10z" fill="#aee49e"/><path d="m114.566 296.945h-30c19.032 0 34.461 16.187 34.461 36.155v135.246c0 19.968-15.429 36.155-34.461 36.155h30c19.032 0 34.461-16.187 34.461-36.155v-135.247c0-19.967-15.429-36.154-34.461-36.154z" fill="#8bd8a5"/><g><path d="m504.5 102c0 28.66-12.759 54.34-32.906 71.671-16.541 14.229-38.063 11.432-61.594 11.432s-45.053 2.797-61.594-11.432c-20.147-17.331-32.906-43.011-32.906-71.671 0-52.191 42.309-94.5 94.5-94.5s94.5 42.309 94.5 94.5z" fill="#3f6e90"/><path d="m410 7.5c-5.105 0-10.114.41-15 1.19 45.062 7.188 79.5 46.225 79.5 93.31 0 47.086-34.438 86.123-79.5 93.31 4.886.779 9.895-1.335 15-1.335 23.531 0 45.053-6.076 61.594-20.305 20.147-17.33 32.906-43.01 32.906-71.67 0-52.191-42.309-94.5-94.5-94.5z" fill="#355f7f"/><path d="m410 117.564c-32.224 0-58.683 24.639-61.592 56.104 16.542 14.229 38.061 22.832 61.592 22.832s45.05-8.603 61.592-22.832c-2.909-31.464-29.368-56.104-61.592-56.104z" fill="#f58a97"/><path d="m410 117.564c-32.224 0-58.683 24.639-61.592 56.104 16.542 14.229 38.061 22.832 61.592 22.832s45.05-8.603 61.592-22.832c-2.909-31.464-29.368-56.104-61.592-56.104z" fill="#f58a97"/><path d="m462.899 147.373c-3.993 7.287-12.484 20.471-28.094 31.608-11.579 8.261-25.101 13.974-39.75 16.32 4.87.774 9.857 1.2 14.945 1.2 23.531 0 45.05-8.603 61.592-22.832-.884-9.566-3.956-18.493-8.693-26.296z" fill="#f07281"/><path d="m410 130.591c-18.025 0-32.638-14.612-32.638-32.638v-12.449c0-18.025 14.612-32.638 32.638-32.638 18.025 0 32.638 14.612 32.638 32.638v12.448c0 18.026-14.613 32.639-32.638 32.639z" fill="#ffcebf"/><path d="m410 52.867c-5.41 0-10.508 1.324-15 3.654 10.476 5.433 17.638 16.369 17.638 28.984v12.448c0 12.615-7.162 23.551-17.638 28.984 4.492 2.33 9.59 3.654 15 3.654 18.025 0 32.638-14.612 32.638-32.638v-12.449c0-18.025-14.613-32.637-32.638-32.637z" fill="#ffb09e"/></g><g><path d="m331.987 450.139h46.171c14.308 0 25.907 12.169 25.907 27.18 0 15.011-11.599 27.18-25.907 27.18h-177.438c-28.549 0-51.692-24.28-51.692-54.232v-102.566c0-12.294 4.055-24.21 11.476-33.725l95.659-122.642c12.192-15.631 34.888-15.903 47.417-.568 3.173 3.884 4.196 9.218 2.702 14.088l-21.039 68.571c-1.867 6.086 2.407 12.332 8.5 12.422l84.415 1.207c14.308 0 25.908 12.169 25.908 27.181 0 15.011-11.599 27.181-25.908 27.181h-46.17v108.723z" fill="#ffcebf"/><g><path d="m293.743 285.848c-6.093-.09-10.368-6.336-8.5-12.422l21.039-68.571c1.494-4.87.471-10.204-2.702-14.088-9.885-12.098-26.093-14.475-38.484-7.267 3.118 1.815 6.002 4.229 8.484 7.267 3.173 3.884 4.197 9.218 2.702 14.088l-21.039 68.571c-1.867 6.086 2.407 12.332 8.5 12.422z" fill="#ffb09e"/></g><path d="m331.987 341.417h46.17c14.308 0 25.908 12.169 25.908 27.181 0 15.011-11.599 27.181-25.908 27.181h-46.17z" fill="#ffcebf"/><path d="m378.157 341.417h-30c14.308 0 25.908 12.169 25.908 27.181 0 15.011-11.599 27.181-25.908 27.181h30c14.308 0 25.908-12.169 25.908-27.181 0-15.012-11.599-27.181-25.908-27.181z" fill="#ffb09e"/><path d="m347.729 286.62c.142.145.277.287.429.435 1.869.049 11.096.383 18.319 7.961 4.688 4.919 7.588 11.714 7.588 19.22 0 15.011-11.599 27.181-25.908 27.181h30c14.308 0 25.908-12.169 25.908-27.181 0-15.011-11.599-27.181-25.908-27.181z" fill="#ffb09e"/><path d="m331.987 395.778h46.17c14.308 0 25.908 12.169 25.908 27.181 0 15.011-11.599 27.181-25.908 27.181h-46.17z" fill="#ffcebf"/><g fill="#ffb09e"><path d="m378.157 395.778h-30c14.308 0 25.908 12.169 25.908 27.181 0 15.011-11.599 27.181-25.908 27.181h30c14.308 0 25.908-12.169 25.908-27.181 0-15.012-11.599-27.181-25.908-27.181z"/><path d="m378.157 450.139h-30c14.308 0 25.908 12.169 25.908 27.181 0 15.011-11.599 27.181-25.908 27.181h30c14.308 0 25.908-12.169 25.908-27.181 0-15.012-11.599-27.181-25.908-27.181z"/></g></g></g><path d="m411.565 314.236c0-19.103-14.956-34.648-33.35-34.681l-84.362-1.207c-1.096-.063-1.864-1.235-1.441-2.723l21.04-68.571c2.242-7.31.723-15.173-4.065-21.032-7.417-9.079-18.203-14.208-29.708-14.083-11.477.13-22.204 5.518-29.431 14.783-2.818 3.613-96.079 122.868-98.376 126.433-6.976-14.065-21.074-23.71-37.307-23.71h-107.065c-4.142 0-7.5 3.358-7.5 7.5s3.358 7.5 7.5 7.5h107.066c14.867 0 26.961 12.854 26.961 28.655v135.246c0 15.8-12.095 28.655-26.961 28.655h-107.066c-4.142 0-7.5 3.358-7.5 7.5s3.358 7.5 7.5 7.5h107.066c16.955 0 31.582-10.522 38.195-25.613 10.764 15.5 28.245 25.612 47.958 25.612h52.956c4.142 0 7.5-3.358 7.5-7.5s-3.358-7.5-7.5-7.5h-52.956c-24.368 0-44.192-20.964-44.192-46.732v-102.567c0-10.597 3.512-20.936 9.89-29.112l95.658-122.642c4.405-5.648 10.883-8.932 17.773-9.01 6.85-.089 13.406 3.047 17.922 8.575 1.583 1.938 2.097 4.675 1.34 7.142l-21.039 68.571c-3.29 10.38 4.425 22.039 15.563 22.121l84.415 1.208c.036.001.072.001.107.001 10.15 0 18.408 8.829 18.408 19.681s-8.258 19.681-18.408 19.681h-31.309c-4.142 0-7.5 3.358-7.5 7.5s3.358 7.5 7.5 7.5h31.309c10.15 0 18.408 8.829 18.408 19.681s-8.258 19.681-18.408 19.681h-31.17c-4.142 0-7.5 3.358-7.5 7.5s3.358 7.5 7.5 7.5h31.17c10.15 0 18.408 8.829 18.408 19.681s-8.258 19.68-18.408 19.68h-37.156c-4.142 0-7.5 3.358-7.5 7.5s3.358 7.5 7.5 7.5h37.157c10.15 0 18.407 8.829 18.407 19.68s-8.256 19.68-18.406 19.68h-89.483c-4.142 0-7.5 3.358-7.5 7.5s3.358 7.5 7.5 7.5h89.483c18.421 0 33.407-15.558 33.407-34.68 0-11.006-4.97-20.823-12.696-27.181 7.726-6.358 12.696-16.175 12.696-27.181 0-11.005-4.97-20.823-12.696-27.18 7.726-6.358 12.696-16.175 12.696-27.181s-4.97-20.823-12.696-27.181c7.726-6.357 12.696-16.174 12.696-27.18zm-1.565-314.236c-17.649 0-35.044 4.582-50.307 13.25-3.602 2.045-4.863 6.624-2.817 10.226 2.046 3.601 6.624 4.863 10.226 2.817 13.007-7.388 27.841-11.293 42.898-11.293 47.972 0 87 39.028 87 87 0 21.549-7.878 41.289-20.901 56.502-5.301-16.572-16.775-30.803-31.972-39.453 3.806-6.134 6.011-13.361 6.011-21.096v-12.449c0-22.132-18.006-40.138-40.138-40.138s-40.138 18.006-40.138 40.138v12.448c0 7.729 2.201 14.951 6.002 21.082-4.554 2.577-8.814 5.665-12.727 9.251-9.043 8.304-15.624 18.722-19.254 30.196-13.012-15.21-20.883-34.942-20.883-56.481 0-19.919 6.902-39.385 19.435-54.813 2.612-3.215 2.123-7.938-1.092-10.55-3.216-2.612-7.939-2.123-10.55 1.092-14.698 18.093-22.793 40.918-22.793 64.271 0 55.534 46.519 102 102 102 55.579 0 102-45.727 102-102 0-56.243-45.757-102-102-102zm-25.138 85.504c0-13.861 11.277-25.138 25.138-25.138s25.138 11.277 25.138 25.138v12.448c0 13.861-11.277 25.138-25.138 25.138s-25.138-11.277-25.138-25.138zm25.138 103.496c-20.205 0-38.823-6.924-53.607-18.524 1.975-11.919 7.874-22.863 16.884-31.136 3.965-3.634 8.387-6.614 13.173-8.914 6.62 4.815 14.757 7.665 23.551 7.665s16.931-2.85 23.551-7.665c15.812 7.638 27.158 22.738 30.063 40.046-14.786 11.602-33.407 18.528-53.615 18.528z"/></g></svg>