<?xml version="1.0" encoding="iso-8859-1"?>
<!-- Generator: Adobe Illustrator 19.0.0, SVG Export Plug-In . SVG Version: 6.00 Build 0)  -->
<svg version="1.1" id="Layer_1" xmlns="http://www.w3.org/2000/svg" xmlns:xlink="http://www.w3.org/1999/xlink" x="0px" y="0px"
	 viewBox="0 0 512.001 512.001" style="enable-background:new 0 0 512.001 512.001;" xml:space="preserve">
<g>
	<g>
		<g>
			<path d="M256,209.779c-25.487,0-46.222,20.735-46.222,46.222s20.735,46.222,46.222,46.222c25.487,0,46.222-20.735,46.222-46.222
				C302.222,230.514,281.487,209.779,256,209.779z M256,281.824c-14.239,0-25.823-11.584-25.823-25.823
				c0-14.239,11.584-25.823,25.823-25.823c14.239,0,25.823,11.584,25.823,25.823C281.823,270.24,270.239,281.824,256,281.824z"/>
			<path d="M256,135.614c-66.38,0-120.386,54.005-120.386,120.386S189.62,376.387,256,376.387s120.386-54.006,120.386-120.386
				S322.38,135.614,256,135.614z M256,355.988c-55.134,0-99.988-44.854-99.988-99.988s44.854-99.988,99.988-99.988
				s99.988,44.854,99.988,99.988S311.134,355.988,256,355.988z"/>
		</g>
	</g>
</g>
<g>
	<g>
		<path d="M327.911,286.3c-4.857-2.851-11.107-1.226-13.959,3.633c-12.024,20.485-34.231,33.211-57.952,33.211
			c-5.633,0-10.199,4.566-10.199,10.199c0,5.633,4.566,10.199,10.199,10.199c30.926,0,59.872-16.585,75.544-43.283
			C334.395,295.401,332.768,289.152,327.911,286.3z"/>
	</g>
</g>
<g>
	<g>
		<path d="M333.344,245.801c-5.633,0-10.199,4.566-10.199,10.199c0,2.149-0.102,4.319-0.305,6.45
			c-0.533,5.608,3.58,10.586,9.187,11.119c0.328,0.031,0.654,0.046,0.977,0.046c5.197,0,9.639-3.954,10.142-9.233
			c0.263-2.77,0.397-5.59,0.397-8.382C343.543,250.367,338.977,245.801,333.344,245.801z"/>
	</g>
</g>
<g>
	<g>
		<g>
			<path d="M478.683,201.684h-16.401c-5.602,0-10.546-3.613-12.3-8.989c-3.266-10.01-7.355-19.853-12.152-29.255
				c-2.517-4.931-1.541-10.911,2.428-14.881l11.611-11.61c12.991-12.992,12.991-34.129,0-47.119l-29.698-29.698
				c-12.991-12.99-34.128-12.991-47.119,0l-11.61,11.611c-3.967,3.969-9.947,4.945-14.881,2.428
				c-9.403-4.798-19.246-8.886-29.254-12.151c-5.376-1.755-8.989-6.698-8.989-12.3V33.318c0-18.372-14.946-33.318-33.318-33.318
				h-41.999c-18.372,0-33.318,14.946-33.318,33.318v16.399c0,5.602-3.613,10.546-8.989,12.3
				c-10.01,3.266-19.853,7.355-29.255,12.152c-4.931,2.517-10.911,1.541-14.881-2.428l-11.61-11.611
				c-12.992-12.99-34.129-12.989-47.119,0L60.131,89.829c-12.991,12.992-12.991,34.129,0,47.119l11.611,11.61
				c3.969,3.97,4.946,9.949,2.429,14.881c-4.798,9.403-8.887,19.246-12.152,29.255c-1.755,5.376-6.698,8.989-12.3,8.989H33.318
				C14.946,201.683,0,216.629,0,235V277c0,18.372,14.946,33.318,33.318,33.318h16.4c5.602,0,10.546,3.613,12.3,8.989
				c3.267,10.01,7.355,19.854,12.152,29.255c2.517,4.931,1.541,10.911-2.428,14.881l-11.611,11.61
				c-12.991,12.992-12.991,34.129,0,47.119l29.698,29.698c12.992,12.99,34.129,12.99,47.119,0l11.61-11.611
				c3.969-3.969,9.949-4.945,14.881-2.428c9.403,4.798,19.246,8.885,29.254,12.151c5.376,1.755,8.989,6.698,8.989,12.3v16.401
				C201.682,497.055,216.628,512,235,512h41.999c18.372,0,33.318-14.946,33.319-33.317v-16.401c0-5.602,3.613-10.546,8.989-12.3
				c10.01-3.266,19.853-7.355,29.255-12.152c4.932-2.517,10.912-1.54,14.881,2.428l11.61,11.611
				c12.992,12.991,34.129,12.99,47.119,0l29.698-29.698c12.991-12.992,12.991-34.129,0-47.119l-11.611-11.61
				c-3.97-3.968-4.946-9.949-2.428-14.881c4.798-9.403,8.886-19.246,12.151-29.254c1.755-5.376,6.698-8.989,12.3-8.989h16.401
				c18.372,0,33.318-14.946,33.318-33.318v-41.999C512.001,216.63,497.055,201.684,478.683,201.684z M491.603,276.999
				c0,7.124-5.796,12.919-12.919,12.919h-16.401c-14.454,0-27.19,9.267-31.692,23.059c-2.937,9.002-6.614,17.855-10.929,26.312
				c-6.548,12.832-4.066,28.334,6.175,38.575l11.61,11.611c5.037,5.037,5.037,13.234,0,18.271l-29.698,29.698
				c-5.037,5.036-13.234,5.037-18.271,0l-11.611-11.61c-10.24-10.24-25.743-12.721-38.575-6.175
				c-8.457,4.316-17.31,7.993-26.312,10.93c-13.792,4.501-23.058,17.238-23.058,31.692v16.401c0,7.123-5.795,12.919-12.919,12.919
				h-41.999c-7.124,0-12.919-5.796-12.919-12.919v-16.401c0-14.454-9.267-27.19-23.059-31.692
				c-9.002-2.937-17.855-6.614-26.312-10.929c-4.778-2.439-9.925-3.625-15.035-3.625c-8.612,0-17.114,3.371-23.54,9.799
				l-11.611,11.61c-5.037,5.038-13.234,5.037-18.271,0l-29.698-29.698c-5.037-5.037-5.037-13.234,0-18.271l11.611-11.61
				c10.24-10.241,12.723-25.743,6.175-38.576c-4.315-8.457-7.993-17.309-10.93-26.312c-4.501-13.792-17.238-23.058-31.692-23.058
				H33.318c-7.123,0-12.919-5.795-12.919-12.919v-41.999c0-7.124,5.796-12.919,12.919-12.919h16.401
				c14.454,0,27.19-9.267,31.692-23.059c2.937-9.003,6.615-17.855,10.93-26.312c6.547-12.833,4.065-28.334-6.176-38.575
				l-11.61-11.611c-5.037-5.037-5.037-13.234,0-18.271l29.697-29.697c5.036-5.038,13.233-5.038,18.271,0l11.611,11.611
				c10.241,10.24,25.742,12.721,38.575,6.175c8.457-4.316,17.31-7.993,26.312-10.93c13.792-4.501,23.058-17.238,23.058-31.692
				V33.318c0-7.123,5.795-12.919,12.919-12.919h41.999c7.124,0,12.919,5.796,12.919,12.919V49.72
				c0,14.454,9.267,27.19,23.059,31.692c9.002,2.937,17.855,6.614,26.312,10.929c12.831,6.547,28.334,4.066,38.575-6.175
				l11.611-11.61c5.038-5.037,13.234-5.037,18.271,0l29.697,29.696c5.037,5.037,5.037,13.234,0,18.271l-11.61,11.611
				c-10.241,10.241-12.722,25.743-6.175,38.575c4.316,8.457,7.993,17.31,10.93,26.312c4.501,13.792,17.238,23.058,31.692,23.058
				h16.401c7.123,0,12.919,5.795,12.919,12.919V276.999z"/>
			<path d="M256,135.614c-66.38,0-120.386,54.005-120.386,120.386S189.62,376.387,256,376.387s120.386-54.006,120.386-120.386
				S322.38,135.614,256,135.614z M256,355.988c-55.134,0-99.988-44.854-99.988-99.988s44.854-99.988,99.988-99.988
				s99.988,44.854,99.988,99.988S311.134,355.988,256,355.988z"/>
		</g>
	</g>
</g>
<g>
</g>
<g>
</g>
<g>
</g>
<g>
</g>
<g>
</g>
<g>
</g>
<g>
</g>
<g>
</g>
<g>
</g>
<g>
</g>
<g>
</g>
<g>
</g>
<g>
</g>
<g>
</g>
<g>
</g>
</svg>
