<svg height="512" viewBox="0 0 64 64" width="512" xmlns="http://www.w3.org/2000/svg"><g id="Communicate"><rect fill="#9bc9ff" height="28" rx="2" width="26" x="35" y="3"/><rect fill="#57a4ff" height="28" rx="2" width="26" x="3" y="3"/><path d="m10.308 6.257h3v7h-3z" fill="#ff7956" transform="matrix(.707 -.707 .707 .707 -3.441 11.207)"/><path d="" fill="#57a4ff"/><path d="m13.222 13.293-4.95-4.95z" fill="#57a4ff"/><path d="m24.071 24.142-4.95-4.95z" fill="#57a4ff"/><rect fill="#57a4ff" height="26" rx="2" width="26" x="3" y="35"/><path d="m13.768 48.01.012-.01-.012.01 1.563 1.39a1 1 0 0 0 1.338 0l1.563-1.388-.012-.012.012.01 6.768-6.01h-18z" fill="#ffb655"/><path d="m7 42v12l6.768-5.99z" fill="#ff9811"/><path d="m5 31h22a2 2 0 0 0 2-2v-22a24 24 0 0 1 -24 24z" fill="#2488ff"/><path d="m21.157 17.107h3v7h-3z" fill="#ff7956" transform="matrix(.707 -.707 .707 .707 -7.935 22.057)"/><path d="m13.464 19.192-.242-.242a4 4 0 0 1 0-5.657l-4.95-4.95a8 8 0 0 0 0 11.314l4.485 4.485a8 8 0 0 0 11.314 0l-4.95-4.95a4 4 0 0 1 -5.657 0z" fill="#ffcd00"/><path d="m5 61h22a2 2 0 0 0 2-2v-22a24 24 0 0 1 -24 24z" fill="#2488ff"/><path d="m25 54v-12l-6.768 6.01z" fill="#ff9811"/><path d="m16.669 49.4a1 1 0 0 1 -1.338 0l-1.563-1.39-6.768 5.99h18l-6.768-5.99z" fill="#ffa733"/><path d="m37 31h22a2 2 0 0 0 2-2v-22a24 24 0 0 1 -24 24z" fill="#57a4ff"/><path d="m46.41 27.59a1.963 1.963 0 0 0 -1.587-.582 2.075 2.075 0 0 0 -1.823 2.104v19.888l-3.11-6.59a2 2 0 0 0 -2.45-1.42l-.92.248a1 1 0 0 0 -.693 1.269l4.173 12.123 2.938 3.47.062 2.9h14v-3l2-3v-13a2.015 2.015 0 0 0 -2-2 2.006 2.006 0 0 0 -2 2v-2a2.015 2.015 0 0 0 -2-2 2.006 2.006 0 0 0 -2 2v-2a2.015 2.015 0 0 0 -2-2 2.006 2.006 0 0 0 -2 2v-9a1.955 1.955 0 0 0 -.59-1.41z" fill="#ffbcab"/><g fill="#231f20"><path d="m26.9 21.314-4.949-4.95a1 1 0 0 0 -1.414 0l-2.122 2.121a3 3 0 0 1 -4.243 0l-.242-.242a3 3 0 0 1 0-4.243l2.121-2.122a1 1 0 0 0 0-1.414l-4.951-4.949a1 1 0 0 0 -1.414 0l-2.121 2.121a9.01 9.01 0 0 0 0 12.728l4.485 4.485a9.01 9.01 0 0 0 12.728 0l2.122-2.121a1 1 0 0 0 0-1.414zm-5.656-2.829 3.535 3.536-.707.707-3.535-3.536zm-10.85-10.849 3.535 3.535-.707.708-3.536-3.536zm3.07 15.8-4.485-4.486a7.012 7.012 0 0 1 -.657-9.142l3.556 3.556a5.009 5.009 0 0 0 .637 6.293l.242.242a5.012 5.012 0 0 0 6.293.637l3.556 3.556a7.013 7.013 0 0 1 -9.142-.657z"/><path d="m27 32h-22a3 3 0 0 1 -3-3v-24a3 3 0 0 1 3-3h22a3 3 0 0 1 3 3v24a3 3 0 0 1 -3 3zm-22-28a1 1 0 0 0 -1 1v24a1 1 0 0 0 1 1h22a1 1 0 0 0 1-1v-24a1 1 0 0 0 -1-1z"/><path d="m27 62h-22a3 3 0 0 1 -3-3v-22a3 3 0 0 1 3-3h22a3 3 0 0 1 3 3v22a3 3 0 0 1 -3 3zm-22-26a1 1 0 0 0 -1 1v22a1 1 0 0 0 1 1h22a1 1 0 0 0 1-1v-22a1 1 0 0 0 -1-1z"/><path d="m25 41h-18a1 1 0 0 0 -1 1v12a1 1 0 0 0 1 1h18a1 1 0 0 0 1-1v-12a1 1 0 0 0 -1-1zm-9 7.65-6.368-5.65h12.734zm-3.734-.641-4.266 3.771v-7.555zm1.506 1.337.9.8a1.993 1.993 0 0 0 2.671.005l.9-.8 4.118 3.649h-12.722zm5.972-1.337 4.256-3.784v7.555z"/><path d="m59 2h-22a3 3 0 0 0 -3 3v24a3 3 0 0 0 3 3h5v12.538l-1.17-2.479a2.962 2.962 0 0 0 -1.369-1.731 3.007 3.007 0 0 0 -2.281-.3l-.921.248a2 2 0 0 0 -1.378 2.56l4.174 12.124a.988.988 0 0 0 .182.32l2.709 3.2.054 2.541a1 1 0 0 0 1 .979h14a1 1 0 0 0 1-1v-2.7l1.832-2.748a1.006 1.006 0 0 0 .168-.552v-13a2.926 2.926 0 0 0 -.874-2.108 3.058 3.058 0 0 0 -3.23-.682 2.867 2.867 0 0 0 -.77-1.318 3.06 3.06 0 0 0 -3.23-.682 2.867 2.867 0 0 0 -.77-1.318 3.053 3.053 0 0 0 -3.126-.721v-3.171h11a3 3 0 0 0 3-3v-24a3 3 0 0 0 -3-3zm-10 35a.974.974 0 0 1 .712.306.957.957 0 0 1 .288.694v7a1 1 0 0 0 2 0v-5a1 1 0 0 1 1-1 .974.974 0 0 1 .712.306.957.957 0 0 1 .288.694v5a1 1 0 0 0 2 0v-3a1 1 0 0 1 1-1 .974.974 0 0 1 .712.306.957.957 0 0 1 .288.694v12.7l-1.832 2.748a1.006 1.006 0 0 0 -.168.552v2h-12.021l-.041-1.921a1 1 0 0 0 -.236-.626l-2.818-3.326-4.105-11.927.914-.246a1.018 1.018 0 0 1 .768.1.98.98 0 0 1 .462.6c.015.059 3.173 6.763 3.173 6.763a1 1 0 0 0 1.904-.417v-19.888a1.082 1.082 0 0 1 .907-1.112.974.974 0 0 1 .805.3.957.957 0 0 1 .288.7v16a1 1 0 0 0 2 0v-7a1 1 0 0 1 1-1zm11-8a1 1 0 0 1 -1 1h-11v-1a2.926 2.926 0 0 0 -.874-2.108 2.966 2.966 0 0 0 -2.387-.881 3.077 3.077 0 0 0 -2.739 3.101v.888h-5a1 1 0 0 1 -1-1v-24a1 1 0 0 1 1-1h22a1 1 0 0 1 1 1z"/><path d="m48 8a8 8 0 0 0 0 16h4a1 1 0 0 0 0-2h-4a6 6 0 1 1 6-6v1a1 1 0 0 1 -2 0v-1a4.033 4.033 0 1 0 -1.286 2.92 2.987 2.987 0 0 0 5.286-1.92v-1a8.009 8.009 0 0 0 -8-8zm0 10a2 2 0 1 1 2-2 2 2 0 0 1 -2 2z"/></g></g></svg>