<svg id="Layer_1" enable-background="new 0 0 510 510" height="512" viewBox="0 0 510 510" width="512" xmlns="http://www.w3.org/2000/svg"><g><path id="XMLID_624_" d="m0 30v60l10 32.668-10 42.332v195h255l10-156.332-10-173.668z" fill="#2ad5f5"/><path id="XMLID_623_" d="m510 30h-255v330h255v-195l-10-34.75 10-40.25z" fill="#3fa8ff"/><path id="XMLID_619_" d="m60 210h105v30h-105z" fill="#f4f1f1"/><path id="XMLID_618_" d="m60 270h105v30h-105z" fill="#f4f1f1"/><circle id="XMLID_610_" cx="382.5" cy="352.5" fill="#ffcb00" r="127.5"/><g fill="#eceae7"><path id="XMLID_617_" d="m302.812 337.5h159.376v30h-159.376z" transform="matrix(.586 -.81 .81 .586 -127.321 455.677)"/><path id="XMLID_615_" d="m407.91 384.375h30v31.875h-30z"/><path id="XMLID_614_" d="m328.223 288.75h30v31.875h-30z"/></g><path id="XMLID_613_" d="m0 90v75h255l10-36.664-10-38.336z" fill="#006181"/><path id="XMLID_612_" d="m255 90h255v75h-255z" fill="#004761"/></g></svg>