<svg xmlns="http://www.w3.org/2000/svg" data-name="Layer 1" viewBox="0 0 512 512"><path fill="#f66" d="M440.9,192.81494A184.8413,184.8413,0,0,1,131.17993,329.23486c-.03992-.04-.08984-.08007-.12988-.11987a185.67192,185.67192,0,0,1-33.65-41.2102c-.44006-.71973-.87-1.44-1.29-2.16993A184.91246,184.91246,0,1,1,440.9,192.81494Z"/><path fill="#ff4e4e" d="M366.26566,170.31884H299.5a6,6,0,0,1-6-6V97.55319c0-12.20055-9.4875-22.59143-21.68036-23.02445A22.50011,22.50011,0,0,0,248.5,97.01416v67.30469a6,6,0,0,1-6,6H175.73434c-12.20055,0-22.59142,9.48751-23.02445,21.68037a22.50012,22.50012,0,0,0,22.48542,23.31964H242.5a6,6,0,0,1,6,6v66.76566c0,12.20055,9.4875,22.59142,21.68036,23.02445A22.50012,22.50012,0,0,0,293.5,288.62354V221.31885a6,6,0,0,1,6-6h67.30469a22.50012,22.50012,0,0,0,22.48542-23.31964C388.85708,179.80635,378.46621,170.31884,366.26566,170.31884Z"/><path fill="#fff" d="M351.80005,215.31494H284.5a6.00468,6.00468,0,0,0-6,6V288.625a22.49232,22.49232,0,0,1-23.32007,22.48C242.99,310.6748,233.5,300.28491,233.5,288.085v-66.77a6.00468,6.00468,0,0,0-6-6H160.2a22.50661,22.50661,0,0,1-22.49-23.32007c.43-12.18994,10.82007-21.67993,23.02-21.67993H227.5a5.99826,5.99826,0,0,0,6-6V97.01489a22.50661,22.50661,0,0,1,23.32007-22.49C269.01,74.96484,278.5,85.355,278.5,97.55493v66.76a5.99826,5.99826,0,0,0,6,6h66.77c12.2,0,22.59,9.49,23.02,21.67993A22.50661,22.50661,0,0,1,351.80005,215.31494Z"/><path fill="#66c1ff" d="M504.5,471.115v32.97H341.23v-32.97a48.45684,48.45684,0,0,1,39.4-47.62012l42.23-8.05,42.2301,8.05A48.46626,48.46626,0,0,1,504.5,471.115Z"/><path fill="#4eb7ff" d="M465.0946,423.49268,422.864,415.449l-15,2.85718,27.23059,5.18653A48.47614,48.47614,0,0,1,474.5,471.11255v32.96973h30V471.11255A48.47614,48.47614,0,0,0,465.0946,423.49268Z"/><path fill="#ffcd85" d="M404.98191,407.96624h35.76431a0,0,0,0,1,0,0v17.88218a17.88214,17.88214,0,0,1-17.88214,17.88214h0a17.88214,17.88214,0,0,1-17.88214-17.88214V407.96624A0,0,0,0,1,404.98191,407.96624Z"/><path fill="#ffc166" d="M425.74622,407.96631v17.88208a17.869,17.869,0,0,1-10.38221,16.217,17.85349,17.85349,0,0,0,25.38221-16.217V407.96631Z"/><path fill="#ff4e4e" d="M414.61,287.90479a185.91131,185.91131,0,0,1-43.70008,49.78027v-33.3A16.48234,16.48234,0,0,1,387.39,287.90479Z"/><path fill="#676e87" d="M452.05918,329.40724l-71.9568,13.56656V309.56892a13.56656,13.56656,0,0,1,13.56656-13.56656h71.9568v19.83832A13.56656,13.56656,0,0,1,452.05918,329.40724Z"/><path fill="#595f74" d="M435.62573,296.00244v19.83814a13.5666,13.5666,0,0,1-13.56653,13.56665l-41.95691,7.9104v5.656l71.95691-13.5664a13.5666,13.5666,0,0,0,13.56653-13.56665V296.00244Z"/><path fill="#ffcd85" d="M395.65208,329.40724h54.424a15.5497,15.5497,0,0,1,15.5497,15.5497v27.212a42.76164,42.76164,0,0,1-42.76164,42.76164H422.864A42.76164,42.76164,0,0,1,380.10238,372.169v-27.212a15.5497,15.5497,0,0,1,15.5497-15.5497Z"/><path fill="#ffc166" d="M450.07605,329.40723h-30a15.54981,15.54981,0,0,1,15.54968,15.5498V372.169a42.77328,42.77328,0,0,1-27.76172,40.0498,42.65754,42.65754,0,0,0,15,2.71191h.00013A42.76162,42.76162,0,0,0,465.62573,372.169V344.957A15.54981,15.54981,0,0,0,450.07605,329.40723Z"/><path fill="#66c1ff" d="M170.77187,504.08223H7.5V471.11249a48.47582,48.47582,0,0,1,39.4054-47.61966l42.23054-8.04391,42.23053,8.04391a48.47582,48.47582,0,0,1,39.4054,47.61966Z"/><path fill="#4eb7ff" d="M131.36648,423.49268,89.13589,415.449l-15,2.85718,27.23059,5.18653a48.47613,48.47613,0,0,1,39.40539,47.61987v32.96973h30V471.11255A48.47613,48.47613,0,0,0,131.36648,423.49268Z"/><path fill="#ffcd85" d="M71.25378,407.96624h35.76431a0,0,0,0,1,0,0v17.88218A17.88214,17.88214,0,0,1,89.136,443.73055h0a17.88214,17.88214,0,0,1-17.88214-17.88214V407.96624A0,0,0,0,1,71.25378,407.96624Z"/><path fill="#ffc166" d="M92.01809,407.96631v17.88208a17.869,17.869,0,0,1-10.3822,16.217,17.85348,17.85348,0,0,0,25.3822-16.217V407.96631Z"/><path fill="#ff4e4e" d="M139.99,287.90479V313.895a17.75145,17.75145,0,0,1-8.81006,15.33984c-.03992-.04-.08984-.08007-.12988-.11987a185.67192,185.67192,0,0,1-33.65-41.2102Z"/><path fill="#676e87" d="M118.33106,329.40724,46.37426,342.9738V309.56892a13.56655,13.56655,0,0,1,13.56656-13.56656h71.9568v19.83832A13.56657,13.56657,0,0,1,118.33106,329.40724Z"/><path fill="#595f74" d="M101.89761,296.00244v19.83814a13.5666,13.5666,0,0,1-13.56653,13.56665l-41.95691,7.9104v5.656l71.95691-13.5664a13.5666,13.5666,0,0,0,13.56653-13.56665V296.00244Z"/><path fill="#ffcd85" d="M61.924,329.40724h54.424a15.5497,15.5497,0,0,1,15.5497,15.5497v27.212A42.76164,42.76164,0,0,1,89.136,414.9306h-.00009A42.76164,42.76164,0,0,1,46.37426,372.169v-27.212a15.5497,15.5497,0,0,1,15.5497-15.5497Z"/><path fill="#ffc166" d="M116.34792,329.40723h-30a15.54982,15.54982,0,0,1,15.54969,15.5498V372.169a42.77329,42.77329,0,0,1-27.76172,40.0498,42.65745,42.65745,0,0,0,15,2.71191H89.136a42.76162,42.76162,0,0,0,42.7616-42.76171V344.957A15.54982,15.54982,0,0,0,116.34792,329.40723Z"/><path fill="#4eb7ff" d="M371.17993,463.625v40.46H341.23v-32.97a48.45524,48.45524,0,0,1,20.52-39.61011A59.21119,59.21119,0,0,1,371.17993,463.625Z"/><path fill="#63ea86" d="M356.17514,504.08223H155.82486v-40.457a59.48449,59.48449,0,0,1,48.35421-58.43391L256,395.32064l51.82093,9.87065a59.48449,59.48449,0,0,1,48.35421,58.43391Z"/><path fill="#3ce568" d="M307.82092,405.19141,256,395.32056l-15,2.85717,36.82092,7.01368a59.48416,59.48416,0,0,1,48.35425,58.43383v40.457h30v-40.457A59.48416,59.48416,0,0,0,307.82092,405.19141Z"/><path fill="#ffcd85" d="M234.05687,386.13867h43.88625a0,0,0,0,1,0,0v24.13208A19.75417,19.75417,0,0,1,258.189,430.02492H253.811a19.75417,19.75417,0,0,1-19.75417-19.75417V386.13867A0,0,0,0,1,234.05687,386.13867Z"/><path fill="#ffc166" d="M259.45459,386.13867v24.13208a19.74384,19.74384,0,0,1-12.69885,18.43384,19.66868,19.66868,0,0,0,7.0553,1.32031H258.189a19.75416,19.75416,0,0,0,19.75416-19.75415V386.13867Z"/><polygon fill="#eee" points="278.5 233.745 278.5 277.245 233.5 285.735 233.5 233.745 278.5 233.745"/><path fill="#ff4e4e" d="M299.36805,283.00658l-21.17465,3.99221-85.714,16.16031V253.53764A20.15252,20.15252,0,0,1,212.632,233.38512H233.5v15.36317h44.97266L278.5,233.38512h41.02057v29.46894A20.15252,20.15252,0,0,1,299.36805,283.00658Z"/><path fill="#ff4e4e" d="M319.52,300.18506v62.61987c0,1.27-.05,2.52-.15,3.77a185.65535,185.65535,0,0,1-126.74,0c-.1-1.25-.15-2.5-.15-3.77V300.18506a17.17771,17.17771,0,0,1,17.17993-17.18018h92.68018A17.17771,17.17771,0,0,1,319.52,300.18506Z"/><path fill="#676e87" d="M291.82522,289.73922l-88.29791,16.64747v-40.991a16.64747,16.64747,0,0,1,16.64747-16.64747h88.29791v24.34353A16.64747,16.64747,0,0,1,291.82522,289.73922Z"/><path fill="#ffcd85" d="M220.70486,289.73922h70.59027a17.17756,17.17756,0,0,1,17.17756,17.17756v40.5296a47.23823,47.23823,0,0,1-47.23823,47.23823H250.76554a47.23823,47.23823,0,0,1-47.23823-47.23823v-40.5296a17.17756,17.17756,0,0,1,17.17756-17.17756Z"/><path fill="#595f74" d="M291.8252,289.73926a16.64752,16.64752,0,0,0,16.64746-16.64746V248.74829h-30V273.0918a16.64752,16.64752,0,0,1-16.64746,16.64746Z"/><path fill="#ffc166" d="M291.29517,289.73926h-30a17.17755,17.17755,0,0,1,17.17749,17.17749v40.52954A47.25087,47.25087,0,0,1,241,393.66821a47.41642,47.41642,0,0,0,9.76562,1.01636h10.46876a47.23812,47.23812,0,0,0,47.23828-47.23828V306.91675A17.17755,17.17755,0,0,0,291.29517,289.73926Z"/></svg>