<svg id="Layer_5" enable-background="new 0 0 62 62" height="512" viewBox="0 0 62 62" width="512" xmlns="http://www.w3.org/2000/svg"><g><g><g><path d="m35 20v7h-2-3c-1.38 0-2.63.56-3.54 1.46-.9.91-1.46 2.16-1.46 3.54v-12c0-2.76 2.24-5 5-5 1.38 0 2.63.56 3.54 1.46.9.91 1.46 2.16 1.46 3.54z" fill="#fcd770"/></g><g><path d="m49 20v5.36c-1.94 1.06-4.14 1.64-6.4 1.64h-3.6v-7c0-2.76 2.24-5 5-5 1.38 0 2.63.56 3.54 1.46.9.91 1.46 2.16 1.46 3.54z" fill="#ff826e"/></g><g><path d="m17 33v8h-2-4-6v-8h2 2c1.1 0 2-.9 2-2 0 1.1.9 2 2 2h2z" fill="#d3a06c"/></g><g><path d="m15 29v-4h-4v-1l2-3 1.05.13c3.97.5 6.95 3.87 6.95 7.87 0 1.1-.45 2.1-1.17 2.83-.73.72-1.73 1.17-2.83 1.17h-2z" fill="#fcd770"/></g><g><path d="m7 29v4h-2c-1.1 0-2.1-.45-2.83-1.17-.72-.73-1.17-1.73-1.17-2.83 0-4 2.98-7.37 6.95-7.87l1.05-.13 2 3v1h-4z" fill="#fcd770"/></g><g><path d="m15 25v4h-2c-.55 0-1.05.22-1.41.59-.37.36-.59.86-.59 1.41 0-.55-.22-1.05-.59-1.41-.36-.37-.86-.59-1.41-.59h-2v-4h4z" fill="#e6e9ed"/></g><g><path d="m15 29v4h-2c-1.1 0-2-.9-2-2 0-.55.22-1.05.59-1.41.36-.37.86-.59 1.41-.59z" fill="#f0d0b4"/></g><g><path d="m10.41 29.59c.37.36.59.86.59 1.41 0 1.1-.9 2-2 2h-2v-4h2c.55 0 1.05.22 1.41.59z" fill="#f0d0b4"/></g><g><path d="m18 46-3 3v6h-14v-14h4 6 4v3z" fill="#b4dd7f"/></g><g><path d="m17 41h6v14h-8v-6l3-3-3-2v-3z" fill="#a0d468"/></g><g><path d="m39 41v4h-2c-.55 0-1.05.22-1.41.59-.37.36-.59.86-.59 1.41 0 1.1.9 2 2 2-.55 0-1.05.22-1.41.59-.37.36-.59.86-.59 1.41 0 1.1.9 2 2 2-.55 0-1.05.22-1.41.59-.37.36-.59.86-.59 1.41 0 1.1.9 2 2 2h2v2c0 1.1-.9 2-2 2h-4c-1.1 0-2-.9-2-2v-2-13.19c1.04-.26 1.99-.8 2.76-1.57l1.24-1.24h2z" fill="#969faa"/></g><g><path d="m41 53c1.1 0 2 .9 2 2 0 .55-.22 1.05-.59 1.41-.36.37-.86.59-1.41.59h-2-2c-1.1 0-2-.9-2-2 0-.55.22-1.05.59-1.41.36-.37.86-.59 1.41-.59z" fill="#f0d0b4"/></g><g><path d="m41 49c1.1 0 2 .9 2 2 0 .55-.22 1.05-.59 1.41-.36.37-.86.59-1.41.59h-4c-1.1 0-2-.9-2-2 0-.55.22-1.05.59-1.41.36-.37.86-.59 1.41-.59z" fill="#f0d0b4"/></g><g><path d="m41 45c1.1 0 2 .9 2 2 0 .55-.22 1.05-.59 1.41-.36.37-.86.59-1.41.59h-4c-1.1 0-2-.9-2-2 0-.55.22-1.05.59-1.41.36-.37.86-.59 1.41-.59h2z" fill="#f0d0b4"/></g><g><path d="m45 41c1.1 0 2 .9 2 2 0 .55-.22 1.05-.59 1.41-.36.37-.86.59-1.41.59h-4-2v-4z" fill="#f0d0b4"/></g><g><path d="m31 43.81v13.19h-2.58c-.94 0-1.85-.22-2.69-.63l-2.73-1.37v-14l2.24-2.24c1.13-1.13 2.65-1.76 4.25-1.76h.51 3 6c.55 0 1 .45 1 1 0 1.66-1.34 3-3 3h-2l-1.24 1.24c-.77.77-1.72 1.31-2.76 1.57z" fill="#f0d0b4"/></g><g><path d="m35 27h4 3.6c2.26 0 4.46-.58 6.4-1.64 1.52-.83 2.89-1.97 4-3.36v20c-2.53-3.16-6.36-5-10.4-5h-3.6-6v-10z" fill="#e6e9ed"/></g><g><path d="m57 36v7c0 .55-.45 1-1 1h-2c-.55 0-1-.45-1-1v-1-20-1c0-.55.45-1 1-1h2c.55 0 1 .45 1 1v7z" fill="#ff826e"/></g><g><path d="m33 27v10h-3c-2.76 0-5-2.24-5-5 0-1.38.56-2.63 1.46-3.54.91-.9 2.16-1.46 3.54-1.46z" fill="#ff826e"/></g><g><path d="m57 28c2.21 0 4 1.79 4 4s-1.79 4-4 4z" fill="#fcd770"/></g><g><path d="m44 5c2.76 0 5 2.24 5 5h-.17c-1.81 0-3.55-.72-4.83-2-1.28 1.28-3.02 2-4.83 2h-.17c0-2.76 2.24-5 5-5z" fill="#fcd770"/></g><g><path d="m30 5c2.76 0 5 2.24 5 5h-.17c-1.81 0-3.55-.72-4.83-2-1.28 1.28-3.02 2-4.83 2h-.17c0-2.76 2.24-5 5-5z" fill="#656d78"/></g><g><path d="m48.83 10h.17c0 2.76-2.24 5-5 5s-5-2.24-5-5h.17c1.81 0 3.55-.72 4.83-2 1.28 1.28 3.02 2 4.83 2z" fill="#f0d0b4"/></g><g><path d="m34.83 10h.17c0 2.76-2.24 5-5 5s-5-2.24-5-5h.17c1.81 0 3.55-.72 4.83-2 1.28 1.28 3.02 2 4.83 2z" fill="#f0d0b4"/></g><g><path d="m19.73 11.14c.74.29 1.27 1.02 1.27 1.86 0 .55-.22 1.05-.59 1.41-.36.37-.86.59-1.41.59h-2.12c.08-.35.12-.72.12-1.09v-2.91h2c.26 0 .5.05.73.14z" fill="#f0d0b4"/></g><g><path d="m17 11v2.91c0 .37-.04.74-.12 1.09-.32 1.45-1.28 2.7-2.64 3.38l-.69.34c-.34.17-.55.52-.55.9v1.38l-2 3-2-3v-1.38c0-.38-.21-.73-.55-.9l-.69-.34c-1.36-.68-2.32-1.93-2.64-3.38-.08-.35-.12-.72-.12-1.09v-2.91-.66c0-1.37.94-2.57 2.27-2.91l.46-.11c.61 1.02 1.72 1.68 2.95 1.68h.51c.53 0 1.06-.12 1.54-.36s1.01-.37 1.54-.37c.36 0 .73.06 1.08.18l1.65.55z" fill="#f0d0b4"/></g><g><path d="m5 11v2.91c0 .37.04.74.12 1.09h-2.12c-1.1 0-2-.9-2-2 0-.55.22-1.05.59-1.41.13-.14.28-.25.45-.34.28-.16.61-.25.96-.25z" fill="#f0d0b4"/></g><g><path d="m17 9-1.65-.55c-.35-.12-.72-.18-1.08-.18-.53 0-1.06.13-1.54.37s-1.01.36-1.54.36h-.51c-1.23 0-2.34-.66-2.95-1.68l-.46.11c-1.33.34-2.27 1.54-2.27 2.91v.66h-2c-.35 0-.68.09-.96.25-.67-1.02-1.04-2.22-1.04-3.48v-.44c0-3.49 2.84-6.33 6.33-6.33h7.34c3.49 0 6.33 2.84 6.33 6.33 0 1.39-.45 2.72-1.27 3.81-.23-.09-.47-.14-.73-.14h-2z" fill="#b27946"/></g></g><path d="m62 32c0-2.414-1.721-4.434-4-4.899v-6.101c0-1.103-.897-2-2-2h-2c-1.103 0-2 .897-2 2v.619c-.602.713-1.272 1.348-2 1.898v-3.517c0-2.086-1.071-3.924-2.69-5 1.62-1.076 2.69-2.914 2.69-5 0-3.309-2.691-6-6-6s-6 2.691-6 6c0 2.086 1.071 3.924 2.69 5-1.62 1.076-2.69 2.914-2.69 5v6h-2v-6c0-2.086-1.071-3.924-2.69-5 1.62-1.076 2.69-2.914 2.69-5 0-3.309-2.691-6-6-6s-6 2.691-6 6c0 2.086 1.071 3.924 2.69 5-1.62 1.076-2.69 2.914-2.69 5v12c0 1.932.922 3.649 2.345 4.747-.66.332-1.272.766-1.81 1.303l-1.949 1.95h-4.586v-6.101c2.279-.465 4-2.484 4-4.899 0-4.494-3.363-8.303-7.822-8.86l-.178-.023-.001-.499.686-.342c1.392-.697 2.412-1.877 2.93-3.276h1.385c1.654 0 3-1.346 3-3 0-.842-.351-1.601-.912-2.147.587-1.076.912-2.291.912-3.519 0-4.044-3.29-7.334-7.334-7.334h-7.332c-4.044 0-7.334 3.29-7.334 7.334v.44c0 1.133.269 2.236.767 3.242-.472.531-.767 1.221-.767 1.984 0 1.654 1.346 3 3 3h1.386c.519 1.4 1.539 2.58 2.931 3.276l.683.342v.499l-.178.023c-4.459.557-7.822 4.366-7.822 8.86 0 2.414 1.721 4.434 4 4.899v6.101h-4v16h22.764l2.522 1.261c.966.483 2.049.739 3.13.739h1.584v1c0 1.654 1.346 3 3 3h4c1.654 0 3-1.346 3-3v-1h1c1.654 0 3-1.346 3-3 0-.771-.301-1.468-.78-2 .48-.532.78-1.229.78-2s-.301-1.468-.78-2c.48-.532.78-1.229.78-2 0-.352-.072-.686-.184-1h1.184c1.654 0 3-1.346 3-3s-1.346-3-3-3h-4.556c.344-.591.556-1.268.556-2h1.597c3.654 0 7.057 1.599 9.403 4.381v.619c0 1.103.897 2 2 2h2c1.103 0 2-.897 2-2v-6.101c2.279-.465 4-2.485 4-4.899zm-18-26c1.825 0 3.35 1.234 3.829 2.907-1.172-.207-2.275-.767-3.122-1.614l-.707-.707-.707.707c-.847.847-1.95 1.407-3.122 1.614.479-1.673 2.004-2.907 3.829-2.907zm-3.883 4.92c1.41-.175 2.763-.714 3.883-1.588 1.12.874 2.473 1.413 3.883 1.588-.418 1.762-1.995 3.08-3.883 3.08s-3.465-1.318-3.883-3.08zm-.117 9.08c0-2.206 1.794-4 4-4s4 1.794 4 4v4.755c-1.658.809-3.497 1.245-5.403 1.245h-2.597zm-10-14c1.825 0 3.35 1.234 3.829 2.907-1.172-.207-2.275-.767-3.122-1.614l-.707-.707-.707.707c-.847.847-1.95 1.407-3.122 1.614.479-1.673 2.004-2.907 3.829-2.907zm-3.883 4.92c1.41-.175 2.763-.714 3.883-1.588 1.12.874 2.473 1.413 3.883 1.588-.418 1.762-1.995 3.08-3.883 3.08s-3.465-1.318-3.883-3.08zm3.883 5.08c2.206 0 4 1.794 4 4v6h-4c-1.538 0-2.937.586-4 1.54v-7.54c0-2.206 1.794-4 4-4zm0 12h2v8h-2c-2.206 0-4-1.794-4-4s1.794-4 4-4zm-21 0h-1v-2h6v2h-1c-.771 0-1.468.301-2 .78-.532-.479-1.229-.78-2-.78zm1 3c0 .552-.448 1-1 1h-1v-2h1c.552 0 1 .448 1 1zm3-1h1v2h-1c-.552 0-1-.448-1-1s.448-1 1-1zm7-1c0 1.654-1.346 3-3 3h-1v-2h2v-2h-2v-4h-3.798l1.287-1.931.44.055c3.462.433 6.071 3.389 6.071 6.876zm-1-15h-1.005c0-.031.006-.061.006-.092v-1.908h.999c.552 0 1 .448 1 1s-.448 1-1 1zm-16 0c-.552 0-1-.448-1-1s.448-1 1-1h1l-.001 1.908c0 .031.006.061.006.092zm1.029-4h-1.029c-.167 0-.329.023-.489.049-.334-.708-.511-1.482-.511-2.275v-.44c0-2.941 2.393-5.334 5.334-5.334h7.332c2.941 0 5.334 2.393 5.334 5.334 0 .946-.27 1.877-.747 2.692-.084-.008-.166-.026-.253-.026h-1v-1c0-2.226-1.418-4.193-3.527-4.896l-.154-.052-.637 1.896.156.052c.777.26 1.402.799 1.776 1.484-1.109-.354-2.291-.264-3.337.259-.335.168-.712.257-1.089.257h-.504c-1.121 0-2.093-.76-2.366-1.847l-.348-1.395-1.94.484.349 1.396c.004.014.01.027.014.041-1.333.583-2.238 1.854-2.364 3.321zm1.97 3.908.001-3.566c0-.855.542-1.598 1.336-1.879.822.949 2.025 1.537 3.349 1.537h.504c.688 0 1.374-.162 1.983-.469.583-.291 1.245-.339 1.863-.133l.965.322.001 4.188c0 1.525-.848 2.896-2.21 3.579l-.685.342c-.682.34-1.106 1.025-1.106 1.789v1.079l-1 1.5-1-1.5v-1.079c0-.764-.424-1.449-1.105-1.789l-.684-.342c-1.364-.682-2.212-2.053-2.212-3.579zm-3.999 15.092c0-3.487 2.609-6.443 6.07-6.876l.44-.055 1.288 1.931h-3.798v4h-2v2h2v2h-1c-1.654 0-3-1.346-3-3zm4 5h3c.771 0 1.468-.301 2-.78.532.48 1.229.78 2 .78h3v6h-4v-4h-2v4h-4zm-4 8h12v2.535l2.431 1.62-2.431 2.431v5.414h-12zm20 12h-6v-4.586l3.569-3.569-3.569-2.38v-1.465h6zm16 5c0 .552-.448 1-1 1h-4c-.552 0-1-.448-1-1v-14.46c.913-.347 1.753-.88 2.465-1.591l.949-.949h1.586 1v2h-1c-1.654 0-3 1.346-3 3 0 .771.301 1.468.78 2-.48.532-.78 1.229-.78 2s.301 1.468.78 2c-.48.532-.78 1.229-.78 2 0 1.654 1.346 3 3 3h1zm4-8c0 .552-.448 1-1 1h-4c-.552 0-1-.448-1-1s.448-1 1-1h4c.552 0 1 .448 1 1zm-1 5h-4c-.552 0-1-.448-1-1s.448-1 1-1h4c.552 0 1 .448 1 1s-.448 1-1 1zm1-9c0 .552-.448 1-1 1h-4c-.552 0-1-.448-1-1s.448-1 1-1h4c.552 0 1 .448 1 1zm4-4c0 .552-.448 1-1 1h-4-1v-2h5c.552 0 1 .448 1 1zm-9-3h-2.414l-1.535 1.535c-.945.944-2.2 1.465-3.536 1.465h-1.515v2h1.515c.163 0 .324-.013.485-.024v11.024h-1.584c-.772 0-1.545-.183-2.235-.528l-2.181-1.09v-12.968l1.949-1.949c.944-.944 2.2-1.465 3.536-1.465h.515 9c0 1.103-.897 2-2 2zm5.597-4h-3.597-5v-8h8.597c3.511 0 6.817-1.279 9.403-3.544v15.087c-2.587-2.264-5.892-3.543-9.403-3.543zm11.403 7v-22h2l.002 22zm4-8.184v-5.631c1.161.414 2 1.514 2 2.816s-.839 2.401-2 2.815z"/></g></svg>