<svg height="512" viewBox="0 0 60 53" width="512" xmlns="http://www.w3.org/2000/svg"><g id="Page-1" fill="none" fill-rule="evenodd"><g id="038---Like-Article"><path id="Path" d="m53 9v27h-4v-2.87c.0185252-1.2204114-.2558083-2.4274788-.8-3.52-.6-1.17-1.59-2.26-3.15-1.97-.6106597.1144042-1.0524176.6487209-1.05 1.27-.0020635 2.7084735-.4375705 5.3991641-1.29 7.97-.4560298 1.356976-1.4302061 2.478537-2.71 3.12v1c-.0032948-1.1032019-.8967981-1.9967052-2-2h-4c-1.1032019.0032948-1.9967052.8967981-2 2v5h-28c-1.65685425 0-3-1.3431458-3-3v-34z" fill="#f5f5f5"/><path id="Path" d="m42.05 27.64c-.6106597.1144042-1.0524176.6487209-1.05 1.27-.0020635 2.7084735-.4375705 5.3991641-1.29 7.97-.2840608.8182278-.7600097 1.5564973-1.388 2.153.9649215.1573998 1.6746218.9893309 1.678 1.967v-1c1.2797939-.641463 2.2539702-1.763024 2.71-3.12.8524295-2.5708359 1.2879365-5.2615265 1.29-7.97.0069654-.2304033.0760682-.4546418.2-.649-.5716374-.5467525-1.374874-.7787571-2.15-.621z" fill="#cfd8dc"/><path id="Path" d="m29 41v5h3v-5c.0032948-1.1032019.8967981-1.9967052 2-2h-3c-1.1032019.0032948-1.9967052.8967981-2 2z" fill="#cfd8dc"/><path id="Rectangle" d="m50 9h3v27h-3z" fill="#cfd8dc"/><path id="Path" d="m53 4v5h-52v-5c0-1.65685425 1.34314575-3 3-3h46c1.6568542 0 3 1.34314575 3 3z" fill="#02a9f4"/><path id="Path" d="m50 1h-3c1.6568542 0 3 1.34314575 3 3v5h3v-5c0-1.65685425-1.3431458-3-3-3z" fill="#0377bc"/><path id="Path" d="m26 16v8l-4-5-3.46 5.43-3.54-4.43-6.36 10h-.64c-1.10320187-.0032948-1.9967052-.8967981-2-2v-12c.0032948-1.1032019.89679813-1.9967052 2-2h16c1.1032019.0032948 1.9967052.8967981 2 2z" fill="#ffdf00"/><path id="Path" d="m24 14h-3c1.1032019.0032948 1.9967052.8967981 2 2v4.25l3 3.75v-8c-.0032948-1.1032019-.8967981-1.9967052-2-2z" fill="#fec108"/><path id="Path" d="m18.54 24.43-3.54 5.57h-6.36l6.36-10z" fill="#707070"/><path id="Path" d="m26 24v4c-.0032948 1.1032019-.8967981 1.9967052-2 2h-9l3.54-5.57 3.46-5.43z" fill="#9e9e9e"/><path id="Path" d="m22 19-1.33 2.087 2.33 2.913v4c-.0032948 1.1032019-.8967981 1.9967052-2 2h3c1.1032019-.0032948 1.9967052-.8967981 2-2v-4z" fill="#707070"/><path id="Path" d="m59 42c-.0081672 1.1011688-.8988312 1.9918328-2 2h-1c1.1032019.0032948 1.9967052.8967981 2 2-.0081672 1.1011688-.8988312 1.9918328-2 2h-1c1.1032019.0032948 1.9967052.8967981 2 2-.0081672 1.1011688-.8988312 1.9918328-2 2h-12c-1.6568542 0-3-1.3431458-3-3v-9c1.2797939-.641463 2.2539702-1.763024 2.71-3.12.8524295-2.5708359 1.2879365-5.2615265 1.29-7.97-.0024176-.6212791.4393403-1.1555958 1.05-1.27 1.56-.29 2.55.8 3.15 1.97.5441917 1.0925212.8185252 2.2995886.8 3.52v2.87h8c1.1032019.0032948 1.9967052.8967981 2 2-.0081672 1.1011688-.8988312 1.9918328-2 2 1.1032019.0032948 1.9967052.8967981 2 2z" fill="#f5f5f5"/><path id="Path" d="m45.2 29.61c.5441917 1.0925212.8185252 2.2995886.8 3.52v2.87h3v-2.87c.0185252-1.2204114-.2558083-2.4274788-.8-3.52-.6-1.17-1.59-2.26-3.15-1.97-.3625057.0710774-.6752851.2982541-.855.621.414311.3847524.7548951.8419146 1.005 1.349z" fill="#cfd8dc"/><path id="Path" d="m57 40c1.1011688-.0081672 1.9918328-.8988312 2-2-.0032948-1.1032019-.8967981-1.9967052-2-2h-3c1.1032019.0032948 1.9967052.8967981 2 2-.0081672 1.1011688-.8988312 1.9918328-2 2 1.1032019.0032948 1.9967052.8967981 2 2-.0081672 1.1011688-.8988312 1.9918328-2 2h-1c1.1032019.0032948 1.9967052.8967981 2 2-.0081672 1.1011688-.8988312 1.9918328-2 2h-1c1.1032019.0032948 1.9967052.8967981 2 2-.0081672 1.1011688-.8988312 1.9918328-2 2h3c1.1011688-.0081672 1.9918328-.8988312 2-2-.0032948-1.1032019-.8967981-1.9967052-2-2h1c1.1011688-.0081672 1.9918328-.8988312 2-2-.0032948-1.1032019-.8967981-1.9967052-2-2h1c1.1011688-.0081672 1.9918328-.8988312 2-2-.0032948-1.1032019-.8967981-1.9967052-2-2z" fill="#cfd8dc"/><rect id="Rectangle" fill="#02a9f4" height="13" rx="2" width="8" x="32" y="39"/><path id="Path" d="m38 39h-3c1.1032019.0032948 1.9967052.8967981 2 2v9c-.0032948 1.1032019-.8967981 1.9967052-2 2h3c1.1032019-.0032948 1.9967052-.8967981 2-2v-9c-.0032948-1.1032019-.8967981-1.9967052-2-2z" fill="#0377bc"/><g fill="#000"><path id="Shape" d="m4 47h27v3c0 1.6568542 1.3431458 3 3 3h4c.8723315-.0030777 1.6996037-.3878469 2.264-1.053.014 0 .029 0 .043-.009.7322204.6799882 1.6937389 1.0591685 2.693 1.062h12c1.6568542 0 3-1.3431458 3-3-.0029438-.5168022-.1408282-1.0238723-.4-1.471 1.3621357-.8420957 1.8056041-2.6159693 1-4 .7499633-.4670461 1.2531566-1.2436432 1.3729866-2.1189819.11983-.8753386-.1561362-1.7585992-.7529866-2.4100181.7990291-.8759347 1.0043504-2.1415341.5232243-3.2251516-.4811262-1.0836174-1.5576099-1.7800954-2.7432243-1.7748484h-3v-31c0-2.209139-1.790861-4-4-4h-46c-2.209139 0-4 1.790861-4 4v39c0 2.209139 1.790861 4 4 4zm34 4h-4c-.5522847 0-1-.4477153-1-1v-9c0-.5522847.4477153-1 1-1h4c.5522847 0 1 .4477153 1 1v9c0 .5522847-.4477153 1-1 1zm20-13c0 .5522847-.4477153 1-1 1h-3c-.5522847 0-1 .4477153-1 1s.4477153 1 1 1h3c.5522847 0 1 .4477153 1 1s-.4477153 1-1 1h-3c-.5522847 0-1 .4477153-1 1s.4477153 1 1 1h2c.5522847 0 1 .4477153 1 1s-.4477153 1-1 1h-2c-.5522847 0-1 .4477153-1 1s.4477153 1 1 1h1c.5522847 0 1 .4477153 1 1s-.4477153 1-1 1h-12c-1.1045695 0-2-.8954305-2-2v-8.417c1.2518737-.7841677 2.1908553-1.9806176 2.655-3.383.89236-2.6720547 1.3465608-5.4708773 1.345-8.288-.0003582-.1367074.0917516-.2563678.224-.291.339-.059 1.23-.222 2.084 1.442.4697344.9547308.7068627 2.0070731.692 3.071v2.866c0 .5522847.4477153 1 1 1h8c.5522847 0 1 .4477153 1 1zm-8-3v-1.866c.0189207-1.3822529-.2941812-2.748859-.913-3.985-.988-1.923-2.487-2.812-4.219-2.5-1.0887501.2020552-1.875929 1.1556879-1.868 2.263.0004786 2.6004762-.4185716 5.1840001-1.241 7.651-.3104035.9191185-.91894 1.7082098-1.729 2.242-.5504825-.5154484-1.2758684-.8031014-2.03-.805h-4c-1.6568542 0-3 1.3431458-3 3v4h-27c-1.1045695 0-2-.8954305-2-2v-33h50v25zm-46-33h46c1.1045695 0 2 .8954305 2 2v4h-50v-4c0-1.1045695.8954305-2 2-2z" fill-rule="nonzero"/><circle id="Oval" cx="5" cy="5" r="1"/><circle id="Oval" cx="9" cy="5" r="1"/><circle id="Oval" cx="13" cy="5" r="1"/><path id="Shape" d="m8 31h16c1.6568542 0 3-1.3431458 3-3v-12c0-1.6568542-1.3431458-3-3-3h-16c-1.65685425 0-3 1.3431458-3 3v12c0 1.6568542 1.34314575 3 3 3zm2.461-2 4.632-7.282 2.222 2.782-2.864 4.5zm13.539 0h-7.178l5.271-8.283 2.907 3.634v3.649c0 .5522847-.4477153 1-1 1zm-17-13c0-.5522847.44771525-1 1-1h16c.5522847 0 1 .4477153 1 1v5.149l-2.219-2.774c-.2016498-.2522259-.5126886-.3915511-.8351411-.3740891-.3224526.0174621-.6166265.1895619-.7898589.4620891l-2.706 4.253-2.669-3.34c-.2014965-.2523275-.5124357-.3918286-.8348826-.3745653s-.6167139.1891662-.7901174.4615653l-6.065 9.537h-.091c-.55228475 0-1-.4477153-1-1z" fill-rule="nonzero"/><circle id="Oval" cx="10" cy="18" r="1"/><path id="Path" d="m48 14h-17c-.5522847 0-1 .4477153-1 1s.4477153 1 1 1h17c.5522847 0 1-.4477153 1-1s-.4477153-1-1-1z"/><path id="Path" d="m48 18h-17c-.5522847 0-1 .4477153-1 1s.4477153 1 1 1h17c.5522847 0 1-.4477153 1-1s-.4477153-1-1-1z"/><path id="Path" d="m48 22h-17c-.5522847 0-1 .4477153-1 1s.4477153 1 1 1h17c.5522847 0 1-.4477153 1-1s-.4477153-1-1-1z"/><path id="Path" d="m40 26h-9c-.5522847 0-1 .4477153-1 1s.4477153 1 1 1h9c.5522847 0 1-.4477153 1-1s-.4477153-1-1-1z"/><path id="Path" d="m29 35h-23c-.55228475 0-1 .4477153-1 1s.44771525 1 1 1h23c.5522847 0 1-.4477153 1-1s-.4477153-1-1-1z"/><path id="Path" d="m26 39h-20c-.55228475 0-1 .4477153-1 1s.44771525 1 1 1h20c.5522847 0 1-.4477153 1-1s-.4477153-1-1-1z"/></g></g></g></svg>