<svg height="459pt" viewBox="0 -33 459.195 459" width="459pt" xmlns="http://www.w3.org/2000/svg"><path d="m382.21875 245.390625c-10.476562-6-22.441406-10.328125-35.144531-10.328125-41.402344 0-74.96875 45.960938-74.96875 45.960938s16.132812 22.101562 39.832031 35.644531c10.476562 6 22.441406 10.328125 35.136719 10.328125 41.402343 0 74.964843-45.972656 74.964843-45.972656s-16.132812-22.089844-39.820312-35.632813zm-35.144531-69.320313c57.964843.011719 104.941406 47.011719 104.929687 104.980469-.015625 57.964844-47.015625 104.941407-104.980468 104.929688-47.644532-.011719-89.300782-32.113281-101.457032-78.179688-.191406-.738281-.378906-1.488281-.558594-2.238281-13.511718-56.410156 21.265626-113.09375 77.675782-126.605469 7.917968-1.894531 16.027344-2.867187 24.167968-2.886719zm0 0" fill="#6fe3ff"/><path d="m382.21875 245.390625c23.6875 13.542969 39.820312 35.632813 39.820312 35.632813s-33.5625 45.972656-74.964843 45.972656c-12.695313 0-24.660157-4.328125-35.136719-10.328125l15.492188-15.710938c11.210937 10.640625 28.925781 10.183594 39.570312-1.023437 10.359375-10.914063 10.238281-28.066406-.277344-38.832032zm0 0" fill="#6fe3ff"/><path d="m382.21875 245.390625-15.496094 15.710937c-10.800781-11.054687-28.519531-11.265624-39.578125-.460937-11.054687 10.800781-11.265625 28.519531-.460937 39.578125.242187.25.492187.496094.746094.738281l-15.492188 15.710938c-23.699219-13.542969-39.832031-35.644531-39.832031-35.644531s33.566406-45.960938 74.96875-45.960938c12.703125 0 24.667969 4.328125 35.144531 10.328125zm0 0" fill="#6fe3ff"/><path d="m366.722656 261.101562c10.804688 11.058594 10.59375 28.777344-.460937 39.578126-10.765625 10.515624-27.917969 10.636718-38.832031.277343zm0 0" fill="#6fe3ff"/><path d="m366.722656 261.101562-39.292968 39.855469c-11.207032-10.644531-11.664063-28.359375-1.023438-39.570312 10.644531-11.207031 28.359375-11.667969 39.570312-1.023438.253907.242188.503907.488281.746094.738281zm0 0" fill="#6fe3ff"/><path d="m346.851562 88.386719v87.683593c-58.007812.160157-104.898437 47.316407-104.734374 105.324219.023437 8.140625.992187 16.253907 2.890624 24.167969h-198.027343c-22.082031 0-39.984375-17.898438-39.984375-39.980469v-177.195312zm0 0" fill="#e48e66"/><path d="m346.851562 47.0625v41.324219h-339.855468v-41.324219c0-22.082031 17.902344-39.980469 39.984375-39.980469h259.890625c22.082031 0 39.980468 17.898438 39.980468 39.980469zm-177.542968 1.210938c.019531-6.9375-5.589844-12.574219-12.523438-12.59375-6.9375-.019532-12.578125 5.585937-12.597656 12.523437s5.589844 12.574219 12.527344 12.59375c6.929687.023437 12.570312-5.574219 12.59375-12.507813 0-.003906 0-.011718 0-.015624zm-56.417969-.171876c.027344-6.933593-5.578125-12.578124-12.511719-12.601562-6.9375-.027344-12.582031 5.578125-12.605468 12.511719-.027344 6.9375 5.578124 12.582031 12.515624 12.605469 6.933594.019531 12.574219-5.578126 12.601563-12.515626zm-56.414063-.179687c.019532-6.933594-5.589843-12.574219-12.523437-12.59375-6.9375-.019531-12.578125 5.589844-12.597656 12.523437-.019531 6.933594 5.582031 12.570313 12.515625 12.597657 6.9375.023437 12.578125-5.578125 12.605468-12.515625 0-.003906 0-.007813 0-.011719zm0 0" fill="#f8ec7d"/><path d="m156.792969 35.679688c6.9375.023437 12.539062 5.667968 12.515625 12.601562-.027344 6.9375-5.667969 12.542969-12.605469 12.515625-6.9375-.023437-12.539063-5.667969-12.515625-12.605469.019531-6.929687 5.65625-12.53125 12.589844-12.511718zm0 0" fill="#e48e66"/><path d="m100.367188 35.5c6.9375.015625 12.542968 5.65625 12.523437 12.59375-.015625 6.933594-5.65625 12.542969-12.59375 12.523438-6.933594-.019532-12.542969-5.65625-12.523437-12.59375.023437-6.933594 5.660156-12.539063 12.59375-12.523438zm0 0" fill="#e48e66"/><path d="m43.953125 35.328125c6.933594.019531 12.542969 5.660156 12.523437 12.59375-.019531 6.9375-5.660156 12.546875-12.59375 12.527344-6.9375-.019531-12.546874-5.660157-12.527343-12.597657 0 0 0-.003906 0-.007812.023437-6.933594 5.664062-12.535156 12.597656-12.515625zm0 0" fill="#e48e66"/><g fill="#63316d"><path d="m347.074219 333.992188c-12.582031 0-25.574219-3.785157-38.613281-11.25-24.707032-14.121094-41.3125-36.640626-42.007813-37.59375-1.792969-2.457032-1.792969-5.792969 0-8.25 1.457031-1.996094 36.171875-48.832032 80.621094-48.832032 12.585937 0 25.578125 3.785156 38.617187 11.25 24.703125 14.121094 41.304688 36.628906 42 37.582032 1.796875 2.457031 1.796875 5.792968 0 8.25-1.457031 1.996093-36.171875 48.84375-80.617187 48.84375zm-66.019531-52.972657c5.683593 6.765625 18.265624 20.378907 34.355468 29.574219 10.898438 6.238281 21.550782 9.402344 31.664063 9.402344 30.3125 0 56.933593-28.1875 66.007812-38.976563-5.683593-6.761719-18.257812-20.363281-34.339843-29.554687 0-.003906 0-.003906-.003907-.003906-10.890625-6.238282-21.546875-9.398438-31.667969-9.398438-30.40625 0-56.964843 28.171875-66.015624 38.957031zm0 0"/><path d="m347.0625 316c-9.257812 0-17.972656-3.574219-24.566406-10.082031-13.726563-13.550781-13.875-35.742188-.324219-49.46875 6.527344-6.617188 15.601563-10.410157 24.898437-10.410157h.054688c9.234375 0 17.941406 3.582032 24.515625 10.085938 6.648437 6.5625 10.34375 15.320312 10.40625 24.664062s-3.519531 18.152344-10.082031 24.800782c-6.5625 6.652344-15.324219 10.347656-24.667969 10.410156-.078125 0-.15625 0-.234375 0zm.019531-55.96875c-5.589843 0-11.03125 2.277344-14.949219 6.246094-8.128906 8.234375-8.042968 21.550781.191407 29.679687 3.957031 3.902344 9.1875 6.046875 14.738281 6.046875h.144531c5.601563-.035156 10.859375-2.253906 14.796875-6.242187 3.9375-3.992188 6.085938-9.273438 6.050782-14.882813-.035157-5.601562-2.253907-10.859375-6.246094-14.796875 0-.003906-.003906-.007812-.007813-.007812-3.933593-3.898438-9.148437-6.042969-14.683593-6.042969-.011719 0-.023438 0-.035157 0zm0 0"/><path d="m271.753906 347.425781 140.632813-142.613281 9.960937 9.824219-140.628906 142.613281zm0 0"/><path d="m347.050781 392.976562c-.011719 0-.019531 0-.03125 0-50.765625-.011718-95.265625-34.300781-108.21875-83.390624-.210937-.820313-.410156-1.605469-.601562-2.394532-6.96875-29.101562-2.1875-59.171875 13.460937-84.679687 15.648438-25.507813 40.292969-43.390625 69.394532-50.359375 8.433593-2.019532 17.105468-3.058594 25.777343-3.082032h.019531.222657c29.902343.007813 58.015625 11.660157 79.15625 32.808594 21.136719 21.152344 32.777343 49.269532 32.769531 79.171875-.007812 29.902344-11.660156 58.011719-32.808594 79.152344-21.144531 21.132813-49.25 32.773437-79.140625 32.773437zm-.191406-209.910156c-7.582031.019532-15.167969.929688-22.546875 2.695313-25.464844 6.097656-47.03125 21.75-60.722656 44.070312-13.695313 22.316407-17.878906 48.636719-11.777344 74.101563.167969.714844.351562 1.429687.53125 2.132812 11.320312 42.902344 50.257812 72.90625 94.679688 72.914063h.027343c26.15625 0 50.746094-10.183594 69.246094-28.671875 18.507813-18.5 28.703125-43.097656 28.710937-69.261719.003907-26.164063-10.179687-50.765625-28.675781-69.273437-18.5-18.507813-43.097656-28.703126-69.261719-28.707032zm0 0"/><path d="m245.007812 312.5625h-198.027343c-25.90625 0-46.980469-21.078125-46.980469-46.980469v-218.519531c0-25.902344 21.074219-46.9804688 46.980469-46.9804688h259.890625c25.902344 0 46.980468 21.0781248 46.980468 46.9804688v129.007812c0 3.863282-3.132812 6.996094-7 6.996094-3.863281 0-6.996093-3.132812-6.996093-6.996094v-129.007812c0-18.1875-14.796875-32.984375-32.984375-32.984375h-259.890625c-18.1875 0-32.988281 14.796875-32.988281 32.984375v218.519531c0 18.1875 14.800781 32.984375 32.988281 32.984375h198.027343c3.863282 0 6.996094 3.132813 6.996094 6.996094 0 3.867188-3.132812 7-6.996094 7zm0 0"/><path d="m346.851562 95.382812h-339.855468c-3.863282 0-6.996094-3.132812-6.996094-6.996093s3.132812-6.996094 6.996094-6.996094h339.855468c3.867188 0 7 3.132813 7 6.996094s-3.132812 6.996093-7 6.996093zm0 0"/><path d="m100.335938 67.613281c-.027344 0-.050782 0-.074219 0-5.222657-.015625-10.128907-2.070312-13.808594-5.777343-3.679687-3.707032-5.695313-8.625-5.675781-13.847657.039062-10.757812 8.804687-19.488281 19.554687-19.488281h.054688c5.222656.015625 10.128906 2.0625 13.8125 5.765625 3.683593 3.703125 5.703125 8.621094 5.691406 13.84375v.019531c-.019531 5.222656-2.070313 10.125-5.777344 13.808594-3.691406 3.664062-8.582031 5.675781-13.777343 5.675781zm-.003907-25.117187c-3.058593 0-5.550781 2.480468-5.5625 5.539062-.003906 1.488282.566407 2.886719 1.617188 3.941406 1.042969 1.054688 2.441406 1.636719 3.925781 1.644532h.019531c1.480469 0 2.871094-.574219 3.917969-1.617188 1.054688-1.042968 1.636719-2.433594 1.644531-3.917968.003907-1.503907-.570312-2.898438-1.617187-3.953126-1.046875-1.050781-2.445313-1.632812-3.929688-1.636718-.003906 0-.007812 0-.015625 0zm12.558594 5.605468h.011719zm0 0"/><path d="m43.917969 67.445312c-.019531 0-.039063 0-.054688 0-10.785156-.03125-19.535156-8.828124-19.503906-19.613281.03125-10.765625 8.796875-19.5 19.558594-19.5h.050781c10.78125.035157 19.527344 8.832031 19.503906 19.605469v.003906c-.03125 10.765625-8.796875 19.503906-19.554687 19.503906zm-.003907-25.121093c-3.058593 0-5.550781 2.484375-5.558593 5.550781-.011719 3.066406 2.476562 5.566406 5.542969 5.578125h.019531c3.058593 0 5.550781-2.484375 5.5625-5.546875.003906-3.066406-2.488281-5.570312-5.554688-5.578125-.003906-.003906-.007812-.003906-.011719-.003906zm12.5625 5.597656h.007813zm0 0"/><path d="m156.75 67.792969c-.019531 0-.039062 0-.054688 0-10.785156-.027344-19.535156-8.824219-19.503906-19.609375.03125-10.765625 8.796875-19.503906 19.558594-19.503906h.050781c10.792969.039062 19.535157 8.835937 19.503907 19.613281-.011719 5.222656-2.0625 10.128906-5.765626 13.8125-3.691406 3.671875-8.585937 5.6875-13.789062 5.6875zm.003906-25.117188c-3.066406 0-5.558594 2.484375-5.566406 5.546875-.007812 3.066406 2.476562 5.570313 5.542969 5.578125 1.472656-.003906 2.886719-.570312 3.941406-1.617187 1.050781-1.046875 1.636719-2.445313 1.640625-3.929688.007812-3.066406-2.480469-5.566406-5.542969-5.578125-.007812 0-.011719 0-.015625 0zm0 0"/></g></svg>