<svg height="512pt" viewBox="-19 0 512 512.00025" width="512pt" xmlns="http://www.w3.org/2000/svg" xmlns:xlink="http://www.w3.org/1999/xlink"><linearGradient id="a"><stop offset="0" stop-color="#45425a"/><stop offset="1" stop-color="#2d3251"/></linearGradient><linearGradient id="b" gradientUnits="userSpaceOnUse" x1="206.477774802" x2="482.191901116" xlink:href="#a" y1="185.0921956102" y2="599.5525587966"/><linearGradient id="c" gradientUnits="userSpaceOnUse" x1="386.8711134912" x2="289.975975386" y1="565.5638759568" y2="468.6687378516"><stop offset="0" stop-color="#2d3251" stop-opacity="0"/><stop offset="1" stop-color="#131830"/></linearGradient><linearGradient id="d" gradientUnits="userSpaceOnUse" x1="277.2764624782" x2="277.2764624782" xlink:href="#a" y1="468.1992035322" y2="531.9840905476"/><linearGradient id="e"><stop offset="0" stop-color="#ecf7ff"/><stop offset="1" stop-color="#c2e0ff"/></linearGradient><linearGradient id="f" gradientUnits="userSpaceOnUse" x1="189.7927919464" x2="419.9475324096" xlink:href="#e" y1="342.9097379322" y2="342.9097379322"/><linearGradient id="g" gradientUnits="userSpaceOnUse" x1="189.7927919464" x2="373.0643750096" xlink:href="#e" y1="392.4570031436" y2="392.4570031436"/><linearGradient id="h" gradientUnits="userSpaceOnUse" x1="168.1778493254" x2="372.4096170812" xlink:href="#e" y1="153.7047750646" y2="412.5023137176"/><linearGradient id="i"><stop offset=".0029" stop-color="#c2e0ff" stop-opacity="0"/><stop offset=".0763" stop-color="#bfdcfd" stop-opacity=".07451"/><stop offset="1" stop-color="#9eb2e7"/></linearGradient><linearGradient id="j" gradientUnits="userSpaceOnUse" x1="207.441539922" x2="11.6846809058" xlink:href="#i" y1="255.746619695" y2="210.4848967172"/><linearGradient id="k" gradientUnits="userSpaceOnUse" x1="131.7596752456" x2="328.2200827994" xlink:href="#a" y1="190.7982874738" y2="190.7982874738"/><linearGradient id="l" gradientUnits="userSpaceOnUse" x1="131.7596752456" x2="328.2200827994" xlink:href="#a" y1="229.0164936996" y2="229.0164936996"/><linearGradient id="m" gradientUnits="userSpaceOnUse" x1="131.7596752456" x2="292.6113710282" xlink:href="#a" y1="267.2349007098" y2="267.2349007098"/><linearGradient id="n" gradientUnits="userSpaceOnUse" x1="54.4085894598" x2="95.8057146986" xlink:href="#a" y1="206.3358878756" y2="206.3358878756"/><linearGradient id="o" gradientUnits="userSpaceOnUse" x1="411.5186032976" x2="333.150142957" xlink:href="#i" y1="234.1207343242" y2="155.7522739836"/><radialGradient id="p" cx="304.6172742262" cy="82.4374565988" gradientUnits="userSpaceOnUse" r="200.7480580236"><stop offset="0" stop-color="#8be1e2"/><stop offset=".1873" stop-color="#87e1e1"/><stop offset=".3558" stop-color="#7ce2dd"/><stop offset=".5172" stop-color="#6ae2d7"/><stop offset=".6741" stop-color="#50e4ce"/><stop offset=".8278" stop-color="#2fe5c2"/><stop offset=".9772" stop-color="#07e7b4"/><stop offset="1" stop-color="#00e7b2"/></radialGradient><linearGradient id="q" gradientUnits="userSpaceOnUse" x1="443.065045088" x2="363.4132712548" y1="208.7785304938" y2="129.1267566606"><stop offset=".0029" stop-color="#00e7b2" stop-opacity="0"/><stop offset=".4308" stop-color="#1bc4b7" stop-opacity=".427451"/><stop offset="1" stop-color="#3b9abe"/></linearGradient><linearGradient id="r" gradientUnits="userSpaceOnUse" x1="338.0684572272" x2="385.829444024" y1="103.7818422408" y2="151.5429294298"><stop offset="0" stop-color="#f9f9f9"/><stop offset="1" stop-color="#e6e6e6"/></linearGradient><linearGradient id="s"><stop offset="0" stop-color="#ffc738"/><stop offset=".4286" stop-color="#ffbb23"/><stop offset="1" stop-color="#ffa700"/></linearGradient><linearGradient id="t" gradientUnits="userSpaceOnUse" x1="17.5464810716" x2="115.7534440542" xlink:href="#s" y1="433.012139001" y2="491.8252027036"/><linearGradient id="u" gradientUnits="userSpaceOnUse" x1="54.5282569622" x2="54.5282569622" xlink:href="#s" y1="399.8989765374" y2="413.3999203778"/><linearGradient id="v"><stop offset="0" stop-color="#ffa700" stop-opacity="0"/><stop offset=".0206" stop-color="#fea600" stop-opacity=".019608"/><stop offset=".6348" stop-color="#ec8c00" stop-opacity=".635294"/><stop offset="1" stop-color="#e58200"/></linearGradient><linearGradient id="w" gradientUnits="userSpaceOnUse" x1="85.408295329" x2="37.9816145582" xlink:href="#v" y1="448.4247511138" y2="368.3201080664"/><linearGradient id="x" gradientUnits="userSpaceOnUse" x1="109.5745049286" x2="86.682272347" xlink:href="#v" y1="422.98245626" y2="399.587057972"/><linearGradient id="y" gradientUnits="userSpaceOnUse" x1="79.2836683836" x2="44.3999890808" xlink:href="#v" y1="483.5790877878" y2="448.6955088772"/><linearGradient id="z"><stop offset="0" stop-color="#3b395f"/><stop offset=".0633" stop-color="#37355a"/><stop offset=".4033" stop-color="#232543"/><stop offset=".7232" stop-color="#171b35"/><stop offset="1" stop-color="#131830"/></linearGradient><linearGradient id="A" gradientUnits="userSpaceOnUse" x1="49.9659334332" x2="67.5949041454" xlink:href="#z" y1="446.9989810894" y2="479.6256429518"/><linearGradient id="B" gradientUnits="userSpaceOnUse" x1="54.5283573544" x2="54.5283573544" xlink:href="#z" y1="391.5144207778" y2="417.3046749968"/><linearGradient id="C" gradientUnits="userSpaceOnUse" x1="54.5283573544" x2="54.5283573544" xlink:href="#v" y1="494.1556068422" y2="513.5867179366"/><path d="m433.570312 512h-257.398437c-11.984375 0-21.699219-9.714844-21.699219-21.699219v-314.605469c0-11.984374 9.714844-21.699218 21.699219-21.699218h257.398437c11.984376 0 21.699219 9.714844 21.699219 21.699218v314.605469c0 11.984375-9.714843 21.699219-21.699219 21.699219zm0 0" fill="url(#b)"/><path d="m176.171875 512h257.398437c11.984376 0 21.699219-9.714844 21.699219-21.699219v-22.429687l-41.289062-41.289063c-3.96875-4.363281-9.691407-7.105469-16.058594-7.105469h-243.449219v70.824219c0 11.984375 9.714844 21.699219 21.699219 21.699219zm0 0" fill="url(#c)"/><path d="m397.921875 419.476562h-257.402344c-11.980469 0-21.695312 9.714844-21.695312 21.699219v28.601563c0 23.320312 18.902343 42.222656 42.222656 42.222656h274.683594c-8.898438 0-16.109375-7.210938-16.109375-16.109375v-54.714844c0-11.984375-9.714844-21.699219-21.699219-21.699219zm0 0" fill="url(#d)"/><path d="m189.792969 336.617188h230.15625v12.582031h-230.15625zm0 0" fill="url(#f)"/><path d="m189.792969 386.164062h183.269531v12.585938h-183.269531zm0 0" fill="url(#g)"/><path d="m406.125 319.234375h-392.824219c-6.835937 0-12.375-5.539063-12.375-12.371094v-201.054687c0-6.832032 5.539063-12.371094 12.375-12.371094h392.824219c6.832031 0 12.371094 5.539062 12.371094 12.371094v201.054687c0 6.832031-5.539063 12.371094-12.371094 12.371094zm0 0" fill="url(#h)"/><path d="m99.613281 150.367188c-1.355469-2.363282-4.167969-4.308594-8.445312-5.847657-4.390625-1.578125-9.070313-2.648437-14.027344-3.238281l-6.546875-5.839844c-.128906-.925781-.671875-1.761718-1.675781-2.5-1.15625-.851562-2.402344-1.277344-3.734375-1.277344-1.460938 0-2.710938.429688-3.742188 1.277344-1.03125.851563-1.546875 1.824219-1.546875 2.917969v5.285156c-9.847656 1.097657-18.085937 4.378907-24.710937 9.847657-6.625 5.472656-9.9375 13.488281-9.9375 24.046874 0 3.761719.425781 7.191407 1.277344 10.285157.847656 3.09375 2.246093 5.792969 4.191406 8.097656 1.945312 2.304687 3.800781 4.277344 5.5625 5.914063.09375.089843.199218.175781.296875.261718l23.316406 23.371094v30.507812c-5.386719-.367187-10.128906-1.757812-14.234375-4.1875-4.101562-2.421874-7.324219-4.699218-9.671875-6.824218-2.347656-2.121094-4.242187-3.183594-5.683594-3.183594-2.179687 0-4.109375 1.152344-5.800781 3.457031-1.695312 2.304688-2.535156 4.609375-2.535156 6.914063 0 3.78125 2.191406 7.503906 6.554687 11.167968l58.414063 58.414063h181.546875zm0 0" fill="url(#j)"/><path d="m131.761719 183.066406h196.457031v15.464844h-196.457031zm0 0" fill="url(#k)"/><path d="m131.761719 221.285156h196.457031v15.464844h-196.457031zm0 0" fill="url(#l)"/><path d="m131.761719 259.5h160.847656v15.46875h-160.847656zm0 0" fill="url(#m)"/><path d="m21.964844 249.652344c0-2.304688.84375-4.609375 2.535156-6.914063 1.691406-2.304687 3.625-3.460937 5.800781-3.460937 1.441407 0 3.335938 1.0625 5.683594 3.1875s5.570313 4.398437 9.675781 6.824218c4.101563 2.425782 8.847656 3.820313 14.234375 4.183594v-42.761718c-3.648437-1.335938-6.445312-2.398438-8.390625-3.1875-1.945312-.785157-4.527344-1.941407-7.75-3.457032s-5.714844-3.09375-7.476562-4.730468c-1.761719-1.640626-3.617188-3.613282-5.558594-5.917969-1.949219-2.304688-3.347656-5.003907-4.195312-8.097657-.851563-3.09375-1.277344-6.519531-1.277344-10.28125 0-10.558593 3.3125-18.578124 9.941406-24.046874 6.621094-5.472657 14.859375-8.753907 24.707031-9.847657v-5.289062c0-1.09375.515625-2.066407 1.550781-2.917969 1.03125-.847656 2.277344-1.273438 3.738282-1.273438 1.335937 0 2.582031.425782 3.738281 1.273438 1.152344.855469 1.730469 1.824219 1.730469 2.917969v4.925781c7.414062.242188 14.253906 1.488281 20.515625 3.734375 6.261719 2.253906 9.390625 5.382813 9.390625 9.394531 0 2.1875-.738282 4.464844-2.207032 6.835938s-3.433593 3.558594-5.882812 3.558594c-.96875 0-3.632812-1.03125-7.988281-3.101563-4.355469-2.066406-8.964844-3.285156-13.828125-3.648437v36.957031c4.835937 1.820312 8.855468 3.546875 12.058594 5.1875 3.203124 1.636719 6.589843 3.910156 10.15625 6.824219 3.570312 2.910156 6.257812 6.578124 8.070312 11.007812s2.722656 9.617188 2.722656 15.558594c0 10.863281-2.964844 19.496094-8.886718 25.902344-5.925782 6.402343-13.964844 10.335937-24.121094 11.800781v6.09375c0 1.074219-.578125 2.027343-1.730469 2.867187-1.15625.835938-2.402344 1.253906-3.738281 1.253906-1.460938 0-2.707032-.417968-3.738282-1.253906-1.035156-.835937-1.550781-1.789062-1.550781-2.863281v-5.546875c-10.578125-.125-19.542969-2.542969-26.898437-7.261719-7.355469-4.71875-11.03125-9.527343-11.03125-14.429687zm21.335937-76.429688c0 4.730469 1.472657 8.339844 4.417969 10.828125 2.949219 2.484375 7.371094 4.820313 13.269531 7.003907v-33.148438c-11.796875 1.457031-17.6875 6.5625-17.6875 15.316406zm26.257813 79.886719c10.695312-1.941406 16.046875-7.949219 16.046875-18.015625 0-5.335938-1.398438-9.523438-4.195313-12.554688s-6.746094-5.640624-11.851562-7.828124zm0 0" fill="url(#n)"/><path d="m418.5 105.8125v201.054688c0 6.824218-5.546875 12.371093-12.371094 12.371093h-49.875l-99.054687-99.054687c-24.140625-23.285156-39.152344-55.960938-39.152344-92.148438 0-11.921875 1.628906-23.457031 4.683594-34.410156h185.53125c5.808593 1.011719 10.238281 6.085938 10.238281 12.1875zm0 0" fill="url(#o)"/><path d="m474.113281 128.035156c0 70.710938-57.324219 128.03125-128.035156 128.03125s-128.035156-57.320312-128.035156-128.03125c0-70.710937 57.324219-128.035156 128.035156-128.035156s128.035156 57.324219 128.035156 128.035156zm0 0" fill="url(#p)"/><path d="m474.113281 128.035156c0-3.570312-.15625-7.105468-.441406-10.601562l-49.308594-49.308594c-5.222656-5.222656-13.691406-5.222656-18.917969 0l-71.570312 71.570312c-5.222656 5.222657-13.691406 5.222657-18.914062 0l-28.25-28.25c-5.222657-5.222656-13.691407-5.222656-18.917969 0l-12.546875 12.550782c-5.226563 5.222656-5.226563 13.691406 0 18.914062l111.488281 111.492188c60.886719-9.878906 107.378906-62.691406 107.378906-126.367188zm0 0" fill="url(#q)"/><path d="m312.75 200.417969c6.445312 6.441406 16.890625 6.441406 23.335938 0l100.824218-100.828125c5.226563-5.222656 5.226563-13.691406 0-18.914063l-12.546875-12.550781c-5.226562-5.222656-13.695312-5.222656-18.917969 0l-71.570312 71.570312c-5.222656 5.222657-13.691406 5.222657-18.914062 0l-28.25-28.25c-5.226563-5.222656-13.695313-5.222656-18.917969 0l-12.550781 12.550782c-5.222657 5.222656-5.222657 13.691406 0 18.914062zm0 0" fill="url(#r)"/><path d="m103.046875 505.421875c-32.136719 8.773437-64.902344 8.773437-97.039063 0-3.550781-.972656-6.007812-4.210937-6.007812-7.890625v-84.742188c0-3.683593 2.457031-6.921874 6.007812-7.890624 32.136719-8.773438 64.902344-8.773438 97.039063 0 3.550781.96875 6.007813 4.207031 6.007813 7.890624v84.742188c0 3.679688-2.457032 6.917969-6.007813 7.890625zm0 0" fill="url(#t)"/><path d="m101.382812 404.457031c-.65625-.171875-1.3125-.34375-1.96875-.507812-.441406-.113281-.886718-.21875-1.328124-.328125-.636719-.15625-1.277344-.308594-1.914063-.460938-.449219-.101562-.894531-.207031-1.34375-.304687-.640625-.144531-1.28125-.285157-1.917969-.425781-.441406-.09375-.882812-.1875-1.328125-.28125-.65625-.136719-1.316406-.269532-1.980469-.398438-.417968-.082031-.835937-.164062-1.257812-.246094-.722656-.136718-1.445312-.265625-2.171875-.394531-.355469-.0625-.707031-.128906-1.0625-.1875-1.074219-.183594-2.152344-.359375-3.230469-.523437-.019531-.003907-.039062-.007813-.058594-.007813-1.058593-.164063-2.117187-.3125-3.179687-.457031-.355469-.046875-.710937-.089844-1.070313-.132813-.722656-.09375-1.445312-.1875-2.171874-.269531-.421876-.050781-.84375-.09375-1.265626-.140625-.660156-.070313-1.324218-.140625-1.984374-.207031-.445313-.042969-.886719-.082032-1.332032-.121094-.644531-.058594-1.285156-.113281-1.929687-.167969-.453125-.035156-.902344-.070312-1.351563-.101562-.644531-.046875-1.285156-.089844-1.925781-.128907-.445313-.027343-.890625-.054687-1.339844-.078124-.660156-.035157-1.324219-.066407-1.988281-.09375-.421875-.019532-.839844-.039063-1.261719-.054688-.730469-.027344-1.457031-.046875-2.183593-.0625-.355469-.007812-.710938-.019531-1.066407-.027344-1.082031-.019531-2.164062-.03125-3.246093-.03125-1.082032 0-2.160157.011719-3.242188.03125-.355469.007813-.710938.019532-1.066406.027344-.726563.015625-1.457032.035156-2.183594.0625-.421875.015625-.84375.035156-1.265625.054688-.660156.027343-1.324219.058593-1.988281.09375-.445313.023437-.890625.050781-1.335938.078124-.640625.039063-1.285156.082032-1.925781.128907-.453125.03125-.902344.066406-1.351563.101562-.644531.054688-1.289062.109375-1.929687.167969-.445313.039062-.886719.078125-1.332031.121094-.664063.066406-1.324219.136718-1.988282.210937-.421874.042969-.84375.089844-1.261718.136719-.726563.085938-1.449219.175781-2.175782.269531-.355468.046875-.710937.089844-1.066406.136719-1.058594.140625-2.117187.292969-3.175781.453125-.019531.003906-.042969.003906-.0625.007813-1.078125.164062-2.152344.339843-3.230469.523437-.355468.0625-.707031.128906-1.0625.191406-.722656.128907-1.449218.253907-2.175781.394531-.417969.078126-.835937.160157-1.253906.242188-.660157.128906-1.320313.261719-1.980469.398438-.441406.09375-.886719.1875-1.328125.28125-.636719.140624-1.277344.277343-1.914063.421874-.449218.101563-.898437.207032-1.347656.308594-.636718.148438-1.277344.304688-1.914062.460938-.441406.105468-.882813.214844-1.324219.324218-.65625.167969-1.3125.339844-1.96875.511719-.421875.109375-.839844.21875-1.257813.332031-.183593.050782-.371093.105469-.554687.15625-1.96875.574219-3.585937 1.851563-4.621094 3.511719 35.246094 10.597657 71.324219 10.597657 106.574219 0-1.035156-1.660156-2.65625-2.9375-4.625-3.511719-.183594-.050781-.371094-.105468-.554688-.15625-.414062-.113281-.832031-.222656-1.25-.332031zm0 0" fill="url(#u)"/><path d="m103.046875 404.898438c-29.4375-8.039063-59.40625-8.707032-88.933594-2.019532v1.035156c0 2.433594 1.242188 4.574219 3.128907 5.828126l91.109374 91.109374c.453126-1.023437.703126-2.148437.703126-3.320312v-84.746094c0-3.679687-2.457032-6.917968-6.007813-7.886718zm0 0" fill="url(#w)"/><path d="m109.054688 412.789062c0-3.683593-2.457032-6.921874-6.007813-7.890624-7.328125-2-14.6875-3.542969-22.066406-4.632813v3.648437c0 2.433594 1.242187 4.574219 3.125 5.828126l24.949219 24.949218zm0 0" fill="url(#x)"/><path d="m99.59375 477.328125-34.488281-34.484375c-2.863281-3.050781-7.03125-4.863281-11.613281-4.542969-7.144532.492188-12.9375 6.273438-13.445313 13.417969-.328125 4.597656 1.492187 8.773438 4.550781 11.644531l3.445313 3.445313c1.113281 1.699218 1.714843 3.722656 1.714843 5.800781v5.945313c0 1.539062.710938 2.949218 1.824219 3.863281l27.851563 27.851562c5.027344-.699219 10.042968-1.605469 15.042968-2.726562.027344-3.109375 1.425782-6.089844 3.917969-7.953125 3.539063-2.648438 5.832031-6.871094 5.832031-11.628906 0-4.199219-1.785156-7.980469-4.632812-10.632813zm0 0" fill="url(#y)"/><path d="m69.050781 452.785156c0-8.363281-7.070312-15.074218-15.558593-14.484375-7.144532.492188-12.9375 6.273438-13.445313 13.417969-.367187 5.152344 1.957031 9.785156 5.710937 12.632812 2.566407 1.945313 4 5.039063 4 8.257813v5.945313c0 2.625 2.054688 4.878906 4.683594 4.925781 2.671875.050781 4.859375-2.105469 4.859375-4.769531v-6.261719c0-3.136719 1.402344-6.15625 3.917969-8.035157 3.539062-2.644531 5.832031-6.871093 5.832031-11.628906zm0 0" fill="url(#A)"/><path d="m87.945312 410.914062c-3.867187 0-7-3.132812-7-7v-34.179687c0-14.5625-11.851562-26.414063-26.417968-26.414063s-26.414063 11.851563-26.414063 26.414063v34.179687c0 3.863282-3.132812 7-7 7-3.867187 0-7-3.132812-7-7v-34.179687c0-22.28125 18.128907-40.410156 40.414063-40.410156s40.414062 18.128906 40.414062 40.410156v34.179687c0 3.867188-3.132812 7-6.996094 7zm0 0" fill="url(#B)"/><path d="m0 474.265625v23.265625c0 3.679688 2.457031 6.917969 6.007812 7.890625 32.136719 8.773437 64.902344 8.773437 97.039063 0 3.550781-.972656 6.007813-4.210937 6.007813-7.890625v-23.265625zm0 0" fill="url(#C)"/></svg>