<svg id="Layer_1" enable-background="new 0 0 512 512" height="512" viewBox="0 0 512 512" width="512" xmlns="http://www.w3.org/2000/svg"><g id="XMLID_1_"><g id="XMLID_3793_"><g id="XMLID_1667_"><path id="XMLID_1676_" d="m256 5c-71.8 0-130 20.1-130 45v197c0 24.9 58.2 45 130 45s130-20.1 130-45v-197c0-24.9-58.2-45-130-45z" fill="#ffcb5c"/><ellipse id="XMLID_1675_" cx="256" cy="50" fill="#ffe3a8" rx="130" ry="45"/><ellipse id="XMLID_1674_" cx="256" cy="50" fill="#ffcb5c" rx="104" ry="30"/><g fill="#ffb30f"><path id="XMLID_1679_" d="m256 35c48.5 0 89.2 9.6 100.7 22.5 2.1-2.4 3.3-4.9 3.3-7.5 0-16.6-46.6-30-104-30s-104 13.4-104 30c0 2.6 1.1 5.1 3.3 7.5 11.5-12.9 52.2-22.5 100.7-22.5z"/><path id="XMLID_1672_" d="m386 99.3c0 24.9-58.2 45-130 45s-130-20.1-130-45v49.3c0 24.9 58.2 45 130 45s130-20.1 130-45z"/><path id="XMLID_1670_" d="m386 197.8c0 24.9-58.2 45-130 45s-130-20.1-130-45v49.2c0 24.9 58.2 45 130 45s130-20.1 130-45z"/></g></g><g id="XMLID_1677_"><path id="XMLID_1684_" d="m377 220c-71.8 0-130 20.1-130 45v197c0 24.9 58.2 45 130 45s130-20.1 130-45v-197c0-24.9-58.2-45-130-45z" fill="#ffcb5c"/><ellipse id="XMLID_1683_" cx="377" cy="265" fill="#ffe3a8" rx="130" ry="45"/><ellipse id="XMLID_1682_" cx="377" cy="265" fill="#ffcb5c" rx="104" ry="30"/><g fill="#ffb30f"><path id="XMLID_1681_" d="m377 250c48.5 0 89.2 9.6 100.7 22.5 2.1-2.4 3.3-4.9 3.3-7.5 0-16.6-46.6-30-104-30s-104 13.4-104 30c0 2.6 1.1 5.1 3.3 7.5 11.5-12.9 52.2-22.5 100.7-22.5z"/><path id="XMLID_1680_" d="m507 314.3c0 24.9-58.2 45-130 45s-130-20.1-130-45v49.3c0 24.9 58.2 45 130 45s130-20.1 130-45z"/><path id="XMLID_1678_" d="m507 412.8c0 24.9-58.2 45-130 45s-130-20.1-130-45v49.2c0 24.9 58.2 45 130 45s130-20.1 130-45z"/></g></g><path id="XMLID_1658_" d="m135 246h36c71.8 0 130 58.2 130 130s-58.2 130-130 130h-36c-71.8 0-130-58.2-130-130s58.2-130 130-130z" fill="#ffb30f"/><circle id="XMLID_1666_" cx="135" cy="376" fill="#ffcb5c" r="130"/><path id="XMLID_1663_" d="m5 376c0 21.3 5.1 41.5 14.2 59.2 5.2.5 10.4.8 15.8.8 88.4 0 160-71.6 160-160 0-5.3-.3-10.6-.8-15.8-17.8-9.1-37.9-14.2-59.2-14.2-71.8 0-130 58.2-130 130z" fill="#ffe3a8"/><circle id="XMLID_1665_" cx="135" cy="376" fill="#ffcb5c" r="104"/><path id="XMLID_1662_" d="m49 376c0-54.4 41.8-99 95-103.6-3-.3-6-.4-9-.4-57.4 0-104 46.6-104 104s46.6 104 104 104c3 0 6-.1 9-.4-53.2-4.6-95-49.2-95-103.6z" fill="#ffb30f"/><path id="XMLID_1657_" d="m65 187c0 11-9 20-20 20 11 0 20 9 20 20 0-11 9-20 20-20-11 0-20-9-20-20z" fill="#ffcb5c"/><path id="XMLID_1656_" d="m447 69c0 11-9 20-20 20 11 0 20 9 20 20 0-11 9-20 20-20-11 0-20-9-20-20z" fill="#ffcb5c"/><g id="XMLID_2052_"><g fill="#399349"><path id="XMLID_2069_" d="m137.9 324.5-2.9 6.6-2.9-6.6c-2.3-5.1-7.3-8.5-13-8.5-7.8 0-14.1 6.3-14.1 14.1 0 7.1 2.6 14 7.2 19.4l22.8 26.5 22.8-26.4c4.7-5.4 7.2-12.3 7.2-19.4 0-7.8-6.3-14.1-14.1-14.1-5.7-.1-10.8 3.2-13 8.4z"/><path id="XMLID_2067_" d="m132.1 427.5 2.9-6.6 2.9 6.6c2.3 5.1 7.3 8.5 13 8.5 7.8 0 14.1-6.3 14.1-14.1 0-7.1-2.6-14-7.2-19.4l-22.8-26.5-22.8 26.4c-4.7 5.4-7.2 12.3-7.2 19.4 0 7.8 6.3 14.1 14.1 14.1 5.7.1 10.8-3.2 13-8.4z"/><path id="XMLID_2066_" d="m83.5 373.1 6.6 2.9-6.6 2.9c-5.1 2.3-8.5 7.3-8.5 13 0 7.8 6.3 14.1 14.1 14.1 7.1 0 14-2.6 19.4-7.2l26.5-22.8-26.4-22.8c-5.4-4.7-12.3-7.2-19.4-7.2-7.8 0-14.1 6.3-14.1 14.1-.1 5.7 3.2 10.8 8.4 13z"/><path id="XMLID_2065_" d="m186.5 378.9-6.6-2.9 6.6-2.9c5.1-2.3 8.5-7.3 8.5-13 0-7.8-6.3-14.1-14.1-14.1-7.1 0-14 2.6-19.4 7.2l-26.5 22.8 26.4 22.8c5.4 4.7 12.3 7.2 19.4 7.2 7.8 0 14.1-6.3 14.1-14.1.1-5.7-3.2-10.8-8.4-13z"/></g><path id="XMLID_2064_" d="m165 330.1c0-7.8-6.3-14.1-14.1-14.1-5.6 0-10.7 3.3-13 8.5l-2.9 6.6v44.9l22.8-26.4c4.6-5.4 7.2-12.3 7.2-19.5z" fill="#47b85b"/><path id="XMLID_2060_" d="m105 421.9c0 7.8 6.3 14.1 14.1 14.1 5.6 0 10.7-3.3 13-8.5l2.9-6.6v-44.9l-22.8 26.4c-4.6 5.4-7.2 12.3-7.2 19.5z" fill="#47b85b"/><path id="XMLID_2054_" d="m89.1 346c-7.8 0-14.1 6.3-14.1 14.1 0 5.6 3.3 10.7 8.5 13l6.6 2.9h44.9l-26.4-22.8c-5.4-4.6-12.3-7.2-19.5-7.2z" fill="#47b85b"/><path id="XMLID_2053_" d="m180.9 406c7.8 0 14.1-6.3 14.1-14.1 0-5.6-3.3-10.7-8.5-13l-6.6-2.9h-44.9l26.4 22.8c5.4 4.6 12.3 7.2 19.5 7.2z" fill="#47b85b"/></g></g><g id="XMLID_2118_"><g id="XMLID_2352_"><path id="XMLID_3235_" d="m377 511.9c-57.2 0-108.2-13-126.9-32.3l7.2-7c16.7 17.3 65.9 29.3 119.7 29.3 73.7 0 125-21 125-39.9v-197c0-15.2-33.8-34-96.4-38.9l.8-10c52.6 4.2 105.6 20.9 105.6 48.9v197c0 14.3-14.7 27.3-41.4 36.5-25.1 8.6-58.3 13.4-93.6 13.4z" fill="#1d4925"/></g><g id="XMLID_674_"><path id="XMLID_3232_" d="m377 300c-54.2 0-109-12-109-35s54.8-35 109-35 109 12 109 35-54.8 35-109 35zm0-60c-60.4 0-99 14.8-99 25s38.6 25 99 25 99-14.8 99-25-38.6-25-99-25z" fill="#1d4925"/></g><g id="XMLID_454_"><path id="XMLID_3231_" d="m377 315c-44.8 0-86.4-7.8-111.2-21l4.7-8.8c23.4 12.4 63.2 19.8 106.5 19.8 73.7 0 125-21.1 125-40h10c0 14.3-14.7 27.3-41.4 36.5-25.1 8.7-58.3 13.5-93.6 13.5z" fill="#1d4925"/></g><g id="XMLID_627_"><path id="XMLID_3230_" d="m377 364.3c-29.1 0-56.7-3.2-79.9-9.3l2.5-9.7c22.3 5.9 49.1 8.9 77.3 8.9 73.7 0 125-21.1 125-40.1h10c0 15-14.7 27.4-41.4 36.7-25 8.5-58.2 13.5-93.5 13.5z" fill="#1d4925"/></g><g id="XMLID_676_"><path id="XMLID_3229_" d="m377 413.5c-29.1 0-56.7-3.2-79.9-9.3l2.5-9.7c22.3 5.9 49.1 9.2 77.3 9.2 73.7 0 125-21.8 125-39.8h10c0 14-14.7 27-41.4 36.3-25 8.8-58.2 13.3-93.5 13.3z" fill="#1d4925"/></g><g id="XMLID_707_"><path id="XMLID_3228_" d="m377 462.8c-36.9 0-71.2-5.2-96.6-14.5l3.5-9.4c24 8.9 57.9 14.1 93.2 14.1 73.7 0 125-20.9 125-39.9h10c0 14-14.7 27.2-41.4 36.4-25.2 8.6-58.4 13.3-93.7 13.3z" fill="#1d4925"/></g><g id="XMLID_453_"><path id="XMLID_3227_" d="m252 269h-10v-4c0-14.3 14.7-27.3 41.4-36.5 25.1-8.7 58.3-13.5 93.6-13.5h4v-165c0-18.9-51.3-40-125-40s-125 21.1-125 40v175h-10v-175c0-14.3 14.7-27.3 41.4-36.5 25.1-8.7 58.3-13.5 93.6-13.5s68.5 4.8 93.6 13.5c26.7 9.2 41.4 22.2 41.4 36.5v170.1c0 1.3-.5 2.6-1.5 3.6-1 .9-2.3 1.4-3.6 1.4-2.9-.1-5.9-.1-8.9-.1-73.7 0-125 21.1-125 40z" fill="#1d4925"/></g><g id="XMLID_671_"><path id="XMLID_3224_" d="m256 85c-54.2 0-109-12-109-35s54.8-35 109-35 109 12 109 35-54.8 35-109 35zm0-60c-60.4 0-99 14.8-99 25s38.6 25 99 25 99-14.8 99-25-38.6-25-99-25z" fill="#1d4925"/></g><g id="XMLID_670_"><path id="XMLID_3223_" d="m256 100c-35.3 0-68.5-4.8-93.6-13.5-26.7-9.2-41.4-22.2-41.4-36.5h10c0 18.9 51.3 40 125 40s125-21.1 125-40h10c0 14.3-14.7 27.3-41.4 36.5-25.1 8.7-58.3 13.5-93.6 13.5z" fill="#1d4925"/></g><g id="XMLID_669_"><path id="XMLID_3222_" d="m256 149.3c-35.3 0-68.5-4.9-93.6-13.6-26.7-9.3-41.4-21.7-41.4-36.7h10c0 19 51.3 40 125 40s125-21 125-40h10c0 15-14.7 27.4-41.4 36.7-25.1 8.6-58.3 13.6-93.6 13.6z" fill="#1d4925"/></g><g id="XMLID_668_"><path id="XMLID_3221_" d="m256 198.5c-35.3 0-68.5-4.5-93.6-13.2-26.7-9.3-41.4-22.3-41.4-36.3h10c0 18 51.3 40 125 40s125-22 125-40h10c0 14-14.7 27-41.4 36.3-25.1 8.7-58.3 13.2-93.6 13.2z" fill="#1d4925"/></g><g id="XMLID_672_"><path id="XMLID_3220_" d="m256 247.8c-35.3 0-68.5-4.7-93.6-13.3-26.7-9.3-41.4-22.5-41.4-36.5h10c0 19 51.3 39.9 125 39.9 2.6 0 5.3-.1 7.9-.1l.2 10c-2.7 0-5.4 0-8.1 0z" fill="#1d4925"/></g><g id="XMLID_666_"><path id="XMLID_3219_" d="m371.2 224.7-5.1-8.5c6.8-4.1 15-11.1 15-18.1h10c-.1 6.9-3.5 16.8-19.9 26.6z" fill="#1d4925"/></g><g id="XMLID_790_"><path id="XMLID_3216_" d="m135 511c-74.4 0-135-60.6-135-135s60.6-135 135-135 135 60.6 135 135-60.6 135-135 135zm0-260c-68.9 0-125 56.1-125 125s56.1 125 125 125 125-56.1 125-125-56.1-125-125-125z" fill="#1d4925"/></g><g id="XMLID_789_"><path id="XMLID_3213_" d="m135 485c-60.1 0-109-48.9-109-109s48.9-109 109-109 109 48.9 109 109-48.9 109-109 109zm0-208c-54.6 0-99 44.4-99 99s44.4 99 99 99 99-44.4 99-99-44.4-99-99-99z" fill="#1d4925"/></g><g id="XMLID_782_"><g id="XMLID_784_"><g id="XMLID_788_"><path id="XMLID_3210_" d="m135 381c-1.5 0-2.8-.6-3.8-1.7l-22.8-26.4c-5.4-6.3-8.4-14.4-8.4-22.7 0-10.6 8.6-19.1 19.1-19.1 6.4 0 12.3 3.2 15.9 8.4 3.5-5.2 9.4-8.4 15.9-8.4 10.6 0 19.1 8.6 19.1 19.1 0 8.3-3 16.4-8.4 22.7l-22.8 26.4c-1 1.1-2.3 1.7-3.8 1.7zm-15.9-60c-5 0-9.1 4.1-9.1 9.1 0 5.9 2.1 11.7 6 16.2l19 22 19-22c3.9-4.5 6-10.2 6-16.2 0-5-4.1-9.1-9.1-9.1-3.6 0-6.9 2.2-8.4 5.5l-2.9 6.6c-.8 1.8-2.6 3-4.6 3s-3.8-1.2-4.6-3l-2.9-6.6c-1.4-3.3-4.7-5.5-8.4-5.5z" fill="#1d4925"/></g><g id="XMLID_787_"><path id="XMLID_3207_" d="m150.9 441c-6.4 0-12.3-3.2-15.9-8.4-3.5 5.2-9.4 8.4-15.9 8.4-10.6 0-19.1-8.6-19.1-19.1 0-8.3 3-16.4 8.4-22.7l22.8-26.4c.9-1.1 2.3-1.7 3.8-1.7s2.8.6 3.8 1.7l22.8 26.4c5.4 6.3 8.4 14.4 8.4 22.7 0 10.5-8.6 19.1-19.1 19.1zm-15.9-25.1c2 0 3.8 1.2 4.6 3l2.9 6.6c1.5 3.3 4.7 5.5 8.4 5.5 5 0 9.1-4.1 9.1-9.1 0-5.9-2.1-11.7-6-16.2l-19-22-19 22c-3.9 4.5-6 10.2-6 16.2 0 5 4.1 9.1 9.1 9.1 3.6 0 6.9-2.2 8.4-5.5l2.9-6.6c.8-1.8 2.6-3 4.6-3z" fill="#1d4925"/></g><g id="XMLID_786_"><path id="XMLID_3204_" d="m180.9 411c-8.3 0-16.4-3-22.7-8.4l-26.4-22.8c-1.1-.9-1.7-2.3-1.7-3.8s.6-2.8 1.7-3.8l26.4-22.8c6.3-5.4 14.4-8.4 22.7-8.4 10.6 0 19.1 8.6 19.1 19.1 0 6.4-3.2 12.3-8.4 15.9 5.2 3.5 8.4 9.4 8.4 15.9 0 10.5-8.6 19.1-19.1 19.1zm-38.2-35 22 19c4.5 3.9 10.2 6 16.2 6 5 0 9.1-4.1 9.1-9.1 0-3.6-2.2-6.9-5.5-8.4l-6.6-2.9c-1.8-.8-3-2.6-3-4.6s1.2-3.8 3-4.6l6.6-2.9c3.3-1.5 5.5-4.7 5.5-8.4 0-5-4.1-9.1-9.1-9.1-5.9 0-11.7 2.1-16.2 6z" fill="#1d4925"/></g><g id="XMLID_785_"><path id="XMLID_3201_" d="m89.1 411c-10.6 0-19.1-8.6-19.1-19.1 0-6.4 3.2-12.3 8.4-15.9-5.2-3.5-8.4-9.4-8.4-15.9 0-10.6 8.6-19.1 19.1-19.1 8.3 0 16.4 3 22.7 8.4l26.4 22.8c1.1.9 1.7 2.3 1.7 3.8s-.6 2.8-1.7 3.8l-26.4 22.8c-6.3 5.4-14.3 8.4-22.7 8.4zm0-60c-5 0-9.1 4.1-9.1 9.1 0 3.6 2.2 6.9 5.5 8.4l6.6 2.9c1.8.8 3 2.6 3 4.6s-1.2 3.8-3 4.6l-6.6 2.9c-3.3 1.5-5.5 4.7-5.5 8.4 0 5 4.1 9.1 9.1 9.1 5.9 0 11.7-2.1 16.2-6l22-19-22-19c-4.5-3.9-10.2-6-16.2-6z" fill="#1d4925"/></g></g></g><g id="XMLID_665_"><path id="XMLID_3198_" d="m171 511h-36c-74.4 0-135-60.6-135-135s60.6-135 135-135h36c74.4 0 135 60.6 135 135s-60.6 135-135 135zm-36-260c-68.9 0-125 56.1-125 125s56.1 125 125 125h36c68.9 0 125-56.1 125-125s-56.1-125-125-125z" fill="#1d4925"/></g><g id="XMLID_836_"><path id="XMLID_3195_" d="m65 232c-2.8 0-5-2.2-5-5 0-8.3-6.7-15-15-15-2.8 0-5-2.2-5-5s2.2-5 5-5c8.3 0 15-6.7 15-15 0-2.8 2.2-5 5-5s5 2.2 5 5c0 8.3 6.7 15 15 15 2.8 0 5 2.2 5 5s-2.2 5-5 5c-8.3 0-15 6.7-15 15 0 2.8-2.2 5-5 5zm-5-25c1.9 1.4 3.6 3.1 5 5 1.4-1.9 3.1-3.6 5-5-1.9-1.4-3.6-3.1-5-5-1.4 1.9-3.1 3.6-5 5z" fill="#1d4925"/></g><g id="XMLID_835_"><path id="XMLID_3192_" d="m447 114c-2.8 0-5-2.2-5-5 0-8.3-6.7-15-15-15-2.8 0-5-2.2-5-5s2.2-5 5-5c8.3 0 15-6.7 15-15 0-2.8 2.2-5 5-5s5 2.2 5 5c0 8.3 6.7 15 15 15 2.8 0 5 2.2 5 5s-2.2 5-5 5c-8.3 0-15 6.7-15 15 0 2.8-2.2 5-5 5zm-5-25c1.9 1.4 3.6 3.1 5 5 1.4-1.9 3.1-3.6 5-5-1.9-1.4-3.6-3.1-5-5-1.4 1.9-3.1 3.6-5 5z" fill="#1d4925"/></g></g></g></svg>