<svg height="512" viewBox="0 0 24 24" width="512" xmlns="http://www.w3.org/2000/svg"><g id="Layer_2" data-name="Layer 2"><g fill="#49adf4"><circle cx="12" cy="12" r="8"/><path d="m12 22.75a10.75 10.75 0 0 1 0-21.5.75.75 0 0 1 0 1.5 9.25 9.25 0 1 0 9.25 9.25.75.75 0 0 1 1.5 0 10.762 10.762 0 0 1 -10.75 10.75z"/><path d="m13.53 1.36a11.133 11.133 0 0 0 -1.53-.11.75.75 0 0 0 0 1.5 9.759 9.759 0 0 1 1.32.09.34.34 0 0 0 .1.01.762.762 0 0 0 .75-.64.761.761 0 0 0 -.64-.85zm4.91 2.03a10.331 10.331 0 0 0 -1.83-1.1.749.749 0 0 0 -.65 1.35 8.717 8.717 0 0 1 1.58.95.7.7 0 0 0 .45.15.726.726 0 0 0 .6-.3.75.75 0 0 0 -.15-1.05zm3.34 4.14a11.037 11.037 0 0 0 -1.08-1.85.751.751 0 0 0 -1.05-.16.741.741 0 0 0 -.17 1.04 9.189 9.189 0 0 1 .94 1.6.736.736 0 0 0 .68.43.853.853 0 0 0 .31-.06.757.757 0 0 0 .37-1zm.88 3.09a.751.751 0 1 0 -1.49.19 9.388 9.388 0 0 1 .08 1.19c0 .19-.01.37-.02.56v.1a.749.749 0 0 0 .69.8h.06a.736.736 0 0 0 .74-.69c.02-.26.03-.51.03-.77a10.544 10.544 0 0 0 -.09-1.38zm-1.07 4.31a.749.749 0 0 0 -.97.43c-.06.14-.11.28-.18.42-.05.13-.11.25-.17.37a.01.01 0 0 0 -.01.01c-.04.08-.08.16-.13.24a3.839 3.839 0 0 1 -.22.39 2.392 2.392 0 0 1 -.13.21.758.758 0 0 0 .23 1.04.732.732 0 0 0 1-.19c.01 0 .01-.01.02-.02a.035.035 0 0 0 .01-.02 10.434 10.434 0 0 0 .98-1.91.09.09 0 0 0 .01-.05.742.742 0 0 0 -.44-.92zm-2.58 4.24a.736.736 0 0 0 -1.05-.09c-.03.02-.05.04-.08.06a8.162 8.162 0 0 1 -.66.5c-.26.17-.52.34-.79.48a.753.753 0 0 0 -.29 1.02.734.734 0 0 0 .65.39.67.67 0 0 0 .31-.07c.02 0 .03-.01.05-.02.14-.08.28-.16.42-.25s.27-.17.41-.26c.16-.1.3-.21.45-.32a5.98 5.98 0 0 0 .49-.39l.02-.02a.738.738 0 0 0 .07-1.03zm-4.29 2.49a.742.742 0 0 0 -.88-.59c-.14.03-.29.05-.43.07-.12.02-.24.04-.36.05a9.24 9.24 0 0 1 -1.05.06.75.75 0 0 0 0 1.5c.2 0 .4-.01.6-.01.28-.02.55-.05.82-.09l.25-.03c.16-.02.31-.05.46-.08.01 0 .03-.01.04-.01s.01 0 .02-.01a.733.733 0 0 0 .53-.86z"/></g><path d="m14 14.75a.744.744 0 0 1 -.53-.22l-2-2a.747.747 0 0 1 -.22-.53v-4a.75.75 0 0 1 1.5 0v3.689l1.78 1.781a.75.75 0 0 1 -.53 1.28z" fill="#fff"/><path d="m12 22.75a.75.75 0 0 1 0-1.5 9.376 9.376 0 0 0 1.838-.183.75.75 0 0 1 .295 1.471 10.82 10.82 0 0 1 -2.133.212zm4.8-1.222a.75.75 0 0 1 -.361-1.408 9.269 9.269 0 0 0 1.523-1.043.75.75 0 0 1 .967 1.147 10.815 10.815 0 0 1 -1.77 1.213.751.751 0 0 1 -.359.091zm3.617-3.371a.739.739 0 0 1 -.4-.119.75.75 0 0 1 -.235-1.038 9.276 9.276 0 0 0 .839-1.646.751.751 0 0 1 1.4.545 10.83 10.83 0 0 1 -.976 1.912.75.75 0 0 1 -.633.346zm1.564-4.693h-.054a.749.749 0 0 1 -.7-.8q.023-.327.023-.661a9.325 9.325 0 0 0 -.075-1.186.75.75 0 0 1 1.488-.191 10.832 10.832 0 0 1 .087 1.374c0 .258-.01.514-.027.767a.751.751 0 0 1 -.747.697zm-.881-4.864a.748.748 0 0 1 -.682-.438 9.371 9.371 0 0 0 -.933-1.594.75.75 0 0 1 1.215-.887 10.805 10.805 0 0 1 1.08 1.851.748.748 0 0 1 -.369.994.737.737 0 0 1 -.311.074zm-3.109-3.856a.748.748 0 0 1 -.449-.15 9.143 9.143 0 0 0 -1.579-.953.75.75 0 0 1 .642-1.356 10.625 10.625 0 0 1 1.837 1.115.749.749 0 0 1 -.451 1.349zm-4.567-1.893a.671.671 0 0 1 -.108-.008 9.287 9.287 0 0 0 -1.316-.093.75.75 0 0 1 0-1.5 10.812 10.812 0 0 1 1.529.108.75.75 0 0 1 -.105 1.493z" fill="#127fb5"/><path d="m12 22.75a10.75 10.75 0 0 1 0-21.5.75.75 0 0 1 0 1.5 9.25 9.25 0 1 0 9.25 9.25.75.75 0 0 1 1.5 0 10.762 10.762 0 0 1 -10.75 10.75z" fill="#127fb5"/></g></svg>