<svg id="Layer_6" height="512" viewBox="0 0 32 32" width="512" xmlns="http://www.w3.org/2000/svg" data-name="Layer 6"><g id="User"><path d="m17.07 1.11c-.35 0-.7 0-1.07 0a14.93 14.93 0 0 0 -10.09 25.89 10 10 0 0 1 .67-1.55 10.64 10.64 0 0 1 9.42-5.69c.36 0 .71 0 1.07.05a10.65 10.65 0 0 1 9 7.18 13.34 13.34 0 0 0 1.46-1.55 14.92 14.92 0 0 0 -10.46-24.33z" fill="#e8ecec"/><path d="m3.2 16a14.85 14.85 0 0 0 3.38 9.45 10 10 0 0 0 -.67 1.55 14.93 14.93 0 0 1 10.09-25.93h1.07a14.94 14.94 0 0 0 -13.87 14.93z" fill="#d9dfdf"/><path d="m17.08 5.44a4.93 4.93 0 0 0 -1.08-.11 5.33 5.33 0 0 0 0 10.67 4.93 4.93 0 0 0 1.06-.11 5.34 5.34 0 0 0 0-10.45z" fill="#a0b4de"/><path d="m17.07 19.82c-.35 0-.7-.05-1.07-.05a10.66 10.66 0 0 0 -10.09 7.23 14.88 14.88 0 0 0 10.09 3.93h1.07a14.85 14.85 0 0 0 9-3.89 10.65 10.65 0 0 0 -9-7.22z" fill="#a0b4de"/><path d="m8 27a14.85 14.85 0 0 0 9 3.89c-.35 0-.7 0-1.07 0a14.88 14.88 0 0 1 -10.02-3.89 10.66 10.66 0 0 1 10.09-7.24c.36 0 .71 0 1.07.05a10.65 10.65 0 0 0 -9.07 7.19z" fill="#88a1d6"/><path d="m17.06 15.89a4.93 4.93 0 0 1 -1.06.11 5.33 5.33 0 0 1 0-10.67 4.93 4.93 0 0 1 1.06.11 5.34 5.34 0 0 0 0 10.45z" fill="#88a1d6"/><g fill="#393e46"><path d="m16 17.07a6.47 6.47 0 0 1 -6.4-6.4 6.47 6.47 0 0 1 6.4-6.4 6.4 6.4 0 1 1 0 12.8zm-.92-2.23a4.18 4.18 0 0 0 .92.1 4.27 4.27 0 1 0 0-8.54 4.27 4.27 0 0 0 -.92 8.44z"/><path d="m16 0c-.4 0-.78 0-1.14 0a16 16 0 0 0 -9.67 27.78 1.08 1.08 0 0 0 1.73-.44 9.58 9.58 0 0 1 16-3.57 1.07 1.07 0 0 0 1.54-1.48 11.71 11.71 0 0 0 -18.91 2.82 13.86 13.86 0 0 1 9.45-22.94h1a13.88 13.88 0 0 1 13.87 13.83c0 7.81-7 14.55-14.85 13.83a14.19 14.19 0 0 1 -4.43-1.06 1.07 1.07 0 0 0 -.83 2 16.28 16.28 0 0 0 5.08 1.23 15.89 15.89 0 0 0 12-4.17c.33-.31.66-.63 1-1a16 16 0 0 0 -11.84-26.83z"/></g></g></svg>