<svg id="Capa_1" enable-background="new 0 0 512 512" height="512" viewBox="0 0 512 512" width="512" xmlns="http://www.w3.org/2000/svg" xmlns:xlink="http://www.w3.org/1999/xlink"><linearGradient id="SVGID_1_" gradientTransform="matrix(1 0 0 -1 0 512)" gradientUnits="userSpaceOnUse" x1="256" x2="256" y1="0" y2="512"><stop offset="0" stop-color="#ffbef9"/><stop offset="1" stop-color="#fff1ff"/></linearGradient><linearGradient id="SVGID_2_" gradientTransform="matrix(1 0 0 -1 0 512)" gradientUnits="userSpaceOnUse" x1="256" x2="256" y1="105" y2="407.001"><stop offset="0" stop-color="#ff81ff"/><stop offset="1" stop-color="#a93aff"/></linearGradient><g><g><g><g><circle cx="256" cy="256" fill="url(#SVGID_1_)" r="256"/></g></g><g><g><path d="m318.176 113.886c0-3.591-2.16-6.835-5.482-8.206-3.313-1.388-7.139-.607-9.68 1.925l-26.812 26.812-12.256-24.504c-3.019-6.02-12.872-6.02-15.891 0l-12.256 24.504-26.812-26.812c-2.542-2.533-6.349-3.296-9.68-1.925-3.322 1.37-5.482 4.614-5.482 8.206v62.175h124.351zm-62.176 150.998c34.28 0 62.176-27.896 62.176-62.176v-8.882h-124.352v8.882c0 16.576 6.471 32.189 18.233 43.943 11.754 11.762 27.367 18.233 43.943 18.233zm0 17.764c-4.905 0-8.882 3.976-8.882 8.882 0 4.905 3.977 8.882 8.882 8.882s8.882-3.977 8.882-8.882-3.977-8.882-8.882-8.882zm0 35.53c-4.905 0-8.882 3.976-8.882 8.882 0 4.905 3.977 8.882 8.882 8.882s8.882-3.977 8.882-8.882c0-4.907-3.977-8.882-8.882-8.882zm95.102-15.163-35.529-35.529c-2.082-2.082-5.04-2.975-7.963-2.446-2.888.564-5.317 2.516-6.479 5.23l-45.131 105.307-45.131-105.307c-1.162-2.715-3.591-4.667-6.479-5.23-2.941-.529-5.881.365-7.963 2.446l-35.529 35.529c-3.47 3.47-3.47 9.091 0 12.56l88.822 88.823c.412.412 3.356 2.602 6.28 2.602s5.868-2.19 6.28-2.602l88.822-88.823c3.47-3.469 3.47-9.09 0-12.56z" fill="url(#SVGID_2_)"/></g></g></g></g></svg>