<?xml version="1.0" encoding="UTF-8"?>
<svg xmlns="http://www.w3.org/2000/svg" viewBox="0 0 32 32" width="512" height="512"><g id="Browser"><circle cx="16" cy="16" r="15" fill="#50cca6"/><path d="M16,0A16,16,0,1,0,27.34,27.27a.00979.00979,0,0,0,.00995-.01A15.98774,15.98774,0,0,0,16,0ZM11.44,2.78A14.57513,14.57513,0,0,0,9.68,6.1a18.31886,18.31886,0,0,1-2.54-.93A13.72649,13.72649,0,0,1,11.44,2.78ZM5.6,6.66A22.41665,22.41665,0,0,0,9.05,8a29.10435,29.10435,0,0,0-1.03,7H2.05A13.94014,13.94014,0,0,1,5.6,6.66ZM2.05,17H8.02a29.10435,29.10435,0,0,0,1.03,7A22.41665,22.41665,0,0,0,5.6,25.34,13.94014,13.94014,0,0,1,2.05,17Zm5.09,9.83a18.31886,18.31886,0,0,1,2.54-.93A14.57513,14.57513,0,0,0,11.44,29.22,13.72649,13.72649,0,0,1,7.14,26.83ZM15,29.76c-1.22-.55-2.43-2.08-3.35-4.34A23.05266,23.05266,0,0,1,15,25.03Zm0-6.73a24.027,24.027,0,0,0-4,.49A26.79215,26.79215,0,0,1,10.02,17H15ZM15,15H10.02A26.79215,26.79215,0,0,1,11,8.48a24.027,24.027,0,0,0,4,.49Zm0-8.03A23.05266,23.05266,0,0,1,11.65,6.58c.92-2.26,2.13-3.79,3.35-4.34ZM29.95,15H23.98a29.10435,29.10435,0,0,0-1.03-7A22.41665,22.41665,0,0,0,26.4,6.66,13.94014,13.94014,0,0,1,29.95,15ZM24.86,5.17a18.31886,18.31886,0,0,1-2.54.93,14.57513,14.57513,0,0,0-1.76-3.32A13.72649,13.72649,0,0,1,24.86,5.17ZM17,2.24c1.22.55,2.43,2.08,3.35,4.34A23.05266,23.05266,0,0,1,17,6.97Zm0,6.73a24.027,24.027,0,0,0,4-.49A26.79215,26.79215,0,0,1,21.98,15H17ZM17,17h4.98A26.79215,26.79215,0,0,1,21,23.52a24.027,24.027,0,0,0-4-.49Zm0,12.76V25.03a23.05266,23.05266,0,0,1,3.35.38995C19.43,27.68,18.22,29.21,17,29.76Zm3.56-.54A14.57513,14.57513,0,0,0,22.32,25.9a18.31886,18.31886,0,0,1,2.54.93A13.72649,13.72649,0,0,1,20.56,29.22ZM26.4,25.34A22.41665,22.41665,0,0,0,22.95,24a29.10435,29.10435,0,0,0,1.03-7h5.97A13.94014,13.94014,0,0,1,26.4,25.34Z" fill="#352e3a"/></g></svg>
