<svg id="Layer_1" enable-background="new 0 0 468.009 468.009" height="512" viewBox="0 0 468.009 468.009" width="512" xmlns="http://www.w3.org/2000/svg"><g><path d="m68.613 392.808 318.882-10.291c24.67-.801 44.048-23.041 43.364-49.777l-5.376-207.566c-.722-27.966-11.184-64.308-57.891-65.933-.173.039-4.616-1.063-11.037-.481l-313.539 28.317c-23.196 2.102-40.999 23.056-40.988 48.28.021 135.165.015 79.462.023 189.542.002 4.932.69 9.678 1.95 14.166l-.008.013c3.062 44.088 39.252 54.545 64.62 53.73z" fill="#a3a3f5"/><path d="m53.072 288.613.552 23.444c.26 11.043 8.735 19.8 18.929 19.559l90.443-2.131c10.194-.24 18.247-9.387 17.987-20.429l-.622-26.384c-.266-11.278-9.084-20.121-19.482-19.537l-90.374 5.071c-9.966.559-17.688 9.598-17.433 20.407z" fill="#fae26b"/><path d="m2.045 240.355c.019.1-4.927.211 402.378-16.397l-2.344-90.508-400.048 19.734z" fill="#52528c"/><path d="m196.458 83.961-35.069 311.436c2.929 47.51 37.393 57.037 63.705 56.904l195.271-.992c25.154-.128 45.481-20.549 45.492-45.703l.152-325.028c.012-25.851-10.906-62.384-52.432-64.119l-172.965 24.263c-23.705.78-42.878 19.556-44.154 43.239z" fill="#a3a3f5"/><path d="m177.866 64.027-17.255 320.155c-1.416 26.274 19.579 48.318 45.891 48.185l195.271-.992c25.154-.128 45.481-20.549 45.492-45.703l.152-325.028c.012-25.851-21.392-46.572-47.229-45.721l-178.168 5.865c-23.705.78-42.878 19.556-44.154 43.239z" fill="#c5c5fe"/><g><path d="m356.955 398.73c-1.128 0-2.019-.925-2.001-2.031l5.309-334.477c.018-1.094.91-1.969 1.999-1.969 1.128 0 2.019.925 2.001 2.031l-5.309 334.477c-.017 1.094-.91 1.969-1.999 1.969z" fill="#52528c"/></g><g><path d="m399.739 406.239c-1.101 0-1.995-.89-2-1.991l-.86-206.735c-.005-1.105.887-2.004 1.991-2.009 1.135.026 2.004.887 2.009 1.991l.86 206.735c.004.812-.626 2.009-2 2.009z" fill="#52528c"/></g><path d="m243.129 396.003 44.107-.838c10.71-.203 19.404-8.72 19.828-19.424l3.425-86.449c.483-12.187-9.849-22.027-21.998-20.95l-44.784 3.969c-10.184.903-18.094 9.263-18.431 19.482l-2.749 83.317c-.381 11.58 9.019 21.113 20.602 20.893z" fill="#fae26b"/></g><g><path d="m413.804 14.468c-11.706-1.277 13.756-1.589-191.851 4.324-24.936.82-44.746 20.222-46.082 45.131l-.496 9.191-132.537 11.975c-24.416 2.21-42.819 23.822-42.81 50.271.04 205.726-.367 194.116.976 204.859 1.413 20.37 9.96 35.435 25.402 44.774 12.406 7.504 27.947 10.27 42.267 9.815l90.172-2.909c.141 1.293.319 2.581.565 3.853 2.502 39.186 27.118 58.768 65.689 58.547l195.28-.99c26.17-.135 47.47-21.533 47.479-47.699l.15-325.029c.013-30.83-14.227-64.369-54.204-66.113zm-409.776 120.891c-.01-24.365 16.83-44.265 39.17-46.286l131.96-11.923-3.54 65.661-167.588 8.268zm.003 19.725 167.371-8.256-4.573 84.818-162.78 6.631c-.019-78.246-.016-62.624-.018-83.193zm155.752 207.256-85.629 2.761c-1.104.036-1.97.96-1.935 2.063.037 1.132 1.003 1.983 2.063 1.935l85.284-2.75c-1.062 19.69-1.064 18.692-.992 21.557l-90.03 2.905c-14.068.447-60.118-1.895-63.547-50.814-.002-.049-.005-.098-.01-.146-1.336-12.685-.939-7.343-.948-97.57l162.573-6.623-1.389 25.765c-3.227-.583 4.163-.773-94.827 4.78-11.114.625-19.604 10.487-19.327 22.455l.561 23.449c.285 12.201 9.624 21.518 20.505 21.518.334 0-4.902.121 89.31-2.108zm-87.281-32.719c-9.436.12-16.646-7.948-16.874-17.608l-.561-23.448c-.227-9.797 6.605-17.864 15.554-18.367 98.442-5.522 91.535-5.37 94.386-4.755l-3.346 62.07zm391.356 75.988c-.01 23.974-19.523 43.577-43.5 43.701l-195.279.99c-36.985.199-59.351-17.791-61.685-54.896-.053-.86-1.125-4.88-.789-11.116l17.26-320.15c1.224-22.821 19.374-40.597 42.211-41.348l177.59-5.107c9.137-.294 13.001.762 13.886.778 37.22 1.578 50.468 33.12 50.457 62.119z"/><path d="m447.399 103.099c-1.104 0-1.999.895-2 1.999l-.13 280.57c-.019 23.983-19.537 43.588-43.51 43.701l-150.75.771c-1.105.006-1.996.905-1.99 2.01.006 1.102.9 1.99 2 1.99.786 0-6.812.035 150.76-.771 26.166-.124 47.47-21.521 47.49-47.698l.13-280.571c0-.815-.63-2.001-2-2.001z"/><path d="m356.922 398.73c1.171 0 2.015-.912 2.032-1.969l5.309-334.477c.018-1.104-.864-2.014-1.968-2.031-1.171 0-2.015.912-2.032 1.969l-5.309 334.477c-.017 1.104.864 2.014 1.968 2.031z"/><path d="m399.739 406.239c.812 0 2.006-.637 2-2.009l-.86-206.735c-.005-1.104-.874-1.965-2.009-1.991-1.104.005-1.996.903-1.991 2.009l.86 206.735c.005 1.101.9 1.991 2 1.991z"/><path d="m309.063 375.821 3.425-86.449c.531-13.345-10.775-24.191-24.173-23.021l-44.783 3.97c-11.176.991-19.883 10.195-20.254 21.408l-2.749 83.316c-.419 12.688 9.77 22.962 22.201 22.962.357 0-2.185.046 44.545-.841 11.751-.225 21.322-9.6 21.788-21.345zm-65.972 18.182c-10.061.245-18.92-8.07-18.564-18.825l2.749-83.316c.304-9.196 7.444-16.744 16.609-17.557l44.783-3.97c10.881-.967 20.26 7.843 19.823 18.879l-3.425 86.449c-.383 9.631-8.231 17.319-17.868 17.503z"/></g></svg>