<svg enable-background="new 0 0 512 512" height="512" viewBox="0 0 512 512" width="512" xmlns="http://www.w3.org/2000/svg"><g id="_x33_0_Businessman_x2C__consultant_x2C__manager_x2C__time_x2C__human"><g id="XMLID_1463_"><path id="XMLID_868_" d="m206 375.998c0 49.794-40.378 90-90 90-49.705 0-90-40.279-90-90 0-49.705 40.279-90 90-90 50.008 0 90 40.595 90 90z" fill="#fbf3f3"/><path id="XMLID_867_" d="m426 485.998h-60l-40-130c.109-.039 89.888-32.459 90-32.5 40.97 16 70 55.86 70 102.5v60z" fill="#80aaff"/><path id="XMLID_866_" d="m166 485.998v-35.16c35.166-23.492 48.303-67.283 34.78-105.09 10.13-9.5 22.05-17.1 35.22-22.24.135.049 89.891 32.451 90 32.49l-40 130c-14.518 0-105.386 0-120 0z" fill="#80aaff"/><path id="XMLID_865_" d="m326 355.998 40 130h-80z" fill="#ff884d"/><path id="XMLID_864_" d="m376 315.998c14.11 0 27.6 2.66 40 7.5l-30 72.5-60-40z" fill="#fbf3f3"/><path id="XMLID_863_" d="m326 355.998-60 40-30-72.49c12.4-4.85 25.89-7.51 40-7.51z" fill="#fbf3f3"/><path id="XMLID_862_" d="m176 205.998 20 30h-20c-6.904 0-143.077 0-150 0v-160h150z" fill="#53e261"/><g fill="#ffc8bd"><path id="XMLID_861_" d="m416 165.998c11.05 0 20 8.95 20 20 0 11.04-8.96 20-20 20h-10v-40z"/><path id="XMLID_860_" d="m246 165.998v40h-10c-11.04 0-20-8.96-20-20 0-11.05 8.95-20 20-20z"/><path id="XMLID_859_" d="m376 268.448v47.55l-50 40-50-40v-47.55c29.142 23.373 70.766 23.447 100 0z"/></g><path id="XMLID_858_" d="m326 285.998c-44.34 0-80-35.982-80-80 0-28.049 0-53.096 0-76 7.5 3.84 16 6 25 6h135v70c0 44.179-35.818 80-80 80z" fill="#ffddce"/><path id="XMLID_857_" d="m406 121.668v14.33h-130-5c-9 0-17.5-2.16-25-6-5.15-2.63-9.84-6.06-13.89-10.11-9.95-9.95-16.11-23.7-16.11-38.89 0-30.38 24.62-55 55-55h5c0 22.09 17.91 40 40 40h34.33c30.75 0 55.67 24.92 55.67 55.67z" fill="#b35324"/><path id="XMLID_856_" d="m406 175.998c-5.522 0-10-4.477-10-10v-30c0-5.523 4.478-10 10-10s10 4.477 10 10v30c0 5.523-4.478 10-10 10z"/><path id="XMLID_855_" d="m326 295.998c-20.398 0-40.377-7.014-56.256-19.749-21.444-17.187-33.744-42.794-33.744-70.251 0-5.523 4.477-10 10-10s10 4.477 10 10c0 21.355 9.569 41.274 26.254 54.647 12.524 10.044 27.651 15.353 43.746 15.353s31.222-5.308 43.743-15.351c2.014-1.611 3.947-3.341 5.756-5.15 13.22-13.229 20.501-30.809 20.501-49.499 0-5.523 4.478-10 10-10s10 4.477 10 10c0 24.03-9.36 46.63-26.357 63.638-2.33 2.331-4.817 4.557-7.396 6.62-15.87 12.728-35.849 19.742-56.247 19.742z"/><path id="XMLID_854_" d="m246 175.998c-5.523 0-10-4.477-10-10v-36c0-5.523 4.477-10 10-10s10 4.477 10 10v36c0 5.523-4.477 10-10 10z"/><path id="XMLID_1515_" d="m406 145.998h-135c-10.266 0-20.486-2.455-29.557-7.099-6.049-3.089-11.571-7.108-16.404-11.94-12.278-12.278-19.039-28.6-19.039-45.961 0-35.841 29.159-65 65-65h5c5.522 0 10 4.477 10 10 0 16.542 13.458 30 30 30h34.33c36.211 0 65.67 29.459 65.67 65.67v14.33c0 5.523-4.478 10-10 10zm-138.96-109.827c-22.965 2.012-41.04 21.348-41.04 44.827 0 12.019 4.681 23.319 13.181 31.819 3.35 3.35 7.175 6.134 11.367 8.275 6.362 3.257 13.24 4.906 20.452 4.906h125v-4.33c0-25.183-20.487-45.67-45.67-45.67h-34.33c-24.085 0-44.248-17.119-48.96-39.827z"/><path id="XMLID_1512_" d="m416 215.998h-10c-5.522 0-10-4.477-10-10v-40c0-5.523 4.478-10 10-10h10c16.542 0 30 13.458 30 30 0 8.01-3.121 15.544-8.789 21.211-5.669 5.668-13.201 8.789-21.211 8.789zm0-40v20c5.521 0 10-4.479 10-10 0-5.514-4.486-10-10-10z"/><path id="XMLID_1509_" d="m246 215.998h-10c-8.01 0-15.543-3.121-21.211-8.788-5.668-5.669-8.789-13.202-8.789-21.212 0-16.542 13.458-30 30-30h10c5.523 0 10 4.477 10 10v40c0 5.523-4.477 10-10 10zm-10-40c-5.514 0-10 4.486-10 10 0 2.669 1.041 5.179 2.932 7.069 1.89 1.89 4.4 2.931 7.068 2.931z"/><path id="XMLID_847_" d="m426 495.998c-5.522 0-10-4.478-10-10v-40c0-5.522 4.478-10 10-10s10 4.478 10 10v40c0 5.523-4.478 10-10 10z"/><path id="XMLID_846_" d="m226 495.998c-5.523 0-10-4.478-10-10v-40c0-5.522 4.477-10 10-10s10 4.478 10 10v40c0 5.523-4.477 10-10 10z"/><path id="XMLID_845_" d="m380.453 404.318-60-40c-2.654-1.77-4.306-4.699-4.443-7.887-.139-3.188 1.252-6.249 3.743-8.242l50-40c4.311-3.449 10.604-2.752 14.056 1.561 3.45 4.313 2.751 10.605-1.561 14.056l-39.321 31.457 38.489 25.659 25.345-61.248c2.112-5.104 7.963-7.53 13.063-5.417 5.103 2.111 7.528 7.961 5.417 13.063l-30 72.5c-1.145 2.766-3.467 4.873-6.331 5.744-2.847.867-5.952.424-8.457-1.246z"/><path id="XMLID_844_" d="m263.091 405.565c-2.863-.871-5.186-2.979-6.331-5.743l-30-72.49c-.501-1.213-.76-2.512-.76-3.824 0-5.522 4.477-10.005 10-10.005 4.292 0 7.954 2.702 9.372 6.499l25.212 60.922 38.49-25.66-39.321-31.457c-4.313-3.45-5.012-9.743-1.561-14.056s9.745-5.012 14.056-1.561l50 40c2.491 1.993 3.882 5.055 3.743 8.242-.138 3.188-1.789 6.117-4.443 7.887l-60 40c-2.472 1.647-5.573 2.124-8.457 1.246z"/><path id="XMLID_843_" d="m283.06 495.556c-5.279-1.624-8.241-7.22-6.617-12.498l40-130c1.623-5.278 7.22-8.242 12.498-6.617 5.279 1.624 8.241 7.22 6.617 12.498l-40 130c-1.628 5.293-7.236 8.238-12.498 6.617z"/><path id="XMLID_842_" d="m356.442 488.938-40-130c-1.624-5.278 1.338-10.874 6.617-12.498 5.275-1.629 10.874 1.338 12.498 6.617l40 130c1.624 5.278-1.338 10.874-6.617 12.498-5.289 1.632-10.879-1.353-12.498-6.617z"/><path id="XMLID_841_" d="m346 235.998h-40c-5.522 0-10-4.477-10-10s4.478-10 10-10h40c5.522 0 10 4.477 10 10s-4.478 10-10 10z"/><path id="XMLID_1499_" d="m196 245.998h-170c-5.523 0-10-4.477-10-10v-160c0-5.523 4.477-10 10-10h150c5.523 0 10 4.477 10 10v126.972l18.32 27.481c2.046 3.068 2.237 7.014.497 10.266-1.74 3.251-5.129 5.281-8.817 5.281zm-160-20h141.315l-9.635-14.453c-1.095-1.643-1.68-3.573-1.68-5.547v-120h-130z"/><path id="XMLID_838_" d="m136 205.998h-70c-5.523 0-10-4.477-10-10s4.477-10 10-10h70c5.523 0 10 4.477 10 10s-4.477 10-10 10z"/><path id="XMLID_837_" d="m136 165.998h-30c-5.523 0-10-4.477-10-10s4.477-10 10-10h30c5.523 0 10 4.477 10 10s-4.477 10-10 10z"/><path id="XMLID_836_" d="m136 125.998h-30c-5.523 0-10-4.477-10-10s4.477-10 10-10h30c5.523 0 10 4.477 10 10s-4.477 10-10 10z"/><path id="XMLID_835_" d="m76 125.998h-10c-5.523 0-10-4.477-10-10s4.477-10 10-10h10c5.523 0 10 4.477 10 10s-4.477 10-10 10z"/><path id="XMLID_834_" d="m76 165.998h-10c-5.523 0-10-4.477-10-10s4.477-10 10-10h10c5.523 0 10 4.477 10 10s-4.477 10-10 10z"/><path id="XMLID_833_" d="m200.782 355.748c-2.667 0-5.328-1.06-7.296-3.159-3.778-4.029-3.575-10.357.454-14.135 11.228-10.529 24.155-18.692 38.424-24.262 10.804-4.225 22.081-6.833 33.636-7.784v-37.96c0-5.523 4.477-10.01 10-10.01 5.522 0 10 4.467 10 9.99v47.57c0 5.522-4.478 10-10 10-12.549 0-24.782 2.296-36.357 6.823-11.891 4.641-22.662 11.443-32.022 20.221-1.93 1.81-4.388 2.706-6.839 2.706z"/><path id="XMLID_832_" d="m486 495.998h-320c-5.523 0-10-4.478-10-10v-35.16c0-5.522 4.477-10 10-10s10 4.478 10 10v25.16h300v-50c0-56.069-45.208-100-100-100-5.522 0-10-4.478-10-10v-47.55c0-5.523 4.478-10.01 10-10.01s10 4.467 10 9.99v37.979c11.548.951 22.823 3.555 33.636 7.775 45.236 17.667 76.364 61.459 76.364 111.816v60c0 5.523-4.478 10-10 10z"/><path id="XMLID_1485_" d="m116 475.998c-55.259 0-100-44.699-100-100 0-26.724 10.402-51.837 29.291-70.713 18.873-18.885 43.986-29.287 70.709-29.287s51.836 10.402 70.713 29.291c10.454 10.454 18.577 23.287 23.489 37.11 3.844 10.748 5.797 22.059 5.797 33.599 0 26.724-10.402 51.837-29.291 70.713-4.634 4.634-9.733 8.82-15.154 12.442-16.445 11.018-35.659 16.845-55.554 16.845zm0-180c-21.378 0-41.467 8.32-56.567 23.43-15.113 15.102-23.433 35.191-23.433 56.57 0 44.206 35.759 80 80 80 15.917 0 31.283-4.657 44.434-13.468 4.345-2.902 8.424-6.253 12.135-9.964 15.111-15.1 23.431-35.189 23.431-56.568 0-9.237-1.56-18.282-4.636-26.882-3.931-11.061-10.427-21.319-18.795-29.687-15.102-15.111-35.191-23.431-56.569-23.431z"/><path id="XMLID_829_" d="m116 315.998c-5.523 0-10-4.478-10-10v-20c0-5.522 4.477-10 10-10s10 4.478 10 10v20c0 5.523-4.477 10-10 10z"/><path id="XMLID_828_" d="m116 475.998c-5.523 0-10-4.478-10-10v-20c0-5.522 4.477-10 10-10s10 4.478 10 10v20c0 5.523-4.477 10-10 10z"/><path id="XMLID_827_" d="m206 385.998h-20c-5.523 0-10-4.478-10-10s4.477-10 10-10h20c5.523 0 10 4.478 10 10s-4.477 10-10 10z"/><path id="XMLID_826_" d="m46 385.998h-20c-5.523 0-10-4.478-10-10s4.477-10 10-10h20c5.523 0 10 4.478 10 10s-4.477 10-10 10z"/><path id="XMLID_825_" d="m165.5 336.498c-2.56 0-5.118-.977-7.071-2.929-3.905-3.905-3.905-10.237.001-14.143l14.14-14.14c3.905-3.904 10.237-3.903 14.142 0 3.905 3.905 3.905 10.237 0 14.143l-14.14 14.14c-1.953 1.952-4.513 2.929-7.072 2.929z"/><path id="XMLID_824_" d="m45.289 446.709c-3.905-3.905-3.905-10.237 0-14.143l14.14-14.14c3.905-3.904 10.237-3.903 14.142 0 3.905 3.905 3.905 10.237 0 14.143l-14.14 14.14c-3.906 3.905-10.236 3.904-14.142 0z"/><path id="XMLID_823_" d="m179.64 449.638c-2.559 0-5.118-.977-7.071-2.929l-14.14-14.14c-3.905-3.905-3.906-10.237-.001-14.143 3.905-3.904 10.237-3.904 14.142 0l14.14 14.14c3.905 3.905 3.906 10.237 0 14.143-1.951 1.952-4.511 2.929-7.07 2.929z"/><path id="XMLID_822_" d="m66.5 336.498c-2.559 0-5.118-.977-7.071-2.929l-14.14-14.14c-3.905-3.905-3.906-10.237 0-14.143 3.905-3.904 10.237-3.904 14.142 0l14.14 14.14c3.905 3.905 3.906 10.237 0 14.143-1.952 1.952-4.512 2.929-7.071 2.929z"/><path id="XMLID_821_" d="m136 385.998h-20c-5.523 0-10-4.478-10-10v-30c0-5.522 4.477-10 10-10s10 4.478 10 10v20h10c5.523 0 10 4.478 10 10s-4.477 10-10 10z"/></g></g></svg>