<?xml version="1.0" encoding="iso-8859-1"?>
<!-- Generator: Adobe Illustrator 19.0.0, SVG Export Plug-In . SVG Version: 6.00 Build 0)  -->
<svg version="1.1" id="Capa_1" xmlns="http://www.w3.org/2000/svg" xmlns:xlink="http://www.w3.org/1999/xlink" x="0px" y="0px"
	 viewBox="0 0 512.004 512.004" style="enable-background:new 0 0 512.004 512.004;" xml:space="preserve">
<g transform="translate(-1)">
	<g transform="translate(1 1)">
		<path style="fill:#AD1457;" d="M486.409,272.579c0.063,74.21-35.726,143.879-96.085,187.051l-0.171-0.256
			c-38.763,27.892-85.28,42.96-133.035,43.093h-1.109c-4.267,0-8.533-0.085-12.8-0.427c-97.046-5.36-180.28-71.068-208.02-164.219
			s5.985-193.69,84.287-251.269V24.6c0.028-9.414,7.652-17.039,17.067-17.067h204.8c9.414,0.028,17.039,7.652,17.067,17.067v41.557
			C436.825,105.061,486.421,185.042,486.409,272.579z"/>
		<path style="fill:#E91E63;" d="M460.809,272.579c0.063,74.21-35.726,143.879-96.085,187.051l-0.171-0.256
			c-35.509,25.585-77.637,40.398-121.344,42.667c-97.046-5.36-180.28-71.068-208.02-164.219s5.985-193.69,84.287-251.269V24.6
			c0.028-9.414,7.652-17.039,17.067-17.067h179.2c9.414,0.028,17.039,7.652,17.067,17.067v41.557
			C411.225,105.061,460.821,185.042,460.809,272.579z"/>
		<path style="fill:#3B97D3;" d="M390.323,459.629c-0.085,0.085-0.085,0.171-0.171,0.171"/>
		<path style="fill:#BFA885;" d="M414.473,376.685l-24.32,82.603v0.085c-38.763,27.892-85.28,42.96-133.035,43.093l-0.512-1.536
			c38.963-4.314,76.149-18.63,107.947-41.557v-0.085l24.32-82.603c3.196-8.16,4.31-16.987,3.243-25.685
			c-5.768-31.435-17.065-61.598-33.365-89.088v-41.045c0,0,51.371,71.083,58.965,130.133
			C418.783,359.698,417.668,368.525,414.473,376.685z"/>
		<path style="fill:#FFE0B2;" d="M388.873,376.685l-24.32,82.603v0.085c-31.797,22.928-68.983,37.244-107.947,41.557
			c-13.653-41.984-8.107-92.245-3.669-117.931c1.792-10.581,3.413-17.067,3.413-17.067v-93.867c0-14.138,11.461-25.6,25.6-25.6
			c14.138,0,25.6,11.462,25.6,25.6V357.4c-0.001,6.789,2.701,13.298,7.509,18.091c1.544,1.568,3.296,2.917,5.205,4.011
			c5.336,3.176,11.667,4.241,17.749,2.987c0.728-0.09,1.444-0.261,2.133-0.512c0.19-0.085,0.391-0.143,0.597-0.171
			c9.245-2.797,16.096-10.608,17.664-20.139c0.244-1.409,0.358-2.837,0.341-4.267v-95.488c16.3,27.49,27.597,57.653,33.365,89.088
			C393.183,359.698,392.068,368.525,388.873,376.685z"/>
		<path style="fill:#FFB301;" d="M358.409,24.6v337.067c-1.568,9.531-8.419,17.341-17.664,20.139
			c-0.206,0.028-0.407,0.085-0.597,0.171c-0.689,0.251-1.405,0.422-2.133,0.512c-6.082,1.254-12.413,0.189-17.749-2.987
			c6.694-3.708,11.317-10.281,12.544-17.835V24.6c-0.027-9.414-7.652-17.039-17.067-17.067h25.6
			C350.756,7.561,358.381,15.186,358.409,24.6z"/>
		<path style="fill:#FEC108;" d="M332.809,24.6v337.067c-1.227,7.553-5.85,14.127-12.544,17.835
			c-1.91-1.094-3.661-2.443-5.205-4.011c-4.808-4.793-7.51-11.302-7.509-18.091v-85.333c-0.021-14.13-11.47-25.579-25.6-25.6
			c-6.793-0.011-13.31,2.683-18.114,7.486c-4.803,4.803-7.497,11.321-7.486,18.114v93.867c0,0-1.621,6.485-3.413,17.067H136.542
			c-9.414-0.028-17.039-7.653-17.067-17.067V24.6c0.028-9.414,7.652-17.039,17.067-17.067h179.2
			C325.156,7.561,332.781,15.186,332.809,24.6z"/>
		<circle style="fill:#607D8B;" cx="238.942" cy="58.733" r="17.067"/>
		<path style="fill:#FFFFFF;" d="M179.209,340.333h-17.067c-4.707-0.014-8.519-3.826-8.533-8.533v-42.667
			c0.014-4.707,3.826-8.519,8.533-8.533h94.208v59.733h-25.941"/>
	</g>
	<g>
		<path d="M257.009,512h1.082l0.027,0.004l0.025-0.004h0.017c49.534-0.106,97.789-15.739,137.975-44.7
			c0.293-0.208,0.572-0.436,0.833-0.683c67.06-48.424,104.276-128.109,98.364-210.614c-5.912-82.504-54.11-156.07-127.39-194.437
			V25.6c-0.015-14.132-11.468-25.585-25.6-25.6h-204.8c-14.132,0.015-25.585,11.468-25.6,25.6v57.801
			C30.535,145.57-2.159,252.731,30.681,349.755S154.578,512.054,257.009,512z M222.875,307.2c-2.263-0.001-4.434,0.898-6.035,2.499
			c-1.6,1.6-2.499,3.771-2.499,6.035V332.8h-17.067v-8.533c0-4.713-3.82-8.533-8.533-8.533s-8.533,3.821-8.533,8.533v8.533h-17.067
			v-42.667h85.675V332.8h-17.408v-17.067c0.001-2.263-0.898-4.434-2.499-6.035C227.309,308.098,225.139,307.199,222.875,307.2z
			 M300.017,281.6v76.8c-0.021,9.057,3.583,17.746,10.008,24.129c6.333,6.289,14.859,9.875,23.784,10.004
			c2.095,0.018,4.186-0.174,6.242-0.575c1.295-0.16,2.569-0.457,3.8-0.887c0.117-0.029,0.233-0.058,0.35-0.096
			c14.379-4.294,24.194-17.569,24.083-32.575V250.592c15.383,25.304,37.35,66.592,41.967,102.487
			c0.874,7.529-0.143,15.158-2.958,22.196l-23.461,79.756c-35.106,24.591-76.642,38.369-119.485,39.634
			c-11.303-39.267-6.233-84.823-1.995-109.241c1.7-10.071,3.267-16.358,3.275-16.421c0.173-0.677,0.26-1.373,0.258-2.071v-93.867
			c0-9.426,7.641-17.067,17.067-17.067c9.426,0,17.067,7.641,17.067,17.067V281.6z M478.875,273.067
			c-0.082,62.054-26.104,121.248-71.77,163.264l16.328-55.576c3.697-9.484,4.986-19.737,3.75-29.842
			c-7.222-56.093-51.147-120.728-59.242-132.246V80.962C436.773,120.391,479.131,193.743,478.875,273.067z M129.009,25.6
			c0.005-4.711,3.822-8.529,8.533-8.533h204.8c4.711,0.005,8.529,3.822,8.533,8.533v334.996
			c-0.703,6.417-5.067,11.844-11.183,13.908c-0.422,0.096-0.837,0.221-1.242,0.375c-0.108,0.038-1,0.2-1.108,0.242
			c-1.13,0.226-2.28,0.342-3.433,0.346c-4.438-0.08-8.673-1.875-11.817-5.008c-3.214-3.188-5.018-7.531-5.009-12.058v-85.333
			c0-18.851-15.282-34.133-34.133-34.133c-18.851,0-34.133,15.282-34.133,34.133h-85.675c-9.421,0.011-17.056,7.645-17.067,17.067
			V332.8c0.011,9.421,7.645,17.056,17.067,17.067h85.675v16.054c-0.371,1.577-1.12,4.946-2.006,9.546H137.542
			c-4.711-0.005-8.529-3.822-8.533-8.533V25.6z M111.942,105.395v261.538c0.015,14.132,11.468,25.585,25.6,25.6h106.407
			c-5.514,33.915-4.587,68.566,2.731,102.138c-90.675-4.165-169.653-63.181-199.343-148.959S43.243,164.723,111.942,105.395z"/>
		<path d="M239.942,85.333c14.139,0,25.6-11.462,25.6-25.6s-11.462-25.6-25.6-25.6c-14.138,0-25.6,11.462-25.6,25.6
			C214.357,73.865,225.81,85.318,239.942,85.333z M239.942,51.2c4.713,0,8.533,3.821,8.533,8.533s-3.821,8.533-8.533,8.533
			s-8.533-3.821-8.533-8.533C231.413,55.022,235.231,51.205,239.942,51.2z"/>
		<path d="M180.75,207.796c1.25,3.331,4.434,5.537,7.991,5.537c3.557,0,6.742-2.206,7.991-5.537l25.6-68.267
			c1.092-2.86,0.569-6.086-1.372-8.454c-1.941-2.368-5.001-3.515-8.02-3.006c-3.019,0.509-5.534,2.596-6.591,5.469l-17.608,46.958
			l-17.608-46.958c-1.057-2.873-3.572-4.96-6.591-5.469c-3.019-0.509-6.079,0.638-8.02,3.006c-1.941,2.368-2.464,5.594-1.372,8.454
			L180.75,207.796z"/>
		<path d="M248.475,128c-2.263-0.001-4.434,0.898-6.035,2.499c-1.6,1.6-2.499,3.771-2.499,6.035V204.8
			c0,4.713,3.821,8.533,8.533,8.533s8.533-3.821,8.533-8.533v-68.267c0.001-2.263-0.898-4.434-2.499-6.035
			C252.909,128.898,250.739,127.999,248.475,128z"/>
		<path d="M282.609,213.333c2.263,0.001,4.434-0.898,6.035-2.499s2.499-3.771,2.499-6.035v-25.6h8.533
			c14.138,0,25.6-11.462,25.6-25.6s-11.462-25.6-25.6-25.6h-17.067c-2.263-0.001-4.434,0.898-6.035,2.499
			c-1.6,1.6-2.499,3.771-2.499,6.035V204.8c-0.001,2.263,0.898,4.434,2.499,6.035S280.345,213.334,282.609,213.333z
			 M291.142,145.067h8.533c4.713,0,8.533,3.82,8.533,8.533s-3.82,8.533-8.533,8.533h-8.533V145.067z"/>
	</g>
</g>
<g>
</g>
<g>
</g>
<g>
</g>
<g>
</g>
<g>
</g>
<g>
</g>
<g>
</g>
<g>
</g>
<g>
</g>
<g>
</g>
<g>
</g>
<g>
</g>
<g>
</g>
<g>
</g>
<g>
</g>
</svg>
