<svg height="512pt" viewBox="0 -26 512 512" width="512pt" xmlns="http://www.w3.org/2000/svg"><path d="m399.398438 203.484375c0 108.203125-87.710938 195.914063-195.910157 195.914063s-195.914062-87.710938-195.914062-195.914063c0-108.199219 87.714843-195.910156 195.914062-195.910156s195.910157 87.710937 195.910157 195.910156zm0 0" fill="#e1ebf0"/><path d="m323.09375 48.371094c25.554688 33.09375 40.796875 74.558594 40.796875 119.605468 0 108.199219-87.710937 195.914063-195.914063 195.914063-45.046874 0-86.511718-15.242187-119.605468-40.800781 35.828125 46.394531 91.964844 76.308594 155.117187 76.308594 108.199219 0 195.910157-87.714844 195.910157-195.914063 0-63.152344-29.910157-119.285156-76.304688-155.113281zm0 0" fill="#b4d2d7"/><path d="m278.019531 135.34375c0 41.160156-33.371093 74.53125-74.53125 74.53125-41.164062 0-74.535156-33.371094-74.535156-74.53125 0-41.164062 33.371094-74.535156 74.535156-74.535156 41.160157 0 74.53125 33.371094 74.53125 74.535156zm0 0" fill="#fed2a4"/><path d="m247.566406 242.667969h-88.160156c-48.6875 0-88.160156 39.472656-88.160156 88.160156v17.1875c34.851562 31.90625 81.265625 51.382813 132.242187 51.382813 50.972657 0 97.390625-19.480469 132.238281-51.382813v-17.1875c.003907-48.6875-39.46875-88.160156-88.160156-88.160156zm0 0" fill="#fed2a4"/><path d="m167.976562 363.890625c-35.191406 0-68.1875-9.328125-96.730468-25.570313v9.695313c34.851562 31.90625 81.265625 51.382813 132.242187 51.382813 50.972657 0 97.390625-19.476563 132.238281-51.382813v-17.1875c0-16.109375-4.339843-31.195313-11.886718-44.191406-35.792969 46.9375-92.277344 77.253906-155.863282 77.253906zm0 0" fill="#ffbd86"/><path d="m504.425781 350.925781c0 55.773438-45.210937 100.984375-100.984375 100.984375-55.773437 0-100.988281-45.210937-100.988281-100.984375 0-55.773437 45.214844-100.988281 100.988281-100.988281 55.773438 0 100.984375 45.214844 100.984375 100.988281zm0 0" fill="#7af4ab"/><path d="m469.125 274.222656c15.136719 17.660156 24.285156 40.601563 24.285156 65.6875 0 55.773438-45.214844 100.984375-100.984375 100.984375-25.082031 0-48.027343-9.148437-65.6875-24.285156 18.523438 21.609375 46.011719 35.300781 76.703125 35.300781 55.773438 0 100.984375-45.210937 100.984375-100.984375 0-30.691406-13.695312-58.179687-35.300781-76.703125zm0 0" fill="#6ad394"/><path d="m465.039062 335.777344h-46.449218v-46.453125h-30.296875v46.453125h-46.453125v30.296875h46.453125v46.453125h30.296875v-46.453125h46.449218zm0 0" fill="#e1ebf0"/><path d="m285.59375 135.34375c0-45.277344-36.832031-82.109375-82.105469-82.109375-45.273437 0-82.105469 36.832031-82.105469 82.109375 0 45.269531 36.832032 82.105469 82.105469 82.105469 45.273438 0 82.105469-36.835938 82.105469-82.105469zm-149.066406 0c0-36.921875 30.039062-66.960938 66.960937-66.960938 36.917969 0 66.957031 30.039063 66.957031 66.960938 0 36.917969-30.039062 66.957031-66.957031 66.957031-36.921875 0-66.960937-30.039062-66.960937-66.957031zm0 0"/><path d="m489.46875 284.699219c-2.558594-3.3125-7.3125-3.925781-10.625-1.371094s-3.929688 7.308594-1.375 10.621094c12.679688 16.449219 19.382812 36.152343 19.382812 56.976562 0 51.507813-41.902343 93.414063-93.410156 93.414063-51.507812 0-93.414062-41.90625-93.414062-93.414063 0-51.507812 41.90625-93.410156 93.414062-93.410156 17.359375 0 34.300782 4.792969 48.996094 13.863281 3.558594 2.195313 8.226562 1.09375 10.421875-2.464844 2.199219-3.558593 1.09375-8.226562-2.464844-10.425781-17.085937-10.546875-36.78125-16.121093-56.953125-16.121093-.066406 0-.132812 0-.203125 0 2.46875-12.75 3.738281-25.785157 3.738281-38.878907 0-112.203125-91.285156-203.488281-203.488281-203.488281-48.378906 0-95.261719 17.273438-132.015625 48.632812-3.183594 2.714844-3.5625 7.496094-.84375 10.679688 2.714844 3.179688 7.496094 3.558594 10.675782.84375 34.015624-29.023438 77.40625-45.007812 122.183593-45.007812 103.851563 0 188.339844 84.488281 188.339844 188.339843 0 13.515625-1.445313 26.960938-4.277344 40.042969-24.140625 3.558594-45.714843 15.085938-61.964843 31.824219-17.839844-25.050781-46.910157-40.257813-78.015626-40.257813h-88.160156c-52.363281 0-95.03125 42.253906-95.71875 94.457032-30.15625-33.40625-48.542968-77.628907-48.542968-126.066407 0-43.117187 14.945312-85.257812 42.074218-118.660156 2.636719-3.246094 2.144532-8.015625-1.105468-10.652344-3.246094-2.636719-8.015626-2.144531-10.652344 1.105469-29.320313 36.085938-45.464844 81.621094-45.464844 128.203125 0 112.203125 91.285156 203.488281 203.488281 203.488281 33.671875 0 66.722657-8.320312 96.179688-24.132812 13.664062 44.332031 55.011719 76.644531 103.773437 76.644531 59.859375 0 108.558594-48.699219 108.558594-108.558594 0-24.203125-7.792969-47.101562-22.53125-66.226562zm-285.980469 107.125c-47.769531 0-91.429687-17.882813-124.667969-47.296875v-13.699219c0-44.433594 36.148438-80.585937 80.585938-80.585937h88.160156c27.515625 0 53.132813 14.140624 67.882813 37.171874-12.933594 17.871094-20.570313 39.816407-20.570313 63.511719 0 5.625.429688 11.148438 1.257813 16.546875-28.160157 15.933594-60.082031 24.351563-92.648438 24.351563zm0 0"/><path d="m426.160156 289.324219c0-4.183594-3.390625-7.574219-7.570312-7.574219h-30.296875c-4.183594 0-7.574219 3.390625-7.574219 7.574219v38.878906h-38.878906c-4.183594 0-7.574219 3.390625-7.574219 7.574219v30.296875c0 4.183593 3.390625 7.574219 7.574219 7.574219h38.878906v38.878906c0 4.183594 3.390625 7.574218 7.574219 7.574218h30.296875c4.179687 0 7.570312-3.390624 7.570312-7.574218v-38.878906h38.882813c4.183593 0 7.574219-3.390626 7.574219-7.574219v-30.296875c0-4.183594-3.390626-7.574219-7.574219-7.574219h-38.882813zm31.308594 54.027343v15.148438h-38.882812c-4.183594 0-7.574219 3.390625-7.574219 7.574219v38.878906h-15.148438v-38.878906c0-4.183594-3.390625-7.574219-7.574219-7.574219h-38.878906v-15.148438h38.878906c4.183594 0 7.574219-3.390624 7.574219-7.574218v-38.878906h15.148438v38.878906c0 4.183594 3.390625 7.574218 7.574219 7.574218zm0 0"/></svg>