<svg id="Flat_Gradient" height="512" viewBox="0 0 64 64" width="512" xmlns="http://www.w3.org/2000/svg" xmlns:xlink="http://www.w3.org/1999/xlink" data-name="Flat Gradient"><linearGradient id="linear-gradient" gradientUnits="userSpaceOnUse" x1="3.5" x2="60.5" y1="32" y2="32"><stop offset="0" stop-color="#ff3cac"/><stop offset=".5" stop-color="#784ba0"/><stop offset="1" stop-color="#2b86c5"/></linearGradient><path d="m51.44 4.06h-38.88a9.07117 9.07117 0 0 0 -9.06 9.06v25.52a9.06474 9.06474 0 0 0 9.06 9.06h5.49a2.49693 2.49693 0 0 1 1.97.96l6.86 8.78a6.49288 6.49288 0 0 0 10.24 0l6.86-8.78a2.49693 2.49693 0 0 1 1.97-.96h5.49a9.06474 9.06474 0 0 0 9.06-9.06v-25.52a9.07117 9.07117 0 0 0 -9.06-9.06zm-6.97 21.98-3.63 3.54a.395.395 0 0 0 -.11005.34l.86005 5a3.41657 3.41657 0 0 1 -4.92012 3.5799l-4.48988-2.3699a.38246.38246 0 0 0 -.36 0l-4.49 2.37a3.39346 3.39346 0 0 1 -4.92-3.58l.86-5a.395.395 0 0 0 -.11-.34l-3.63-3.54a3.38619 3.38619 0 0 1 1.87-5.78l5.02-.73a.40074.40074 0 0 0 .3-.22l2.24-4.54a3.40986 3.40986 0 0 1 6.07995.00013l2.24005 4.53987a.40074.40074 0 0 0 .3.22l5.02.73a3.40709 3.40709 0 0 1 1.87 5.78zm-2.09-2.15c-5.638 5.52324-5.05966 3.786-3.74989 11.54a.37918.37918 0 0 1 -.56008.41c-6.98505-3.65881-5.18-3.63578-12.14.00008a.37818.37818 0 0 1 -.56-.41006l.86-5a3.41388 3.41388 0 0 0 -.98-3l-3.63-3.54a.38.38 0 0 1 .21-.66006c7.81685-1.15413 6.32088-.08938 9.82-7.14008a.39676.39676 0 0 1 .7.00009l2.24 4.55a3.40981 3.40981 0 0 0 2.56 1.86l5.02.73a.38.38 0 0 1 .20997.66003z" fill="url(#linear-gradient)"/></svg>