<svg clip-rule="evenodd" fill-rule="evenodd" height="512" image-rendering="optimizeQuality" shape-rendering="geometricPrecision" text-rendering="geometricPrecision" viewBox="0 0 6.82666 6.82666" width="512" xmlns="http://www.w3.org/2000/svg" xmlns:xlink="http://www.w3.org/1999/xlink"><linearGradient id="id0" gradientUnits="userSpaceOnUse" x1="1.013" x2="5.813" y1="1.013" y2="5.813"><stop offset="0" stop-color="#f84d9a"/><stop offset="1" stop-color="#a10556"/></linearGradient><g id="Layer_x0020_1"><circle cx="3.413" cy="3.413" fill="url(#id0)" r="3.333"/><g id="_382829728" fill="#fefefe"><path id="_382831600" d="m5.04536 4.32643h-2.34737c-.0257323 0-.0483031-.0171575-.0551102-.0419606l-.501398-1.82828c-.00471654-.0171614-.0011378-.0356142.00966929-.0497008.010811-.014189.0276102-.0225236.045437-.0225236h.78813c.0315669 0 .0571535.0255984.0571535.0571457 0 .0315472-.0255866.0571417-.0571535.0571417h-.713205l.470059 1.71389h2.2602l.470071-1.71389h-.713213c-.0315591 0-.0571457-.0255945-.0571457-.0571417s.0255827-.0571457.0571417-.0571457h.788134c.0178307 0 .0346339.00833465.045437.0225236.010815.0140827.0143976.0325394.00967323.0497008l-.501409 1.82828c-.00680315.0248031-.0293661.0419606-.0551063.0419606z"/><path id="_382831048" d="m5.17072 3.86938h-2.59808c-.0315551 0-.0571299-.0255945-.0571299-.0571417s.0255748-.0571417.0571299-.0571417h2.59808c.0315551 0 .0571378.0255945.0571378.0571417.00000394.0315472-.0255827.0571457-.0571378.0571417z"/><path id="_382831096" d="m5.29606 3.41234h-2.84877c-.0315591 0-.0571457-.0255945-.0571457-.0571417s.0255866-.0571457.0571457-.0571457h2.84877c.0315551 0 .0571378.0255984.0571378.0571457.00000394.0315472-.0255827.0571417-.0571378.0571417z"/><path id="_382830520" d="m3.11144 2.9553h-.789496c-.0315551 0-.0571417-.0255945-.0571417-.0571417 0-.0315512.0255827-.0571417.0571417-.0571417h.789496c.0315669 0 .0571417.0255906.0571417.0571417 0 .0315472-.0255748.0571417-.0571417.0571417zm2.30998 0h-.789508c-.0315551 0-.0571417-.0255945-.0571417-.0571417 0-.0315512.0255827-.0571417.0571417-.0571417h.789508c.0315551 0 .0571299.0255906.0571299.0571417 0 .0315472-.0255748.0571417-.0571299.0571417z"/><path id="_382831192" d="m3.28477 4.32643c-.0281181 0-.052622-.0207323-.0565512-.0492992l-.188016-1.37124c-.00428346-.031248.0175787-.0600157.0488504-.0643858.0312677-.00416535.0600866.0176614.064374.0489134l.188016 1.37113c.00429921.031248-.0175787.0601181-.0488386.0643858-.0026378.0003937-.00525591.00049213-.00783465.00049213z"/><path id="_382830856" d="m3.87167 4.32643c-.0315551 0-.0571417-.0254921-.0571417-.0571417v-.941272c0-.0315472.0255866-.0571417.0571417-.0571417.0315591 0 .0571457.0255945.0571457.0571417v.941272c0 .0316496-.0255866.0571417-.0571457.0571417z"/><path id="_382831168" d="m4.45859 4.32643c-.00258268 0-.00520472-.00009843-.00784252-.00049213-.0312598-.00426772-.0531339-.0331378-.0488504-.0643858l.188039-1.37113c.00428346-.031252.0331024-.0531732.0643701-.0489094.0312638.00437008.0531378.0331378.0488504.0643858l-.188024 1.37124c-.00392913.0285669-.0284331.0492992-.0565433.0492992z"/><path id="_382830808" d="m2.19664 2.49825c-.0196024 0-.038685-.0101181-.0493228-.0281772l-.244606-.416567h-.11435c-.0315591 0-.0571417-.0255945-.0571417-.0571417s.0255827-.0571417.0571417-.0571417l.147067-.00000394c.0202638 0 .0390118.0107165.0492717.0281772l.261161.444744c.0159803.0272835.00687008.0622992-.0203386.0782717-.00909055.00525984-.0190512.00783858-.0288819.00783858z"/><path id="_382831072" d="m1.3688 1.96462c-.0172244 0-.0317795.0144843-.0317795.0317441s.0145551.031748.0317795.031748l.330646-.00000394c.0172205 0 .0317717-.0144843.0317717-.0317441 0-.0172638-.0145512-.0317441-.0317717-.0317441h-.330646zm.330646.177776h-.330646c-.0805394 0-.146059-.0654724-.146059-.146031 0-.0805551.0655197-.146031.146059-.146031h.330646c.0805354 0 .146051.0654764.146051.146031 0 .0805591-.0655157.146031-.146051.146031z"/><path id="_382830928" d="m5.04536 4.68804h-2.27388c-.131193 0-.237925-.106744-.237925-.237898 0-.131252.106732-.237996.237921-.237996.031563 0 .0571457.0255945.0571457.0571417 0 .0316496-.0255866.0571417-.0571457.0571417-.0681693 0-.123638.0554567-.123638.123713 0 .0681535.0554685.123614.123638.123614h2.27389c.0315551 0 .0571417.0255945.0571417.0571417s-.0255866.0571417-.0571417.0571417z"/><path id="_382831024" d="m3.06574 4.84776c-.10135 0-.183803.0824409-.183803.183831 0 .10139.0824528.183827.183799.183827.101343 0 .183791-.082437.183791-.183827s-.0824488-.183831-.183787-.183831zm0 .481945c-.16437 0-.298079-.133728-.298079-.298114 0-.164382.133709-.298114.298075-.298114.164354 0 .298075.133732.298075.298114 0 .164386-.13372.298114-.298071.298114z"/><path id="_382829920" d="m4.67762 4.84776c-.101346 0-.183799.0824409-.183799.183831 0 .10139.0824488.183827.183799.183827.10135 0 .183799-.082437.183799-.183827s-.0824488-.183831-.183799-.183831zm0 .481945c-.164362 0-.298079-.133728-.298079-.298114.00000394-.164382.133713-.298114.298079-.298114s.298075.133732.298075.298114c0 .164386-.133713.298114-.298075.298114z"/><path id="_382829752" d="m3.87167 1.61124c-.457559 0-.829811.372323-.829811.829866 0 .457539.372252.82976.829811.82976.457563 0 .829815-.37222.829815-.82976 0-.457543-.372256-.829866-.829815-.829866zm0 1.77391c-.520575 0-.944087-.423508-.944087-.944043 0-.520634.423512-.944146.944087-.944146.520579-.00000394.944098.423512.944098.944146.00000394.520535-.42352.944043-.944098.944043z"/><path id="_382830184" d="m3.40314 2.56008c-.022311-.022311-.0584921-.022311-.0808031 0s-.022311.0584921 0 .0808031l.233004.233008c.022315.022315.0584961.022315.0808071 0l.00020866-.00020866.784665-.784665c.022311-.022311.022311-.0584921 0-.0808071-.022311-.022311-.0584921-.022311-.0808071 0l-.744469.744472-.192606-.192602z" fill-rule="nonzero"/></g></g></svg>