<svg id="Layer_1" height="512" viewBox="0 0 512 512" width="512" xmlns="http://www.w3.org/2000/svg" data-name="Layer 1"><g fill-rule="evenodd"><path d="m99.54 215.766a15.992 15.992 0 0 1 16-16h139.512a16 16 0 0 1 0 32h-139.513a16 16 0 0 1 -16-16zm0-74.686a15.993 15.993 0 0 1 16-16h139.512a16 16 0 0 1 0 32h-139.51a15.992 15.992 0 0 1 -16-16zm380.46 203.89v-193.409a14.508 14.508 0 0 0 -14.488-14.5h-105.492v139.569a46.538 46.538 0 0 1 -46.48 46.488h-129.549l-.011.009v21.843a14.5 14.5 0 0 0 14.482 14.486h18.208a16 16 0 0 1 15.96 16.988l-3.13 50.633 92.219-64.707a16 16 0 0 1 9.19-2.914h134.6a14.509 14.509 0 0 0 14.491-14.486zm-403.649-48.811a16.035 16.035 0 0 1 4.309 11.947l-3.139 50.621 92.218-64.707a15.985 15.985 0 0 1 9.192-2.9h134.608a14.507 14.507 0 0 0 14.481-14.491v-193.408a14.5 14.5 0 0 0 -14.48-14.492h-267.05a14.5 14.5 0 0 0 -14.49 14.49v193.411a14.5 14.5 0 0 0 14.49 14.489h18.2a16.007 16.007 0 0 1 11.662 5.039zm389.16-191.093h-105.491v-21.847a46.533 46.533 0 0 0 -46.481-46.489h-267.05a46.537 46.537 0 0 0 -46.489 46.491v193.408a46.544 46.544 0 0 0 46.489 46.491h1.181l-4.14 66.821a15.992 15.992 0 0 0 25.159 14.079l83.3-58.451a46.535 46.535 0 0 0 46.47 45.891h1.181l-4.129 66.816a16 16 0 0 0 25.158 14.094l115.292-80.91h129.55a46.535 46.535 0 0 0 46.489-46.49v-193.409a46.544 46.544 0 0 0 -46.492-46.491z" fill="#282828"/><g fill="#0291f7"><path d="m32 83.219v193.411a14.5 14.5 0 0 0 14.49 14.489h18.2a15.992 15.992 0 0 1 15.97 16.987l-3.139 50.621 92.218-64.707a15.985 15.985 0 0 1 9.192-2.9h134.608a14.507 14.507 0 0 0 14.481-14.491v-193.408a14.5 14.5 0 0 0 -14.48-14.492h-267.05a14.5 14.5 0 0 0 -14.49 14.49zm83.54 148.55a16 16 0 1 1 0-32h139.512a16 16 0 0 1 0 32zm0-74.692a16 16 0 1 1 0-32h139.512a16 16 0 0 1 0 32z"/><path d="m360.02 137.066v139.564a46.538 46.538 0 0 1 -46.48 46.488h-129.549l-.011.009v21.843a14.5 14.5 0 0 0 14.482 14.486h18.208a16 16 0 0 1 15.96 16.988l-3.13 50.633 92.219-64.707a16 16 0 0 1 9.19-2.914h134.6a14.509 14.509 0 0 0 14.491-14.486v-193.409a14.508 14.508 0 0 0 -14.488-14.5z"/></g></g></svg>