<svg viewBox="0 -42 512 512" xmlns="http://www.w3.org/2000/svg"><path d="m497 0h-482c-8.285156 0-15 6.714844-15 15v397.445312c0 8.285157 6.714844 15 15 15h482c8.285156 0 15-6.714843 15-15v-397.445312c0-8.285156-6.714844-15-15-15zm0 0" fill="#9db1c7"/><path d="m256 0h-241c-8.285156 0-15 6.714844-15 15v397.445312c0 8.285157 6.714844 15 15 15h241zm0 0" fill="#fafafa"/><path d="m0 341.359375v71.085937c0 8.285157 6.714844 15 15 15h482c8.285156 0 15-6.714843 15-15v-71.085937zm81.230469 56.085937h-51.230469v-26.117187h51.230469zm80.332031 0h-50.332031v-26.117187h50.332031zm80.332031 0h-50.332031v-26.117187h50.332031zm80.335938 0h-50.335938v-26.117187h50.335938zm80.332031 0h-50.332031v-26.117187h50.332031zm79.4375 0h-49.4375v-26.117187h49.4375zm0 0" fill="#29353d"/><path d="m512 86.121094v-71.121094c0-8.28125-6.714844-15-15-15h-482c-8.285156 0-15 6.71875-15 15v71.121094zm-79.4375-56.121094h49.4375v26.117188h-49.4375zm-80.332031 0h50.332031v26.117188h-50.332031zm-80.335938 0h50.335938v26.117188h-50.335938zm-80.332031 0h50.332031v26.117188h-50.332031zm-80.332031 0h50.332031v26.117188h-50.332031zm-81.230469 0h51.230469v26.117188h-51.230469zm0 0" fill="#29353d"/><path d="m256 341.359375h-256v71.085937c0 8.285157 6.714844 15 15 15h241zm-174.769531 56.085937h-51.230469v-26.117187h51.230469zm80.332031 0h-50.332031v-26.117187h50.332031zm30 0v-26.117187h50.332031v26.117187zm0 0" fill="#638094"/><path d="m256 0h-241c-8.285156 0-15 6.714844-15 15v71.121094h256zm-174.769531 56.117188h-51.230469v-26.117188h51.230469zm80.332031 0h-50.332031v-26.117188h50.332031zm30 0v-26.117188h50.332031v26.117188zm0 0" fill="#638094"/><path d="m311.472656 198.269531c-.40625-.296875-.832031-.574219-1.269531-.828125l-85.828125-50.101562c-6.21875-4.066406-14.390625-4.527344-21.109375-1.105469-6.617187 3.363281-10.726563 9.929687-10.726563 17.132813v100.714843c0 7.203125 4.109376 13.765625 10.726563 17.132813 3.007813 1.53125 6.308594 2.285156 9.59375 2.285156 4.050781 0 8.082031-1.144531 11.515625-3.394531l85.828125-50.097657c.4375-.253906.863281-.53125 1.269531-.828124 5.074219-3.699219 7.988282-9.328126 7.988282-15.453126s-2.914063-11.761718-7.988282-15.457031zm0 0" fill="#5e55e0"/><path d="m256 165.800781-31.625-18.460937c-6.21875-4.070313-14.390625-4.527344-21.109375-1.109375-6.617187 3.367187-10.726563 9.933593-10.726563 17.136719v100.710937c0 7.203125 4.109376 13.769531 10.726563 17.136719 3.007813 1.53125 6.308594 2.285156 9.59375 2.285156 4.050781 0 8.082031-1.148438 11.515625-3.394531l31.625-18.457031zm0 0" fill="#9690f0"/></svg>