<?xml version="1.0" encoding="iso-8859-1"?>
<!-- Generator: Adobe Illustrator 19.0.0, SVG Export Plug-In . SVG Version: 6.00 Build 0)  -->
<svg version="1.1" id="Capa_1" xmlns="http://www.w3.org/2000/svg" xmlns:xlink="http://www.w3.org/1999/xlink" x="0px" y="0px"
	 viewBox="0 0 512 512" style="enable-background:new 0 0 512 512;" xml:space="preserve">
<rect x="7.5" y="376" style="fill:#FFAC46;" width="160" height="30"/>
<rect x="114" y="376" style="fill:#FF9754;" width="53.5" height="30"/>
<rect x="344.5" y="376" style="fill:#FFAC46;" width="160" height="30"/>
<rect x="474.5" y="376" style="fill:#FF9754;" width="30" height="30"/>
<circle style="fill:#FFA471;" cx="87.5" cy="168.5" r="47.5"/>
<path style="fill:#C7356D;" d="M167.5,376H7.5v-80c0-44.183,35.817-80,80-80l0,0c44.183,0,80,35.817,80,80V376z"/>
<path style="fill:#973161;" d="M150.322,246.5C127.98,267.292,114,296.948,114,329.875V376h53.5v-80
	C167.5,277.304,161.069,260.12,150.322,246.5z"/>
<circle style="fill:#FFA471;" cx="424.5" cy="168.5" r="47.5"/>
<g>
	<path style="fill:#FF9754;" d="M424.5,121c-5.244,0-10.283,0.862-15,2.432c18.88,6.281,32.5,24.079,32.5,45.068
		s-13.62,38.787-32.5,45.069c4.717,1.569,9.756,2.431,15,2.431c26.234,0,47.5-21.266,47.5-47.5C472,142.267,450.734,121,424.5,121z"
		/>
	<path style="fill:#FF9754;" d="M87.5,121c-5.244,0-10.283,0.862-15,2.432C91.38,129.713,105,147.51,105,168.5
		s-13.62,38.787-32.5,45.069c4.717,1.569,9.756,2.431,15,2.431c26.234,0,47.5-21.266,47.5-47.5C135,142.267,113.734,121,87.5,121z"
		/>
</g>
<path style="fill:#C7356D;" d="M504.5,376h-160v-80c0-44.183,35.817-80,80-80l0,0c44.183,0,80,35.817,80,80V376z"/>
<path style="fill:#973161;" d="M424.5,216L424.5,216c-5.129,0-10.139,0.502-15,1.425c37.01,7.024,65,39.522,65,78.575v80h30v-80
	C504.5,251.817,468.683,216,424.5,216z"/>
<circle style="fill:#FFBE7C;" cx="256" cy="129" r="76"/>
<path style="fill:#FFA471;" d="M256,53c-5.136,0-10.15,0.516-15,1.488c34.788,6.965,61,37.675,61,74.512s-26.212,67.547-61,74.512
	c4.85,0.971,9.864,1.488,15,1.488c41.974,0,76-34.026,76-76S297.974,53,256,53z"/>
<path style="fill:#00E2FF;" d="M368,429H144V317c0-61.856,50.144-112,112-112l0,0c61.856,0,112,50.144,112,112V429z"/>
<path style="fill:#00B5FF;" d="M256,205L256,205c-5.087,0-10.093,0.346-15,1.003c54.762,7.331,97,54.228,97,110.997v112h30V317
	C368,255.144,317.856,205,256,205z"/>
<rect x="144" y="429" style="fill:#FB1E43;" width="224" height="30"/>
<rect x="338" y="429" style="fill:#E20032;" width="30" height="30"/>
<path style="fill:#FB1E43;" d="M256.816,382.716c-0.479,0.378-1.156,0.378-1.634,0c-9.138-7.222-90.163-72.467-52.048-107.813
	c25.015-23.2,52.164,11.974,52.866,12.871c0.699-0.897,27.849-36.071,52.866-12.871
	C346.982,310.249,265.955,375.495,256.816,382.716z"/>
<path d="M486.371,234.124c-8.977-8.971-19.566-15.732-31.101-20.059c14.609-9.897,24.229-26.628,24.229-45.565
	c0-30.327-24.673-55-55-55s-55,24.673-55,55c0,18.919,9.603,35.636,24.19,45.537c-16.644,6.213-31.081,17.414-41.321,32.387
	c-14.545-19.807-35.037-34.984-58.825-42.876C320.775,189.777,339.5,161.543,339.5,129c0-46.042-37.458-83.5-83.5-83.5
	s-83.5,37.458-83.5,83.5c0,32.543,18.725,60.777,45.956,74.548c-23.8,7.896-44.3,23.084-58.846,42.906
	c-3.023-4.396-6.435-8.526-10.238-12.329c-8.977-8.971-19.566-15.733-31.101-20.06c14.609-9.897,24.23-26.628,24.23-45.565
	c0-30.327-24.673-55-55-55s-55,24.673-55,55c0,18.945,9.628,35.682,24.248,45.578c-4.788,1.795-9.425,4.004-13.847,6.629
	c-3.562,2.114-4.735,6.715-2.622,10.277c2.115,3.563,6.716,4.736,10.278,2.621C61.695,226.994,74.47,223.5,87.5,223.5
	c19.358,0,37.565,7.541,51.266,21.232c4.709,4.709,8.711,10.008,11.953,15.78C141.652,277.343,136.5,296.58,136.5,317v11.5
	c0,4.143,3.358,7.5,7.5,7.5s7.5-3.357,7.5-7.5V317c0-57.621,46.878-104.5,104.5-104.5S360.5,259.379,360.5,317v104.5h-209v-60.833
	c0-4.143-3.358-7.5-7.5-7.5s-7.5,3.357-7.5,7.5v7.833H15V296c0-15.297,4.706-29.922,13.609-42.294
	c2.419-3.362,1.655-8.049-1.707-10.469s-8.049-1.654-10.469,1.707C5.683,259.885,0,277.539,0,296v110l0,0c0,4.143,3.358,7.5,7.5,7.5
	h129l0,0V459c0,4.143,3.358,7.5,7.5,7.5h224c4.142,0,7.5-3.357,7.5-7.5v-45.5l0,0h71.833c4.142,0,7.5-3.357,7.5-7.5
	s-3.358-7.5-7.5-7.5H375.5v-15H497v15h-17c-4.142,0-7.5,3.357-7.5,7.5s3.358,7.5,7.5,7.5h24.5c4.142,0,7.5-3.357,7.5-7.5l0,0V296
	C512,272.638,502.899,250.664,486.371,234.124z M47.5,168.5c0-22.056,17.944-40,40-40s40,17.944,40,40s-17.944,40-40,40
	S47.5,190.556,47.5,168.5z M187.5,129c0-37.771,30.729-68.5,68.5-68.5s68.5,30.729,68.5,68.5s-30.729,68.5-68.5,68.5
	S187.5,166.771,187.5,129z M384.5,168.5c0-22.056,17.944-40,40-40s40,17.944,40,40s-17.944,40-40,40S384.5,190.556,384.5,168.5z
	 M15,398.5v-15h121.5v15H15z M360.5,451.5h-209v-15h209V451.5z M375.5,368.5V317c0-20.421-5.153-39.66-14.221-56.491
	c12.842-22.921,36.722-37.009,63.221-37.009c19.358,0,37.565,7.541,51.265,21.231C489.458,258.435,497,276.643,497,296v72.5H375.5z"
	/>
<path d="M250.528,388.598c1.61,1.274,3.54,1.911,5.471,1.911c1.928,0,3.856-0.636,5.465-1.906l0.001-0.001
	c5.621-4.441,20.206-16.429,34.199-31.786c19.785-21.714,30.149-41.114,30.803-57.661c0.459-11.623-3.747-21.632-12.501-29.75
	c-7.848-7.278-16.694-10.563-26.29-9.795c-13.543,1.099-24.977,10.2-31.681,16.917c-6.713-6.716-18.171-15.833-31.701-16.919
	c-9.583-0.772-18.42,2.525-26.26,9.797c-8.754,8.117-12.959,18.126-12.501,29.747C186.973,335.623,235.647,376.837,250.528,388.598z
	 M208.234,280.402c4.272-3.962,8.677-5.901,13.425-5.901c0.474,0,0.953,0.02,1.434,0.058c13.793,1.108,26.444,17.125,27.001,17.839
	c1.421,1.816,3.605,2.869,5.911,2.869c0.004,0,0.008,0,0.012,0c2.31-0.004,4.496-1.079,5.915-2.902
	c0.529-0.681,13.125-16.682,26.957-17.804c5.3-0.441,10.173,1.479,14.877,5.842c5.472,5.074,7.994,11.015,7.712,18.159
	c-0.504,12.738-9.806,29.389-26.902,48.151c-10.765,11.813-21.915,21.534-28.577,27.022c-6.664-5.49-17.817-15.215-28.577-27.024
	c-17.096-18.763-26.398-35.413-26.901-48.151C200.24,291.416,202.762,285.477,208.234,280.402z"/>
<g>
</g>
<g>
</g>
<g>
</g>
<g>
</g>
<g>
</g>
<g>
</g>
<g>
</g>
<g>
</g>
<g>
</g>
<g>
</g>
<g>
</g>
<g>
</g>
<g>
</g>
<g>
</g>
<g>
</g>
</svg>
