<svg id="Capa_1" enable-background="new 0 0 512 512" height="512" viewBox="0 0 512 512" width="512" xmlns="http://www.w3.org/2000/svg"><g><g><g><g><g><g id="XMLID_542_"><g id="XMLID_543_"><g id="XMLID_544_"><g id="XMLID_549_"><g id="XMLID_550_"><g id="XMLID_551_"><g id="XMLID_552_"><g id="XMLID_553_"><g id="XMLID_554_"><g id="XMLID_555_"><g id="XMLID_556_"><g id="XMLID_574_"><g id="XMLID_859_"><g id="XMLID_860_"><g id="XMLID_861_"><circle cx="256" cy="256" fill="#5e3ace" r="256"/></g></g></g></g></g></g></g></g></g></g></g></g></g></g></g></g></g></g></g><path d="m512 256c0-23.827-3.268-46.889-9.358-68.776l-102.365-102.365-98.238 86.672-21.151-21.151-1.113 12.441-14.293-14.293-2.631 13.21-76.88-76.88-104.078 148.581 129.045 129.044-46.688 83.423 64.668 64.668c8.9.936 17.934 1.426 27.082 1.426 141.385 0 256-114.615 256-256z" fill="#321982"/><g><g><g><path d="m179.174 141.129h-60.653c-26.601 0-48.16 21.559-48.16 48.16v19.48c0 17.762 14.395 32.157 32.157 32.157h92.667c17.754 0 32.149-14.395 32.149-32.157v-19.48c0-26.601-21.559-48.16-48.16-48.16z" fill="#ef5448"/><g><g><g><path d="m179.174 141.129h-30.322v99.797h46.334c17.754 0 32.149-14.395 32.149-32.157v-19.48c-.001-26.601-21.56-48.16-48.161-48.16z" fill="#c43345"/></g></g></g><path d="m148.847 137.894-27.23 3.17 13.72 25.49c2.9 5.38 8.2 8.07 13.51 8.07s10.62-2.69 13.51-8.07l13.73-25.49z" fill="#ffb985"/><g><path d="m148.851 137.895v36.73c5.309-.001 10.617-2.691 13.506-8.07l13.73-25.49z" fill="#f9a267"/></g><path d="m148.851 64.863v.004l-.002-.003c-24.555 0-44.461 19.906-44.461 44.461s19.906 44.46 44.461 44.46l.002-.003v.003c24.555 0 44.461-19.906 44.461-44.46 0-24.557-19.906-44.462-44.461-44.462z" fill="#ffd3ab"/><g><g><path d="m148.851 64.863v88.921c24.555 0 44.461-19.906 44.461-44.46 0-24.556-19.906-44.461-44.461-44.461z" fill="#ffb985"/></g></g></g><g><path d="m393.479 141.129h-60.653c-26.601 0-48.16 21.559-48.16 48.16v19.48c0 17.762 14.395 32.157 32.157 32.157h92.667c17.754 0 32.149-14.395 32.149-32.157v-19.48c0-26.601-21.558-48.16-48.16-48.16z" fill="#6cd5ff"/><g><g><g><path d="m393.479 141.129h-30.322v99.797h46.334c17.754 0 32.149-14.395 32.149-32.157v-19.48c-.001-26.601-21.559-48.16-48.161-48.16z" fill="#519fe0"/></g></g></g><path d="m363.153 137.894-27.23 3.17 13.72 25.49c2.9 5.38 8.2 8.07 13.51 8.07s10.62-2.69 13.51-8.07l13.73-25.49z" fill="#ffb985"/><g><path d="m363.157 137.895v36.73c5.309-.001 10.617-2.691 13.506-8.07l13.73-25.49z" fill="#f9a267"/></g><path d="m363.157 64.863v.004l-.002-.003c-24.555 0-44.461 19.906-44.461 44.461s19.906 44.46 44.461 44.46l.002-.003v.003c24.555 0 44.461-19.906 44.461-44.46-.001-24.557-19.906-44.462-44.461-44.462z" fill="#ffd3ab"/><g><g><path d="m363.157 64.863v88.921c24.555 0 44.461-19.906 44.461-44.46-.001-24.556-19.906-44.461-44.461-44.461z" fill="#ffb985"/></g></g></g></g><g><path d="m298.427 292.742h-84.855c-37.216 0-67.377 30.161-67.377 67.377v49.747c0 24.85 20.139 44.989 44.989 44.989h129.643c24.838 0 44.977-20.139 44.977-44.989v-49.746c.001-37.216-30.161-67.378-67.377-67.378z" fill="#fff"/><g><path d="m298.427 292.742h-42.427v162.113h64.828c24.838 0 44.977-20.139 44.977-44.989v-49.746c0-37.216-30.162-67.378-67.378-67.378z" fill="#e8e8e8"/></g><path d="m256 288.217-38.095 4.435 19.195 35.661c4.057 7.527 11.472 11.29 18.901 11.29s14.858-3.763 18.901-11.29l19.209-35.661z" fill="#ffb985"/><path d="m256 339.603c7.429 0 14.858-3.763 18.901-11.29l19.209-35.661-38.11-4.435z" fill="#f9a267"/><path d="m256.006 186.044v.005l-.003-.005c-34.353 0-62.202 27.848-62.202 62.202 0 34.353 27.849 62.201 62.202 62.201l.003-.005v.005c34.353 0 62.202-27.848 62.202-62.201-.001-34.353-27.849-62.202-62.202-62.202z" fill="#ffd3ab"/><g><g><path d="m256.006 186.044v.005l-.003-.005h-.003v124.403h.003l.003-.005v.005c34.353 0 62.202-27.848 62.202-62.201-.001-34.353-27.849-62.202-62.202-62.202z" fill="#ffb985"/></g></g></g><path d="m256 356.705 11.672 23.65 26.1 3.792-18.886 18.409 4.458 25.995-23.344-12.273-23.344 12.273 4.458-25.995-18.886-18.409 26.1-3.792z" fill="#ffdc4a"/><g><g><g><path d="m279.344 428.551-4.458-25.995 18.886-18.409-26.1-3.792-11.672-23.65v59.573z" fill="#edac2b"/></g></g></g><path d="m310.184 176.624-8.583 8.896c-6.24-19.5-20.713-35.141-20.713-35.141l-6.986 8.582c-9.882-13.835-17.894-19.068-17.894-19.068s-8.012 5.232-17.894 19.068l-6.986-8.582s-14.472 15.641-20.712 35.141l-8.583-8.896s-14.365 37-8.029 73.621l19.048-31.143 8.182 6.776 21.459-15.812 13.507 15.978 13.525-15.976 21.459 15.812 8.182-6.776 19.048 31.143c6.334-36.623-8.03-73.623-8.03-73.623z" fill="#edac2b"/><path d="m310.184 176.624-8.583 8.896c-6.24-19.5-20.713-35.141-20.713-35.141l-6.986 8.582c-9.882-13.835-17.894-19.068-17.894-19.068s-.003.002-.007.005v86.145l13.525-15.976 21.459 15.812 8.182-6.776 19.048 31.143c6.333-36.622-8.031-73.622-8.031-73.622z" fill="#ce8c17"/></g></g></svg>