<svg clip-rule="evenodd" fill-rule="evenodd" height="512" stroke-linejoin="round" stroke-miterlimit="2" viewBox="0 0 32 32" width="512" xmlns="http://www.w3.org/2000/svg"><g transform="translate(-120 -40)"><g transform="matrix(1.167 0 0 2 -22.667 -56)"><path d="m148 51c0-.53-.361-1.039-1.004-1.414s-1.515-.586-2.425-.586h-17.142c-.91 0-1.782.211-2.425.586s-1.004.884-1.004 1.414v10c0 .53.361 1.039 1.004 1.414s1.515.586 2.425.586h17.142c.91 0 1.782-.211 2.425-.586s1.004-.884 1.004-1.414z" fill="#a7dbeb"/></g><g transform="matrix(1.25 0 0 1.25 -35 -12.5)"><circle cx="136" cy="50" fill="#fff" r="4"/></g><g transform="matrix(1.286 0 0 1.2 -39.857 -14.6)"><path d="m143 65.5c0-1.989-.737-3.897-2.05-5.303-1.313-1.407-3.093-2.197-4.95-2.197s-3.637.79-4.95 2.197c-1.313 1.406-2.05 3.314-2.05 5.303v.833c0 .921.696 1.667 1.556 1.667h10.888c.86 0 1.556-.746 1.556-1.667z" fill="#67cdec"/></g><g transform="translate(0 1)"><path d="m143.5 51v4c0 .276.224.5.5.5s.5-.224.5-.5v-4c0-.276-.224-.5-.5-.5s-.5.224-.5.5z" fill="#fff"/></g><g transform="matrix(0 -1 1 0 91 198)"><path d="m143.5 51v4c0 .276.224.5.5.5s.5-.224.5-.5v-4c0-.276-.224-.5-.5-.5s-.5.224-.5.5z" fill="#fff"/></g></g></svg>