<svg id="Capa_1" enable-background="new 0 0 512 512" height="512" viewBox="0 0 512 512" width="512" xmlns="http://www.w3.org/2000/svg" xmlns:xlink="http://www.w3.org/1999/xlink"><clipPath id="SVGID_2_"><circle id="SVGID_1_" cx="256" cy="371.792" r="89.054"/></clipPath><circle cx="256" cy="256" fill="#ffce00" r="256"/><path d="m269.367 511.657c135.172-6.954 242.633-118.756 242.633-255.657 0-22.121-2.806-43.585-8.081-64.059l-66.569-66.569-52.733 46.875-76.116-76.116-16.444 18.548-24.742-24.742-22.755 19.536 58.107 58.107 3.05 6.698-78.147-78.146-134.289 173.775 23.189 23.189-19.553 16.282 26.117 26.117-8.354 12.654 25.13 25.13-4.73 4.09z" fill="#ffb000"/><g fill="#fff"><path d="m241.25 412.35c-.01-8.29 6.7-15.02 14.979-15.03 8.28-.01 15.011 6.69 15.021 14.98.02 8.28-6.69 15.01-14.97 15.02-.011 0-.021 0-.021 0-8.28 0-14.989-6.7-15.009-14.97zm-29.3 9.25c-8.011-2.12-12.78-10.34-10.65-18.34 2.12-8.01 10.33-12.78 18.34-10.65v-.01c8.01 2.13 12.78 10.34 10.65 18.35-1.78 6.72-7.851 11.16-14.49 11.16-1.27 0-2.571-.17-3.85-.51zm70.26-10.73c-2.15-8 2.59-16.23 10.59-18.38 8-2.16 16.23 2.59 18.39 10.59 2.141 8-2.6 16.23-10.6 18.38-1.3.35-2.61.52-3.9.52-6.621-.01-12.68-4.42-14.48-11.11zm-111.63-6.33c-7.181-4.14-9.641-13.31-5.511-20.49 4.141-7.17 13.311-9.64 20.49-5.5 7.181 4.13 9.641 13.3 5.51 20.48-2.779 4.82-7.819 7.51-13.01 7.51-2.539 0-5.12-.64-7.479-2zm150.81-5.72c-4.16-7.16-1.72-16.34 5.44-20.5 7.17-4.16 16.35-1.72 20.51 5.44 4.15 7.16 1.72 16.34-5.45 20.5-2.37 1.38-4.96 2.03-7.51 2.03-5.17 0-10.21-2.67-12.99-7.47zm-186.31-21.45c-5.87-5.85-5.891-15.35-.04-21.22 5.85-5.87 15.35-5.88 21.21-.04v.01c5.87 5.84 5.89 15.34.04 21.21-2.931 2.94-6.771 4.41-10.62 4.41-3.83 0-7.66-1.46-10.59-4.37zm221.01-.36c-5.87-5.85-5.88-15.35-.03-21.21 5.851-5.87 15.351-5.88 21.21-.03 5.87 5.85 5.88 15.35.03 21.21-2.93 2.94-6.77 4.41-10.62 4.41-3.83 0-7.66-1.46-10.59-4.38zm-248.31-35.03c-4.16-7.17-1.73-16.35 5.43-20.51 7.16-4.16 16.35-1.73 20.51 5.43 4.16 7.16 1.73 16.34-5.43 20.51-2.37 1.37-4.971 2.03-7.53 2.03-5.16 0-10.2-2.67-12.98-7.46zm276.22 5.02c-7.17-4.14-9.63-13.32-5.49-20.49 4.14-7.18 13.31-9.64 20.48-5.5 7.18 4.14 9.64 13.31 5.5 20.49-2.771 4.81-7.82 7.51-13 7.51-2.551 0-5.12-.65-7.49-2.01zm-293.431-46.32c-2.159-7.99 2.58-16.23 10.58-18.38 7.99-2.16 16.23 2.58 18.381 10.58 2.159 8-2.58 16.23-10.58 18.38-1.301.36-2.62.52-3.91.52-6.61 0-12.67-4.4-14.471-11.1zm312.66 10.1c-8.01-2.13-12.779-10.34-10.64-18.35 2.12-8.01 10.34-12.77 18.35-10.64 8 2.13 12.771 10.35 10.641 18.35-1.79 6.72-7.86 11.15-14.49 11.15-1.28 0-2.57-.16-3.861-.51zm-318.549-54.41c0-.07 0-.14 0-.2 0-.06 0-.11 0-.17 0-8.28 6.71-15 15-15 8.28 0 15 6.72 15 15v.17.14c.01 8.28-6.689 15.01-14.97 15.03-.01 0-.021 0-.03 0-8.27 0-14.991-6.7-15-14.97zm312.639-.52c-.01-8.29 6.7-15.01 14.98-15.02 8.29-.01 15.01 6.7 15.02 14.98.011 8.29-6.699 15.01-14.979 15.02-.01 0-.01 0-.021 0-8.269 0-14.989-6.71-15-14.98zm-296.229-25.81c-8-2.14-12.76-10.36-10.62-18.36 2.14-8.01 10.36-12.76 18.36-10.62 8.01 2.14 12.76 10.36 10.62 18.36-1.79 6.71-7.851 11.13-14.48 11.13-1.281 0-2.58-.16-3.88-.51zm291.42-10.77c-2.15-8 2.59-16.23 10.59-18.37 8.01-2.15 16.23 2.59 18.38 10.59 2.15 8.01-2.6 16.23-10.6 18.38-1.3.35-2.61.52-3.9.52-6.621 0-12.68-4.42-14.47-11.12zm-279.43-28.43c-7.181-4.15-9.63-13.33-5.48-20.5 4.15-7.17 13.32-9.62 20.49-5.47 7.17 4.14 9.63 13.32 5.479 20.49-2.779 4.81-7.819 7.49-13 7.49-2.549 0-5.13-.65-7.489-2.01zm265.279-5.61c-4.159-7.16-1.72-16.34 5.45-20.5 7.17-4.15 16.351-1.71 20.5 5.46 4.15 7.16 1.71 16.34-5.45 20.5-2.369 1.37-4.96 2.02-7.51 2.02-5.179 0-10.209-2.68-12.99-7.48zm-243.529-29.13c-5.86-5.86-5.86-15.36 0-21.22 5.859-5.85 15.35-5.86 21.21 0 5.859 5.86 5.859 15.35.01 21.21-2.93 2.93-6.77 4.4-10.61 4.4-3.84 0-7.68-1.46-10.61-4.39zm221.02-.1c-5.859-5.86-5.87-15.36-.01-21.22 5.85-5.86 15.35-5.87 21.21-.02 5.86 5.86 5.87 15.35.02 21.22-2.93 2.93-6.779 4.4-10.619 4.4-3.842 0-7.671-1.46-10.601-4.38zm-191.05-27.86c-4.15-7.17-1.7-16.35 5.46-20.5 7.18-4.15 16.35-1.7 20.5 5.47 4.15 7.17 1.71 16.34-5.46 20.5-2.37 1.37-4.95 2.02-7.5 2.02-5.18 0-10.22-2.69-13-7.49zm161.769 5.39c-7.17-4.14-9.63-13.32-5.479-20.49 4.14-7.17 13.31-9.63 20.49-5.49 7.17 4.15 9.63 13.32 5.479 20.5-2.779 4.81-7.819 7.49-13 7.49-2.539 0-5.12-.64-7.49-2.01zm-125.599-24.67c-2.14-8 2.61-16.22 10.61-18.36 8.01-2.15 16.229 2.6 18.37 10.61 2.149 8-2.601 16.22-10.61 18.37-1.3.34-2.6.51-3.88.51-6.63 0-12.69-4.42-14.49-11.13zm91.54 10.58c-8.01-2.14-12.77-10.36-10.64-18.36 2.14-8.01 10.359-12.77 18.359-10.63 8 2.13 12.761 10.35 10.63 18.35-1.79 6.71-7.85 11.14-14.479 11.14-1.28 0-2.58-.16-3.87-.5zm-51.6-19.75c0-8.29 6.71-15.01 15-15.01 8.279-.01 15 6.71 15 14.99.01 8.28-6.7 15-14.99 15.01-8.28 0-15-6.71-15.01-14.99z"/><path d="m219.64 392.6v.01c-8.01-2.13-16.22 2.64-18.34 10.65-2.13 8 2.64 16.22 10.65 18.34 1.279.34 2.58.51 3.85.51 6.64 0 12.71-4.44 14.49-11.16 2.13-8.01-2.641-16.22-10.65-18.35z"/><path d="m177.8 135.63c2.55 0 5.13-.65 7.5-2.02 7.17-4.16 9.61-13.33 5.46-20.5s-13.32-9.62-20.5-5.47c-7.16 4.15-9.61 13.33-5.46 20.5 2.78 4.8 7.82 7.49 13 7.49z"/><path d="m378.359 185.23c2.78 4.8 7.811 7.48 12.99 7.48 2.55 0 5.141-.65 7.51-2.02 7.16-4.16 9.601-13.34 5.45-20.5-4.149-7.17-13.33-9.61-20.5-5.46-7.169 4.16-9.609 13.34-5.45 20.5z"/><path d="m392.51 219.27c1.79 6.7 7.85 11.12 14.47 11.12 1.29 0 2.601-.17 3.9-.52 8-2.15 12.75-10.37 10.6-18.38-2.149-8-10.37-12.74-18.38-10.59-8 2.14-12.741 10.37-10.59 18.37z"/><path d="m145.439 160.49c3.841 0 7.681-1.47 10.61-4.4 5.85-5.86 5.85-15.35-.01-21.21s-15.351-5.85-21.21 0c-5.86 5.86-5.86 15.36 0 21.22 2.931 2.93 6.771 4.39 10.61 4.39z"/><path d="m113.08 190.84c2.359 1.36 4.939 2.01 7.489 2.01 5.181 0 10.221-2.68 13-7.49 4.15-7.17 1.69-16.35-5.479-20.49-7.17-4.15-16.34-1.7-20.49 5.47s-1.701 16.35 5.48 20.5z"/><path d="m101.09 230.04c1.3.35 2.6.51 3.88.51 6.63 0 12.69-4.42 14.48-11.13 2.14-8-2.61-16.22-10.62-18.36-8-2.14-16.221 2.61-18.36 10.62-2.14 8 2.62 16.22 10.62 18.36z"/><path d="m292.8 392.49c-8 2.15-12.74 10.38-10.59 18.38 1.8 6.69 7.859 11.1 14.479 11.11 1.29 0 2.601-.17 3.9-.52 8-2.15 12.74-10.38 10.6-18.38-2.159-8-10.389-12.75-18.389-10.59z"/></g><path d="m356.06 355.8c-5.85 5.86-5.84 15.36.03 21.21 2.93 2.92 6.76 4.38 10.59 4.38 3.851 0 7.69-1.47 10.62-4.41 5.85-5.86 5.84-15.36-.03-21.21-5.86-5.85-15.36-5.84-21.21.03z" fill="#f2f6fc"/><path d="m398.99 321.01c-7.171-4.14-16.341-1.68-20.48 5.5-4.14 7.17-1.68 16.35 5.49 20.49 2.37 1.36 4.939 2.01 7.49 2.01 5.18 0 10.229-2.7 13-7.51 4.14-7.18 1.68-16.35-5.5-20.49z" fill="#f2f6fc"/><path d="m326.83 378.32c-7.16 4.16-9.601 13.34-5.44 20.5 2.78 4.8 7.82 7.47 12.99 7.47 2.55 0 5.14-.65 7.51-2.03 7.17-4.16 9.601-13.34 5.45-20.5-4.16-7.16-13.34-9.6-20.51-5.44z" fill="#f2f6fc"/><path d="m366.45 160.38c3.84 0 7.689-1.47 10.619-4.4 5.851-5.87 5.841-15.36-.02-21.22-5.86-5.85-15.36-5.84-21.21.02-5.86 5.86-5.85 15.36.01 21.22 2.931 2.92 6.76 4.38 10.601 4.38z" fill="#fff"/><path d="m412.3 240.83c-8.28.01-14.99 6.73-14.98 15.02.011 8.27 6.73 14.98 15 14.98h.021c8.28-.01 14.99-6.73 14.979-15.02-.01-8.28-6.73-14.99-15.02-14.98z" fill="#f2f6fc"/><path d="m410.939 281.79c-8.01-2.13-16.229 2.63-18.35 10.64-2.14 8.01 2.63 16.22 10.64 18.35 1.29.35 2.58.51 3.86.51 6.63 0 12.7-4.43 14.49-11.15 2.131-8-2.64-16.22-10.64-18.35z" fill="#f2f6fc"/><path d="m326.569 133.53c2.37 1.37 4.95 2.01 7.49 2.01 5.181 0 10.221-2.68 13-7.49 4.15-7.18 1.69-16.35-5.479-20.5-7.181-4.14-16.351-1.68-20.49 5.49-4.151 7.17-1.691 16.35 5.479 20.49z" fill="#fff"/><path d="m270.91 99.67c0-8.28-6.721-15-15-14.99-.106 0-.209.014-.315.016v29.967c.109.002.215.017.325.017 8.29-.01 15-6.73 14.99-15.01z" fill="#f2f6fc"/><path d="m241.25 412.35c.019 8.046 6.376 14.587 14.345 14.937v-29.934c-7.982.345-14.355 6.921-14.345 14.997z" fill="#fff"/><path d="m292.51 119.44c1.29.34 2.59.5 3.87.5 6.63 0 12.689-4.43 14.479-11.14 2.131-8-2.63-16.22-10.63-18.35-8-2.14-16.22 2.62-18.359 10.63-2.13 8 2.63 16.22 10.64 18.36z" fill="#f2f6fc"/><path d="m256.229 397.32c-.214 0-.422.024-.634.033v29.934c.222.01.44.034.665.034h.021c8.279-.01 14.989-6.74 14.97-15.02-.011-8.291-6.741-14.991-15.022-14.981z" fill="#fff"/><circle cx="256" cy="371.792" fill="#4a7aff" r="89.054"/><path d="m256 282.738c-.135 0-.27.004-.405.005v178.098c.135.001.27.005.405.005 49.183 0 89.054-39.871 89.054-89.054s-39.871-89.054-89.054-89.054z" fill="#0053bf"/><g clip-path="url(#SVGID_2_)"><path d="m256 460.846c21.229 0 40.719-7.433 56.021-19.832l-31.83-14.365c-4.665-2.105-7.769-7.601-7.769-13.752v-13.574h-32.89v13.574c0 6.152-3.104 11.647-7.769 13.752l-31.8 14.352c15.304 12.407 34.8 19.845 56.037 19.845z" fill="#faa68e"/><path d="m255.595 399.323v61.518c.135.001.27.005.405.005 21.229 0 40.719-7.433 56.021-19.832l-31.83-14.365c-4.665-2.105-7.769-7.601-7.769-13.752v-13.574z" fill="#d47f6c"/><path d="m213.783 354.102v18.359c0 15.957 8.924 30.574 23.118 37.866l9.579 4.92c5.975 3.069 13.064 3.069 19.039 0l9.578-4.92c14.194-7.291 23.119-21.909 23.119-37.867v-18.358c0-23.316-18.901-42.216-42.216-42.216-23.316-.001-42.217 18.9-42.217 42.216z" fill="#ffbeaa"/><path d="m256 311.885c-.136 0-.269.009-.405.01v105.641c3.4.066 6.813-.692 9.924-2.29l9.578-4.92c14.194-7.292 23.119-21.909 23.119-37.867v-18.358c.001-23.315-18.901-42.216-42.216-42.216z" fill="#e09380"/><path d="m305.764 342.447c0-23.019-18.661-41.68-41.68-41.68h-57.848v49.574c0 14.376 7.715 26.601 7.8 26.734-.046-.42 6.241-39.12 6.241-39.12l-.061-.11c23.647 12.831 70.395 6.635 70.395 6.635 1.824 12.768 7.349 32.627 7.349 32.627.154-.225.297-.474.436-.735 4.662-7.575 7.368-16.483 7.368-26.031z" fill="#414952"/><path d="m264.084 300.767h-8.489v44.976c18.418.936 35.016-1.263 35.016-1.263 1.824 12.768 7.349 32.627 7.349 32.627.154-.225.297-.474.436-.735 4.662-7.575 7.368-16.483 7.368-26.031v-7.894c0-23.019-18.661-41.68-41.68-41.68z" fill="#23272b"/><path d="m256 460.846c21.229 0 40.719-7.433 56.021-19.832l-30.239-13.647c-14.239 14.239-37.325 14.239-51.563 0l-.015-.015-30.241 13.648c15.304 12.408 34.8 19.846 56.037 19.846z" fill="#e9edf5"/><path d="m255.595 460.841c.135.001.27.005.405.005 21.229 0 40.719-7.433 56.021-19.832l-30.239-13.647c-7.222 7.223-16.721 10.774-26.187 10.669z" fill="#dce1eb"/></g><g clip-path="url(#SVGID_2_)"><circle cx="256" cy="371.792" fill="none" r="89.054"/></g><g clip-path="url(#SVGID_2_)"><circle cx="256" cy="371.792" fill="none" r="89.054"/></g><g clip-path="url(#SVGID_2_)"><circle cx="256" cy="371.792" fill="none" r="89.054"/></g><g clip-path="url(#SVGID_2_)"><circle cx="256" cy="371.792" fill="none" r="89.054"/></g><circle cx="367.801" cy="184.595" fill="#ff636e" r="91.352"/><path d="m367.801 93.243c-.101 0-.201.003-.301.003v182.697c.101 0 .201.003.301.003 50.453 0 91.352-40.899 91.352-91.352s-40.899-91.351-91.352-91.351z" fill="#f03049"/><path d="m368.079 107.618c-28.389 0-51.403 23.014-51.403 51.403v101.289c14.59 9.871 32.184 15.637 51.126 15.637 19.186 0 36.981-5.926 51.681-16.032v-100.894c-.001-28.389-23.015-51.403-51.404-51.403z" fill="#414952"/><path d="m368.079 107.618c-.194 0-.385.012-.579.015v168.309c.101 0 .2.005.301.005 19.186 0 36.981-5.926 51.681-16.031v-100.895c0-28.389-23.014-51.403-51.403-51.403z" fill="#23272b"/><path d="m393.066 250.191c-4.818-2.174-8.025-7.851-8.025-14.205v-14.021h-33.974v14.021c0 6.355-3.207 12.031-8.025 14.205l-24.74 11.166c14.266 9.219 31.25 14.591 49.499 14.591 18.338 0 35.399-5.423 49.708-14.725z" fill="#e09380"/><path d="m417.509 261.223-24.443-11.032c-4.818-2.174-8.025-7.851-8.025-14.205v-14.021h-17.541v53.977c.101 0 .2.005.301.005 18.338 0 35.4-5.423 49.708-14.724z" fill="#cc6d58"/><path d="m324.472 174.039v20.178c0 16.483 9.218 31.582 23.88 39.114l9.894 5.082c6.172 3.171 13.494 3.171 19.666 0l9.894-5.082c14.662-7.532 23.88-22.631 23.88-39.114v-20.178c0-3.428-87.214-3.428-87.214 0z" fill="#faa68e"/><path d="m367.5 171.468v69.306c3.565.096 7.149-.685 10.412-2.361l9.894-5.082c14.662-7.532 23.88-22.631 23.88-39.114v-20.178c0-1.729-22.191-2.586-44.186-2.571z" fill="#d47f6c"/><path d="m394.71 250.933c-14.708 14.708-38.554 14.708-53.262 0l-.015-.015-23.13 10.439c14.266 9.219 31.25 14.591 49.499 14.591 18.338 0 35.399-5.423 49.708-14.725z" fill="#00c8c8"/><path d="m417.509 261.223-22.8-10.29c-7.501 7.501-17.379 11.167-27.209 11.017v13.992c.101 0 .2.005.301.005 18.338 0 35.4-5.423 49.708-14.724z" fill="#00a0aa"/><circle cx="153.208" cy="184.595" fill="#00c8c8" r="91.352"/><path d="m153.208 93.243c-.197 0-.392.006-.589.007v182.69c.197.001.392.007.589.007 50.453 0 91.352-40.899 91.352-91.352s-40.899-91.352-91.352-91.352z" fill="#00a0aa"/><path d="m153.485 107.618c-28.389 0-51.403 23.014-51.403 51.403v51.289c14.59 9.871 32.184 15.637 51.126 15.637 19.186 0 36.981-5.926 51.681-16.032v-50.894c0-28.389-23.014-51.403-51.404-51.403z" fill="#fff"/><path d="m153.485 107.618c-.291 0-.577.017-.866.022v118.296c.197.001.392.011.589.011 19.186 0 36.981-5.926 51.681-16.031v-50.895c0-28.389-23.014-51.403-51.404-51.403z" fill="#f2f6fc"/><path d="m178.473 250.191c-4.818-2.174-8.025-7.851-8.025-14.205v-14.021h-33.974v14.021c0 6.355-3.207 12.031-8.025 14.205l-24.74 11.166c14.266 9.219 31.25 14.591 49.499 14.591 18.338 0 35.399-5.423 49.708-14.725z" fill="#e09380"/><path d="m202.916 261.223-24.443-11.032c-4.818-2.174-8.025-7.851-8.025-14.205v-14.021h-17.829v53.971c.197.001.392.011.589.011 18.338 0 35.399-5.423 49.708-14.724z" fill="#cc6d58"/><path d="m109.878 174.039v20.178c0 16.483 9.218 31.582 23.88 39.114l9.894 5.082c6.172 3.171 13.494 3.171 19.666 0l9.894-5.082c14.662-7.532 23.88-22.631 23.88-39.114v-20.178c0-1.714-19.092-21.52-19.092-21.52s-68.122 19.806-68.122 21.52z" fill="#faa68e"/><path d="m178 152.519s-11.689 3.398-25.381 7.501v80.746c3.66.147 7.349-.632 10.699-2.353l9.894-5.082c14.662-7.532 23.88-22.631 23.88-39.114v-20.178c.001-1.714-19.092-21.52-19.092-21.52z" fill="#d47f6c"/><path d="m180.116 250.933c-14.708 14.708-38.554 14.708-53.262 0l-.015-.015-23.13 10.439c14.266 9.219 31.25 14.591 49.499 14.591 18.338 0 35.399-5.423 49.708-14.725z" fill="#ff636e"/><path d="m202.916 261.223-22.8-10.29c-7.574 7.574-17.572 11.237-27.497 11.01v13.994c.197.001.392.011.589.011 18.338-.001 35.399-5.424 49.708-14.725z" fill="#f03049"/></svg>