<svg id="Layer_1" height="512" viewBox="0 0 512 512" width="512" xmlns="http://www.w3.org/2000/svg" data-name="Layer 1"><g fill-rule="evenodd"><path d="m26.284 464.386h131.966a20.311 20.311 0 0 0 19.867-16.26l1.368-6.8 27.323 9.765a41.9 41.9 0 0 0 14.506 2.579h214.029a34.685 34.685 0 0 0 34.246-27.82l36.087-170.683a15.19 15.19 0 0 0 .327-3.117 41.7 41.7 0 0 0 -41.661-41.65h-61.442l2.153-7.63a440.413 440.413 0 0 0 10.447-48.279c3.515-21.384 5.994-43 8.106-64.564a14.882 14.882 0 0 0 .009-2.808c-1.4-15.565-8.6-29.041-23.155-35.655-18.5-8.4-42.234-2-57.914 9.456-10.7 7.816-19.7 19.773-18.078 33.683.985 8.449-2.626 17.2-6.822 24.338-5.827 9.917-14.062 19.139-22.255 27.157l-.877.858-1.145.445c-27.135 10.553-50.758 26.855-69.2 49.43l-.179.22-.2.2c-9.794 9.909-15.458 19.291-21.39 31.669-1.23 2.566-2.455 5.217-3.926 7.653l-1.75 2.9h-18.2v-15.859a20.3 20.3 0 0 0 -20.27-20.292h-131.97a20.31 20.31 0 0 0 -20.284 20.292v220.479a20.311 20.311 0 0 0 20.284 20.293z" fill="#bddbff"/><path d="m42 239.332h100.524v189.044h-100.524zm153.021 36.151a38.467 38.467 0 0 0 32.171-17 99.052 99.052 0 0 0 7.674-14c3.529-7.359 6.858-14.289 15.082-22.5a12.014 12.014 0 0 0 1.55-1.715c14.889-18.433 33.965-31.721 58.292-40.581a21.789 21.789 0 0 0 7.21-4.441c31.228-29.436 45.467-56.371 43.46-82.376 3.4-4.287 15.689-10.574 23.827-9 1.35.285 2.629.5 3.272 4.786-5.437 54.727-11.617 88.878-21.226 117.527a30.533 30.533 0 0 0 28.913 40.224h69.1a5.752 5.752 0 0 1 5.487 4.287l-35.3 166.967h-213.22a5.154 5.154 0 0 1 -2.321-.429l-34.473-12.36v-129.389zm-168.738 194.902h131.966a26.308 26.308 0 0 0 25.751-21.076l20.79 7.43a46.631 46.631 0 0 0 16.525 2.93h214.027a40.667 40.667 0 0 0 40.116-32.579l36.087-170.683a21.019 21.019 0 0 0 .457-4.358 47.7 47.7 0 0 0 -47.661-47.649h-53.519c8.187-29.006 13.817-63.515 18.754-113.883a21.206 21.206 0 0 0 .014-3.93c-2.322-25.868-17.69-36.513-26.649-40.587-21.39-9.717-47.525-1.929-63.936 10.073-14.682 10.717-22.155 25.006-20.5 39.224 1.344 11.5-8.33 27.935-27.313 46.51-29.028 11.289-53.112 28.507-71.674 51.226-12.782 12.932-18.4 24.721-22.533 33.294-1.315 2.786-2.487 5.215-3.652 7.144h-8.816v-9.859a26.3 26.3 0 0 0 -26.27-26.292h-131.964a26.313 26.313 0 0 0 -26.283 26.294v220.479a26.312 26.312 0 0 0 26.283 26.292z" fill="#2e58ff"/></g></svg>