<svg id="Capa_1" enable-background="new 0 0 501 501" height="512" viewBox="0 0 501 501" width="512" xmlns="http://www.w3.org/2000/svg"><path d="m488.636 230h-487.272c12.983-123.086 117.109-219 243.636-219s230.653 95.914 243.636 219z" fill="#00f1a5"/><path d="m389 95v331.739c0-8.284-6.716-15-15-15h-307.794c-6.665 0-12.972-3.097-16.983-8.42-10.408-13.81-19.389-28.756-26.723-44.619v-278.7h351.5c8.284 0 15 6.716 15 15z" fill="#f52c2c"/><path d="m45 80c-8.284 0-15 6.716-15 15v278.569c-17.583-32.087-28.193-68.538-29.789-107.316.006-.929-.211-22.295-.211-22.295v-148.958c0-8.284 6.716-15 15-15z" fill="#ab2538"/><path d="m340 125v291.883c0 43.788-33.723 80.394-77.401 83.495-5.812.412-11.681.622-17.599.622-80.144 0-151.301-38.482-196-97.977v-278.023c0-2.761 2.239-5 5-5h281c2.761 0 5 2.239 5 5z" fill="#ffdf8e"/><path d="m270 100v20c0 11.046-8.954 20-20 20h-111c-11.046 0-20-8.954-20-20v-20h20v10c0 5.523 4.477 10 10 10h91c5.523 0 10-4.477 10-10v-10z" fill="#5b3374"/><path d="m270 100v20c0 11.046-8.954 20-20 20h-81c-5.523 0-10-4.477-10-10 0-5.523 4.477-10 10-10h71c5.523 0 10-4.477 10-10v-10z" fill="#6354b0"/><path d="m270 60h-26.505c.659-3.232 1.005-6.576 1.005-10 0-27.57-22.43-50-50-50s-50 22.43-50 50c0 3.424.346 6.768 1.005 10h-26.505c-11.046 0-20 8.954-20 20v10c0 11.046 8.954 20 20 20h151c11.046 0 20-8.954 20-20v-10c0-11.046-8.954-20-20-20zm-105.5-10c0-16.542 13.458-30 30-30s30 13.458 30 30c0 3.505-.604 6.871-1.714 10h-56.572c-1.11-3.129-1.714-6.495-1.714-10z" fill="#d98800"/><path d="m270 90h-121c-11.046 0-20-8.954-20-20 0-3.647.992-7.056 2.697-10h138.303c9.316 0 17.121 6.379 19.344 15-2.223 8.621-10.028 15-19.344 15z" fill="#f4aa39"/><path d="m139 365v40c0 8.284-6.716 15-15 15h-40c-8.284 0-15-6.716-15-15v-40c0-8.284 6.716-15 15-15h40c8.284 0 15 6.716 15 15zm-15-195h-40c-8.284 0-15 6.716-15 15v40c0 8.284 6.716 15 15 15h40c8.284 0 15-6.716 15-15v-40c0-8.284-6.716-15-15-15zm0 90h-40c-8.284 0-15 6.716-15 15v40c0 8.284 6.716 15 15 15h40c8.284 0 15-6.716 15-15v-40c0-8.284-6.716-15-15-15z" fill="#fff5f5"/><path d="m299 195h-100c-5.523 0-10-4.477-10-10 0-5.523 4.477-10 10-10h100c5.523 0 10 4.477 10 10 0 5.523-4.477 10-10 10zm-10 30c0-5.523-4.477-10-10-10h-80c-5.523 0-10 4.477-10 10 0 5.523 4.477 10 10 10h80c5.523 0 10-4.477 10-10zm20 50c0-5.523-4.477-10-10-10h-100c-5.523 0-10 4.477-10 10 0 5.523 4.477 10 10 10h100c5.523 0 10-4.477 10-10zm-20 40c0-5.523-4.477-10-10-10h-80c-5.523 0-10 4.477-10 10 0 5.523 4.477 10 10 10h80c5.523 0 10-4.477 10-10zm20 50c0-5.523-4.477-10-10-10h-100c-5.523 0-10 4.477-10 10 0 5.523 4.477 10 10 10h100c5.523 0 10-4.477 10-10zm-60 40c0-5.523-4.477-10-10-10h-40c-5.523 0-10 4.477-10 10 0 5.523 4.477 10 10 10h40c5.523 0 10-4.477 10-10zm-70 65c0-5.523-4.477-10-10-10s-10 4.477-10 10 4.477 10 10 10 10-4.477 10-10zm-30 0c0 3.954-2.295 7.372-5.625 8.994-4.813-2.197-9.543-4.545-14.183-7.039-.126-.632-.192-1.286-.192-1.955 0-5.523 4.477-10 10-10s10 4.477 10 10zm60 0c0 5.523-4.477 10-10 10s-10-4.477-10-10 4.477-10 10-10 10 4.477 10 10z" fill="#fdc273"/><path d="m81.929 207.072c-3.905-3.905-3.905-10.237 0-14.143 3.905-3.905 10.237-3.905 14.143 0l17.928 17.929 47.929-47.929c3.905-3.905 10.237-3.905 14.143 0s3.905 10.237 0 14.143l-55 55c-1.953 1.952-4.513 2.928-7.072 2.928s-5.119-.976-7.071-2.929zm80 135.857-47.929 47.929-17.928-17.929c-3.905-3.905-10.237-3.905-14.143 0-3.905 3.905-3.905 10.237 0 14.143l25 25c1.953 1.953 4.512 2.929 7.071 2.929s5.119-.976 7.071-2.929l55-55c3.905-3.905 3.905-10.237 0-14.143s-10.237-3.906-14.142 0zm0-90-47.929 47.929-17.928-17.929c-3.905-3.905-10.237-3.905-14.143 0-3.905 3.905-3.905 10.237 0 14.143l25 25c1.953 1.953 4.512 2.929 7.071 2.929s5.119-.976 7.071-2.929l55-55c3.905-3.905 3.905-10.237 0-14.143s-10.237-3.905-14.142 0z" fill="#fc6930"/><path d="m309 179.393v293.604c0 11.767-8.36 21.948-19.937 24.051-9.829 1.785-19.862 2.984-30.063 3.558v-161.213c-5.523 0-10-4.477-10-10v-40c0-5.523 4.477-10 10-10v-20c-5.523 0-10-4.477-10-10v-40c0-5.523 4.477-10 10-10v-20c0-11.046 8.954-20 20-20h50c-11.046 0-20 8.955-20 20zm182 20h-52c-5.523 0-10 4.477-10 10v40c0 5.523 4.477 10 10 10h52c5.523 0 10-4.477 10-10v-40c0-5.522-4.477-10-10-10z" fill="#5b3374"/><path d="m490 256c0 42.651-10.899 82.757-30.063 117.684-45.305 82.569-170.937 50.154-170.937-44.028v-150.263c0-11.046 8.954-20 20-20h161c11.046 0 20 8.954 20 20z" fill="#6354b0"/><path d="m394.5 186.393h-40c-2.761 0-5-2.239-5-5 0-2.761 2.239-5 5-5h40c2.761 0 5 2.239 5 5 0 2.762-2.239 5-5 5z" fill="#5b3374"/><path d="m289 497.06v-287.667c0-5.523 4.477-10 10-10h151c5.523 0 10 4.477 10 10v164.175c-34.873 63.638-97.176 110.105-171 123.492z" fill="#e3f0fb"/><path d="m309 280v-40c0-5.523 4.477-10 10-10h90c5.523 0 10 4.477 10 10v40c0 5.523-4.477 10-10 10h-90c-5.523 0-10-4.477-10-10zm0 70v-40c0-5.523 4.477-10 10-10h90c5.523 0 10 4.477 10 10v40c0 5.523-4.477 10-10 10h-90c-5.523 0-10-4.477-10-10zm0 70v-40c0-5.523 4.477-10 10-10h90c5.523 0 10 4.477 10 10v40c0 5.523-4.477 10-10 10h-90c-5.523 0-10-4.477-10-10zm15 25c-2.761 0-5 2.239-5 5 0 2.761 2.239 5 5 5 2.761 0 5-2.239 5-5 0-2.761-2.239-5-5-5zm15 0c-2.761 0-5 2.239-5 5 0 2.761 2.239 5 5 5 2.761 0 5-2.239 5-5 0-2.761-2.239-5-5-5zm15 0c-2.761 0-5 2.239-5 5 0 2.761 2.239 5 5 5 2.761 0 5-2.239 5-5 0-2.761-2.239-5-5-5z" fill="#91cefb"/><path d="m369 250c0 2.761-2.239 5-5 5h-40c-2.761 0-5-2.239-5-5s2.239-5 5-5h40c2.761 0 5 2.239 5 5zm-15 15h-30c-2.761 0-5 2.239-5 5s2.239 5 5 5h30c2.761 0 5-2.239 5-5s-2.239-5-5-5zm15 55c0 2.761-2.239 5-5 5h-40c-2.761 0-5-2.239-5-5s2.239-5 5-5h40c2.761 0 5 2.239 5 5zm-15 15h-30c-2.761 0-5 2.239-5 5s2.239 5 5 5h30c2.761 0 5-2.239 5-5s-2.239-5-5-5zm15 55c0 2.761-2.239 5-5 5h-40c-2.761 0-5-2.239-5-5s2.239-5 5-5h40c2.761 0 5 2.239 5 5zm-15 15h-30c-2.761 0-5 2.239-5 5s2.239 5 5 5h30c2.761 0 5-2.239 5-5s-2.239-5-5-5z" fill="#05a2f9"/><path d="m439 260c0 16.569-13.431 30-30 30s-30-13.431-30-30 13.431-30 30-30 30 13.431 30 30zm0 70c0 16.569-13.431 30-30 30s-30-13.431-30-30 13.431-30 30-30 30 13.431 30 30zm0 70c0 16.569-13.431 30-30 30s-30-13.431-30-30 13.431-30 30-30 30 13.431 30 30z" fill="#fc6930"/><path d="m436.342 272.342c-4.707 10.41-15.175 17.658-27.342 17.658-16.569 0-30-13.431-30-30 0-12.167 7.248-22.635 17.658-27.342-1.702 3.765-2.658 7.941-2.658 12.342 0 16.569 13.431 30 30 30 4.401 0 8.577-.956 12.342-2.658zm0 70c-4.707 10.41-15.175 17.658-27.342 17.658-16.569 0-30-13.431-30-30 0-12.167 7.248-22.635 17.658-27.342-1.702 3.765-2.658 7.941-2.658 12.342 0 16.569 13.431 30 30 30 4.401 0 8.577-.956 12.342-2.658zm0 70c-4.707 10.41-15.175 17.658-27.342 17.658-16.569 0-30-13.431-30-30 0-12.167 7.248-22.635 17.658-27.342-1.702 3.765-2.658 7.941-2.658 12.342 0 16.569 13.431 30 30 30 4.401 0 8.577-.956 12.342-2.658z" fill="#f52c2c"/><path d="m429 260c0 2.761-2.239 5-5 5h-10v10c0 2.761-2.239 5-5 5s-5-2.239-5-5v-10h-10c-2.761 0-5-2.239-5-5s2.239-5 5-5h10v-10c0-2.761 2.239-5 5-5s5 2.239 5 5v10h10c2.761 0 5 2.239 5 5zm0 70c0 2.761-2.239 5-5 5h-10v10c0 2.761-2.239 5-5 5s-5-2.239-5-5v-10h-10c-2.761 0-5-2.239-5-5s2.239-5 5-5h10v-10c0-2.761 2.239-5 5-5s5 2.239 5 5v10h10c2.761 0 5 2.239 5 5zm0 70c0 2.761-2.239 5-5 5h-10v10c0 2.761-2.239 5-5 5s-5-2.239-5-5v-10h-10c-2.761 0-5-2.239-5-5s2.239-5 5-5h10v-10c0-2.761 2.239-5 5-5s5 2.239 5 5v10h10c2.761 0 5 2.239 5 5z" fill="#fff5f5"/></svg>