<svg id="Layer_1" enable-background="new 0 0 128 128" height="512" viewBox="0 0 128 128" width="512" xmlns="http://www.w3.org/2000/svg"><path d="m107.607 27.037h-11.949v-8.28c0-1.656-.832-3.181-2.225-4.076-1.393-.896-3.125-1.021-4.633-.334l-11.396 5.198v-4.799c0-2.673-2.174-4.847-4.847-4.847h-31.87c-2.672 0-4.846 2.174-4.846 4.847v12.291h-11.947c-9.252 0-16.779 7.526-16.779 16.778v43.429 17.578c0 9.252 7.527 16.778 16.779 16.778h83.713c9.251 0 16.778-7.526 16.778-16.778v-17.578-43.429c0-9.252-7.527-16.778-16.778-16.778z" fill="#e6e7e8"/><path d="m104.107 24.537h-12.949v9.281c0 2.8-2.896 4.661-5.443 3.499l-12.811-5.844v6.355c0 2.124-1.722 3.846-3.846 3.846h-31.87c-2.124 0-3.846-1.722-3.846-3.846v-13.291h-12.948c-8.714 0-15.779 7.064-15.779 15.779v61.006c0 8.714 7.064 15.779 15.779 15.779h83.713c8.714 0 15.779-7.064 15.779-15.779v-61.006c-.001-8.714-7.065-15.779-15.779-15.779z" fill="#fff"/><path d="m104.107 27.165h-12.949v6.653c0 2.8-2.896 4.661-5.443 3.499l-12.811-5.844v6.355c0 2.124-1.722 3.846-3.846 3.846h-31.87c-2.124 0-3.846-1.722-3.846-3.846v-10.663h-12.948c-8.714 0-15.779 7.064-15.779 15.779v40.801h115.27v-40.802c0-8.714-7.064-15.778-15.778-15.778z" fill="#6dc9f7"/><path d="m104.107 117.101h-83.713c-8.714 0-15.779-7.064-15.779-15.779v-17.578h115.27v17.578c0 8.714-7.064 15.779-15.778 15.779z" fill="#0089ef"/><path d="m85.716 11.757-12.811 5.844v-6.355c0-2.124-1.722-3.846-3.846-3.846h-31.87c-2.124 0-3.846 1.722-3.846 3.846v26.583c0 2.124 1.722 3.846 3.846 3.846h31.87c2.124 0 3.846-1.722 3.846-3.846v-6.355l12.811 5.844c2.547 1.162 5.443-.7 5.443-3.499v-18.562c-.001-2.8-2.896-4.662-5.443-3.5z" fill="#fa759e"/><path d="m104.107 23.537h-11.949v-8.28c0-1.656-.832-3.181-2.225-4.076-1.393-.896-3.125-1.021-4.633-.334l-11.396 5.198v-4.799c0-2.673-2.174-4.847-4.847-4.847h-9.785c-.552 0-1 .447-1 1s.448 1 1 1h9.785c1.57 0 2.847 1.277 2.847 2.847v6.354c0 .34.173.657.459.841.287.184.647.209.956.069l12.81-5.844c.9-.409 1.892-.338 2.721.195.831.534 1.307 1.407 1.307 2.395v18.562c0 .987-.477 1.859-1.307 2.394-.83.534-1.822.607-2.72.195l-12.81-5.844c-.309-.14-.669-.115-.956.069-.286.184-.459.501-.459.841v6.355c0 1.569-1.277 2.846-2.847 2.846h-31.87c-1.569 0-2.846-1.276-2.846-2.846v-26.582c0-1.569 1.277-2.847 2.846-2.847h5.23c.552 0 1-.447 1-1s-.448-1-1-1h-5.23c-2.672 0-4.846 2.174-4.846 4.847v12.291h-11.948c-9.252 0-16.779 7.526-16.779 16.778v43.429 17.578c0 9.252 7.527 16.778 16.779 16.778h83.713c9.251 0 16.778-7.526 16.778-16.778v-17.578-43.429c0-9.252-7.527-16.778-16.778-16.778zm-83.713 2h11.948v12.292c0 2.672 2.174 4.846 4.846 4.846h31.87c2.672 0 4.847-2.174 4.847-4.846v-4.8l11.396 5.198c1.507.688 3.239.563 4.632-.333 1.394-.896 2.226-2.42 2.226-4.076v-8.281h11.949c8.149 0 14.778 6.63 14.778 14.778v42.429h-113.271v-42.429c0-8.148 6.63-14.778 14.779-14.778zm98.491 75.785c0 8.148-6.629 14.778-14.778 14.778h-83.713c-8.149 0-14.779-6.63-14.779-14.778v-16.578h113.27z" fill="#3a2c60"/><path d="m47.48 8.399h6.537c.552 0 1-.447 1-1s-.448-1-1-1h-6.537c-.552 0-1 .447-1 1s.447 1 1 1z" fill="#3a2c60"/><g fill="#fff"><path d="m48.617 14.652 15.321 8.846c.878.507.878 1.774 0 2.281l-15.321 8.846c-.878.507-1.975-.127-1.975-1.14v-17.693c0-1.014 1.097-1.647 1.975-1.14z"/><path d="m39.078 70.973h-10.257v-18.467c0-1.163-.28-2.053-.832-2.646-.56-.6-1.295-.904-2.187-.904-.883 0-1.608.309-2.156.917-.538.597-.81 1.483-.81 2.632v19.932c0 1.226.289 2.14.858 2.715.57.577 1.488.869 2.727.869h12.658c.948 0 1.69-.23 2.205-.684.529-.466.797-1.08.797-1.823 0-.729-.27-1.345-.801-1.829-.523-.472-1.263-.712-2.202-.712z"/><path d="m47.959 48.957c-.87 0-1.592.308-2.146.916-.545.598-.821 1.484-.821 2.634v20.391c0 1.15.279 2.039.83 2.642.559.613 1.278.924 2.137.924.893 0 1.629-.308 2.189-.914.551-.598.831-1.49.831-2.653v-20.391c0-1.163-.28-2.053-.832-2.646-.561-.599-1.297-.903-2.188-.903z"/><path d="m76.367 49.344c-.439-.257-.921-.386-1.432-.386-.697 0-1.263.174-1.683.516-.399.326-.69.701-.866 1.113-.157.368-.392 1.022-.699 1.943l-5.527 16.433-5.508-16.309c-.403-1.244-.79-2.132-1.184-2.713-.442-.653-1.184-.984-2.205-.984-.83 0-1.531.287-2.084.853-.55.564-.829 1.203-.829 1.901 0 .263.042.581.124.946.08.358.18.696.298 1.005.111.291.218.587.325.896l6.159 16.765c.224.65.452 1.272.676 1.849.232.598.508 1.142.822 1.616.331.5.772.909 1.31 1.213.543.307 1.207.463 1.975.463.769 0 1.434-.159 1.978-.474.536-.31.972-.714 1.297-1.201.308-.462.582-1.004.814-1.609.225-.587.452-1.212.672-1.849l6.27-16.921c.105-.304.21-.599.315-.885.11-.301.204-.612.278-.926.077-.327.116-.637.116-.924 0-.442-.127-.882-.378-1.309-.25-.423-.598-.767-1.034-1.022z"/><path d="m100.917 71.785c-.487-.445-1.198-.671-2.113-.671h-11.846v-6.619h10.504c.907 0 1.599-.222 2.057-.659.463-.442.697-1.016.697-1.707 0-.694-.24-1.265-.713-1.696-.463-.421-1.15-.635-2.042-.635h-10.503v-5.613h11.44c.927 0 1.638-.22 2.113-.653.484-.442.73-1.031.73-1.748 0-.706-.246-1.288-.73-1.731-.475-.433-1.186-.653-2.113-.653h-13.841c-.791 0-1.458.121-1.982.36-.557.255-.972.666-1.232 1.222-.246.524-.371 1.198-.371 2.003v19.455c0 1.226.289 2.14.857 2.715.57.577 1.487.87 2.727.87h14.247c.916 0 1.627-.226 2.113-.671.496-.454.747-1.048.747-1.766.002-.743-.25-1.348-.746-1.803z"/><path d="m29.994 98.714c-.452-.321-1.005-.596-1.642-.818-.619-.215-1.317-.414-2.069-.59-.592-.15-1.021-.264-1.274-.341-.236-.071-.472-.172-.704-.299-.209-.114-.372-.249-.486-.401-.099-.132-.147-.288-.147-.477 0-.311.161-.577.492-.815.364-.26.861-.392 1.478-.392.662 0 1.136.115 1.408.34.298.247.56.603.786 1.07.207.388.4.665.589.847.228.22.548.331.951.331.444 0 .82-.17 1.116-.506.285-.323.43-.694.43-1.103 0-.405-.104-.821-.309-1.238-.202-.411-.522-.805-.951-1.172-.426-.364-.965-.658-1.602-.875-.631-.215-1.383-.323-2.236-.323-1.064 0-2.008.163-2.804.485-.818.331-1.455.814-1.893 1.438-.441.628-.664 1.354-.664 2.158 0 .843.214 1.563.636 2.14.412.564.975 1.015 1.672 1.339.665.309 1.496.581 2.473.81.7.16 1.264.313 1.677.453.372.127.676.309.905.543.204.209.303.479.303.828 0 .442-.198.805-.606 1.109-.435.324-1.019.488-1.736.488-.521 0-.94-.08-1.245-.237-.303-.157-.54-.355-.702-.59-.181-.262-.353-.596-.511-.99-.159-.406-.359-.723-.594-.94-.264-.243-.588-.367-.963-.367-.449 0-.826.154-1.122.457-.293.301-.441.667-.441 1.088 0 .629.21 1.279.623 1.93.407.642.944 1.162 1.598 1.548.905.526 2.059.793 3.431.793 1.142 0 2.148-.194 2.99-.577.859-.39 1.523-.942 1.973-1.639.451-.698.679-1.493.679-2.364 0-.726-.134-1.354-.399-1.866-.266-.511-.639-.94-1.11-1.275z"/><path d="m43.479 92.181h-8.575c-.527 0-.946.13-1.244.385-.315.269-.474.635-.474 1.088 0 .436.152.795.453 1.067.29.263.716.396 1.265.396h2.588v9.319c0 .641.159 1.137.471 1.476.32.347.736.523 1.238.523.495 0 .907-.175 1.224-.519.31-.336.466-.834.466-1.481v-9.319h2.588c.547 0 .975-.132 1.271-.393.309-.273.466-.633.466-1.071 0-.436-.154-.797-.457-1.072-.295-.265-.725-.399-1.28-.399z"/><path d="m58.136 102.366c-.352-.575-.756-1.125-1.203-1.635-.253-.288-.516-.54-.786-.754.829-.271 1.484-.659 1.954-1.157.622-.659.937-1.542.937-2.624 0-.526-.092-1.032-.274-1.504-.183-.477-.455-.901-.809-1.262-.353-.359-.765-.639-1.214-.829-.377-.172-.803-.287-1.268-.343-.443-.053-.98-.08-1.595-.08h-4.388c-.676 0-1.186.166-1.514.495-.328.328-.495.838-.495 1.514v10.247c0 .623.148 1.113.439 1.456.306.36.733.543 1.27.543.5 0 .915-.172 1.232-.513.31-.333.468-.833.468-1.487v-3.923h.589c.43 0 .786.056 1.057.165.262.106.531.313.798.615.289.326.625.814 1.002 1.455l1.081 1.799c.257.428.464.758.615.98.173.253.382.467.623.633.266.183.59.276.965.276.31 0 .591-.064.835-.189.248-.128.448-.307.594-.531.15-.23.225-.471.225-.716 0-.152-.036-.411-.314-1.069-.197-.463-.474-.989-.824-1.562zm-2.544-5.996c0 .382-.089.678-.263.88-.183.212-.463.367-.831.46-.412.104-.932.157-1.548.157h-2.061v-2.95h2.134c1.089 0 1.538.093 1.725.172.27.113.473.277.623.501.149.224.221.479.221.78z"/><path d="m71.614 103.354h-5.931v-3.077h5.24c.511 0 .905-.129 1.172-.385.272-.259.41-.595.41-.998 0-.405-.142-.74-.421-.994-.27-.245-.66-.37-1.161-.37h-5.24v-2.559h5.722c.52 0 .923-.128 1.198-.379.285-.26.429-.603.429-1.021 0-.412-.144-.752-.429-1.012-.276-.252-.679-.379-1.198-.379h-7.122c-.43 0-.796.067-1.088.2-.323.148-.563.386-.714.708-.137.292-.206.662-.206 1.101v10.011c0 .676.164 1.185.489 1.512.325.329.837.496 1.52.496h7.331c.514 0 .917-.131 1.198-.389.291-.266.438-.612.438-1.03 0-.43-.147-.782-.438-1.048-.282-.256-.686-.387-1.199-.387z"/><path d="m84.279 94.699c-.165-.433-.301-.78-.408-1.04-.115-.28-.259-.545-.427-.789-.184-.267-.429-.488-.726-.657-.304-.172-.68-.259-1.115-.259-.43 0-.802.087-1.107.26-.299.169-.544.395-.728.67-.168.251-.327.566-.472.936l-3.755 9.539c-.144.358-.246.631-.309.836-.071.227-.107.452-.107.669 0 .415.168.785.501 1.102.327.312.712.471 1.145.471.515 0 .901-.165 1.147-.491.198-.263.422-.734.685-1.439l.55-1.476h4.922l.549 1.442.003.009c.086.208.188.449.307.721.132.301.256.522.378.677.135.171.303.307.502.407.2.1.437.151.704.151.459 0 .857-.165 1.183-.49.325-.325.49-.696.49-1.101 0-.347-.143-.858-.435-1.559zm-1.195 5.594h-2.965l1.469-4.096z"/><path d="m103.681 92.545c-.361-.242-.84-.364-1.424-.364h-.836c-.553 0-.954.053-1.227.162-.313.125-.547.352-.695.672-.119.258-.248.654-.393 1.211l-1.591 5.999-1.591-5.998c-.146-.559-.275-.956-.394-1.212-.148-.32-.382-.546-.695-.672-.272-.109-.673-.162-1.227-.162h-.836c-.584 0-1.063.123-1.424.365-.406.272-.612.767-.612 1.472v10.538c0 .605.148 1.072.438 1.389.299.327.687.493 1.152.493.479 0 .873-.168 1.169-.5.286-.32.431-.785.431-1.381v-6.323l1.435 5.702.001.003c.073.28.144.549.214.807.077.286.185.551.321.788.15.262.361.48.629.647.274.172.607.259.988.259.506 0 .916-.137 1.218-.409.281-.252.478-.539.585-.854.091-.268.206-.674.349-1.241l1.434-5.702v6.323c0 .597.147 1.063.437 1.383.299.331.684.498 1.145.498.485 0 .882-.168 1.178-.5.286-.32.431-.785.431-1.381v-10.54c.002-.704-.204-1.2-.61-1.472z"/></g></svg>