<svg id="Capa_1" enable-background="new 0 0 512 512" height="512" viewBox="0 0 512 512" width="512" xmlns="http://www.w3.org/2000/svg"><g><g><g fill="#fed2a4"><path d="m11 267c0 47.547 13.559 91.921 37 129.493l1-.287v-260.301c-24.059 37.909-38 82.872-38 131.095z"/><path d="m463 135.905v260.301l1 .287c23.441-37.572 37-81.946 37-129.493 0-48.223-13.941-93.186-38-131.095z"/><path d="m389.885 471h-267.769l-.299 1c38.546 25.282 84.642 40 134.183 40s95.637-14.718 134.183-40z"/></g><g><path d="m457.067 55h-402.134l-6.933 1v340.493c18.844 30.203 44.078 56.001 73.817 75.507h268.366c29.739-19.505 54.973-45.303 73.817-75.507v-340.493z" fill="#f3f0ff"/></g><g><path d="m48 56v340.493c13.579 21.764 30.49 41.224 50 57.708v-398.201z" fill="#e2deff"/></g><g><g><path d="m449 0h-386c-8.284 0-15 6.716-15 15v41h416v-41c0-8.284-6.716-15-15-15z" fill="#0182fc"/></g><g><path d="m113 0h-50c-8.284 0-15 6.716-15 15v41h50v-41c0-8.284 6.716-15 15-15z" fill="#0172fb"/></g><g><g><circle cx="80.5" cy="26.5" fill="#fd4755" r="7.5"/></g><g><circle cx="102.5" cy="26.5" fill="#fee45a" r="7.5"/></g><g><circle cx="124.5" cy="26.5" fill="#4fc123" r="7.5"/></g></g><g><circle cx="430.5" cy="26.5" fill="#fff" r="7.5"/></g></g></g><g><path d="m209.214 333.962h-25.708c-4.296 3.647-7.029 9.079-7.029 15.155 0 10.981 8.902 19.883 19.883 19.883s19.883-8.902 19.883-19.883c.001-6.076-2.733-11.508-7.029-15.155z" fill="#b5add5"/><g><circle cx="196.361" cy="349.117" fill="#9182b0" r="7.71"/></g><path d="m319.718 333.962h-25.708c-4.296 3.647-7.029 9.079-7.029 15.155 0 10.981 8.902 19.883 19.883 19.883s19.883-8.902 19.883-19.883c0-6.076-2.733-11.508-7.029-15.155z" fill="#b5add5"/><g><circle cx="306.864" cy="349.117" fill="#9182b0" r="7.71"/></g><g><path d="m330.623 303.08h-9.409v16.882h-154.502c-4.142 0-7.5 3.357-7.5 7.5s3.358 7.5 7.5 7.5h156.548c7.143 0 12.954-5.812 12.954-12.954v-22.127c-1.14 1.945-3.223 3.199-5.591 3.199z" fill="#9182b0"/></g><path d="m324.028 161.973c-3.249 34.452-32.327 61.501-67.614 61.501s-64.365-27.05-67.614-61.501h-45.423l28.383 127.014c.992 4.437 4.93 7.592 9.476 7.592h141.607c4.547 0 8.485-3.155 9.476-7.592l28.383-127.014z" fill="#9182b0"/><path d="m412.104 128.907h-38.09c-8.043 0-14.896 5.534-16.669 13.461l-2.7 12.105h-30.331c.006.359.027.714.027 1.074 0 4.772-.5 9.429-1.441 13.926h28.441l-7.266 32.517h-31.706l1.151-9.729c-6.873 10.653-16.633 19.272-28.177 24.729h10.148l-3.128 26.45h-32.822v-20.045c-1.037.047-2.077.079-3.125.079-4.052 0-8.016-.377-11.875-1.061v21.026h-32.822l-3.128-26.45h18.896c-7.781-3.678-14.749-8.794-20.575-15h-.095l-.014-.114c-11.349-12.145-18.315-28.434-18.315-46.328 0-.36.022-.715.027-1.074h-45.138c-2.276 0-4.43 1.034-5.853 2.811s-1.963 4.104-1.466 6.325l28.383 127.012c1.771 7.924 8.678 13.459 16.797 13.459h149.385c3.512 0 6.554-2.437 7.319-5.864l34.042-152.579c.235-1.051 1.031-1.729 2.029-1.729h38.09c4.143 0 7.5-3.357 7.5-7.5s-3.357-7.501-7.499-7.501zm-259.366 40.567h35.128l3.846 32.517h-31.707zm16.529 73.966-5.911-26.45h30.129l3.128 26.45zm11.971 45.64c-1.043 0-1.931-.712-2.159-1.73l-6.46-28.909h25.768l3.624 30.64h-20.773zm63.302 0h-27.424l-3.624-30.64h31.048zm42.424 0h-27.425v-30.64h31.048zm37.65 0h-22.546l3.624-30.64h25.769zm10.199-45.64h-27.347l3.128-26.45h30.129z" fill="#cfcae4"/></g><g><g><circle cx="256.414" cy="155.548" fill="#4fc123" r="68.927"/></g><g><path d="m221.98 155.548c0-32.112 21.959-59.094 51.68-66.751-5.512-1.42-11.291-2.176-17.246-2.176-38.067 0-68.927 30.86-68.927 68.927s30.859 68.927 68.927 68.927c5.955 0 11.734-.756 17.246-2.176-29.721-7.657-51.68-34.639-51.68-66.751z" fill="#47a920"/></g><g><path d="m252.592 187.576c-1.919 0-3.839-.732-5.303-2.196l-29.05-29.05c-2.929-2.93-2.929-7.678 0-10.607 2.929-2.928 7.678-2.928 10.606 0l23.747 23.747 35.411-35.412c2.93-2.928 7.678-2.928 10.607 0 2.929 2.93 2.929 7.678 0 10.607l-40.715 40.715c-1.464 1.464-3.384 2.196-5.303 2.196z" fill="#fff"/></g></g><g><g><path d="m411 314.5h-45c-4.143 0-7.5-3.357-7.5-7.5s3.357-7.5 7.5-7.5h45c4.143 0 7.5 3.357 7.5 7.5s-3.357 7.5-7.5 7.5z" fill="#cfcae4"/></g><g><path d="m411 338.5h-45c-4.143 0-7.5-3.357-7.5-7.5s3.357-7.5 7.5-7.5h45c4.143 0 7.5 3.357 7.5 7.5s-3.357 7.5-7.5 7.5z" fill="#cfcae4"/></g><g><path d="m411 362.5h-45c-4.143 0-7.5-3.357-7.5-7.5s3.357-7.5 7.5-7.5h45c4.143 0 7.5 3.357 7.5 7.5s-3.357 7.5-7.5 7.5z" fill="#cfcae4"/></g></g><g><g><path d="m342.474 434.75h-172.948c-14.083 0-25.5-11.417-25.5-25.5 0-14.083 11.417-25.5 25.5-25.5h172.948c14.083 0 25.5 11.417 25.5 25.5 0 14.083-11.417 25.5-25.5 25.5z" fill="#4fc123"/></g><path d="m197.175 416.75h-13.175c-4.142 0-7.5-3.357-7.5-7.5s3.358-7.5 7.5-7.5h13.175c3.203-10.423 12.904-18 24.377-18h-52.026c-14.083 0-25.5 11.417-25.5 25.5s11.417 25.5 25.5 25.5h52.026c-11.473 0-21.174-7.577-24.377-18z" fill="#47a920"/><g><path d="m328 416.75h-144c-4.142 0-7.5-3.357-7.5-7.5s3.358-7.5 7.5-7.5h144c4.143 0 7.5 3.357 7.5 7.5s-3.357 7.5-7.5 7.5z" fill="#fff"/></g></g></g></svg>