<svg height="512" viewBox="0 0 64 64" width="512" xmlns="http://www.w3.org/2000/svg"><g id="browser-website-web-layout-design"><path d="m61 11v48a2.006 2.006 0 0 1 -2 2h-54a2.006 2.006 0 0 1 -2-2v-48z" fill="#bddbff"/><path d="m58 11v48a2.006 2.006 0 0 1 -2 2h3a2.006 2.006 0 0 0 2-2v-48z" fill="#9bc9ff"/><path d="m59 3h-54a2 2 0 0 0 -2 2v6h58v-6a2 2 0 0 0 -2-2z" fill="#006df0"/><path d="m59 3h-3a2 2 0 0 1 2 2v6h3v-6a2 2 0 0 0 -2-2z" fill="#005ece"/><path d="m9 17h20v16h-20z" fill="#ed1c24"/><path d="m9 39h20v16h-20z" fill="#ffcd00"/><g fill="#231f20"><path d="m55 34h-1a1 1 0 0 1 0-2h1a1 1 0 0 1 0 2z"/><path d="m50 34h-15a1 1 0 0 1 0-2h15a1 1 0 0 1 0 2z"/><path d="m36 40h-1a1 1 0 0 1 0-2h1a1 1 0 0 1 0 2z"/><path d="m55 56h-1a1 1 0 0 1 0-2h1a1 1 0 0 1 0 2z"/><path d="m50 56h-15a1 1 0 0 1 0-2h15a1 1 0 0 1 0 2z"/><path d="m55 52h-20a1 1 0 0 1 0-2h20a1 1 0 0 1 0 2z"/><path d="m55 48h-20a1 1 0 0 1 0-2h20a1 1 0 0 1 0 2z"/><path d="m55 44h-20a1 1 0 0 1 0-2h20a1 1 0 0 1 0 2z"/><path d="m55 40h-15a1 1 0 0 1 0-2h15a1 1 0 0 1 0 2z"/><path d="m59 2h-54a3.009 3.009 0 0 0 -3 3v54a3.009 3.009 0 0 0 3 3h54a3.009 3.009 0 0 0 3-3v-54a3.009 3.009 0 0 0 -3-3zm1 57a1 1 0 0 1 -1 1h-54a1 1 0 0 1 -1-1v-47h56zm0-49h-56v-5a1 1 0 0 1 1-1h54a1 1 0 0 1 1 1z"/><path d="m35 18h1a1 1 0 0 0 0-2h-1a1 1 0 0 0 0 2z"/><path d="m35 30h20a1 1 0 0 0 0-2h-20a1 1 0 0 0 0 2z"/><path d="m35 26h20a1 1 0 0 0 0-2h-20a1 1 0 0 0 0 2z"/><path d="m35 22h20a1 1 0 0 0 0-2h-20a1 1 0 0 0 0 2z"/><path d="m40 18h15a1 1 0 0 0 0-2h-15a1 1 0 0 0 0 2z"/><path d="m8 6h-1a1 1 0 0 0 0 2h1a1 1 0 0 0 0-2z"/><path d="m13 6h-1a1 1 0 0 0 0 2h1a1 1 0 0 0 0-2z"/><path d="m18 6h-1a1 1 0 0 0 0 2h1a1 1 0 0 0 0-2z"/><path d="m57 6h-1a1 1 0 0 0 0 2h1a1 1 0 0 0 0-2z"/><path d="m52 6h-24a1 1 0 0 0 0 2h24a1 1 0 0 0 0-2z"/><path d="m9 34h20a1 1 0 0 0 1-1v-16a1 1 0 0 0 -1-1h-20a1 1 0 0 0 -1 1v16a1 1 0 0 0 1 1zm1-16h18v14h-18z"/><path d="m29 56h-20a1 1 0 0 1 -1-1v-16a1 1 0 0 1 1-1h20a1 1 0 0 1 1 1v16a1 1 0 0 1 -1 1zm-19-2h18v-14h-18z"/></g></g></svg>