<?xml version="1.0" encoding="iso-8859-1"?>
<!-- Generator: Adobe Illustrator 19.0.0, SVG Export Plug-In . SVG Version: 6.00 Build 0)  -->
<svg version="1.1" id="Capa_1" xmlns="http://www.w3.org/2000/svg" xmlns:xlink="http://www.w3.org/1999/xlink" x="0px" y="0px"
	 viewBox="0 0 512 512" style="enable-background:new 0 0 512 512;" xml:space="preserve">
<path style="fill:#FDDF7F;" d="M460.8,171.315H51.2c-5.632,0-10.24-4.608-10.24-10.24v-19.763c0-5.632,4.608-10.24,10.24-10.24
	h409.6c5.632,0,10.24,4.608,10.24,10.24v19.763C471.04,166.81,466.432,171.315,460.8,171.315z"/>
<path style="fill:#83E1E5;" d="M40.96,349.184V455.68c0,11.264,9.216,20.48,20.48,20.48h389.12c11.264,0,20.48-9.216,20.48-20.48
	V349.184H40.96z"/>
<g>
	<path style="fill:#FFFFFF;" d="M131.379,382.259H81.613c-5.632,0-10.24,4.608-10.24,10.24v34.099c0,5.632,4.608,10.24,10.24,10.24
		h49.869c5.632,0,10.24-4.608,10.24-10.24v-34.099C141.619,386.867,137.114,382.259,131.379,382.259z"/>
	<path style="fill:#FFFFFF;" d="M231.117,382.259h-49.869c-5.632,0-10.24,4.608-10.24,10.24v34.099c0,5.632,4.608,10.24,10.24,10.24
		h49.869c5.632,0,10.24-4.608,10.24-10.24v-34.099C241.357,386.867,236.749,382.259,231.117,382.259z"/>
	<path style="fill:#FFFFFF;" d="M330.752,382.259h-49.869c-5.632,0-10.24,4.608-10.24,10.24v34.099c0,5.632,4.608,10.24,10.24,10.24
		h49.869c5.632,0,10.24-4.608,10.24-10.24v-34.099C340.992,386.867,336.384,382.259,330.752,382.259z"/>
	<path style="fill:#FFFFFF;" d="M430.387,382.259h-49.869c-5.632,0-10.24,4.608-10.24,10.24v34.099c0,5.632,4.608,10.24,10.24,10.24
		h49.869c5.632,0,10.24-4.608,10.24-10.24v-34.099C440.627,386.867,436.122,382.259,430.387,382.259z"/>
</g>
<path style="fill:#83E1E5;" d="M471.04,131.072V63.898c0-11.264-9.216-20.48-20.48-20.48H61.44c-11.264,0-20.48,9.216-20.48,20.48
	v67.174H471.04z"/>
<g>
	<path style="fill:#1C1D21;" d="M476.16,512H35.84C16.077,512,0,495.923,0,476.16V35.84C0,16.077,16.077,0,35.84,0h440.32
		C495.923,0,512,16.077,512,35.84v440.32C512,495.923,495.923,512,476.16,512z M35.84,10.24c-14.131,0-25.6,11.469-25.6,25.6v440.32
		c0,14.131,11.469,25.6,25.6,25.6h440.32c14.131,0,25.6-11.469,25.6-25.6V35.84c0-14.131-11.469-25.6-25.6-25.6H35.84z"/>
	<path style="fill:#1C1D21;" d="M40.96,100.045c-2.867,0-5.12-2.253-5.12-5.12V63.898c0-14.131,11.469-25.6,25.6-25.6h4.403
		c2.867,0,5.12,2.253,5.12,5.12s-2.253,5.12-5.12,5.12H61.44c-8.499,0-15.36,6.861-15.36,15.36v31.027
		C46.08,97.69,43.827,100.045,40.96,100.045z"/>
	<path style="fill:#1C1D21;" d="M106.496,48.538h-15.36c-2.867,0-5.12-2.253-5.12-5.12s2.253-5.12,5.12-5.12h15.36
		c2.867,0,5.12,2.253,5.12,5.12S109.363,48.538,106.496,48.538z"/>
	<path style="fill:#1C1D21;" d="M450.56,476.16h-4.403c-2.867,0-5.12-2.253-5.12-5.12s2.253-5.12,5.12-5.12h4.403
		c8.499,0,15.36-6.861,15.36-15.36v-31.027c0-2.867,2.253-5.12,5.12-5.12s5.12,2.253,5.12,5.12v31.027
		C476.16,464.691,464.691,476.16,450.56,476.16z"/>
	<path style="fill:#1C1D21;" d="M420.864,476.16h-15.36c-2.867,0-5.12-2.253-5.12-5.12s2.253-5.12,5.12-5.12h15.36
		c2.867,0,5.12,2.253,5.12,5.12S423.731,476.16,420.864,476.16z"/>
</g>
<path style="fill:#FDDF7F;" d="M126.976,471.04H51.2c-5.632,0-10.24-4.608-10.24-10.24V209.92c0-5.632,4.608-10.24,10.24-10.24
	h75.776c5.632,0,10.24,4.608,10.24,10.24V460.8C137.216,466.432,132.608,471.04,126.976,471.04z"/>
<g>
	<path style="fill:#1C1D21;" d="M126.976,476.16H51.2c-8.499,0-15.36-6.861-15.36-15.36V209.92c0-8.499,6.861-15.36,15.36-15.36
		h75.776c8.499,0,15.36,6.861,15.36,15.36V460.8C142.336,469.299,135.475,476.16,126.976,476.16z M51.2,204.8
		c-2.867,0-5.12,2.253-5.12,5.12V460.8c0,2.867,2.253,5.12,5.12,5.12h75.776c2.867,0,5.12-2.253,5.12-5.12V209.92
		c0-2.867-2.253-5.12-5.12-5.12H51.2z"/>
	<path style="fill:#1C1D21;" d="M420.864,204.8H177.152c-2.867,0-5.12-2.253-5.12-5.12s2.253-5.12,5.12-5.12h243.712
		c2.867,0,5.12,2.253,5.12,5.12S423.731,204.8,420.864,204.8z"/>
	<path style="fill:#1C1D21;" d="M471.04,204.8h-22.528c-2.867,0-5.12-2.253-5.12-5.12s2.253-5.12,5.12-5.12h22.528
		c2.867,0,5.12,2.253,5.12,5.12S473.907,204.8,471.04,204.8z"/>
	<path style="fill:#1C1D21;" d="M420.864,236.544H177.152c-2.867,0-5.12-2.253-5.12-5.12s2.253-5.12,5.12-5.12h243.712
		c2.867,0,5.12,2.253,5.12,5.12S423.731,236.544,420.864,236.544z"/>
	<path style="fill:#1C1D21;" d="M471.04,236.544h-22.528c-2.867,0-5.12-2.253-5.12-5.12s2.253-5.12,5.12-5.12h22.528
		c2.867,0,5.12,2.253,5.12,5.12S473.907,236.544,471.04,236.544z"/>
	<path style="fill:#1C1D21;" d="M420.864,268.288H177.152c-2.867,0-5.12-2.253-5.12-5.12s2.253-5.12,5.12-5.12h243.712
		c2.867,0,5.12,2.253,5.12,5.12S423.731,268.288,420.864,268.288z"/>
	<path style="fill:#1C1D21;" d="M471.04,268.288h-22.528c-2.867,0-5.12-2.253-5.12-5.12s2.253-5.12,5.12-5.12h22.528
		c2.867,0,5.12,2.253,5.12,5.12S473.907,268.288,471.04,268.288z"/>
	<path style="fill:#1C1D21;" d="M420.864,300.032H177.152c-2.867,0-5.12-2.253-5.12-5.12s2.253-5.12,5.12-5.12h243.712
		c2.867,0,5.12,2.253,5.12,5.12S423.731,300.032,420.864,300.032z"/>
	<path style="fill:#1C1D21;" d="M471.04,300.032h-22.528c-2.867,0-5.12-2.253-5.12-5.12s2.253-5.12,5.12-5.12h22.528
		c2.867,0,5.12,2.253,5.12,5.12S473.907,300.032,471.04,300.032z"/>
	<path style="fill:#1C1D21;" d="M420.864,331.776H177.152c-2.867,0-5.12-2.253-5.12-5.12s2.253-5.12,5.12-5.12h243.712
		c2.867,0,5.12,2.253,5.12,5.12S423.731,331.776,420.864,331.776z"/>
	<path style="fill:#1C1D21;" d="M471.04,331.776h-22.528c-2.867,0-5.12-2.253-5.12-5.12s2.253-5.12,5.12-5.12h22.528
		c2.867,0,5.12,2.253,5.12,5.12S473.907,331.776,471.04,331.776z"/>
	<path style="fill:#1C1D21;" d="M460.8,176.435H51.2c-8.499,0-15.36-6.861-15.36-15.36v-19.763c0-8.499,6.861-15.36,15.36-15.36
		h409.6c8.499,0,15.36,6.861,15.36,15.36v19.763C476.16,169.574,469.299,176.435,460.8,176.435z M51.2,136.192
		c-2.867,0-5.12,2.253-5.12,5.12v19.763c0,2.867,2.253,5.12,5.12,5.12h409.6c2.867,0,5.12-2.253,5.12-5.12v-19.763
		c0-2.867-2.253-5.12-5.12-5.12H51.2z"/>
</g>
<g>
</g>
<g>
</g>
<g>
</g>
<g>
</g>
<g>
</g>
<g>
</g>
<g>
</g>
<g>
</g>
<g>
</g>
<g>
</g>
<g>
</g>
<g>
</g>
<g>
</g>
<g>
</g>
<g>
</g>
</svg>
