<svg id="Capa_1" enable-background="new 0 0 501 501" height="512" viewBox="0 0 501 501" width="512" xmlns="http://www.w3.org/2000/svg"><path d="m294.953 496.977c-14.416 2.642-29.273 4.023-44.453 4.023-134.792 0-244.16-108.852-244.995-243.447-.837-134.891 108.581-245.727 243.471-246.548.626-.004 1.251-.005 1.875-.004 7.543.011 13.648 6.139 13.648 13.681v.274c0 120.309 97.53 217.839 217.839 217.839 7.234 0 13.157 5.839 13.161 13.073v.133c0 65.72-25.876 125.396-67.996 169.395-.612.639-1.401 1.066-2.266 1.253-41.399 8.954-109.881 57.168-124.172 67.664-1.814 1.332-3.897 2.258-6.112 2.664z" fill="#463b83"/><path d="m495.5 256h-245.039c-8.116 0-14.695-6.579-14.695-14.695v-215.61c0-8.073 6.512-14.69 14.585-14.695h.148c135.311 0 245.001 109.69 245.001 245z" fill="#fdf061"/><path d="m235.222 240.838c8.438 0 15.278 6.84 15.278 15.278v244.884c-135.31 0-245-109.69-245-245 0-.051 0-.102 0-.153.005-8.308 6.817-15.009 15.125-15.009z" fill="#03bdd6"/><path d="m250.5 11v245h-245c0-135.31 109.69-245 245-245z" fill="#fd4fb6"/><path d="m294.5 256v-15.293c0-38.307 31.054-69.361 69.361-69.361h21.342c38.307 0 69.361 31.054 69.361 69.361v15.293z" fill="#03bdd6"/><path d="m329.714 240.353v15.647h-35.214v-15.293c0-38.307 31.054-69.361 69.361-69.361h18.978c-30.474 7.477-53.125 35.536-53.125 69.007z" fill="#0198b0"/><path d="m452.512 100.023v5.776c0 7.975-6.465 14.441-14.441 14.441-7.975 0-14.441-6.465-14.441-14.441v-5.776c0-7.975 6.465-14.441 14.441-14.441 7.976 0 14.441 6.466 14.441 14.441z" fill="#954d3b"/><path d="m438.072 74.03v23.105c0 28.2-18.371 52.109-43.798 60.413v15.398c0 10.903-8.838 19.741-19.741 19.741-10.903 0-19.741-8.838-19.741-19.741v-15.398c-18.279-5.969-32.912-20.003-39.694-37.899-1.301.385-2.678.592-4.104.592-7.975 0-14.441-6.465-14.441-14.441v-5.776c0-7.975 6.465-14.441 14.441-14.441v-11.553c0-35.092 28.448-63.539 63.539-63.539 35.091-.001 63.539 28.447 63.539 63.539z" fill="#a95947"/><path d="m305.217 97.135v11.553c0 4.724 2.268 8.918 5.775 11.553-7.975-.001-14.44-6.466-14.44-14.441v-5.776c0-7.975 6.465-14.44 14.44-14.441-3.507 2.634-5.775 6.828-5.775 11.552zm23.105 0v-23.105c0-32.153 23.882-58.727 54.875-62.953-2.833-.386-5.725-.586-8.664-.586-35.092 0-63.539 28.448-63.539 63.539v23.105c0 35.092 28.447 63.539 63.539 63.539 2.939 0 5.832-.2 8.664-.586-30.993-4.226-54.875-30.8-54.875-62.953zm51.316-3.063c-1.366 1.365-3.179 2.118-5.106 2.118s-3.74-.752-5.106-2.118c-1.692-1.692-4.435-1.692-6.127 0s-1.692 4.435 0 6.127c3.002 3.002 6.991 4.655 11.232 4.655s8.23-1.653 11.232-4.655c1.692-1.692 1.692-4.435 0-6.127-1.69-1.692-4.433-1.692-6.125 0zm15.286 26.484c-1.692-1.692-4.435-1.692-6.127 0-7.866 7.866-20.665 7.866-28.531 0-1.692-1.692-4.435-1.692-6.127 0s-1.692 4.435 0 6.127c5.622 5.622 13.007 8.433 20.392 8.433s14.77-2.811 20.392-8.433c1.694-1.692 1.694-4.435.001-6.127z" fill="#954d3b"/><path d="m311.093 70.434c1.865-33.419 29.554-59.943 63.439-59.943 33.885 0 61.575 26.525 63.439 59.943-14.279-15.822-37.376-26.101-63.439-26.101-26.063-.001-49.16 10.278-63.439 26.101z" fill="#67382a"/><path d="m333.008 53.938c-8.545 4.318-15.989 9.93-21.915 16.496 1.865-33.419 29.554-59.943 63.439-59.943 3.189 0 6.324.235 9.387.689-23.897 3.537-43.458 20.381-50.911 42.758z" fill="#533022"/><path d="m216.438 91.465c0 50.515-40.95 91.465-91.465 91.465s-91.465-40.95-91.465-91.465 40.949-91.465 91.464-91.465 91.466 40.95 91.466 91.465z" fill="#463b83"/><path d="m144.109 180.926c-6.172 1.314-12.574 2.005-19.137 2.005-50.515 0-91.465-40.951-91.465-91.465 0-36.263 21.103-67.597 51.699-82.391-14.202 17.482-23.175 40.432-23.175 65.564 0 51.37 38.281 91.923 82.471 98.703 3.058.47 7.566 5.889-.393 7.584z" fill="#012d4e"/><path d="m205.005 241.338v14.662h-160.065v-14.662c0-38.308 31.054-69.361 69.361-69.361h21.342c38.308 0 69.362 31.053 69.362 69.361z" fill="#fdf061"/><path d="m76.153 241.338v14.662h-31.213v-14.662c0-38.308 31.054-69.361 69.361-69.361h21.342c1.659 0 3.305.058 4.935.173-36.003 2.531-64.425 32.54-64.425 69.188z" fill="#fdcb6b"/><path d="m202.953 100.633v5.776c0 7.975-6.465 14.441-14.441 14.441s-14.441-6.465-14.441-14.441v-5.776c0-7.975 6.465-14.441 14.441-14.441s14.441 6.465 14.441 14.441z" fill="#d89c56"/><path d="m188.512 74.639v23.105c0 28.2-18.371 52.109-43.798 60.413v15.398c0 10.903-8.839 19.741-19.741 19.741-10.903 0-19.741-8.839-19.741-19.741v-15.398c-18.279-5.969-32.912-20.003-39.694-37.899-1.301.385-2.678.592-4.104.592-7.975 0-14.441-6.465-14.441-14.441v-5.776c0-7.975 6.465-14.441 14.441-14.441v-11.553c0-35.092 28.448-63.539 63.539-63.539 35.091 0 63.539 28.448 63.539 63.539z" fill="#e3ac6e"/><path d="m55.657 97.745v11.553c0 4.724 2.268 8.918 5.775 11.553-7.975-.001-14.44-6.466-14.44-14.441v-5.776c0-7.975 6.465-14.44 14.44-14.441-3.507 2.634-5.775 6.828-5.775 11.552zm23.105 0v-23.106c0-32.153 23.882-58.727 54.875-62.953-2.833-.386-5.725-.586-8.664-.586-35.092 0-63.539 28.448-63.539 63.539v23.105c0 35.092 28.447 63.539 63.539 63.539 2.939 0 5.832-.2 8.664-.586-30.993-4.225-54.875-30.8-54.875-62.952zm51.316-3.064c-1.366 1.365-3.179 2.118-5.106 2.118s-3.74-.752-5.106-2.118c-1.692-1.692-4.435-1.692-6.127 0s-1.692 4.435 0 6.127c3.002 3.002 6.991 4.655 11.232 4.655s8.23-1.653 11.232-4.655c1.692-1.692 1.692-4.435 0-6.127-1.69-1.691-4.433-1.691-6.125 0zm15.287 26.485c-1.692-1.692-4.435-1.692-6.127 0-7.866 7.866-20.665 7.866-28.531 0-1.692-1.692-4.435-1.692-6.127 0s-1.692 4.435 0 6.127c5.622 5.622 13.007 8.433 20.392 8.433s14.77-2.811 20.392-8.433c1.693-1.692 1.693-4.435.001-6.127z" fill="#d89c56"/><path d="m137.204 39.395-2.816 18.774c-.242 1.614-1.629 2.809-3.261 2.809h-68.221c4.094-29.561 31.665-51.878 62.066-51.878 30.402 0 62.067 23.567 62.067 51.877h-30.302c-1.249 0-2.391-.706-2.95-1.823l-10.372-20.745c-.559-1.117-1.701-1.823-2.95-1.823-1.632 0-3.019 1.194-3.261 2.809z" fill="#463b83"/><path d="m347.095 87.026c-4.785 0-8.664-3.879-8.664-8.664 0-4.785 3.879-8.664 8.664-8.664 4.785 0 8.664 3.879 8.664 8.664 0 4.785-3.879 8.664-8.664 8.664zm63.539-8.664c0-4.785-3.879-8.664-8.664-8.664-4.785 0-8.664 3.879-8.664 8.664 0 4.785 3.879 8.664 8.664 8.664 4.785 0 8.664-3.879 8.664-8.664zm-313.099-8.055c-4.785 0-8.664 3.879-8.664 8.664s3.879 8.664 8.664 8.664 8.664-3.879 8.664-8.664-3.879-8.664-8.664-8.664zm63.539 8.665c0 4.785-3.879 8.664-8.664 8.664s-8.664-3.879-8.664-8.664 3.879-8.664 8.664-8.664c4.785-.001 8.664 3.878 8.664 8.664z" fill="#533022"/><path d="m194.334 309.361v105.233c0 5.523-4.477 10-10 10h-118.723c-5.523 0-10-4.477-10-10v-105.233c0-38.307 31.054-69.361 69.361-69.361 38.308 0 69.362 31.054 69.362 69.361z" fill="#fcf6e7"/><path d="m90.611 424.594h-25c-5.523 0-10-4.477-10-10v-105.233c0-38.307 31.054-69.361 69.361-69.361 4.268 0 8.445.386 12.5 1.124-32.341 5.886-56.861 34.198-56.861 68.237v105.233c0 5.523 4.477 10 10 10z" fill="#fcf498"/><path d="m205.005 480.097v16.687c-51.635-9.696-97.556-35.591-132.287-72.206 11.587-8.692 25.984-13.843 41.584-13.843h21.342c38.307 0 69.361 31.055 69.361 69.362z" fill="#013f69"/><path d="m205.005 485.752c-36.152-13.926-68.342-36.637-94.287-65.707 4.727-3.768 9.921-6.91 15.474-9.31h9.452c38.307 0 69.361 31.054 69.361 69.361z" fill="#463b83"/><path d="m202.953 339.413v5.776c0 7.975-6.465 14.441-14.441 14.441-7.975 0-14.441-6.465-14.441-14.441v-5.776c0-7.975 6.465-14.441 14.441-14.441 7.975.001 14.441 6.466 14.441 14.441z" fill="#e1a595"/><path d="m188.512 313.42v23.105c0 28.2-18.371 52.109-43.798 60.413v15.398c0 10.903-8.838 19.741-19.741 19.741-10.903 0-19.741-8.838-19.741-19.741v-15.398c-18.279-5.969-32.912-20.003-39.694-37.899-1.301.385-2.678.592-4.104.592-7.975 0-14.441-6.465-14.441-14.441v-5.776c0-7.975 6.465-14.441 14.441-14.441v-11.553c0-35.092 28.448-63.539 63.539-63.539 35.091-.001 63.539 28.447 63.539 63.539z" fill="#eac0b5"/><path d="m55.657 336.525v11.553c0 4.724 2.268 8.918 5.775 11.553-7.975-.001-14.44-6.466-14.44-14.441v-5.776c0-7.975 6.465-14.44 14.44-14.441-3.507 2.634-5.775 6.828-5.775 11.552zm23.105 0v-23.105c0-32.153 23.882-58.727 54.875-62.953-2.833-.386-5.725-.586-8.664-.586-35.092 0-63.539 28.448-63.539 63.539v23.105c0 35.092 28.447 63.539 63.539 63.539 2.939 0 5.832-.2 8.664-.586-30.993-4.226-54.875-30.8-54.875-62.953zm51.316-3.063c-1.366 1.365-3.179 2.118-5.106 2.118s-3.74-.752-5.106-2.118c-1.692-1.692-4.435-1.692-6.127 0s-1.692 4.435 0 6.127c3.002 3.002 6.991 4.655 11.232 4.655s8.23-1.653 11.232-4.655c1.692-1.692 1.692-4.435 0-6.127-1.69-1.692-4.433-1.692-6.125 0zm15.287 26.485c-1.692-1.692-4.435-1.692-6.127 0-7.866 7.866-20.665 7.866-28.531 0-1.692-1.692-4.435-1.692-6.127 0s-1.692 4.435 0 6.127c5.622 5.622 13.007 8.433 20.392 8.433s14.77-2.811 20.392-8.433c1.693-1.693 1.693-4.436.001-6.127z" fill="#e1a595"/><path d="m186.712 299.757c-15.617 0-29.274-8.387-36.715-20.902-12.222 12.874-29.5 20.902-48.653 20.902-12.968 0-25.076-3.68-35.337-10.053 4.332-23.081 44.993-43.955 58.966-44.824 30.401 0 63.539 25.87 62.066 54.875-.109.001-.218.002-.327.002z" fill="#fcf6e7"/><path d="m81.738 296.846c-5.588-1.706-10.867-4.121-15.731-7.141 0-22.778 31.763-44.488 58.349-44.82-21.885 8.702-38.293 28.224-42.618 51.961z" fill="#fcf498"/><path d="m385.203 410.735c15.991 0 30.718 5.412 42.45 14.503-31.459 37.012-78.903 64.012-133.153 71.822v-16.963c0-38.307 31.054-69.361 69.361-69.361h21.342z" fill="#0ed1b2"/><path d="m326.729 489.975c-10.409 3.106-21.177 5.493-32.229 7.084v-16.963c0-38.307 31.054-69.361 69.361-69.361h11.458c-28.299 9.924-48.591 36.872-48.591 68.561v10.679z" fill="#0ab59e"/><path d="m443.894 245.026v53.974c0 2.776-2.25 5.026-5.026 5.026h-128.671c-2.776 0-5.026-2.25-5.026-5.026 0-32.585 26.415-59 59-59h74.697c2.775 0 5.026 2.25 5.026 5.026z" fill="#f4aa39"/><path d="m452.512 339.413v5.776c0 7.975-6.465 14.441-14.441 14.441-7.975 0-14.441-6.465-14.441-14.441v-5.776c0-7.975 6.465-14.441 14.441-14.441 7.976 0 14.441 6.466 14.441 14.441z" fill="#f3d6ac"/><path d="m438.072 313.42v23.105c0 28.2-18.371 52.109-43.798 60.413v15.398c0 10.903-8.838 19.741-19.741 19.741-10.903 0-19.741-8.839-19.741-19.741v-15.398c-18.279-5.969-32.912-20.003-39.694-37.899-1.301.385-2.678.592-4.104.592-7.975 0-14.441-6.465-14.441-14.441v-5.776c0-7.975 6.465-14.441 14.441-14.441v-11.553c0-35.092 28.448-63.539 63.539-63.539 35.091-.001 63.539 28.447 63.539 63.539z" fill="#f8e6cc"/><path d="m305.217 336.525v11.553c0 4.724 2.268 8.918 5.775 11.553-7.975-.001-14.44-6.466-14.44-14.441v-5.776c0-7.975 6.465-14.44 14.44-14.441-3.507 2.634-5.775 6.828-5.775 11.552zm23.105 0v-23.105c0-32.153 23.882-58.727 54.875-62.953-2.833-.386-5.725-.586-8.664-.586-35.092 0-63.539 28.448-63.539 63.539v23.105c0 35.092 28.447 63.539 63.539 63.539 2.939 0 5.832-.2 8.664-.586-30.993-4.226-54.875-30.8-54.875-62.953z" fill="#f3d6ac"/><path d="m363.3 339.588c-1.692-1.692-1.692-4.435 0-6.127s4.435-1.692 6.127 0c1.366 1.365 3.179 2.118 5.106 2.118s3.74-.752 5.106-2.118c1.692-1.692 4.435-1.692 6.127 0s1.692 4.435 0 6.127c-3.002 3.002-6.991 4.655-11.232 4.655-4.243.001-8.232-1.652-11.234-4.655zm31.624 20.358c-1.692-1.692-4.435-1.692-6.127 0-7.866 7.866-20.665 7.866-28.531 0-1.692-1.692-4.435-1.692-6.127 0s-1.692 4.435 0 6.127c5.622 5.622 13.007 8.433 20.392 8.433s14.77-2.811 20.392-8.433c1.694-1.692 1.694-4.435.001-6.127z" fill="#eac0b5"/><path d="m437.203 302.889c-12.304-2.357-23.347-8.263-32.023-16.61-9.088 5.014-19.535 7.867-30.648 7.867-11.113 0-21.56-2.853-30.648-7.867-8.676 8.348-19.719 14.253-32.023 16.61 0-29.889 31.166-58.009 62.671-58.009 31.505 0 63.54 24.87 62.671 58.009z" fill="#f4aa39"/><path d="m369.742 240c-39.742 15.979-32.805 52.107-39.007 56.023-5.39 3.404-15.247 7.052-19.052 8.002-.756.189-2.07-.025-2.351-.074-2.363-.41-4.16-2.471-4.16-4.951 0-32.585 26.415-59 59-59z" fill="#fc9302"/><path d="m97.535 326.417c-4.785 0-8.664-3.879-8.664-8.664 0-4.785 3.879-8.664 8.664-8.664 4.785 0 8.664 3.879 8.664 8.664 0 4.784-3.879 8.664-8.664 8.664zm63.539-8.665c0-4.785-3.879-8.664-8.664-8.664-4.785 0-8.664 3.879-8.664 8.664 0 4.785 3.879 8.664 8.664 8.664 4.785.001 8.664-3.879 8.664-8.664zm194.685 0c0-4.785-3.879-8.664-8.664-8.664-4.785 0-8.664 3.879-8.664 8.664 0 4.785 3.879 8.664 8.664 8.664 4.785.001 8.664-3.879 8.664-8.664zm54.875 0c0-4.785-3.879-8.664-8.664-8.664-4.785 0-8.664 3.879-8.664 8.664 0 4.785 3.879 8.664 8.664 8.664 4.785.001 8.664-3.879 8.664-8.664z" fill="#463b83"/><path d="m352.871 69.697c2.393 0 4.332 1.94 4.332 4.332s-1.94 4.332-4.332 4.332c-2.393 0-4.332-1.94-4.332-4.332s1.94-4.332 4.332-4.332zm50.543 4.333c0 2.393 1.94 4.332 4.332 4.332 2.393 0 4.332-1.94 4.332-4.332s-1.94-4.332-4.332-4.332c-2.393-.001-4.332 1.939-4.332 4.332zm-304.435.609c0 2.393 1.94 4.332 4.332 4.332 2.393 0 4.332-1.94 4.332-4.332s-1.94-4.332-4.332-4.332-4.332 1.94-4.332 4.332zm59.207-4.332c2.393 0 4.332 1.94 4.332 4.332s-1.94 4.332-4.332 4.332c-2.393 0-4.332-1.94-4.332-4.332s1.94-4.332 4.332-4.332zm-59.207 243.113c0 2.393 1.94 4.332 4.332 4.332s4.332-1.94 4.332-4.332c0-2.393-1.94-4.332-4.332-4.332s-4.332 1.939-4.332 4.332zm54.875 0c0 2.393 1.94 4.332 4.332 4.332s4.332-1.94 4.332-4.332c0-2.393-1.94-4.332-4.332-4.332s-4.332 1.939-4.332 4.332zm194.685 0c0 2.393 1.94 4.332 4.332 4.332 2.393 0 4.332-1.94 4.332-4.332 0-2.393-1.94-4.332-4.332-4.332s-4.332 1.939-4.332 4.332zm54.875 0c0 2.393 1.94 4.332 4.332 4.332 2.393 0 4.332-1.94 4.332-4.332 0-2.393-1.94-4.332-4.332-4.332-2.393 0-4.332 1.939-4.332 4.332z" fill="#fff5f5"/></svg>