<?xml version="1.0" encoding="iso-8859-1"?>
<!-- Generator: Adobe Illustrator 19.0.0, SVG Export Plug-In . SVG Version: 6.00 Build 0)  -->
<svg version="1.1" id="Layer_1" xmlns="http://www.w3.org/2000/svg" xmlns:xlink="http://www.w3.org/1999/xlink" x="0px" y="0px"
	 viewBox="0 0 508 508" style="enable-background:new 0 0 508 508;" xml:space="preserve">
<circle style="fill:#FFD05B;" cx="254" cy="254" r="254"/>
<path style="fill:#2B3B4E;" d="M387.6,238.8c-10.8,15.2-28.4,24.8-48.4,24.8s-37.6-10-48.4-24.8l4-12.8l27.6-13.2
	c0.4-2.4,3.2-5.6,3.6-5.6c-1.2-2-2.4-4-3.6-6.4c-1.6,0-3.2-1.2-4-3.2c-0.8-1.6-0.8-3.6,0-4.8c-2.8-7.6-4.8-19.6,4.8-28l-4.8,0.8
	c0,0,5.6-10.4,17.2-6.8c0,0-1.2-2-4.8-2.8c0,0,5.2-2.4,8,1.2c0,0,1.6-1.6,0-2.8c0,0,8.8,0.4,16.8,7.6c10.4,10,8,22.8,4.4,31.2
	c0.4,1.2,0.4,2.8-0.4,4c-0.8,1.6-2,2.8-3.2,2.8c-0.8,1.2-2.8,5.2-4,6.4c0,0,2.8,3.6,3.6,5.6l27.6,13.2L387.6,238.8z"/>
<g>
	<path style="fill:#FFFFFF;" d="M430,226.8l25.2-6v-33.6l-25.2-6c-2.4-9.2-6-17.6-10.4-25.6l13.6-22L409.6,110l-22,13.6
		c-8-4.8-16.4-8.4-25.6-10.4L356,88h-33.6l-6,25.2c-9.2,2.4-17.6,6-25.6,10.4l-22-13.6l-23.6,24l13.6,22c-4.8,8-8.4,16.4-10.4,25.6
		l-25.2,6v33.6l25.2,6c2.4,9.2,6,17.6,10.4,25.6L245.2,274l23.6,23.6l22-13.6c8,4.8,16.4,8.4,25.6,10.4l6,25.2H356l6-25.2
		c9.2-2.4,17.6-6,25.6-10.4l22,13.6l23.6-23.6l-13.6-22C424,244.4,427.6,235.6,430,226.8z M338.8,263.6c-32.8,0-59.6-26.8-59.6-59.6
		s26.8-59.6,59.6-59.6s59.6,26.8,59.6,59.6S372,263.6,338.8,263.6z"/>
	<path style="fill:#FFFFFF;" d="M214,331.2l21.2,1.6l8.8-26.4l-18-11.2c0.4-7.6,0-15.2-1.6-22.8l16.4-13.6L228,234l-20.8,4.8
		c-4.8-5.6-10.8-10.8-17.2-14.8l1.6-21.2l-26-8.8l-11.2,18c-7.6-0.4-15.2,0-22.8,1.6l-13.6-16L93.2,210l4.8,20.8
		c-5.6,4.8-10.8,10.8-14.8,17.2L62,246l-8.8,26.4l18,11.2c-0.4,7.6,0,15.2,1.6,22.8L56.4,320l12.4,24.8l20.8-4.8
		c4.8,5.6,10.8,10.8,17.2,14.8l-1.6,21.2l26.4,8.8l11.2-18c7.6,0.4,15.2,0,22.8-1.6l13.6,16.4l24.8-12.4l-4.8-20.8
		C204.8,343.2,210,337.6,214,331.2z M132.8,336.4c-26-8.8-40-36.4-31.2-62.4s36.4-40,62.4-31.2s40,36.4,31.2,62.4
		C186.8,330.8,158.8,344.8,132.8,336.4z"/>
	<path style="fill:#FFFFFF;" d="M320.4,390.8l11.6,0.8l4.8-14.4l-9.6-6c0.4-4,0-8.4-0.8-12.4l8.8-7.6l-6.8-13.2l-11.2,2.4
		c-2.8-3.2-5.6-6-9.2-8l0.8-11.6l-14.4-4.8l-6,9.6c-4-0.4-8.4,0-12.4,0.8l-7.6-8.8l-13.2,6.8l2.4,11.2c-3.2,2.8-6,5.6-8,9.2H238
		l-4.8,14.4l9.6,6c-0.4,4,0,8.4,0.8,12.4l-8.8,7.6l6.8,13.2l11.2-2.4c2.8,3.2,5.6,6,9.2,8l-0.8,11.6l14.4,4.8L282,410
		c4,0.4,8.4,0,12.4-0.8l7.6,8.8l13.2-6.8l-2.4-11.2C315.6,397.6,318.4,394.4,320.4,390.8z M276.8,393.6c-14-4.8-21.6-19.6-16.8-33.6
		c4.8-14,19.6-21.6,33.6-16.8c14,4.8,21.6,19.6,16.8,33.6C305.6,390.8,290.8,398.4,276.8,393.6z"/>
</g>
<g>
</g>
<g>
</g>
<g>
</g>
<g>
</g>
<g>
</g>
<g>
</g>
<g>
</g>
<g>
</g>
<g>
</g>
<g>
</g>
<g>
</g>
<g>
</g>
<g>
</g>
<g>
</g>
<g>
</g>
</svg>
