<?xml version="1.0" encoding="iso-8859-1"?>
<!-- Generator: Adobe Illustrator 19.0.0, SVG Export Plug-In . SVG Version: 6.00 Build 0)  -->
<svg version="1.1" id="Layer_1" xmlns="http://www.w3.org/2000/svg" xmlns:xlink="http://www.w3.org/1999/xlink" x="0px" y="0px"
	 viewBox="0 0 512 512" style="enable-background:new 0 0 512 512;" xml:space="preserve">
<circle style="fill:#FF3D62;" cx="255.996" cy="256" r="255.996"/>
<path style="fill:#C2001B;" d="M512,256.003c0-17.731-1.805-35.04-5.236-51.755L386.815,84.302c-0.006-0.007-0.013-0.016-0.02-0.023
	c-12.068-14.406-30.184-23.573-50.446-23.573c-36.334,0-65.788,29.454-65.788,65.788c0,4.757,0.517,9.392,1.476,13.864
	l-115.252,66.54c-0.853-0.869-1.722-1.721-2.622-2.542c-0.814-0.743-1.644-1.467-2.494-2.169c-1.625-1.341-3.314-2.605-5.065-3.788
	c-0.875-0.591-1.765-1.162-2.669-1.712c-1.211-0.736-2.455-1.418-3.716-2.076c-1.564-0.816-3.156-1.587-4.79-2.278
	c-7.871-3.329-16.524-5.17-25.608-5.17l0,0c-36.334,0-65.788,29.454-65.788,65.788c0,20.238,9.146,38.334,23.521,50.402
	l203.381,203.384c1.332,1.587,2.75,3.099,4.226,4.554C407.597,501.49,512,390.942,512,256.003z"/>
<polygon style="fill:#FFFFFF;" points="348.969,136.306 331.491,106.033 77.017,252.952 331.491,399.873 348.969,369.601 
	146.929,252.952 "/>
<circle style="fill:#FFDF47;" cx="109.828" cy="252.949" r="65.788"/>
<path style="fill:#FEC000;" d="M109.822,187.164v131.577c36.334,0,65.788-29.454,65.788-65.788
	C175.611,216.619,146.157,187.164,109.822,187.164z"/>
<circle style="fill:#FFDF47;" cx="336.348" cy="385.513" r="65.788"/>
<path style="fill:#FEC000;" d="M336.35,319.724v131.577c36.334,0,65.788-29.454,65.788-65.788
	C402.138,349.178,372.684,319.724,336.35,319.724z"/>
<circle style="fill:#FFDF47;" cx="336.348" cy="126.497" r="65.788"/>
<path style="fill:#FEC000;" d="M336.35,60.706v131.577c36.334,0,65.788-29.454,65.788-65.788S372.684,60.706,336.35,60.706z"/>
<g>
</g>
<g>
</g>
<g>
</g>
<g>
</g>
<g>
</g>
<g>
</g>
<g>
</g>
<g>
</g>
<g>
</g>
<g>
</g>
<g>
</g>
<g>
</g>
<g>
</g>
<g>
</g>
<g>
</g>
</svg>
