<svg id="Capa_1" enable-background="new 0 0 512 512" height="512" viewBox="0 0 512 512" width="512" xmlns="http://www.w3.org/2000/svg" xmlns:xlink="http://www.w3.org/1999/xlink"><linearGradient id="SVGID_1_" gradientUnits="userSpaceOnUse" x1="129.04" x2="478.333" y1="492.019" y2="142.725"><stop offset=".0112" stop-color="#e2faeb"/><stop offset=".8941" stop-color="#f1dae9"/><stop offset="1" stop-color="#f3d6e9"/></linearGradient><g><g><path d="m368.718 88.018c-14.578 99.388 82.819 165.463 119.164 252.349 36.415 87.053 5.577 207.782-102.139 161.335-54.748-23.607-94.549-71.286-146.819-100.051-79.065-43.51-205.652 76.206-228.003-55.566-17.973-105.955 142.023-112.905 163.096-191.456 52.052-194.025 213.203-192.756 194.701-66.611z" fill="url(#SVGID_1_)"/></g><g><g><path d="m418.4 407.164c31.552-35.554 50.747-82.311 50.747-133.473 0-111.009-90.312-201.32-201.32-201.32-51.163 0-97.919 19.194-133.474 50.747l-12.933-12.933c-8.205-8.205-21.508-8.205-29.714 0l-16.423 16.423c-34.186 34.187-39.961 86.021-17.333 126.175-9.221 7.622-15.097 19.147-15.097 32.045 0 19.025 12.79 35.053 30.237 39.983 22.68 86.332 101.386 150.2 194.736 150.2 2.624 0 5.232-.067 7.832-.167 41.334 32.292 101.216 29.425 139.251-8.61l16.423-16.423c8.205-8.205 8.205-21.509 0-29.714zm24.762-133.474c0 9.961-.848 19.726-2.451 29.238-4.421-27.329-22.488-50.068-46.989-61.03 2.87-1.861 4.773-5.087 4.773-8.763v-76.22c27.76 31.03 44.667 71.962 44.667 116.775zm-175.335-175.335c44.878 0 85.866 16.956 116.912 44.788h-142.821c-5.768 0-10.445 4.676-10.445 10.445v79.548c0 5.768 4.676 10.445 10.445 10.445h76.91l1.81 1.81c-24.564 13.947-41.147 40.323-41.147 70.589 0 30.147 16.454 56.434 40.859 70.424-10.319 8.682-25.742 8.173-35.454-1.539l-128.243-128.245c-10.257-10.256-10.257-26.886 0-37.142l22.174-22.174c8.205-8.205 8.205-21.508 0-29.714l-26.077-26.077c30.817-26.865 71.079-43.158 115.077-43.158zm-168.127 225.112c5.348-2.118 10.156-5.304 14.147-9.31l133.688 133.688c-70.382-8.149-128.189-58.136-147.835-124.378z" fill="#2a2ab5" opacity=".1"/><g><path d="m267.827 451.01c-111.009 0-201.32-90.312-201.32-201.32s90.312-201.32 201.32-201.32 201.32 90.312 201.32 201.32-90.312 201.32-201.32 201.32zm0-376.655c-96.681 0-175.336 78.655-175.336 175.336s78.655 175.336 175.336 175.336 175.336-78.655 175.336-175.336-78.656-175.336-175.336-175.336z" fill="#9eaffd"/></g><path d="m105.717 316.5c-6.23 3.74-13.52 5.88-21.31 5.88-1.49 0-2.96-.08-4.41-.23-8.71-22.49-13.49-46.93-13.49-72.46 0-2.15.03-4.29.11-6.42 5.39-2.57 11.42-4 17.79-4 2.86 0 5.65.29 8.34.84-.17 3.17-.26 6.37-.26 9.58 0 23.64 4.71 46.21 13.23 66.81z" fill="#8298fd"/><path d="m441.767 311.98c0 41.91-31.77 76.4-72.55 80.69 34.34-24.42 59.54-60.88 69.39-103.17 2.06 7.14 3.16 14.68 3.16 22.48z" fill="#8298fd"/><g><path d="m75.283 102.607 16.423-16.423c8.205-8.205 21.508-8.205 29.714 0l57.407 57.407c8.205 8.205 8.205 21.508 0 29.714l-22.174 22.174c-10.257 10.257-10.256 26.886 0 37.142l128.243 128.243c10.257 10.257 26.886 10.256 37.142 0l22.174-22.174c8.205-8.205 21.508-8.205 29.714 0l57.407 57.407c8.205 8.205 8.205 21.508 0 29.714l-16.423 16.423c-41.141 41.141-107.845 41.141-148.986 0l-190.64-190.64c-41.142-41.142-41.142-107.845-.001-148.987z" fill="#02ffb2"/><path d="m410.907 375.67c-13.83 10.93-31.29 17.45-50.28 17.45-22.81 0-43.43-9.42-58.17-24.58 7.06.27 14.2-2.29 19.58-7.68l22.18-22.17c8.2-8.21 21.5-8.21 29.71 0z" fill="#01eba4"/><path d="m129.088 247.566 140.863 140.863c4.103 4.103 4.103 10.754 0 14.857l-21.488 21.488-155.72-155.72 21.488-21.488c4.103-4.103 10.755-4.103 14.857 0z" fill="#01eba4"/><path d="m166.53 185.601 12.297-12.297c8.205-8.205 8.205-21.508 0-29.714l-57.407-57.406c-8.205-8.205-21.508-8.205-29.714 0l-12.296 12.297z" fill="#dbfced"/><path d="m419.036 438.107 12.297-12.297c8.205-8.205 8.205-21.508 0-29.714l-57.407-57.407c-8.205-8.205-21.508-8.205-29.714 0l-12.297 12.297z" fill="#dbfced"/><path d="m410.907 375.67c-10.74 8.49-23.67 14.32-37.81 16.5l-41.18-41.18 12.3-12.3c8.2-8.21 21.5-8.21 29.71 0z" fill="#96ffd1"/></g><g><circle cx="360.631" cy="291.979" fill="#ff7eb7" r="81.139"/><path d="m398.497 220.21v8.93c0 5.76-4.68 10.44-10.45 10.44h-14.23l-20.11 20.11c-4.08 4.08-10.69 4.08-14.77 0l-20.11-20.11h-20.14c14.88-17.58 37.11-28.74 61.94-28.74 13.68 0 26.57 3.38 37.87 9.37z" fill="#ff5ba7"/><g fill="#ffdaec"><path d="m351.125 307.561h-8.232c5.075-5.258 9.91-11.169 12.06-16.37 2.996-7.251 2.297-15.3-1.869-21.529-3.888-5.813-10.197-9.148-17.311-9.148-11.772 0-21.35 9.578-21.35 21.35 0 4.386 3.556 7.941 7.941 7.941s7.941-3.555 7.941-7.941c0-3.015 2.453-5.467 5.467-5.467 1.797 0 3.18.704 4.109 2.094 1.194 1.787 1.346 4.327.392 6.632-2.479 5.998-14.872 17.753-22.881 24.186-2.628 2.111-3.638 5.649-2.519 8.829 1.118 3.178 4.12 5.306 7.49 5.306h28.761c4.386 0 7.941-3.555 7.941-7.941.001-4.387-3.554-7.942-7.94-7.942z"/><path d="m398.898 260.654c-4.386 0-7.941 3.555-7.941 7.941v12.604h-8.931v-12.604c0-4.386-3.556-7.941-7.941-7.941s-7.941 3.555-7.941 7.941v20.545c0 4.386 3.556 7.941 7.941 7.941h16.872v18.281c0 4.386 3.556 7.941 7.941 7.941 4.386 0 7.941-3.555 7.941-7.941v-46.767c0-4.386-3.556-7.941-7.941-7.941z"/></g></g><g><g><g><g><g><g><path d="m388.051 119.143h-146.133c-5.768 0-10.445 4.676-10.445 10.445v79.548c0 5.768 4.676 10.445 10.445 10.445h76.91l20.11 20.11c4.079 4.079 10.692 4.079 14.771 0l20.11-20.11h14.232c5.768 0 10.445-4.676 10.445-10.445v-79.548c0-5.769-4.676-10.445-10.445-10.445z" fill="#8298fd"/><g><path d="m377.753 218.362v-47.189c0-6.831-.47-12.231-1.4-16.21-.93-3.969-2.768-7.322-5.494-10.058-2.977-2.977-6.706-5.087-11.176-6.33-9.714-2.695-20.075-2.643-29.914-.637-8.157 1.671-17.192 4.742-22.153 11.907-6.329 9.15-.512 23.187 11.082 23.187 14.414 0 20.075-18.55 7.635-26.258 3.384-1.358 9.818-3.227 16.21-1.233 4.961 1.556 8.366 6.194 8.387 11.395v14.612c0 3.353-1.588 5.995-4.752 7.917-13.098 7.959-31.449 8.565-41.539 21.234-4.136 5.181-5.379 12.356-4.084 18.884h18.268l15.803 15.792c6.904-2.204 12.461-6.716 16.67-13.536.125 4.596 1.556 8.262 4.282 10.988.804.804 1.786 1.494 2.945 2.047l15.291-15.291h3.959c-.01-.386-.02-.793-.02-1.221zm-26.822-7.938c-3.603 5.086-6.81 8.021-12.116 9.16-3.791.804-12.105-.522-12.105-9.473 0-8.606 9.87-12.669 14.717-15.782 4.846-2.977 8.011-5.713 9.505-8.189v24.284z" fill="#9eaffd"/></g></g></g></g></g><g><g><path d="m280.139 154.893h-18.583c-2.761 0-5-2.239-5-5s2.239-5 5-5h18.583c2.761 0 5 2.239 5 5s-2.239 5-5 5z" fill="#fff"/></g><g><path d="m320.139 175.275h-58.583c-2.761 0-5-2.239-5-5s2.239-5 5-5h58.583c2.761 0 5 2.239 5 5s-2.239 5-5 5z" fill="#fff"/></g><g><path d="m320.139 195.656h-58.583c-2.761 0-5-2.239-5-5s2.239-5 5-5h58.583c2.761 0 5 2.239 5 5s-2.239 5-5 5z" fill="#fff"/></g></g></g></g><g><circle cx="84.41" cy="260.827" fill="#ff7eb7" r="41.557"/><path d="m425.186 382.879c30.509-35.959 48.961-82.443 48.961-133.188 0-113.766-92.555-206.32-206.319-206.32-50.743 0-97.254 18.428-133.226 48.924l-9.646-9.646c-10.141-10.143-26.643-10.143-36.783 0l-16.425 16.423c-17.246 17.245-28.078 39.104-31.327 63.213-3.015 22.372 1.005 45.485 11.295 65.436-8.551 8.446-13.862 20.166-13.862 33.106 0 20.277 13.034 37.557 31.161 43.929 24.153 87.112 104.115 151.255 198.813 151.255 2.084 0 4.159-.042 6.229-.105 19.569 14.75 42.963 22.133 66.361 22.133 28.258 0 56.517-10.757 78.028-32.27l16.424-16.423c10.141-10.142 10.141-26.644-.001-36.784zm-157.359-329.509c108.251 0 196.319 88.069 196.319 196.32 0 47.988-17.339 91.973-46.049 126.101l-11.206-11.206c23.952-15.315 39.878-42.127 39.878-72.606 0-4.447-.344-8.813-.998-13.078 1.568-9.507 2.391-19.262 2.391-29.21 0-45.403-16.871-86.936-44.666-118.673v-1.43c0-8.516-6.929-15.444-15.445-15.444h-1.432c-31.752-27.863-73.328-44.788-118.792-44.788-43.578 0-83.586 15.547-114.793 41.373l-11.344-11.344c34.14-28.7 78.152-46.015 126.137-46.015zm-85.465 86.686-22.229-22.229c29.369-24.031 66.874-38.472 107.694-38.472 38.691 0 74.408 12.971 103.038 34.788h-40.337c-2.762 0-5 2.238-5 5s2.238 5 5 5h57.522c3.003 0 5.445 2.442 5.445 5.444v79.548c0 3.003-2.442 5.445-5.445 5.445h-14.231c-1.326 0-2.598.526-3.535 1.465l-20.11 20.109c-1.029 1.028-2.396 1.595-3.851 1.595s-2.821-.566-3.851-1.595l-20.109-20.109c-.938-.938-2.209-1.465-3.535-1.465h-76.91c-3.003 0-5.445-2.442-5.445-5.445v-79.548c0-3.002 2.442-5.444 5.445-5.444h58.619c2.762 0 5-2.238 5-5s-2.238-5-5-5h-58.619c-8.517 0-15.445 6.929-15.445 15.444v79.548c0 8.517 6.929 15.445 15.445 15.445h65.182c-19.849 15.79-32.609 40.122-32.609 67.398 0 28.956 14.376 54.601 36.349 70.226-7.546 2.782-16.358 1.173-22.409-4.876l-128.243-128.243c-4.016-4.017-6.228-9.356-6.228-15.036s2.212-11.019 6.228-15.035l22.174-22.174c4.913-4.912 7.619-11.444 7.619-18.392s-2.706-13.48-7.619-18.392zm221.134 69.079v-62.298c21.737 28.6 34.666 64.241 34.666 102.854 0 1.565-.035 3.122-.079 4.677-7.882-16.129-20.659-29.443-36.39-38.009 1.147-2.158 1.803-4.615 1.803-7.224zm-119.005 82.844c0-27.002 14.134-50.756 35.387-64.277l15.524 15.523c3.011 3.012 6.965 4.518 10.921 4.517 3.955 0 7.91-1.506 10.921-4.517l18.646-18.645h12.16c2.013 0 3.931-.398 5.696-1.102 25.434 12.334 43.023 38.386 43.023 68.5 0 41.983-34.155 76.14-76.139 76.14s-76.139-34.156-76.139-76.139zm-236.637-31.152c0-20.157 16.399-36.557 36.557-36.557s36.557 16.399 36.557 36.557-16.399 36.557-36.557 36.557-36.557-16.4-36.557-36.557zm32.296 46.354c1.404.128 2.823.203 4.26.203 4.182 0 8.234-.563 12.093-1.602 21.369 65.14 78.869 114.034 148.714 122.815l17.172 17.172c.056.056.113.109.168.164-85.946-2.278-158.264-60.073-182.407-138.752zm347.648 115.094-16.423 16.423c-18.954 18.953-44.154 29.392-70.958 29.392s-52.004-10.438-70.958-29.392l-130.982-130.982c-1.951-1.953-5.119-1.953-7.07 0-1.953 1.952-1.953 5.118 0 7.07l101.631 101.631c-60.031-12.514-108.563-56.708-127.242-114.257 14.938-7.76 25.171-23.369 25.171-41.333 0-25.672-20.885-46.557-46.557-46.557-9.069 0-17.534 2.616-24.698 7.119-8.701-17.735-12.035-38.067-9.381-57.768 2.954-21.92 12.805-41.795 28.487-57.479l16.424-16.424c6.242-6.242 16.4-6.242 22.643 0l57.407 57.407c3.023 3.024 4.689 7.045 4.689 11.322 0 4.276-1.666 8.297-4.689 11.321l-22.174 22.173c-5.905 5.905-9.157 13.756-9.157 22.106s3.252 16.202 9.157 22.106l128.243 128.243c10.699 10.7 27.278 11.993 39.416 3.909 11.927 6.253 25.479 9.811 39.854 9.811 13.314 0 25.931-3.039 37.198-8.456l29.969 29.969c6.242 6.245 6.242 16.403 0 22.646z" fill="#2a2ab5"/><g><path d="m72.552 265.827c-2.936 2.998-4.754 7.095-4.754 11.613 0 2.761 2.239 5 5 5s5-2.239 5-5c0-3.646 2.966-6.613 6.613-6.613s6.613 2.967 6.613 6.613c0 2.761 2.239 5 5 5s5-2.239 5-5c0-4.518-1.818-8.615-4.755-11.613 2.936-2.998 4.755-7.095 4.755-11.613 0-9.161-7.453-16.613-16.613-16.613s-16.613 7.453-16.613 16.613c-.001 4.518 1.817 8.615 4.754 11.613zm18.471-11.613c0 3.646-2.967 6.613-6.613 6.613s-6.613-2.967-6.613-6.613 2.966-6.613 6.613-6.613 6.613 2.966 6.613 6.613z" fill="#fff"/></g></g></g><path d="m105.7 450.44c-2.762 0-5-2.238-5-5 0-3.492-2.842-6.334-6.334-6.334-2.762 0-5-2.238-5-5s2.238-5 5-5c3.492 0 6.334-2.841 6.334-6.333 0-2.762 2.238-5 5-5s5 2.238 5 5c0 3.492 2.841 6.333 6.333 6.333 2.762 0 5 2.238 5 5s-2.238 5-5 5c-3.492 0-6.333 2.842-6.333 6.334 0 2.762-2.238 5-5 5z" fill="#02ffb2"/><path d="m395.584 54.37c-2.762 0-5-2.238-5-5 0-3.492-2.841-6.333-6.333-6.333-2.762 0-5-2.238-5-5s2.238-5 5-5c3.492 0 6.333-2.842 6.333-6.334 0-2.762 2.238-5 5-5s5 2.238 5 5c0 3.492 2.841 6.334 6.333 6.334 2.762 0 5 2.238 5 5s-2.238 5-5 5c-3.492 0-6.333 2.841-6.333 6.333 0 2.762-2.238 5-5 5z" fill="#02ffb2"/><path d="m460.64 397.334c-2.762 0-5-2.238-5-5 0-3.492-2.841-6.333-6.333-6.333-2.762 0-5-2.238-5-5s2.238-5 5-5c3.492 0 6.333-2.841 6.333-6.333 0-2.762 2.238-5 5-5s5 2.238 5 5c0 3.492 2.841 6.333 6.333 6.333 2.762 0 5 2.238 5 5s-2.238 5-5 5c-3.492 0-6.333 2.841-6.333 6.333 0 2.762-2.239 5-5 5z" fill="#8298fd"/><path d="m71.542 412.759c-1.279 0-2.56-.488-3.535-1.465-1.953-1.952-1.953-5.118 0-7.07l10-10c1.951-1.953 5.119-1.953 7.07 0 1.953 1.952 1.953 5.118 0 7.07l-10 10c-.975.977-2.256 1.465-3.535 1.465z" fill="#8298fd"/><path d="m418.584 77.649c-1.279 0-2.56-.488-3.535-1.465-1.953-1.952-1.953-5.118 0-7.07l10-10c1.951-1.953 5.119-1.953 7.07 0 1.953 1.952 1.953 5.118 0 7.07l-10 10c-.975.977-2.256 1.465-3.535 1.465z" fill="#ff7eb7"/></g></g></svg>