<svg id="Layer_1" enable-background="new 0 0 512 512" height="512" viewBox="0 0 512 512" width="512" xmlns="http://www.w3.org/2000/svg"><g><circle cx="256" cy="175.667" fill="#f0f5ff" r="175.667"/><path d="m256 0c96.863 0 175.667 78.804 175.667 175.667 0 96.862-78.804 175.666-175.667 175.666z" fill="#d8f1fb"/><g fill="#05303d"><path d="m497 482h-17.134v-18.2h9.101c8.284 0 15-6.716 15-15s-6.716-15-15-15h-9.101v-18.2h17.134c8.284 0 15-6.716 15-15s-6.716-15-15-15h-32.134c-8.284 0-15 6.716-15 15v96.4c0 8.284 6.716 15 15 15h32.134c8.284 0 15-6.716 15-15s-6.716-15-15-15z"/><path d="m312.233 385.6c-21.56 0-39.1 17.54-39.1 39.101v72.299c0 8.284 6.716 15 15 15s15-6.716 15-15v-17.134h18.199v17.134c0 8.284 6.716 15 15 15s15-6.716 15-15v-72.3c.001-21.56-17.539-39.1-39.099-39.1zm-9.099 64.266v-25.166c0-5.019 4.082-9.101 9.1-9.101s9.1 4.082 9.1 9.101v25.166z"/><path d="m424.7 385.6h-48.2c-8.284 0-15 6.716-15 15s6.716 15 15 15h9.1v81.4c0 8.284 6.716 15 15 15s15-6.716 15-15v-81.4h9.101c8.284 0 15-6.716 15-15s-6.717-15-15.001-15z"/></g><path d="m63.2 385.6c-8.284 0-15 6.716-15 15v72.3c0 5.018-4.082 9.1-9.101 9.1-5.018 0-9.1-4.082-9.1-9.1v-72.3c0-8.284-6.716-15-15-15s-15 6.716-15 15v72.3c.001 21.56 17.541 39.1 39.101 39.1s39.1-17.54 39.1-39.1v-72.3c0-8.285-6.716-15-15-15z" fill="#08475e"/><path d="m199.767 385.6c-8.284 0-15 6.716-15 15v96.4c0 8.284 6.716 15 15 15 34.849 0 63.2-28.352 63.2-63.2s-28.352-63.2-63.2-63.2zm15 92.814v-59.229c10.79 5.487 18.2 16.702 18.2 29.614s-7.41 24.128-18.2 29.615z" fill="#08475e"/><path d="m127.467 385.6h-16.067c-8.284 0-15 6.716-15 15v96.4c0 8.284 6.716 15 15 15s15-6.716 15-15v-17.134h1.066c26.413 0 47.133-21.511 47.133-47.133.001-26.032-21.048-47.133-47.132-47.133zm0 64.266h-1.067v-34.266h1.066c9.447 0 17.133 7.634 17.133 17.134.001 9.298-7.528 17.132-17.132 17.132z" fill="#08475e"/><path d="m160.667 175.666c0 13.257 2.675 26.091 7.949 38.146 3.321 7.59 12.166 11.05 19.755 7.729 7.59-3.32 11.05-12.165 7.729-19.755-3.605-8.24-5.434-17.029-5.434-26.121 0-34.602 27.044-62.991 61.102-65.181l-6.375 6.375c-5.858 5.857-5.858 15.355 0 21.213 5.857 5.857 15.355 5.857 21.213 0l32.134-32.134c5.858-5.857 5.858-15.355 0-21.213l-32.134-32.134c-5.856-5.856-15.353-5.86-21.213 0-5.858 5.857-5.858 15.355 0 21.213l6.617 6.617c-50.722 2.101-91.343 44.016-91.343 95.245z" fill="#00a8ed"/><path d="m266.606 52.593c-2.928-2.928-6.767-4.393-10.606-4.394v94.267c3.839 0 7.678-1.464 10.606-4.393l32.134-32.134c5.858-5.857 5.858-15.355 0-21.213z" fill="#008eed"/><path d="m351.333 175.667c0-13.257-2.675-26.091-7.949-38.146-3.321-7.59-12.166-11.05-19.755-7.729-7.59 3.32-11.05 12.165-7.729 19.755 3.605 8.24 5.434 17.029 5.434 26.121 0 34.602-27.044 62.991-61.102 65.181l6.375-6.375c5.858-5.857 5.858-15.355 0-21.213-5.857-5.857-15.355-5.857-21.213 0l-32.134 32.134c-5.858 5.857-5.858 15.355 0 21.213l32.134 32.134c5.856 5.856 15.353 5.86 21.213 0 5.858-5.857 5.858-15.355 0-21.213l-6.617-6.617c50.722-2.101 91.343-44.016 91.343-95.245z" fill="#00a8ed"/><path d="m266.606 298.74c5.858-5.857 5.858-15.355 0-21.213l-6.617-6.617c50.723-2.099 91.344-44.014 91.344-95.243 0-13.257-2.675-26.091-7.949-38.146-3.321-7.59-12.166-11.05-19.755-7.729-7.59 3.32-11.05 12.165-7.729 19.755 3.605 8.24 5.434 17.029 5.434 26.121 0 34.602-27.044 62.991-61.102 65.181l6.375-6.375c5.858-5.857 5.858-15.355 0-21.213-2.929-2.929-6.768-4.393-10.606-4.393v94.267c3.837-.001 7.676-1.465 10.605-4.395z" fill="#008eed"/><path d="m256 477.589c4.442-8.641 6.967-18.423 6.967-28.789s-2.525-20.148-6.967-28.789z" fill="#05303d"/></g></svg>