<svg xmlns="http://www.w3.org/2000/svg" width="42" height="41" viewBox="0 0 42 41">
    <g fill="none" fill-rule="evenodd">
        <path fill="#E5E7FD" d="M6.645 5.17c0-.913-.756-1.653-1.69-1.653-.932 0-1.688.74-1.688 1.653v11.565c0 .913.756 1.652 1.689 1.652s1.689-.74 1.689-1.652V5.17zM6.645 26.648c0-.913-.756-1.652-1.69-1.652-.932 0-1.688.739-1.688 1.652v11.565c0 .913.756 1.652 1.689 1.652s1.689-.74 1.689-1.652V26.648z"/>
        <path stroke="#3964F9" stroke-linecap="round" stroke-linejoin="round" stroke-width="3" d="M6.157 2.413h7.73c2.063 0 3.735 1.636 3.735 3.654v7.562c0 2.018-1.672 3.654-3.734 3.654H6.157c-2.063 0-3.735-1.636-3.735-3.654V6.067c0-2.018 1.672-3.654 3.735-3.654z"/>
        <path stroke="#28CC8B" stroke-linecap="round" stroke-linejoin="round" stroke-width="3" d="M6.157 23.891h7.73c2.063 0 3.735 1.636 3.735 3.654v7.562c0 2.018-1.672 3.654-3.734 3.654H6.157c-2.063 0-3.735-1.636-3.735-3.654v-7.562c0-2.018 1.672-3.654 3.735-3.654z"/>
        <path stroke="#3964F9" stroke-linecap="round" stroke-linejoin="round" stroke-width="3" d="M24.378 5.717h15.2M24.378 13.978h15.2M24.378 27.196h15.2M24.378 35.457h15.2"/>
    </g>
</svg>
